M48
; DRILL file {KiCad 5.1.2-f72e74a~84~ubuntu18.04.1} date Di 03 Sep 2019 03:43:11 CEST
; FORMAT={-:-/ absolute / inch / decimal}
; #@! TF.CreationDate,2019-09-03T03:43:11+02:00
; #@! TF.GenerationSoftware,Kicad,Pcbnew,5.1.2-f72e74a~84~ubuntu18.04.1
; #@! TF.FileFunction,Plated,1,2,PTH
FMAT,2
INCH
T1C0.0118
T2C0.0157
T3C0.0315
T4C0.0394
%
G90
G05
T1
X5.045Y-4.335
X6.575Y-3.425
X6.675Y-3.28
X6.69Y-3.365
X6.8858Y-3.3819
X6.92Y-3.38
T2
X4.8031Y-3.1988
X4.9888Y-4.8707
X4.9965Y-3.563
X5.0Y-3.775
X5.025Y-4.0
X5.0328Y-3.3028
X5.9331Y-3.2795
X6.248Y-3.1024
X6.6811Y-5.2677
X6.7441Y-5.1339
X7.1423Y-3.3183
X7.21Y-4.96
X7.464Y-5.372
T3
X4.5563Y-5.1415
X4.5563Y-5.2415
X4.6563Y-5.1915
X4.6563Y-5.2915
X6.0077Y-3.239
X6.0577Y-3.139
X6.1077Y-3.239
X6.1577Y-3.139
X7.5681Y-4.3935
X7.5681Y-4.4935
X7.6681Y-4.4435
X7.6681Y-4.5435
X7.5681Y-3.0746
X7.5681Y-3.1746
X7.6681Y-3.1246
X7.6681Y-3.2246
X4.9447Y-3.239
X4.9947Y-3.139
X5.0447Y-3.239
X5.0947Y-3.139
X5.6533Y-3.239
X5.7033Y-3.139
X5.7533Y-3.239
X5.8033Y-3.139
X7.5681Y-5.4171
X7.5681Y-5.5171
X7.6681Y-5.4671
X7.6681Y-5.5671
X5.299Y-3.239
X5.349Y-3.139
X5.399Y-3.239
X5.449Y-3.139
X6.373Y-3.238
X6.423Y-3.138
X6.473Y-3.238
X6.523Y-3.138
X6.573Y-3.238
X6.623Y-3.138
X4.5563Y-4.0982
X4.5563Y-4.1982
X4.6563Y-4.1482
X4.6563Y-4.2482
X4.5904Y-3.239
X4.6404Y-3.139
X4.6904Y-3.239
X4.7404Y-3.139
T4
X7.3051Y-3.4169
X7.3051Y-3.5169
X7.3051Y-3.6169
X7.3051Y-3.7169
X7.3051Y-3.8169
X7.3051Y-3.9169
X7.3051Y-4.0169
X7.3051Y-4.1169
X7.3051Y-4.2169
X7.3051Y-4.3169
X7.3051Y-4.4169
X7.3051Y-4.5169
X7.3051Y-4.6169
X7.3051Y-4.7169
X7.3051Y-4.8169
X7.3051Y-4.9169
X7.3051Y-5.0169
X7.3051Y-5.1169
X7.3051Y-5.2169
X7.3051Y-5.3169
X7.4051Y-3.4169
X7.4051Y-3.5169
X7.4051Y-3.6169
X7.4051Y-3.7169
X7.4051Y-3.8169
X7.4051Y-3.9169
X7.4051Y-4.0169
X7.4051Y-4.1169
X7.4051Y-4.2169
X7.4051Y-4.3169
X7.4051Y-4.4169
X7.4051Y-4.5169
X7.4051Y-4.6169
X7.4051Y-4.7169
X7.4051Y-4.8169
X7.4051Y-4.9169
X7.4051Y-5.0169
X7.4051Y-5.1169
X7.4051Y-5.2169
X7.4051Y-5.3169
X7.5787Y-4.7244
X7.5787Y-4.8244
X7.5787Y-4.9244
X7.5787Y-5.0244
X7.5787Y-5.1244
X7.5787Y-5.2244
X6.4331Y-4.6795
X6.4331Y-4.7795
X4.6654Y-4.4409
X4.6654Y-4.5409
X4.6654Y-4.6409
X4.6654Y-4.7409
X4.6654Y-4.8409
X4.6654Y-4.9409
X6.9016Y-5.4921
X7.0016Y-5.4921
X7.1016Y-5.4921
X7.2016Y-5.4921
X7.3016Y-5.4921
X7.4016Y-5.4921
X6.4929Y-5.4921
X6.5929Y-5.4921
X6.6929Y-5.4921
X7.5787Y-3.4055
X7.5787Y-3.5055
X7.5787Y-3.6055
X7.5787Y-3.7055
X7.5787Y-3.8055
X7.5787Y-3.9055
X7.5787Y-4.0055
X7.5787Y-4.1055
X7.5787Y-4.2055
X4.8252Y-3.4169
X4.8252Y-3.5169
X4.8252Y-3.6169
X4.8252Y-3.7169
X4.8252Y-3.8169
X4.8252Y-3.9169
X4.8252Y-4.0169
X4.8252Y-4.1169
X4.8252Y-4.2169
X4.8252Y-4.3169
X4.8252Y-4.4169
X4.8252Y-4.5169
X4.8252Y-4.6169
X4.8252Y-4.7169
X4.8252Y-4.8169
X4.8252Y-4.9169
X4.8252Y-5.0169
X4.8252Y-5.1169
X4.8252Y-5.2169
X4.8252Y-5.3169
X4.9252Y-3.4169
X4.9252Y-3.5169
X4.9252Y-3.6169
X4.9252Y-3.7169
X4.9252Y-3.8169
X4.9252Y-3.9169
X4.9252Y-4.0169
X4.9252Y-4.1169
X4.9252Y-4.2169
X4.9252Y-4.3169
X4.9252Y-4.4169
X4.9252Y-4.5169
X4.9252Y-4.6169
X4.9252Y-4.7169
X4.9252Y-4.8169
X4.9252Y-4.9169
X4.9252Y-5.0169
X4.9252Y-5.1169
X4.9252Y-5.2169
X4.9252Y-5.3169
X4.6654Y-3.3976
X4.6654Y-3.4976
X4.6654Y-3.5976
X4.6654Y-3.6976
X4.6654Y-3.7976
X4.6654Y-3.8976
T0
M30
