G04 #@! TF.GenerationSoftware,KiCad,Pcbnew,5.1.2-f72e74a~84~ubuntu18.04.1*
G04 #@! TF.CreationDate,2019-09-03T03:43:08+02:00*
G04 #@! TF.ProjectId,myo_shield_pcb,6d796f5f-7368-4696-956c-645f7063622e,rev?*
G04 #@! TF.SameCoordinates,Original*
G04 #@! TF.FileFunction,Paste,Bot*
G04 #@! TF.FilePolarity,Positive*
%FSLAX46Y46*%
G04 Gerber Fmt 4.6, Leading zero omitted, Abs format (unit mm)*
G04 Created by KiCad (PCBNEW 5.1.2-f72e74a~84~ubuntu18.04.1) date 2019-09-03 03:43:08*
%MOMM*%
%LPD*%
G04 APERTURE LIST*
%ADD10C,0.100000*%
%ADD11C,0.590000*%
G04 APERTURE END LIST*
D10*
G36*
X190546958Y-77780710D02*
G01*
X190561276Y-77782834D01*
X190575317Y-77786351D01*
X190588946Y-77791228D01*
X190602031Y-77797417D01*
X190614447Y-77804858D01*
X190626073Y-77813481D01*
X190636798Y-77823202D01*
X190646519Y-77833927D01*
X190655142Y-77845553D01*
X190662583Y-77857969D01*
X190668772Y-77871054D01*
X190673649Y-77884683D01*
X190677166Y-77898724D01*
X190679290Y-77913042D01*
X190680000Y-77927500D01*
X190680000Y-78272500D01*
X190679290Y-78286958D01*
X190677166Y-78301276D01*
X190673649Y-78315317D01*
X190668772Y-78328946D01*
X190662583Y-78342031D01*
X190655142Y-78354447D01*
X190646519Y-78366073D01*
X190636798Y-78376798D01*
X190626073Y-78386519D01*
X190614447Y-78395142D01*
X190602031Y-78402583D01*
X190588946Y-78408772D01*
X190575317Y-78413649D01*
X190561276Y-78417166D01*
X190546958Y-78419290D01*
X190532500Y-78420000D01*
X190237500Y-78420000D01*
X190223042Y-78419290D01*
X190208724Y-78417166D01*
X190194683Y-78413649D01*
X190181054Y-78408772D01*
X190167969Y-78402583D01*
X190155553Y-78395142D01*
X190143927Y-78386519D01*
X190133202Y-78376798D01*
X190123481Y-78366073D01*
X190114858Y-78354447D01*
X190107417Y-78342031D01*
X190101228Y-78328946D01*
X190096351Y-78315317D01*
X190092834Y-78301276D01*
X190090710Y-78286958D01*
X190090000Y-78272500D01*
X190090000Y-77927500D01*
X190090710Y-77913042D01*
X190092834Y-77898724D01*
X190096351Y-77884683D01*
X190101228Y-77871054D01*
X190107417Y-77857969D01*
X190114858Y-77845553D01*
X190123481Y-77833927D01*
X190133202Y-77823202D01*
X190143927Y-77813481D01*
X190155553Y-77804858D01*
X190167969Y-77797417D01*
X190181054Y-77791228D01*
X190194683Y-77786351D01*
X190208724Y-77782834D01*
X190223042Y-77780710D01*
X190237500Y-77780000D01*
X190532500Y-77780000D01*
X190546958Y-77780710D01*
X190546958Y-77780710D01*
G37*
D11*
X190385000Y-78100000D03*
D10*
G36*
X189576958Y-77780710D02*
G01*
X189591276Y-77782834D01*
X189605317Y-77786351D01*
X189618946Y-77791228D01*
X189632031Y-77797417D01*
X189644447Y-77804858D01*
X189656073Y-77813481D01*
X189666798Y-77823202D01*
X189676519Y-77833927D01*
X189685142Y-77845553D01*
X189692583Y-77857969D01*
X189698772Y-77871054D01*
X189703649Y-77884683D01*
X189707166Y-77898724D01*
X189709290Y-77913042D01*
X189710000Y-77927500D01*
X189710000Y-78272500D01*
X189709290Y-78286958D01*
X189707166Y-78301276D01*
X189703649Y-78315317D01*
X189698772Y-78328946D01*
X189692583Y-78342031D01*
X189685142Y-78354447D01*
X189676519Y-78366073D01*
X189666798Y-78376798D01*
X189656073Y-78386519D01*
X189644447Y-78395142D01*
X189632031Y-78402583D01*
X189618946Y-78408772D01*
X189605317Y-78413649D01*
X189591276Y-78417166D01*
X189576958Y-78419290D01*
X189562500Y-78420000D01*
X189267500Y-78420000D01*
X189253042Y-78419290D01*
X189238724Y-78417166D01*
X189224683Y-78413649D01*
X189211054Y-78408772D01*
X189197969Y-78402583D01*
X189185553Y-78395142D01*
X189173927Y-78386519D01*
X189163202Y-78376798D01*
X189153481Y-78366073D01*
X189144858Y-78354447D01*
X189137417Y-78342031D01*
X189131228Y-78328946D01*
X189126351Y-78315317D01*
X189122834Y-78301276D01*
X189120710Y-78286958D01*
X189120000Y-78272500D01*
X189120000Y-77927500D01*
X189120710Y-77913042D01*
X189122834Y-77898724D01*
X189126351Y-77884683D01*
X189131228Y-77871054D01*
X189137417Y-77857969D01*
X189144858Y-77845553D01*
X189153481Y-77833927D01*
X189163202Y-77823202D01*
X189173927Y-77813481D01*
X189185553Y-77804858D01*
X189197969Y-77797417D01*
X189211054Y-77791228D01*
X189224683Y-77786351D01*
X189238724Y-77782834D01*
X189253042Y-77780710D01*
X189267500Y-77780000D01*
X189562500Y-77780000D01*
X189576958Y-77780710D01*
X189576958Y-77780710D01*
G37*
D11*
X189415000Y-78100000D03*
D10*
G36*
X191777158Y-82789510D02*
G01*
X191791476Y-82791634D01*
X191805517Y-82795151D01*
X191819146Y-82800028D01*
X191832231Y-82806217D01*
X191844647Y-82813658D01*
X191856273Y-82822281D01*
X191866998Y-82832002D01*
X191876719Y-82842727D01*
X191885342Y-82854353D01*
X191892783Y-82866769D01*
X191898972Y-82879854D01*
X191903849Y-82893483D01*
X191907366Y-82907524D01*
X191909490Y-82921842D01*
X191910200Y-82936300D01*
X191910200Y-83281300D01*
X191909490Y-83295758D01*
X191907366Y-83310076D01*
X191903849Y-83324117D01*
X191898972Y-83337746D01*
X191892783Y-83350831D01*
X191885342Y-83363247D01*
X191876719Y-83374873D01*
X191866998Y-83385598D01*
X191856273Y-83395319D01*
X191844647Y-83403942D01*
X191832231Y-83411383D01*
X191819146Y-83417572D01*
X191805517Y-83422449D01*
X191791476Y-83425966D01*
X191777158Y-83428090D01*
X191762700Y-83428800D01*
X191467700Y-83428800D01*
X191453242Y-83428090D01*
X191438924Y-83425966D01*
X191424883Y-83422449D01*
X191411254Y-83417572D01*
X191398169Y-83411383D01*
X191385753Y-83403942D01*
X191374127Y-83395319D01*
X191363402Y-83385598D01*
X191353681Y-83374873D01*
X191345058Y-83363247D01*
X191337617Y-83350831D01*
X191331428Y-83337746D01*
X191326551Y-83324117D01*
X191323034Y-83310076D01*
X191320910Y-83295758D01*
X191320200Y-83281300D01*
X191320200Y-82936300D01*
X191320910Y-82921842D01*
X191323034Y-82907524D01*
X191326551Y-82893483D01*
X191331428Y-82879854D01*
X191337617Y-82866769D01*
X191345058Y-82854353D01*
X191353681Y-82842727D01*
X191363402Y-82832002D01*
X191374127Y-82822281D01*
X191385753Y-82813658D01*
X191398169Y-82806217D01*
X191411254Y-82800028D01*
X191424883Y-82795151D01*
X191438924Y-82791634D01*
X191453242Y-82789510D01*
X191467700Y-82788800D01*
X191762700Y-82788800D01*
X191777158Y-82789510D01*
X191777158Y-82789510D01*
G37*
D11*
X191615200Y-83108800D03*
D10*
G36*
X192747158Y-82789510D02*
G01*
X192761476Y-82791634D01*
X192775517Y-82795151D01*
X192789146Y-82800028D01*
X192802231Y-82806217D01*
X192814647Y-82813658D01*
X192826273Y-82822281D01*
X192836998Y-82832002D01*
X192846719Y-82842727D01*
X192855342Y-82854353D01*
X192862783Y-82866769D01*
X192868972Y-82879854D01*
X192873849Y-82893483D01*
X192877366Y-82907524D01*
X192879490Y-82921842D01*
X192880200Y-82936300D01*
X192880200Y-83281300D01*
X192879490Y-83295758D01*
X192877366Y-83310076D01*
X192873849Y-83324117D01*
X192868972Y-83337746D01*
X192862783Y-83350831D01*
X192855342Y-83363247D01*
X192846719Y-83374873D01*
X192836998Y-83385598D01*
X192826273Y-83395319D01*
X192814647Y-83403942D01*
X192802231Y-83411383D01*
X192789146Y-83417572D01*
X192775517Y-83422449D01*
X192761476Y-83425966D01*
X192747158Y-83428090D01*
X192732700Y-83428800D01*
X192437700Y-83428800D01*
X192423242Y-83428090D01*
X192408924Y-83425966D01*
X192394883Y-83422449D01*
X192381254Y-83417572D01*
X192368169Y-83411383D01*
X192355753Y-83403942D01*
X192344127Y-83395319D01*
X192333402Y-83385598D01*
X192323681Y-83374873D01*
X192315058Y-83363247D01*
X192307617Y-83350831D01*
X192301428Y-83337746D01*
X192296551Y-83324117D01*
X192293034Y-83310076D01*
X192290910Y-83295758D01*
X192290200Y-83281300D01*
X192290200Y-82936300D01*
X192290910Y-82921842D01*
X192293034Y-82907524D01*
X192296551Y-82893483D01*
X192301428Y-82879854D01*
X192307617Y-82866769D01*
X192315058Y-82854353D01*
X192323681Y-82842727D01*
X192333402Y-82832002D01*
X192344127Y-82822281D01*
X192355753Y-82813658D01*
X192368169Y-82806217D01*
X192381254Y-82800028D01*
X192394883Y-82795151D01*
X192408924Y-82791634D01*
X192423242Y-82789510D01*
X192437700Y-82788800D01*
X192732700Y-82788800D01*
X192747158Y-82789510D01*
X192747158Y-82789510D01*
G37*
D11*
X192585200Y-83108800D03*
D10*
G36*
X190396958Y-82480710D02*
G01*
X190411276Y-82482834D01*
X190425317Y-82486351D01*
X190438946Y-82491228D01*
X190452031Y-82497417D01*
X190464447Y-82504858D01*
X190476073Y-82513481D01*
X190486798Y-82523202D01*
X190496519Y-82533927D01*
X190505142Y-82545553D01*
X190512583Y-82557969D01*
X190518772Y-82571054D01*
X190523649Y-82584683D01*
X190527166Y-82598724D01*
X190529290Y-82613042D01*
X190530000Y-82627500D01*
X190530000Y-82972500D01*
X190529290Y-82986958D01*
X190527166Y-83001276D01*
X190523649Y-83015317D01*
X190518772Y-83028946D01*
X190512583Y-83042031D01*
X190505142Y-83054447D01*
X190496519Y-83066073D01*
X190486798Y-83076798D01*
X190476073Y-83086519D01*
X190464447Y-83095142D01*
X190452031Y-83102583D01*
X190438946Y-83108772D01*
X190425317Y-83113649D01*
X190411276Y-83117166D01*
X190396958Y-83119290D01*
X190382500Y-83120000D01*
X190087500Y-83120000D01*
X190073042Y-83119290D01*
X190058724Y-83117166D01*
X190044683Y-83113649D01*
X190031054Y-83108772D01*
X190017969Y-83102583D01*
X190005553Y-83095142D01*
X189993927Y-83086519D01*
X189983202Y-83076798D01*
X189973481Y-83066073D01*
X189964858Y-83054447D01*
X189957417Y-83042031D01*
X189951228Y-83028946D01*
X189946351Y-83015317D01*
X189942834Y-83001276D01*
X189940710Y-82986958D01*
X189940000Y-82972500D01*
X189940000Y-82627500D01*
X189940710Y-82613042D01*
X189942834Y-82598724D01*
X189946351Y-82584683D01*
X189951228Y-82571054D01*
X189957417Y-82557969D01*
X189964858Y-82545553D01*
X189973481Y-82533927D01*
X189983202Y-82523202D01*
X189993927Y-82513481D01*
X190005553Y-82504858D01*
X190017969Y-82497417D01*
X190031054Y-82491228D01*
X190044683Y-82486351D01*
X190058724Y-82482834D01*
X190073042Y-82480710D01*
X190087500Y-82480000D01*
X190382500Y-82480000D01*
X190396958Y-82480710D01*
X190396958Y-82480710D01*
G37*
D11*
X190235000Y-82800000D03*
D10*
G36*
X189426958Y-82480710D02*
G01*
X189441276Y-82482834D01*
X189455317Y-82486351D01*
X189468946Y-82491228D01*
X189482031Y-82497417D01*
X189494447Y-82504858D01*
X189506073Y-82513481D01*
X189516798Y-82523202D01*
X189526519Y-82533927D01*
X189535142Y-82545553D01*
X189542583Y-82557969D01*
X189548772Y-82571054D01*
X189553649Y-82584683D01*
X189557166Y-82598724D01*
X189559290Y-82613042D01*
X189560000Y-82627500D01*
X189560000Y-82972500D01*
X189559290Y-82986958D01*
X189557166Y-83001276D01*
X189553649Y-83015317D01*
X189548772Y-83028946D01*
X189542583Y-83042031D01*
X189535142Y-83054447D01*
X189526519Y-83066073D01*
X189516798Y-83076798D01*
X189506073Y-83086519D01*
X189494447Y-83095142D01*
X189482031Y-83102583D01*
X189468946Y-83108772D01*
X189455317Y-83113649D01*
X189441276Y-83117166D01*
X189426958Y-83119290D01*
X189412500Y-83120000D01*
X189117500Y-83120000D01*
X189103042Y-83119290D01*
X189088724Y-83117166D01*
X189074683Y-83113649D01*
X189061054Y-83108772D01*
X189047969Y-83102583D01*
X189035553Y-83095142D01*
X189023927Y-83086519D01*
X189013202Y-83076798D01*
X189003481Y-83066073D01*
X188994858Y-83054447D01*
X188987417Y-83042031D01*
X188981228Y-83028946D01*
X188976351Y-83015317D01*
X188972834Y-83001276D01*
X188970710Y-82986958D01*
X188970000Y-82972500D01*
X188970000Y-82627500D01*
X188970710Y-82613042D01*
X188972834Y-82598724D01*
X188976351Y-82584683D01*
X188981228Y-82571054D01*
X188987417Y-82557969D01*
X188994858Y-82545553D01*
X189003481Y-82533927D01*
X189013202Y-82523202D01*
X189023927Y-82513481D01*
X189035553Y-82504858D01*
X189047969Y-82497417D01*
X189061054Y-82491228D01*
X189074683Y-82486351D01*
X189088724Y-82482834D01*
X189103042Y-82480710D01*
X189117500Y-82480000D01*
X189412500Y-82480000D01*
X189426958Y-82480710D01*
X189426958Y-82480710D01*
G37*
D11*
X189265000Y-82800000D03*
D10*
G36*
X192436958Y-109220710D02*
G01*
X192451276Y-109222834D01*
X192465317Y-109226351D01*
X192478946Y-109231228D01*
X192492031Y-109237417D01*
X192504447Y-109244858D01*
X192516073Y-109253481D01*
X192526798Y-109263202D01*
X192536519Y-109273927D01*
X192545142Y-109285553D01*
X192552583Y-109297969D01*
X192558772Y-109311054D01*
X192563649Y-109324683D01*
X192567166Y-109338724D01*
X192569290Y-109353042D01*
X192570000Y-109367500D01*
X192570000Y-109662500D01*
X192569290Y-109676958D01*
X192567166Y-109691276D01*
X192563649Y-109705317D01*
X192558772Y-109718946D01*
X192552583Y-109732031D01*
X192545142Y-109744447D01*
X192536519Y-109756073D01*
X192526798Y-109766798D01*
X192516073Y-109776519D01*
X192504447Y-109785142D01*
X192492031Y-109792583D01*
X192478946Y-109798772D01*
X192465317Y-109803649D01*
X192451276Y-109807166D01*
X192436958Y-109809290D01*
X192422500Y-109810000D01*
X192077500Y-109810000D01*
X192063042Y-109809290D01*
X192048724Y-109807166D01*
X192034683Y-109803649D01*
X192021054Y-109798772D01*
X192007969Y-109792583D01*
X191995553Y-109785142D01*
X191983927Y-109776519D01*
X191973202Y-109766798D01*
X191963481Y-109756073D01*
X191954858Y-109744447D01*
X191947417Y-109732031D01*
X191941228Y-109718946D01*
X191936351Y-109705317D01*
X191932834Y-109691276D01*
X191930710Y-109676958D01*
X191930000Y-109662500D01*
X191930000Y-109367500D01*
X191930710Y-109353042D01*
X191932834Y-109338724D01*
X191936351Y-109324683D01*
X191941228Y-109311054D01*
X191947417Y-109297969D01*
X191954858Y-109285553D01*
X191963481Y-109273927D01*
X191973202Y-109263202D01*
X191983927Y-109253481D01*
X191995553Y-109244858D01*
X192007969Y-109237417D01*
X192021054Y-109231228D01*
X192034683Y-109226351D01*
X192048724Y-109222834D01*
X192063042Y-109220710D01*
X192077500Y-109220000D01*
X192422500Y-109220000D01*
X192436958Y-109220710D01*
X192436958Y-109220710D01*
G37*
D11*
X192250000Y-109515000D03*
D10*
G36*
X192436958Y-110190710D02*
G01*
X192451276Y-110192834D01*
X192465317Y-110196351D01*
X192478946Y-110201228D01*
X192492031Y-110207417D01*
X192504447Y-110214858D01*
X192516073Y-110223481D01*
X192526798Y-110233202D01*
X192536519Y-110243927D01*
X192545142Y-110255553D01*
X192552583Y-110267969D01*
X192558772Y-110281054D01*
X192563649Y-110294683D01*
X192567166Y-110308724D01*
X192569290Y-110323042D01*
X192570000Y-110337500D01*
X192570000Y-110632500D01*
X192569290Y-110646958D01*
X192567166Y-110661276D01*
X192563649Y-110675317D01*
X192558772Y-110688946D01*
X192552583Y-110702031D01*
X192545142Y-110714447D01*
X192536519Y-110726073D01*
X192526798Y-110736798D01*
X192516073Y-110746519D01*
X192504447Y-110755142D01*
X192492031Y-110762583D01*
X192478946Y-110768772D01*
X192465317Y-110773649D01*
X192451276Y-110777166D01*
X192436958Y-110779290D01*
X192422500Y-110780000D01*
X192077500Y-110780000D01*
X192063042Y-110779290D01*
X192048724Y-110777166D01*
X192034683Y-110773649D01*
X192021054Y-110768772D01*
X192007969Y-110762583D01*
X191995553Y-110755142D01*
X191983927Y-110746519D01*
X191973202Y-110736798D01*
X191963481Y-110726073D01*
X191954858Y-110714447D01*
X191947417Y-110702031D01*
X191941228Y-110688946D01*
X191936351Y-110675317D01*
X191932834Y-110661276D01*
X191930710Y-110646958D01*
X191930000Y-110632500D01*
X191930000Y-110337500D01*
X191930710Y-110323042D01*
X191932834Y-110308724D01*
X191936351Y-110294683D01*
X191941228Y-110281054D01*
X191947417Y-110267969D01*
X191954858Y-110255553D01*
X191963481Y-110243927D01*
X191973202Y-110233202D01*
X191983927Y-110223481D01*
X191995553Y-110214858D01*
X192007969Y-110207417D01*
X192021054Y-110201228D01*
X192034683Y-110196351D01*
X192048724Y-110192834D01*
X192063042Y-110190710D01*
X192077500Y-110190000D01*
X192422500Y-110190000D01*
X192436958Y-110190710D01*
X192436958Y-110190710D01*
G37*
D11*
X192250000Y-110485000D03*
D10*
G36*
X195586958Y-111090710D02*
G01*
X195601276Y-111092834D01*
X195615317Y-111096351D01*
X195628946Y-111101228D01*
X195642031Y-111107417D01*
X195654447Y-111114858D01*
X195666073Y-111123481D01*
X195676798Y-111133202D01*
X195686519Y-111143927D01*
X195695142Y-111155553D01*
X195702583Y-111167969D01*
X195708772Y-111181054D01*
X195713649Y-111194683D01*
X195717166Y-111208724D01*
X195719290Y-111223042D01*
X195720000Y-111237500D01*
X195720000Y-111532500D01*
X195719290Y-111546958D01*
X195717166Y-111561276D01*
X195713649Y-111575317D01*
X195708772Y-111588946D01*
X195702583Y-111602031D01*
X195695142Y-111614447D01*
X195686519Y-111626073D01*
X195676798Y-111636798D01*
X195666073Y-111646519D01*
X195654447Y-111655142D01*
X195642031Y-111662583D01*
X195628946Y-111668772D01*
X195615317Y-111673649D01*
X195601276Y-111677166D01*
X195586958Y-111679290D01*
X195572500Y-111680000D01*
X195227500Y-111680000D01*
X195213042Y-111679290D01*
X195198724Y-111677166D01*
X195184683Y-111673649D01*
X195171054Y-111668772D01*
X195157969Y-111662583D01*
X195145553Y-111655142D01*
X195133927Y-111646519D01*
X195123202Y-111636798D01*
X195113481Y-111626073D01*
X195104858Y-111614447D01*
X195097417Y-111602031D01*
X195091228Y-111588946D01*
X195086351Y-111575317D01*
X195082834Y-111561276D01*
X195080710Y-111546958D01*
X195080000Y-111532500D01*
X195080000Y-111237500D01*
X195080710Y-111223042D01*
X195082834Y-111208724D01*
X195086351Y-111194683D01*
X195091228Y-111181054D01*
X195097417Y-111167969D01*
X195104858Y-111155553D01*
X195113481Y-111143927D01*
X195123202Y-111133202D01*
X195133927Y-111123481D01*
X195145553Y-111114858D01*
X195157969Y-111107417D01*
X195171054Y-111101228D01*
X195184683Y-111096351D01*
X195198724Y-111092834D01*
X195213042Y-111090710D01*
X195227500Y-111090000D01*
X195572500Y-111090000D01*
X195586958Y-111090710D01*
X195586958Y-111090710D01*
G37*
D11*
X195400000Y-111385000D03*
D10*
G36*
X195586958Y-110120710D02*
G01*
X195601276Y-110122834D01*
X195615317Y-110126351D01*
X195628946Y-110131228D01*
X195642031Y-110137417D01*
X195654447Y-110144858D01*
X195666073Y-110153481D01*
X195676798Y-110163202D01*
X195686519Y-110173927D01*
X195695142Y-110185553D01*
X195702583Y-110197969D01*
X195708772Y-110211054D01*
X195713649Y-110224683D01*
X195717166Y-110238724D01*
X195719290Y-110253042D01*
X195720000Y-110267500D01*
X195720000Y-110562500D01*
X195719290Y-110576958D01*
X195717166Y-110591276D01*
X195713649Y-110605317D01*
X195708772Y-110618946D01*
X195702583Y-110632031D01*
X195695142Y-110644447D01*
X195686519Y-110656073D01*
X195676798Y-110666798D01*
X195666073Y-110676519D01*
X195654447Y-110685142D01*
X195642031Y-110692583D01*
X195628946Y-110698772D01*
X195615317Y-110703649D01*
X195601276Y-110707166D01*
X195586958Y-110709290D01*
X195572500Y-110710000D01*
X195227500Y-110710000D01*
X195213042Y-110709290D01*
X195198724Y-110707166D01*
X195184683Y-110703649D01*
X195171054Y-110698772D01*
X195157969Y-110692583D01*
X195145553Y-110685142D01*
X195133927Y-110676519D01*
X195123202Y-110666798D01*
X195113481Y-110656073D01*
X195104858Y-110644447D01*
X195097417Y-110632031D01*
X195091228Y-110618946D01*
X195086351Y-110605317D01*
X195082834Y-110591276D01*
X195080710Y-110576958D01*
X195080000Y-110562500D01*
X195080000Y-110267500D01*
X195080710Y-110253042D01*
X195082834Y-110238724D01*
X195086351Y-110224683D01*
X195091228Y-110211054D01*
X195097417Y-110197969D01*
X195104858Y-110185553D01*
X195113481Y-110173927D01*
X195123202Y-110163202D01*
X195133927Y-110153481D01*
X195145553Y-110144858D01*
X195157969Y-110137417D01*
X195171054Y-110131228D01*
X195184683Y-110126351D01*
X195198724Y-110122834D01*
X195213042Y-110120710D01*
X195227500Y-110120000D01*
X195572500Y-110120000D01*
X195586958Y-110120710D01*
X195586958Y-110120710D01*
G37*
D11*
X195400000Y-110415000D03*
D10*
G36*
X195426958Y-107630710D02*
G01*
X195441276Y-107632834D01*
X195455317Y-107636351D01*
X195468946Y-107641228D01*
X195482031Y-107647417D01*
X195494447Y-107654858D01*
X195506073Y-107663481D01*
X195516798Y-107673202D01*
X195526519Y-107683927D01*
X195535142Y-107695553D01*
X195542583Y-107707969D01*
X195548772Y-107721054D01*
X195553649Y-107734683D01*
X195557166Y-107748724D01*
X195559290Y-107763042D01*
X195560000Y-107777500D01*
X195560000Y-108122500D01*
X195559290Y-108136958D01*
X195557166Y-108151276D01*
X195553649Y-108165317D01*
X195548772Y-108178946D01*
X195542583Y-108192031D01*
X195535142Y-108204447D01*
X195526519Y-108216073D01*
X195516798Y-108226798D01*
X195506073Y-108236519D01*
X195494447Y-108245142D01*
X195482031Y-108252583D01*
X195468946Y-108258772D01*
X195455317Y-108263649D01*
X195441276Y-108267166D01*
X195426958Y-108269290D01*
X195412500Y-108270000D01*
X195117500Y-108270000D01*
X195103042Y-108269290D01*
X195088724Y-108267166D01*
X195074683Y-108263649D01*
X195061054Y-108258772D01*
X195047969Y-108252583D01*
X195035553Y-108245142D01*
X195023927Y-108236519D01*
X195013202Y-108226798D01*
X195003481Y-108216073D01*
X194994858Y-108204447D01*
X194987417Y-108192031D01*
X194981228Y-108178946D01*
X194976351Y-108165317D01*
X194972834Y-108151276D01*
X194970710Y-108136958D01*
X194970000Y-108122500D01*
X194970000Y-107777500D01*
X194970710Y-107763042D01*
X194972834Y-107748724D01*
X194976351Y-107734683D01*
X194981228Y-107721054D01*
X194987417Y-107707969D01*
X194994858Y-107695553D01*
X195003481Y-107683927D01*
X195013202Y-107673202D01*
X195023927Y-107663481D01*
X195035553Y-107654858D01*
X195047969Y-107647417D01*
X195061054Y-107641228D01*
X195074683Y-107636351D01*
X195088724Y-107632834D01*
X195103042Y-107630710D01*
X195117500Y-107630000D01*
X195412500Y-107630000D01*
X195426958Y-107630710D01*
X195426958Y-107630710D01*
G37*
D11*
X195265000Y-107950000D03*
D10*
G36*
X196396958Y-107630710D02*
G01*
X196411276Y-107632834D01*
X196425317Y-107636351D01*
X196438946Y-107641228D01*
X196452031Y-107647417D01*
X196464447Y-107654858D01*
X196476073Y-107663481D01*
X196486798Y-107673202D01*
X196496519Y-107683927D01*
X196505142Y-107695553D01*
X196512583Y-107707969D01*
X196518772Y-107721054D01*
X196523649Y-107734683D01*
X196527166Y-107748724D01*
X196529290Y-107763042D01*
X196530000Y-107777500D01*
X196530000Y-108122500D01*
X196529290Y-108136958D01*
X196527166Y-108151276D01*
X196523649Y-108165317D01*
X196518772Y-108178946D01*
X196512583Y-108192031D01*
X196505142Y-108204447D01*
X196496519Y-108216073D01*
X196486798Y-108226798D01*
X196476073Y-108236519D01*
X196464447Y-108245142D01*
X196452031Y-108252583D01*
X196438946Y-108258772D01*
X196425317Y-108263649D01*
X196411276Y-108267166D01*
X196396958Y-108269290D01*
X196382500Y-108270000D01*
X196087500Y-108270000D01*
X196073042Y-108269290D01*
X196058724Y-108267166D01*
X196044683Y-108263649D01*
X196031054Y-108258772D01*
X196017969Y-108252583D01*
X196005553Y-108245142D01*
X195993927Y-108236519D01*
X195983202Y-108226798D01*
X195973481Y-108216073D01*
X195964858Y-108204447D01*
X195957417Y-108192031D01*
X195951228Y-108178946D01*
X195946351Y-108165317D01*
X195942834Y-108151276D01*
X195940710Y-108136958D01*
X195940000Y-108122500D01*
X195940000Y-107777500D01*
X195940710Y-107763042D01*
X195942834Y-107748724D01*
X195946351Y-107734683D01*
X195951228Y-107721054D01*
X195957417Y-107707969D01*
X195964858Y-107695553D01*
X195973481Y-107683927D01*
X195983202Y-107673202D01*
X195993927Y-107663481D01*
X196005553Y-107654858D01*
X196017969Y-107647417D01*
X196031054Y-107641228D01*
X196044683Y-107636351D01*
X196058724Y-107632834D01*
X196073042Y-107630710D01*
X196087500Y-107630000D01*
X196382500Y-107630000D01*
X196396958Y-107630710D01*
X196396958Y-107630710D01*
G37*
D11*
X196235000Y-107950000D03*
D10*
G36*
X189986958Y-117990710D02*
G01*
X190001276Y-117992834D01*
X190015317Y-117996351D01*
X190028946Y-118001228D01*
X190042031Y-118007417D01*
X190054447Y-118014858D01*
X190066073Y-118023481D01*
X190076798Y-118033202D01*
X190086519Y-118043927D01*
X190095142Y-118055553D01*
X190102583Y-118067969D01*
X190108772Y-118081054D01*
X190113649Y-118094683D01*
X190117166Y-118108724D01*
X190119290Y-118123042D01*
X190120000Y-118137500D01*
X190120000Y-118432500D01*
X190119290Y-118446958D01*
X190117166Y-118461276D01*
X190113649Y-118475317D01*
X190108772Y-118488946D01*
X190102583Y-118502031D01*
X190095142Y-118514447D01*
X190086519Y-118526073D01*
X190076798Y-118536798D01*
X190066073Y-118546519D01*
X190054447Y-118555142D01*
X190042031Y-118562583D01*
X190028946Y-118568772D01*
X190015317Y-118573649D01*
X190001276Y-118577166D01*
X189986958Y-118579290D01*
X189972500Y-118580000D01*
X189627500Y-118580000D01*
X189613042Y-118579290D01*
X189598724Y-118577166D01*
X189584683Y-118573649D01*
X189571054Y-118568772D01*
X189557969Y-118562583D01*
X189545553Y-118555142D01*
X189533927Y-118546519D01*
X189523202Y-118536798D01*
X189513481Y-118526073D01*
X189504858Y-118514447D01*
X189497417Y-118502031D01*
X189491228Y-118488946D01*
X189486351Y-118475317D01*
X189482834Y-118461276D01*
X189480710Y-118446958D01*
X189480000Y-118432500D01*
X189480000Y-118137500D01*
X189480710Y-118123042D01*
X189482834Y-118108724D01*
X189486351Y-118094683D01*
X189491228Y-118081054D01*
X189497417Y-118067969D01*
X189504858Y-118055553D01*
X189513481Y-118043927D01*
X189523202Y-118033202D01*
X189533927Y-118023481D01*
X189545553Y-118014858D01*
X189557969Y-118007417D01*
X189571054Y-118001228D01*
X189584683Y-117996351D01*
X189598724Y-117992834D01*
X189613042Y-117990710D01*
X189627500Y-117990000D01*
X189972500Y-117990000D01*
X189986958Y-117990710D01*
X189986958Y-117990710D01*
G37*
D11*
X189800000Y-118285000D03*
D10*
G36*
X189986958Y-117020710D02*
G01*
X190001276Y-117022834D01*
X190015317Y-117026351D01*
X190028946Y-117031228D01*
X190042031Y-117037417D01*
X190054447Y-117044858D01*
X190066073Y-117053481D01*
X190076798Y-117063202D01*
X190086519Y-117073927D01*
X190095142Y-117085553D01*
X190102583Y-117097969D01*
X190108772Y-117111054D01*
X190113649Y-117124683D01*
X190117166Y-117138724D01*
X190119290Y-117153042D01*
X190120000Y-117167500D01*
X190120000Y-117462500D01*
X190119290Y-117476958D01*
X190117166Y-117491276D01*
X190113649Y-117505317D01*
X190108772Y-117518946D01*
X190102583Y-117532031D01*
X190095142Y-117544447D01*
X190086519Y-117556073D01*
X190076798Y-117566798D01*
X190066073Y-117576519D01*
X190054447Y-117585142D01*
X190042031Y-117592583D01*
X190028946Y-117598772D01*
X190015317Y-117603649D01*
X190001276Y-117607166D01*
X189986958Y-117609290D01*
X189972500Y-117610000D01*
X189627500Y-117610000D01*
X189613042Y-117609290D01*
X189598724Y-117607166D01*
X189584683Y-117603649D01*
X189571054Y-117598772D01*
X189557969Y-117592583D01*
X189545553Y-117585142D01*
X189533927Y-117576519D01*
X189523202Y-117566798D01*
X189513481Y-117556073D01*
X189504858Y-117544447D01*
X189497417Y-117532031D01*
X189491228Y-117518946D01*
X189486351Y-117505317D01*
X189482834Y-117491276D01*
X189480710Y-117476958D01*
X189480000Y-117462500D01*
X189480000Y-117167500D01*
X189480710Y-117153042D01*
X189482834Y-117138724D01*
X189486351Y-117124683D01*
X189491228Y-117111054D01*
X189497417Y-117097969D01*
X189504858Y-117085553D01*
X189513481Y-117073927D01*
X189523202Y-117063202D01*
X189533927Y-117053481D01*
X189545553Y-117044858D01*
X189557969Y-117037417D01*
X189571054Y-117031228D01*
X189584683Y-117026351D01*
X189598724Y-117022834D01*
X189613042Y-117020710D01*
X189627500Y-117020000D01*
X189972500Y-117020000D01*
X189986958Y-117020710D01*
X189986958Y-117020710D01*
G37*
D11*
X189800000Y-117315000D03*
D10*
G36*
X120176958Y-132830710D02*
G01*
X120191276Y-132832834D01*
X120205317Y-132836351D01*
X120218946Y-132841228D01*
X120232031Y-132847417D01*
X120244447Y-132854858D01*
X120256073Y-132863481D01*
X120266798Y-132873202D01*
X120276519Y-132883927D01*
X120285142Y-132895553D01*
X120292583Y-132907969D01*
X120298772Y-132921054D01*
X120303649Y-132934683D01*
X120307166Y-132948724D01*
X120309290Y-132963042D01*
X120310000Y-132977500D01*
X120310000Y-133322500D01*
X120309290Y-133336958D01*
X120307166Y-133351276D01*
X120303649Y-133365317D01*
X120298772Y-133378946D01*
X120292583Y-133392031D01*
X120285142Y-133404447D01*
X120276519Y-133416073D01*
X120266798Y-133426798D01*
X120256073Y-133436519D01*
X120244447Y-133445142D01*
X120232031Y-133452583D01*
X120218946Y-133458772D01*
X120205317Y-133463649D01*
X120191276Y-133467166D01*
X120176958Y-133469290D01*
X120162500Y-133470000D01*
X119867500Y-133470000D01*
X119853042Y-133469290D01*
X119838724Y-133467166D01*
X119824683Y-133463649D01*
X119811054Y-133458772D01*
X119797969Y-133452583D01*
X119785553Y-133445142D01*
X119773927Y-133436519D01*
X119763202Y-133426798D01*
X119753481Y-133416073D01*
X119744858Y-133404447D01*
X119737417Y-133392031D01*
X119731228Y-133378946D01*
X119726351Y-133365317D01*
X119722834Y-133351276D01*
X119720710Y-133336958D01*
X119720000Y-133322500D01*
X119720000Y-132977500D01*
X119720710Y-132963042D01*
X119722834Y-132948724D01*
X119726351Y-132934683D01*
X119731228Y-132921054D01*
X119737417Y-132907969D01*
X119744858Y-132895553D01*
X119753481Y-132883927D01*
X119763202Y-132873202D01*
X119773927Y-132863481D01*
X119785553Y-132854858D01*
X119797969Y-132847417D01*
X119811054Y-132841228D01*
X119824683Y-132836351D01*
X119838724Y-132832834D01*
X119853042Y-132830710D01*
X119867500Y-132830000D01*
X120162500Y-132830000D01*
X120176958Y-132830710D01*
X120176958Y-132830710D01*
G37*
D11*
X120015000Y-133150000D03*
D10*
G36*
X121146958Y-132830710D02*
G01*
X121161276Y-132832834D01*
X121175317Y-132836351D01*
X121188946Y-132841228D01*
X121202031Y-132847417D01*
X121214447Y-132854858D01*
X121226073Y-132863481D01*
X121236798Y-132873202D01*
X121246519Y-132883927D01*
X121255142Y-132895553D01*
X121262583Y-132907969D01*
X121268772Y-132921054D01*
X121273649Y-132934683D01*
X121277166Y-132948724D01*
X121279290Y-132963042D01*
X121280000Y-132977500D01*
X121280000Y-133322500D01*
X121279290Y-133336958D01*
X121277166Y-133351276D01*
X121273649Y-133365317D01*
X121268772Y-133378946D01*
X121262583Y-133392031D01*
X121255142Y-133404447D01*
X121246519Y-133416073D01*
X121236798Y-133426798D01*
X121226073Y-133436519D01*
X121214447Y-133445142D01*
X121202031Y-133452583D01*
X121188946Y-133458772D01*
X121175317Y-133463649D01*
X121161276Y-133467166D01*
X121146958Y-133469290D01*
X121132500Y-133470000D01*
X120837500Y-133470000D01*
X120823042Y-133469290D01*
X120808724Y-133467166D01*
X120794683Y-133463649D01*
X120781054Y-133458772D01*
X120767969Y-133452583D01*
X120755553Y-133445142D01*
X120743927Y-133436519D01*
X120733202Y-133426798D01*
X120723481Y-133416073D01*
X120714858Y-133404447D01*
X120707417Y-133392031D01*
X120701228Y-133378946D01*
X120696351Y-133365317D01*
X120692834Y-133351276D01*
X120690710Y-133336958D01*
X120690000Y-133322500D01*
X120690000Y-132977500D01*
X120690710Y-132963042D01*
X120692834Y-132948724D01*
X120696351Y-132934683D01*
X120701228Y-132921054D01*
X120707417Y-132907969D01*
X120714858Y-132895553D01*
X120723481Y-132883927D01*
X120733202Y-132873202D01*
X120743927Y-132863481D01*
X120755553Y-132854858D01*
X120767969Y-132847417D01*
X120781054Y-132841228D01*
X120794683Y-132836351D01*
X120808724Y-132832834D01*
X120823042Y-132830710D01*
X120837500Y-132830000D01*
X121132500Y-132830000D01*
X121146958Y-132830710D01*
X121146958Y-132830710D01*
G37*
D11*
X120985000Y-133150000D03*
D10*
G36*
X120486958Y-112290710D02*
G01*
X120501276Y-112292834D01*
X120515317Y-112296351D01*
X120528946Y-112301228D01*
X120542031Y-112307417D01*
X120554447Y-112314858D01*
X120566073Y-112323481D01*
X120576798Y-112333202D01*
X120586519Y-112343927D01*
X120595142Y-112355553D01*
X120602583Y-112367969D01*
X120608772Y-112381054D01*
X120613649Y-112394683D01*
X120617166Y-112408724D01*
X120619290Y-112423042D01*
X120620000Y-112437500D01*
X120620000Y-112732500D01*
X120619290Y-112746958D01*
X120617166Y-112761276D01*
X120613649Y-112775317D01*
X120608772Y-112788946D01*
X120602583Y-112802031D01*
X120595142Y-112814447D01*
X120586519Y-112826073D01*
X120576798Y-112836798D01*
X120566073Y-112846519D01*
X120554447Y-112855142D01*
X120542031Y-112862583D01*
X120528946Y-112868772D01*
X120515317Y-112873649D01*
X120501276Y-112877166D01*
X120486958Y-112879290D01*
X120472500Y-112880000D01*
X120127500Y-112880000D01*
X120113042Y-112879290D01*
X120098724Y-112877166D01*
X120084683Y-112873649D01*
X120071054Y-112868772D01*
X120057969Y-112862583D01*
X120045553Y-112855142D01*
X120033927Y-112846519D01*
X120023202Y-112836798D01*
X120013481Y-112826073D01*
X120004858Y-112814447D01*
X119997417Y-112802031D01*
X119991228Y-112788946D01*
X119986351Y-112775317D01*
X119982834Y-112761276D01*
X119980710Y-112746958D01*
X119980000Y-112732500D01*
X119980000Y-112437500D01*
X119980710Y-112423042D01*
X119982834Y-112408724D01*
X119986351Y-112394683D01*
X119991228Y-112381054D01*
X119997417Y-112367969D01*
X120004858Y-112355553D01*
X120013481Y-112343927D01*
X120023202Y-112333202D01*
X120033927Y-112323481D01*
X120045553Y-112314858D01*
X120057969Y-112307417D01*
X120071054Y-112301228D01*
X120084683Y-112296351D01*
X120098724Y-112292834D01*
X120113042Y-112290710D01*
X120127500Y-112290000D01*
X120472500Y-112290000D01*
X120486958Y-112290710D01*
X120486958Y-112290710D01*
G37*
D11*
X120300000Y-112585000D03*
D10*
G36*
X120486958Y-111320710D02*
G01*
X120501276Y-111322834D01*
X120515317Y-111326351D01*
X120528946Y-111331228D01*
X120542031Y-111337417D01*
X120554447Y-111344858D01*
X120566073Y-111353481D01*
X120576798Y-111363202D01*
X120586519Y-111373927D01*
X120595142Y-111385553D01*
X120602583Y-111397969D01*
X120608772Y-111411054D01*
X120613649Y-111424683D01*
X120617166Y-111438724D01*
X120619290Y-111453042D01*
X120620000Y-111467500D01*
X120620000Y-111762500D01*
X120619290Y-111776958D01*
X120617166Y-111791276D01*
X120613649Y-111805317D01*
X120608772Y-111818946D01*
X120602583Y-111832031D01*
X120595142Y-111844447D01*
X120586519Y-111856073D01*
X120576798Y-111866798D01*
X120566073Y-111876519D01*
X120554447Y-111885142D01*
X120542031Y-111892583D01*
X120528946Y-111898772D01*
X120515317Y-111903649D01*
X120501276Y-111907166D01*
X120486958Y-111909290D01*
X120472500Y-111910000D01*
X120127500Y-111910000D01*
X120113042Y-111909290D01*
X120098724Y-111907166D01*
X120084683Y-111903649D01*
X120071054Y-111898772D01*
X120057969Y-111892583D01*
X120045553Y-111885142D01*
X120033927Y-111876519D01*
X120023202Y-111866798D01*
X120013481Y-111856073D01*
X120004858Y-111844447D01*
X119997417Y-111832031D01*
X119991228Y-111818946D01*
X119986351Y-111805317D01*
X119982834Y-111791276D01*
X119980710Y-111776958D01*
X119980000Y-111762500D01*
X119980000Y-111467500D01*
X119980710Y-111453042D01*
X119982834Y-111438724D01*
X119986351Y-111424683D01*
X119991228Y-111411054D01*
X119997417Y-111397969D01*
X120004858Y-111385553D01*
X120013481Y-111373927D01*
X120023202Y-111363202D01*
X120033927Y-111353481D01*
X120045553Y-111344858D01*
X120057969Y-111337417D01*
X120071054Y-111331228D01*
X120084683Y-111326351D01*
X120098724Y-111322834D01*
X120113042Y-111320710D01*
X120127500Y-111320000D01*
X120472500Y-111320000D01*
X120486958Y-111320710D01*
X120486958Y-111320710D01*
G37*
D11*
X120300000Y-111615000D03*
D10*
G36*
X120846958Y-106730710D02*
G01*
X120861276Y-106732834D01*
X120875317Y-106736351D01*
X120888946Y-106741228D01*
X120902031Y-106747417D01*
X120914447Y-106754858D01*
X120926073Y-106763481D01*
X120936798Y-106773202D01*
X120946519Y-106783927D01*
X120955142Y-106795553D01*
X120962583Y-106807969D01*
X120968772Y-106821054D01*
X120973649Y-106834683D01*
X120977166Y-106848724D01*
X120979290Y-106863042D01*
X120980000Y-106877500D01*
X120980000Y-107222500D01*
X120979290Y-107236958D01*
X120977166Y-107251276D01*
X120973649Y-107265317D01*
X120968772Y-107278946D01*
X120962583Y-107292031D01*
X120955142Y-107304447D01*
X120946519Y-107316073D01*
X120936798Y-107326798D01*
X120926073Y-107336519D01*
X120914447Y-107345142D01*
X120902031Y-107352583D01*
X120888946Y-107358772D01*
X120875317Y-107363649D01*
X120861276Y-107367166D01*
X120846958Y-107369290D01*
X120832500Y-107370000D01*
X120537500Y-107370000D01*
X120523042Y-107369290D01*
X120508724Y-107367166D01*
X120494683Y-107363649D01*
X120481054Y-107358772D01*
X120467969Y-107352583D01*
X120455553Y-107345142D01*
X120443927Y-107336519D01*
X120433202Y-107326798D01*
X120423481Y-107316073D01*
X120414858Y-107304447D01*
X120407417Y-107292031D01*
X120401228Y-107278946D01*
X120396351Y-107265317D01*
X120392834Y-107251276D01*
X120390710Y-107236958D01*
X120390000Y-107222500D01*
X120390000Y-106877500D01*
X120390710Y-106863042D01*
X120392834Y-106848724D01*
X120396351Y-106834683D01*
X120401228Y-106821054D01*
X120407417Y-106807969D01*
X120414858Y-106795553D01*
X120423481Y-106783927D01*
X120433202Y-106773202D01*
X120443927Y-106763481D01*
X120455553Y-106754858D01*
X120467969Y-106747417D01*
X120481054Y-106741228D01*
X120494683Y-106736351D01*
X120508724Y-106732834D01*
X120523042Y-106730710D01*
X120537500Y-106730000D01*
X120832500Y-106730000D01*
X120846958Y-106730710D01*
X120846958Y-106730710D01*
G37*
D11*
X120685000Y-107050000D03*
D10*
G36*
X119876958Y-106730710D02*
G01*
X119891276Y-106732834D01*
X119905317Y-106736351D01*
X119918946Y-106741228D01*
X119932031Y-106747417D01*
X119944447Y-106754858D01*
X119956073Y-106763481D01*
X119966798Y-106773202D01*
X119976519Y-106783927D01*
X119985142Y-106795553D01*
X119992583Y-106807969D01*
X119998772Y-106821054D01*
X120003649Y-106834683D01*
X120007166Y-106848724D01*
X120009290Y-106863042D01*
X120010000Y-106877500D01*
X120010000Y-107222500D01*
X120009290Y-107236958D01*
X120007166Y-107251276D01*
X120003649Y-107265317D01*
X119998772Y-107278946D01*
X119992583Y-107292031D01*
X119985142Y-107304447D01*
X119976519Y-107316073D01*
X119966798Y-107326798D01*
X119956073Y-107336519D01*
X119944447Y-107345142D01*
X119932031Y-107352583D01*
X119918946Y-107358772D01*
X119905317Y-107363649D01*
X119891276Y-107367166D01*
X119876958Y-107369290D01*
X119862500Y-107370000D01*
X119567500Y-107370000D01*
X119553042Y-107369290D01*
X119538724Y-107367166D01*
X119524683Y-107363649D01*
X119511054Y-107358772D01*
X119497969Y-107352583D01*
X119485553Y-107345142D01*
X119473927Y-107336519D01*
X119463202Y-107326798D01*
X119453481Y-107316073D01*
X119444858Y-107304447D01*
X119437417Y-107292031D01*
X119431228Y-107278946D01*
X119426351Y-107265317D01*
X119422834Y-107251276D01*
X119420710Y-107236958D01*
X119420000Y-107222500D01*
X119420000Y-106877500D01*
X119420710Y-106863042D01*
X119422834Y-106848724D01*
X119426351Y-106834683D01*
X119431228Y-106821054D01*
X119437417Y-106807969D01*
X119444858Y-106795553D01*
X119453481Y-106783927D01*
X119463202Y-106773202D01*
X119473927Y-106763481D01*
X119485553Y-106754858D01*
X119497969Y-106747417D01*
X119511054Y-106741228D01*
X119524683Y-106736351D01*
X119538724Y-106732834D01*
X119553042Y-106730710D01*
X119567500Y-106730000D01*
X119862500Y-106730000D01*
X119876958Y-106730710D01*
X119876958Y-106730710D01*
G37*
D11*
X119715000Y-107050000D03*
M02*
