G04 #@! TF.GenerationSoftware,KiCad,Pcbnew,5.1.0-060a0da~80~ubuntu18.04.1*
G04 #@! TF.CreationDate,2019-05-11T22:14:08+02:00*
G04 #@! TF.ProjectId,myo_shield_pcb,6d796f5f-7368-4696-956c-645f7063622e,rev?*
G04 #@! TF.SameCoordinates,Original*
G04 #@! TF.FileFunction,Paste,Top*
G04 #@! TF.FilePolarity,Positive*
%FSLAX46Y46*%
G04 Gerber Fmt 4.6, Leading zero omitted, Abs format (unit mm)*
G04 Created by KiCad (PCBNEW 5.1.0-060a0da~80~ubuntu18.04.1) date 2019-05-11 22:14:08*
%MOMM*%
%LPD*%
G04 APERTURE LIST*
%ADD10C,0.100000*%
%ADD11C,0.270000*%
%ADD12R,0.850000X1.600000*%
G04 APERTURE END LIST*
D10*
G36*
X196199116Y-134115325D02*
G01*
X196205669Y-134116297D01*
X196212094Y-134117907D01*
X196218331Y-134120138D01*
X196224319Y-134122970D01*
X196230001Y-134126376D01*
X196235322Y-134130322D01*
X196240230Y-134134770D01*
X196244678Y-134139678D01*
X196248624Y-134144999D01*
X196252030Y-134150681D01*
X196254862Y-134156669D01*
X196257093Y-134162906D01*
X196258703Y-134169331D01*
X196259675Y-134175884D01*
X196260000Y-134182500D01*
X196260000Y-134317500D01*
X196259675Y-134324116D01*
X196258703Y-134330669D01*
X196257093Y-134337094D01*
X196254862Y-134343331D01*
X196252030Y-134349319D01*
X196248624Y-134355001D01*
X196244678Y-134360322D01*
X196240230Y-134365230D01*
X196235322Y-134369678D01*
X196230001Y-134373624D01*
X196224319Y-134377030D01*
X196218331Y-134379862D01*
X196212094Y-134382093D01*
X196205669Y-134383703D01*
X196199116Y-134384675D01*
X196192500Y-134385000D01*
X196057500Y-134385000D01*
X196050884Y-134384675D01*
X196044331Y-134383703D01*
X196037906Y-134382093D01*
X196031669Y-134379862D01*
X196025681Y-134377030D01*
X196019999Y-134373624D01*
X196014678Y-134369678D01*
X196009770Y-134365230D01*
X196005322Y-134360322D01*
X196001376Y-134355001D01*
X195997970Y-134349319D01*
X195995138Y-134343331D01*
X195992907Y-134337094D01*
X195991297Y-134330669D01*
X195990325Y-134324116D01*
X195990000Y-134317500D01*
X195990000Y-134182500D01*
X195990325Y-134175884D01*
X195991297Y-134169331D01*
X195992907Y-134162906D01*
X195995138Y-134156669D01*
X195997970Y-134150681D01*
X196001376Y-134144999D01*
X196005322Y-134139678D01*
X196009770Y-134134770D01*
X196014678Y-134130322D01*
X196019999Y-134126376D01*
X196025681Y-134122970D01*
X196031669Y-134120138D01*
X196037906Y-134117907D01*
X196044331Y-134116297D01*
X196050884Y-134115325D01*
X196057500Y-134115000D01*
X196192500Y-134115000D01*
X196199116Y-134115325D01*
X196199116Y-134115325D01*
G37*
D11*
X196125000Y-134250000D03*
D10*
G36*
X195649116Y-134115325D02*
G01*
X195655669Y-134116297D01*
X195662094Y-134117907D01*
X195668331Y-134120138D01*
X195674319Y-134122970D01*
X195680001Y-134126376D01*
X195685322Y-134130322D01*
X195690230Y-134134770D01*
X195694678Y-134139678D01*
X195698624Y-134144999D01*
X195702030Y-134150681D01*
X195704862Y-134156669D01*
X195707093Y-134162906D01*
X195708703Y-134169331D01*
X195709675Y-134175884D01*
X195710000Y-134182500D01*
X195710000Y-134317500D01*
X195709675Y-134324116D01*
X195708703Y-134330669D01*
X195707093Y-134337094D01*
X195704862Y-134343331D01*
X195702030Y-134349319D01*
X195698624Y-134355001D01*
X195694678Y-134360322D01*
X195690230Y-134365230D01*
X195685322Y-134369678D01*
X195680001Y-134373624D01*
X195674319Y-134377030D01*
X195668331Y-134379862D01*
X195662094Y-134382093D01*
X195655669Y-134383703D01*
X195649116Y-134384675D01*
X195642500Y-134385000D01*
X195507500Y-134385000D01*
X195500884Y-134384675D01*
X195494331Y-134383703D01*
X195487906Y-134382093D01*
X195481669Y-134379862D01*
X195475681Y-134377030D01*
X195469999Y-134373624D01*
X195464678Y-134369678D01*
X195459770Y-134365230D01*
X195455322Y-134360322D01*
X195451376Y-134355001D01*
X195447970Y-134349319D01*
X195445138Y-134343331D01*
X195442907Y-134337094D01*
X195441297Y-134330669D01*
X195440325Y-134324116D01*
X195440000Y-134317500D01*
X195440000Y-134182500D01*
X195440325Y-134175884D01*
X195441297Y-134169331D01*
X195442907Y-134162906D01*
X195445138Y-134156669D01*
X195447970Y-134150681D01*
X195451376Y-134144999D01*
X195455322Y-134139678D01*
X195459770Y-134134770D01*
X195464678Y-134130322D01*
X195469999Y-134126376D01*
X195475681Y-134122970D01*
X195481669Y-134120138D01*
X195487906Y-134117907D01*
X195494331Y-134116297D01*
X195500884Y-134115325D01*
X195507500Y-134115000D01*
X195642500Y-134115000D01*
X195649116Y-134115325D01*
X195649116Y-134115325D01*
G37*
D11*
X195575000Y-134250000D03*
D10*
G36*
X190374116Y-134340325D02*
G01*
X190380669Y-134341297D01*
X190387094Y-134342907D01*
X190393331Y-134345138D01*
X190399319Y-134347970D01*
X190405001Y-134351376D01*
X190410322Y-134355322D01*
X190415230Y-134359770D01*
X190419678Y-134364678D01*
X190423624Y-134369999D01*
X190427030Y-134375681D01*
X190429862Y-134381669D01*
X190432093Y-134387906D01*
X190433703Y-134394331D01*
X190434675Y-134400884D01*
X190435000Y-134407500D01*
X190435000Y-134542500D01*
X190434675Y-134549116D01*
X190433703Y-134555669D01*
X190432093Y-134562094D01*
X190429862Y-134568331D01*
X190427030Y-134574319D01*
X190423624Y-134580001D01*
X190419678Y-134585322D01*
X190415230Y-134590230D01*
X190410322Y-134594678D01*
X190405001Y-134598624D01*
X190399319Y-134602030D01*
X190393331Y-134604862D01*
X190387094Y-134607093D01*
X190380669Y-134608703D01*
X190374116Y-134609675D01*
X190367500Y-134610000D01*
X190232500Y-134610000D01*
X190225884Y-134609675D01*
X190219331Y-134608703D01*
X190212906Y-134607093D01*
X190206669Y-134604862D01*
X190200681Y-134602030D01*
X190194999Y-134598624D01*
X190189678Y-134594678D01*
X190184770Y-134590230D01*
X190180322Y-134585322D01*
X190176376Y-134580001D01*
X190172970Y-134574319D01*
X190170138Y-134568331D01*
X190167907Y-134562094D01*
X190166297Y-134555669D01*
X190165325Y-134549116D01*
X190165000Y-134542500D01*
X190165000Y-134407500D01*
X190165325Y-134400884D01*
X190166297Y-134394331D01*
X190167907Y-134387906D01*
X190170138Y-134381669D01*
X190172970Y-134375681D01*
X190176376Y-134369999D01*
X190180322Y-134364678D01*
X190184770Y-134359770D01*
X190189678Y-134355322D01*
X190194999Y-134351376D01*
X190200681Y-134347970D01*
X190206669Y-134345138D01*
X190212906Y-134342907D01*
X190219331Y-134341297D01*
X190225884Y-134340325D01*
X190232500Y-134340000D01*
X190367500Y-134340000D01*
X190374116Y-134340325D01*
X190374116Y-134340325D01*
G37*
D11*
X190300000Y-134475000D03*
D10*
G36*
X190374116Y-134890325D02*
G01*
X190380669Y-134891297D01*
X190387094Y-134892907D01*
X190393331Y-134895138D01*
X190399319Y-134897970D01*
X190405001Y-134901376D01*
X190410322Y-134905322D01*
X190415230Y-134909770D01*
X190419678Y-134914678D01*
X190423624Y-134919999D01*
X190427030Y-134925681D01*
X190429862Y-134931669D01*
X190432093Y-134937906D01*
X190433703Y-134944331D01*
X190434675Y-134950884D01*
X190435000Y-134957500D01*
X190435000Y-135092500D01*
X190434675Y-135099116D01*
X190433703Y-135105669D01*
X190432093Y-135112094D01*
X190429862Y-135118331D01*
X190427030Y-135124319D01*
X190423624Y-135130001D01*
X190419678Y-135135322D01*
X190415230Y-135140230D01*
X190410322Y-135144678D01*
X190405001Y-135148624D01*
X190399319Y-135152030D01*
X190393331Y-135154862D01*
X190387094Y-135157093D01*
X190380669Y-135158703D01*
X190374116Y-135159675D01*
X190367500Y-135160000D01*
X190232500Y-135160000D01*
X190225884Y-135159675D01*
X190219331Y-135158703D01*
X190212906Y-135157093D01*
X190206669Y-135154862D01*
X190200681Y-135152030D01*
X190194999Y-135148624D01*
X190189678Y-135144678D01*
X190184770Y-135140230D01*
X190180322Y-135135322D01*
X190176376Y-135130001D01*
X190172970Y-135124319D01*
X190170138Y-135118331D01*
X190167907Y-135112094D01*
X190166297Y-135105669D01*
X190165325Y-135099116D01*
X190165000Y-135092500D01*
X190165000Y-134957500D01*
X190165325Y-134950884D01*
X190166297Y-134944331D01*
X190167907Y-134937906D01*
X190170138Y-134931669D01*
X190172970Y-134925681D01*
X190176376Y-134919999D01*
X190180322Y-134914678D01*
X190184770Y-134909770D01*
X190189678Y-134905322D01*
X190194999Y-134901376D01*
X190200681Y-134897970D01*
X190206669Y-134895138D01*
X190212906Y-134892907D01*
X190219331Y-134891297D01*
X190225884Y-134890325D01*
X190232500Y-134890000D01*
X190367500Y-134890000D01*
X190374116Y-134890325D01*
X190374116Y-134890325D01*
G37*
D11*
X190300000Y-135025000D03*
D10*
G36*
X122549116Y-136715325D02*
G01*
X122555669Y-136716297D01*
X122562094Y-136717907D01*
X122568331Y-136720138D01*
X122574319Y-136722970D01*
X122580001Y-136726376D01*
X122585322Y-136730322D01*
X122590230Y-136734770D01*
X122594678Y-136739678D01*
X122598624Y-136744999D01*
X122602030Y-136750681D01*
X122604862Y-136756669D01*
X122607093Y-136762906D01*
X122608703Y-136769331D01*
X122609675Y-136775884D01*
X122610000Y-136782500D01*
X122610000Y-136917500D01*
X122609675Y-136924116D01*
X122608703Y-136930669D01*
X122607093Y-136937094D01*
X122604862Y-136943331D01*
X122602030Y-136949319D01*
X122598624Y-136955001D01*
X122594678Y-136960322D01*
X122590230Y-136965230D01*
X122585322Y-136969678D01*
X122580001Y-136973624D01*
X122574319Y-136977030D01*
X122568331Y-136979862D01*
X122562094Y-136982093D01*
X122555669Y-136983703D01*
X122549116Y-136984675D01*
X122542500Y-136985000D01*
X122407500Y-136985000D01*
X122400884Y-136984675D01*
X122394331Y-136983703D01*
X122387906Y-136982093D01*
X122381669Y-136979862D01*
X122375681Y-136977030D01*
X122369999Y-136973624D01*
X122364678Y-136969678D01*
X122359770Y-136965230D01*
X122355322Y-136960322D01*
X122351376Y-136955001D01*
X122347970Y-136949319D01*
X122345138Y-136943331D01*
X122342907Y-136937094D01*
X122341297Y-136930669D01*
X122340325Y-136924116D01*
X122340000Y-136917500D01*
X122340000Y-136782500D01*
X122340325Y-136775884D01*
X122341297Y-136769331D01*
X122342907Y-136762906D01*
X122345138Y-136756669D01*
X122347970Y-136750681D01*
X122351376Y-136744999D01*
X122355322Y-136739678D01*
X122359770Y-136734770D01*
X122364678Y-136730322D01*
X122369999Y-136726376D01*
X122375681Y-136722970D01*
X122381669Y-136720138D01*
X122387906Y-136717907D01*
X122394331Y-136716297D01*
X122400884Y-136715325D01*
X122407500Y-136715000D01*
X122542500Y-136715000D01*
X122549116Y-136715325D01*
X122549116Y-136715325D01*
G37*
D11*
X122475000Y-136850000D03*
D10*
G36*
X123099116Y-136715325D02*
G01*
X123105669Y-136716297D01*
X123112094Y-136717907D01*
X123118331Y-136720138D01*
X123124319Y-136722970D01*
X123130001Y-136726376D01*
X123135322Y-136730322D01*
X123140230Y-136734770D01*
X123144678Y-136739678D01*
X123148624Y-136744999D01*
X123152030Y-136750681D01*
X123154862Y-136756669D01*
X123157093Y-136762906D01*
X123158703Y-136769331D01*
X123159675Y-136775884D01*
X123160000Y-136782500D01*
X123160000Y-136917500D01*
X123159675Y-136924116D01*
X123158703Y-136930669D01*
X123157093Y-136937094D01*
X123154862Y-136943331D01*
X123152030Y-136949319D01*
X123148624Y-136955001D01*
X123144678Y-136960322D01*
X123140230Y-136965230D01*
X123135322Y-136969678D01*
X123130001Y-136973624D01*
X123124319Y-136977030D01*
X123118331Y-136979862D01*
X123112094Y-136982093D01*
X123105669Y-136983703D01*
X123099116Y-136984675D01*
X123092500Y-136985000D01*
X122957500Y-136985000D01*
X122950884Y-136984675D01*
X122944331Y-136983703D01*
X122937906Y-136982093D01*
X122931669Y-136979862D01*
X122925681Y-136977030D01*
X122919999Y-136973624D01*
X122914678Y-136969678D01*
X122909770Y-136965230D01*
X122905322Y-136960322D01*
X122901376Y-136955001D01*
X122897970Y-136949319D01*
X122895138Y-136943331D01*
X122892907Y-136937094D01*
X122891297Y-136930669D01*
X122890325Y-136924116D01*
X122890000Y-136917500D01*
X122890000Y-136782500D01*
X122890325Y-136775884D01*
X122891297Y-136769331D01*
X122892907Y-136762906D01*
X122895138Y-136756669D01*
X122897970Y-136750681D01*
X122901376Y-136744999D01*
X122905322Y-136739678D01*
X122909770Y-136734770D01*
X122914678Y-136730322D01*
X122919999Y-136726376D01*
X122925681Y-136722970D01*
X122931669Y-136720138D01*
X122937906Y-136717907D01*
X122944331Y-136716297D01*
X122950884Y-136715325D01*
X122957500Y-136715000D01*
X123092500Y-136715000D01*
X123099116Y-136715325D01*
X123099116Y-136715325D01*
G37*
D11*
X123025000Y-136850000D03*
D10*
G36*
X120449116Y-131015325D02*
G01*
X120455669Y-131016297D01*
X120462094Y-131017907D01*
X120468331Y-131020138D01*
X120474319Y-131022970D01*
X120480001Y-131026376D01*
X120485322Y-131030322D01*
X120490230Y-131034770D01*
X120494678Y-131039678D01*
X120498624Y-131044999D01*
X120502030Y-131050681D01*
X120504862Y-131056669D01*
X120507093Y-131062906D01*
X120508703Y-131069331D01*
X120509675Y-131075884D01*
X120510000Y-131082500D01*
X120510000Y-131217500D01*
X120509675Y-131224116D01*
X120508703Y-131230669D01*
X120507093Y-131237094D01*
X120504862Y-131243331D01*
X120502030Y-131249319D01*
X120498624Y-131255001D01*
X120494678Y-131260322D01*
X120490230Y-131265230D01*
X120485322Y-131269678D01*
X120480001Y-131273624D01*
X120474319Y-131277030D01*
X120468331Y-131279862D01*
X120462094Y-131282093D01*
X120455669Y-131283703D01*
X120449116Y-131284675D01*
X120442500Y-131285000D01*
X120307500Y-131285000D01*
X120300884Y-131284675D01*
X120294331Y-131283703D01*
X120287906Y-131282093D01*
X120281669Y-131279862D01*
X120275681Y-131277030D01*
X120269999Y-131273624D01*
X120264678Y-131269678D01*
X120259770Y-131265230D01*
X120255322Y-131260322D01*
X120251376Y-131255001D01*
X120247970Y-131249319D01*
X120245138Y-131243331D01*
X120242907Y-131237094D01*
X120241297Y-131230669D01*
X120240325Y-131224116D01*
X120240000Y-131217500D01*
X120240000Y-131082500D01*
X120240325Y-131075884D01*
X120241297Y-131069331D01*
X120242907Y-131062906D01*
X120245138Y-131056669D01*
X120247970Y-131050681D01*
X120251376Y-131044999D01*
X120255322Y-131039678D01*
X120259770Y-131034770D01*
X120264678Y-131030322D01*
X120269999Y-131026376D01*
X120275681Y-131022970D01*
X120281669Y-131020138D01*
X120287906Y-131017907D01*
X120294331Y-131016297D01*
X120300884Y-131015325D01*
X120307500Y-131015000D01*
X120442500Y-131015000D01*
X120449116Y-131015325D01*
X120449116Y-131015325D01*
G37*
D11*
X120375000Y-131150000D03*
D10*
G36*
X120999116Y-131015325D02*
G01*
X121005669Y-131016297D01*
X121012094Y-131017907D01*
X121018331Y-131020138D01*
X121024319Y-131022970D01*
X121030001Y-131026376D01*
X121035322Y-131030322D01*
X121040230Y-131034770D01*
X121044678Y-131039678D01*
X121048624Y-131044999D01*
X121052030Y-131050681D01*
X121054862Y-131056669D01*
X121057093Y-131062906D01*
X121058703Y-131069331D01*
X121059675Y-131075884D01*
X121060000Y-131082500D01*
X121060000Y-131217500D01*
X121059675Y-131224116D01*
X121058703Y-131230669D01*
X121057093Y-131237094D01*
X121054862Y-131243331D01*
X121052030Y-131249319D01*
X121048624Y-131255001D01*
X121044678Y-131260322D01*
X121040230Y-131265230D01*
X121035322Y-131269678D01*
X121030001Y-131273624D01*
X121024319Y-131277030D01*
X121018331Y-131279862D01*
X121012094Y-131282093D01*
X121005669Y-131283703D01*
X120999116Y-131284675D01*
X120992500Y-131285000D01*
X120857500Y-131285000D01*
X120850884Y-131284675D01*
X120844331Y-131283703D01*
X120837906Y-131282093D01*
X120831669Y-131279862D01*
X120825681Y-131277030D01*
X120819999Y-131273624D01*
X120814678Y-131269678D01*
X120809770Y-131265230D01*
X120805322Y-131260322D01*
X120801376Y-131255001D01*
X120797970Y-131249319D01*
X120795138Y-131243331D01*
X120792907Y-131237094D01*
X120791297Y-131230669D01*
X120790325Y-131224116D01*
X120790000Y-131217500D01*
X120790000Y-131082500D01*
X120790325Y-131075884D01*
X120791297Y-131069331D01*
X120792907Y-131062906D01*
X120795138Y-131056669D01*
X120797970Y-131050681D01*
X120801376Y-131044999D01*
X120805322Y-131039678D01*
X120809770Y-131034770D01*
X120814678Y-131030322D01*
X120819999Y-131026376D01*
X120825681Y-131022970D01*
X120831669Y-131020138D01*
X120837906Y-131017907D01*
X120844331Y-131016297D01*
X120850884Y-131015325D01*
X120857500Y-131015000D01*
X120992500Y-131015000D01*
X120999116Y-131015325D01*
X120999116Y-131015325D01*
G37*
D11*
X120925000Y-131150000D03*
D10*
G36*
X117449116Y-110515325D02*
G01*
X117455669Y-110516297D01*
X117462094Y-110517907D01*
X117468331Y-110520138D01*
X117474319Y-110522970D01*
X117480001Y-110526376D01*
X117485322Y-110530322D01*
X117490230Y-110534770D01*
X117494678Y-110539678D01*
X117498624Y-110544999D01*
X117502030Y-110550681D01*
X117504862Y-110556669D01*
X117507093Y-110562906D01*
X117508703Y-110569331D01*
X117509675Y-110575884D01*
X117510000Y-110582500D01*
X117510000Y-110717500D01*
X117509675Y-110724116D01*
X117508703Y-110730669D01*
X117507093Y-110737094D01*
X117504862Y-110743331D01*
X117502030Y-110749319D01*
X117498624Y-110755001D01*
X117494678Y-110760322D01*
X117490230Y-110765230D01*
X117485322Y-110769678D01*
X117480001Y-110773624D01*
X117474319Y-110777030D01*
X117468331Y-110779862D01*
X117462094Y-110782093D01*
X117455669Y-110783703D01*
X117449116Y-110784675D01*
X117442500Y-110785000D01*
X117307500Y-110785000D01*
X117300884Y-110784675D01*
X117294331Y-110783703D01*
X117287906Y-110782093D01*
X117281669Y-110779862D01*
X117275681Y-110777030D01*
X117269999Y-110773624D01*
X117264678Y-110769678D01*
X117259770Y-110765230D01*
X117255322Y-110760322D01*
X117251376Y-110755001D01*
X117247970Y-110749319D01*
X117245138Y-110743331D01*
X117242907Y-110737094D01*
X117241297Y-110730669D01*
X117240325Y-110724116D01*
X117240000Y-110717500D01*
X117240000Y-110582500D01*
X117240325Y-110575884D01*
X117241297Y-110569331D01*
X117242907Y-110562906D01*
X117245138Y-110556669D01*
X117247970Y-110550681D01*
X117251376Y-110544999D01*
X117255322Y-110539678D01*
X117259770Y-110534770D01*
X117264678Y-110530322D01*
X117269999Y-110526376D01*
X117275681Y-110522970D01*
X117281669Y-110520138D01*
X117287906Y-110517907D01*
X117294331Y-110516297D01*
X117300884Y-110515325D01*
X117307500Y-110515000D01*
X117442500Y-110515000D01*
X117449116Y-110515325D01*
X117449116Y-110515325D01*
G37*
D11*
X117375000Y-110650000D03*
D10*
G36*
X117999116Y-110515325D02*
G01*
X118005669Y-110516297D01*
X118012094Y-110517907D01*
X118018331Y-110520138D01*
X118024319Y-110522970D01*
X118030001Y-110526376D01*
X118035322Y-110530322D01*
X118040230Y-110534770D01*
X118044678Y-110539678D01*
X118048624Y-110544999D01*
X118052030Y-110550681D01*
X118054862Y-110556669D01*
X118057093Y-110562906D01*
X118058703Y-110569331D01*
X118059675Y-110575884D01*
X118060000Y-110582500D01*
X118060000Y-110717500D01*
X118059675Y-110724116D01*
X118058703Y-110730669D01*
X118057093Y-110737094D01*
X118054862Y-110743331D01*
X118052030Y-110749319D01*
X118048624Y-110755001D01*
X118044678Y-110760322D01*
X118040230Y-110765230D01*
X118035322Y-110769678D01*
X118030001Y-110773624D01*
X118024319Y-110777030D01*
X118018331Y-110779862D01*
X118012094Y-110782093D01*
X118005669Y-110783703D01*
X117999116Y-110784675D01*
X117992500Y-110785000D01*
X117857500Y-110785000D01*
X117850884Y-110784675D01*
X117844331Y-110783703D01*
X117837906Y-110782093D01*
X117831669Y-110779862D01*
X117825681Y-110777030D01*
X117819999Y-110773624D01*
X117814678Y-110769678D01*
X117809770Y-110765230D01*
X117805322Y-110760322D01*
X117801376Y-110755001D01*
X117797970Y-110749319D01*
X117795138Y-110743331D01*
X117792907Y-110737094D01*
X117791297Y-110730669D01*
X117790325Y-110724116D01*
X117790000Y-110717500D01*
X117790000Y-110582500D01*
X117790325Y-110575884D01*
X117791297Y-110569331D01*
X117792907Y-110562906D01*
X117795138Y-110556669D01*
X117797970Y-110550681D01*
X117801376Y-110544999D01*
X117805322Y-110539678D01*
X117809770Y-110534770D01*
X117814678Y-110530322D01*
X117819999Y-110526376D01*
X117825681Y-110522970D01*
X117831669Y-110520138D01*
X117837906Y-110517907D01*
X117844331Y-110516297D01*
X117850884Y-110515325D01*
X117857500Y-110515000D01*
X117992500Y-110515000D01*
X117999116Y-110515325D01*
X117999116Y-110515325D01*
G37*
D11*
X117925000Y-110650000D03*
D12*
X173575000Y-124650000D03*
X171825000Y-124650000D03*
X173575000Y-128150000D03*
X171825000Y-128150000D03*
X169475000Y-124650000D03*
X167725000Y-124650000D03*
X169475000Y-128150000D03*
X167725000Y-128150000D03*
X163675000Y-128150000D03*
X165425000Y-128150000D03*
X163675000Y-124650000D03*
X165425000Y-124650000D03*
X161475000Y-124700000D03*
X159725000Y-124700000D03*
X161475000Y-128200000D03*
X159725000Y-128200000D03*
X155825000Y-128300000D03*
X157575000Y-128300000D03*
X155825000Y-124800000D03*
X157575000Y-124800000D03*
X151825000Y-128250000D03*
X153575000Y-128250000D03*
X151825000Y-124750000D03*
X153575000Y-124750000D03*
X149575000Y-124750000D03*
X147825000Y-124750000D03*
X149575000Y-128250000D03*
X147825000Y-128250000D03*
X143925000Y-128250000D03*
X145675000Y-128250000D03*
X143925000Y-124750000D03*
X145675000Y-124750000D03*
X141725000Y-124750000D03*
X139975000Y-124750000D03*
X141725000Y-128250000D03*
X139975000Y-128250000D03*
X137725000Y-124750000D03*
X135975000Y-124750000D03*
X137725000Y-128250000D03*
X135975000Y-128250000D03*
M02*
