G04 #@! TF.GenerationSoftware,KiCad,Pcbnew,5.1.0-060a0da~80~ubuntu18.04.1*
G04 #@! TF.CreationDate,2019-05-11T22:14:08+02:00*
G04 #@! TF.ProjectId,myo_shield_pcb,6d796f5f-7368-4696-956c-645f7063622e,rev?*
G04 #@! TF.SameCoordinates,Original*
G04 #@! TF.FileFunction,Legend,Top*
G04 #@! TF.FilePolarity,Positive*
%FSLAX46Y46*%
G04 Gerber Fmt 4.6, Leading zero omitted, Abs format (unit mm)*
G04 Created by KiCad (PCBNEW 5.1.0-060a0da~80~ubuntu18.04.1) date 2019-05-11 22:14:08*
%MOMM*%
%LPD*%
G04 APERTURE LIST*
%ADD10C,0.150000*%
%ADD11C,0.120000*%
G04 APERTURE END LIST*
D10*
X165838095Y-121100000D02*
X165742857Y-121052380D01*
X165600000Y-121052380D01*
X165457142Y-121100000D01*
X165361904Y-121195238D01*
X165314285Y-121290476D01*
X165266666Y-121480952D01*
X165266666Y-121623809D01*
X165314285Y-121814285D01*
X165361904Y-121909523D01*
X165457142Y-122004761D01*
X165600000Y-122052380D01*
X165695238Y-122052380D01*
X165838095Y-122004761D01*
X165885714Y-121957142D01*
X165885714Y-121623809D01*
X165695238Y-121623809D01*
X166314285Y-122052380D02*
X166314285Y-121052380D01*
X166885714Y-122052380D01*
X166885714Y-121052380D01*
X167361904Y-122052380D02*
X167361904Y-121052380D01*
X167600000Y-121052380D01*
X167742857Y-121100000D01*
X167838095Y-121195238D01*
X167885714Y-121290476D01*
X167933333Y-121480952D01*
X167933333Y-121623809D01*
X167885714Y-121814285D01*
X167838095Y-121909523D01*
X167742857Y-122004761D01*
X167600000Y-122052380D01*
X167361904Y-122052380D01*
X165859523Y-118352380D02*
X165383333Y-118352380D01*
X165335714Y-118828571D01*
X165383333Y-118780952D01*
X165478571Y-118733333D01*
X165716666Y-118733333D01*
X165811904Y-118780952D01*
X165859523Y-118828571D01*
X165907142Y-118923809D01*
X165907142Y-119161904D01*
X165859523Y-119257142D01*
X165811904Y-119304761D01*
X165716666Y-119352380D01*
X165478571Y-119352380D01*
X165383333Y-119304761D01*
X165335714Y-119257142D01*
X166192857Y-118352380D02*
X166526190Y-119352380D01*
X166859523Y-118352380D01*
X172578571Y-78952380D02*
X172578571Y-78285714D01*
X172578571Y-78380952D02*
X172626190Y-78333333D01*
X172721428Y-78285714D01*
X172864285Y-78285714D01*
X172959523Y-78333333D01*
X173007142Y-78428571D01*
X173007142Y-78952380D01*
X173007142Y-78428571D02*
X173054761Y-78333333D01*
X173150000Y-78285714D01*
X173292857Y-78285714D01*
X173388095Y-78333333D01*
X173435714Y-78428571D01*
X173435714Y-78952380D01*
X173816666Y-78285714D02*
X174054761Y-78952380D01*
X174292857Y-78285714D02*
X174054761Y-78952380D01*
X173959523Y-79190476D01*
X173911904Y-79238095D01*
X173816666Y-79285714D01*
X174816666Y-78952380D02*
X174721428Y-78904761D01*
X174673809Y-78857142D01*
X174626190Y-78761904D01*
X174626190Y-78476190D01*
X174673809Y-78380952D01*
X174721428Y-78333333D01*
X174816666Y-78285714D01*
X174959523Y-78285714D01*
X175054761Y-78333333D01*
X175102380Y-78380952D01*
X175150000Y-78476190D01*
X175150000Y-78761904D01*
X175102380Y-78857142D01*
X175054761Y-78904761D01*
X174959523Y-78952380D01*
X174816666Y-78952380D01*
X175340476Y-79047619D02*
X176102380Y-79047619D01*
X176292857Y-78904761D02*
X176388095Y-78952380D01*
X176578571Y-78952380D01*
X176673809Y-78904761D01*
X176721428Y-78809523D01*
X176721428Y-78761904D01*
X176673809Y-78666666D01*
X176578571Y-78619047D01*
X176435714Y-78619047D01*
X176340476Y-78571428D01*
X176292857Y-78476190D01*
X176292857Y-78428571D01*
X176340476Y-78333333D01*
X176435714Y-78285714D01*
X176578571Y-78285714D01*
X176673809Y-78333333D01*
X177150000Y-78952380D02*
X177150000Y-77952380D01*
X177578571Y-78952380D02*
X177578571Y-78428571D01*
X177530952Y-78333333D01*
X177435714Y-78285714D01*
X177292857Y-78285714D01*
X177197619Y-78333333D01*
X177150000Y-78380952D01*
X178054761Y-78952380D02*
X178054761Y-78285714D01*
X178054761Y-77952380D02*
X178007142Y-78000000D01*
X178054761Y-78047619D01*
X178102380Y-78000000D01*
X178054761Y-77952380D01*
X178054761Y-78047619D01*
X178911904Y-78904761D02*
X178816666Y-78952380D01*
X178626190Y-78952380D01*
X178530952Y-78904761D01*
X178483333Y-78809523D01*
X178483333Y-78428571D01*
X178530952Y-78333333D01*
X178626190Y-78285714D01*
X178816666Y-78285714D01*
X178911904Y-78333333D01*
X178959523Y-78428571D01*
X178959523Y-78523809D01*
X178483333Y-78619047D01*
X179530952Y-78952380D02*
X179435714Y-78904761D01*
X179388095Y-78809523D01*
X179388095Y-77952380D01*
X180340476Y-78952380D02*
X180340476Y-77952380D01*
X180340476Y-78904761D02*
X180245238Y-78952380D01*
X180054761Y-78952380D01*
X179959523Y-78904761D01*
X179911904Y-78857142D01*
X179864285Y-78761904D01*
X179864285Y-78476190D01*
X179911904Y-78380952D01*
X179959523Y-78333333D01*
X180054761Y-78285714D01*
X180245238Y-78285714D01*
X180340476Y-78333333D01*
X180578571Y-79047619D02*
X181340476Y-79047619D01*
X181578571Y-78952380D02*
X181578571Y-78285714D01*
X181578571Y-78476190D02*
X181626190Y-78380952D01*
X181673809Y-78333333D01*
X181769047Y-78285714D01*
X181864285Y-78285714D01*
X182578571Y-78904761D02*
X182483333Y-78952380D01*
X182292857Y-78952380D01*
X182197619Y-78904761D01*
X182150000Y-78809523D01*
X182150000Y-78428571D01*
X182197619Y-78333333D01*
X182292857Y-78285714D01*
X182483333Y-78285714D01*
X182578571Y-78333333D01*
X182626190Y-78428571D01*
X182626190Y-78523809D01*
X182150000Y-78619047D01*
X182959523Y-78285714D02*
X183197619Y-78952380D01*
X183435714Y-78285714D01*
X184007142Y-77952380D02*
X184102380Y-77952380D01*
X184197619Y-78000000D01*
X184245238Y-78047619D01*
X184292857Y-78142857D01*
X184340476Y-78333333D01*
X184340476Y-78571428D01*
X184292857Y-78761904D01*
X184245238Y-78857142D01*
X184197619Y-78904761D01*
X184102380Y-78952380D01*
X184007142Y-78952380D01*
X183911904Y-78904761D01*
X183864285Y-78857142D01*
X183816666Y-78761904D01*
X183769047Y-78571428D01*
X183769047Y-78333333D01*
X183816666Y-78142857D01*
X183864285Y-78047619D01*
X183911904Y-78000000D01*
X184007142Y-77952380D01*
X184769047Y-78857142D02*
X184816666Y-78904761D01*
X184769047Y-78952380D01*
X184721428Y-78904761D01*
X184769047Y-78857142D01*
X184769047Y-78952380D01*
X185150000Y-77952380D02*
X185769047Y-77952380D01*
X185435714Y-78333333D01*
X185578571Y-78333333D01*
X185673809Y-78380952D01*
X185721428Y-78428571D01*
X185769047Y-78523809D01*
X185769047Y-78761904D01*
X185721428Y-78857142D01*
X185673809Y-78904761D01*
X185578571Y-78952380D01*
X185292857Y-78952380D01*
X185197619Y-78904761D01*
X185150000Y-78857142D01*
D11*
X190700000Y-76250000D02*
X192230000Y-76250000D01*
X190700000Y-78095000D02*
X190700000Y-76250000D01*
X193500000Y-79365000D02*
X191630000Y-79365000D01*
X193500000Y-77495000D02*
X193500000Y-79365000D01*
X194770000Y-76250000D02*
X196300000Y-76250000D01*
X196300000Y-76250000D02*
X196300000Y-83750000D01*
X190700000Y-83750000D02*
X196300000Y-83750000D01*
X190700000Y-80635000D02*
X190700000Y-83750000D01*
X190700000Y-114135000D02*
X190700000Y-117250000D01*
X190700000Y-117250000D02*
X196300000Y-117250000D01*
X196300000Y-109750000D02*
X196300000Y-117250000D01*
X194770000Y-109750000D02*
X196300000Y-109750000D01*
X193500000Y-110995000D02*
X193500000Y-112865000D01*
X193500000Y-112865000D02*
X191630000Y-112865000D01*
X190700000Y-111595000D02*
X190700000Y-109750000D01*
X190700000Y-109750000D02*
X192230000Y-109750000D01*
X190700000Y-135750000D02*
X192230000Y-135750000D01*
X190700000Y-137595000D02*
X190700000Y-135750000D01*
X193500000Y-138865000D02*
X191630000Y-138865000D01*
X193500000Y-136995000D02*
X193500000Y-138865000D01*
X194770000Y-135750000D02*
X196300000Y-135750000D01*
X196300000Y-135750000D02*
X196300000Y-143250000D01*
X190700000Y-143250000D02*
X196300000Y-143250000D01*
X190700000Y-140135000D02*
X190700000Y-143250000D01*
X119800000Y-136250000D02*
X118270000Y-136250000D01*
X119800000Y-134405000D02*
X119800000Y-136250000D01*
X117000000Y-133135000D02*
X118870000Y-133135000D01*
X117000000Y-135005000D02*
X117000000Y-133135000D01*
X115730000Y-136250000D02*
X114200000Y-136250000D01*
X114200000Y-136250000D02*
X114200000Y-128750000D01*
X119800000Y-128750000D02*
X114200000Y-128750000D01*
X119800000Y-131865000D02*
X119800000Y-128750000D01*
X119800000Y-105365000D02*
X119800000Y-102250000D01*
X119800000Y-102250000D02*
X114200000Y-102250000D01*
X114200000Y-109750000D02*
X114200000Y-102250000D01*
X115730000Y-109750000D02*
X114200000Y-109750000D01*
X117000000Y-108505000D02*
X117000000Y-106635000D01*
X117000000Y-106635000D02*
X118870000Y-106635000D01*
X119800000Y-107905000D02*
X119800000Y-109750000D01*
X119800000Y-109750000D02*
X118270000Y-109750000D01*
X119135000Y-83800000D02*
X122250000Y-83800000D01*
X122250000Y-83800000D02*
X122250000Y-78200000D01*
X114750000Y-78200000D02*
X122250000Y-78200000D01*
X114750000Y-79730000D02*
X114750000Y-78200000D01*
X115995000Y-81000000D02*
X117865000Y-81000000D01*
X117865000Y-81000000D02*
X117865000Y-82870000D01*
X116595000Y-83800000D02*
X114750000Y-83800000D01*
X114750000Y-83800000D02*
X114750000Y-82270000D01*
X137135000Y-83800000D02*
X140250000Y-83800000D01*
X140250000Y-83800000D02*
X140250000Y-78200000D01*
X132750000Y-78200000D02*
X140250000Y-78200000D01*
X132750000Y-79730000D02*
X132750000Y-78200000D01*
X133995000Y-81000000D02*
X135865000Y-81000000D01*
X135865000Y-81000000D02*
X135865000Y-82870000D01*
X134595000Y-83800000D02*
X132750000Y-83800000D01*
X132750000Y-83800000D02*
X132750000Y-82270000D01*
X123750000Y-83800000D02*
X123750000Y-82270000D01*
X125595000Y-83800000D02*
X123750000Y-83800000D01*
X126865000Y-81000000D02*
X126865000Y-82870000D01*
X124995000Y-81000000D02*
X126865000Y-81000000D01*
X123750000Y-79730000D02*
X123750000Y-78200000D01*
X123750000Y-78200000D02*
X131250000Y-78200000D01*
X131250000Y-83800000D02*
X131250000Y-78200000D01*
X128135000Y-83800000D02*
X131250000Y-83800000D01*
X146135000Y-83800000D02*
X149250000Y-83800000D01*
X149250000Y-83800000D02*
X149250000Y-78200000D01*
X141750000Y-78200000D02*
X149250000Y-78200000D01*
X141750000Y-79730000D02*
X141750000Y-78200000D01*
X142995000Y-81000000D02*
X144865000Y-81000000D01*
X144865000Y-81000000D02*
X144865000Y-82870000D01*
X143595000Y-83800000D02*
X141750000Y-83800000D01*
X141750000Y-83800000D02*
X141750000Y-82270000D01*
X150750000Y-83800000D02*
X150750000Y-82270000D01*
X152595000Y-83800000D02*
X150750000Y-83800000D01*
X153865000Y-81000000D02*
X153865000Y-82870000D01*
X151995000Y-81000000D02*
X153865000Y-81000000D01*
X150750000Y-79730000D02*
X150750000Y-78200000D01*
X150750000Y-78200000D02*
X158250000Y-78200000D01*
X158250000Y-83800000D02*
X158250000Y-78200000D01*
X155135000Y-83800000D02*
X158250000Y-83800000D01*
X164235000Y-83800000D02*
X167350000Y-83800000D01*
X167350000Y-83800000D02*
X167350000Y-78200000D01*
X159850000Y-78200000D02*
X167350000Y-78200000D01*
X159850000Y-79730000D02*
X159850000Y-78200000D01*
X161095000Y-81000000D02*
X162965000Y-81000000D01*
X162965000Y-81000000D02*
X162965000Y-82870000D01*
X161695000Y-83800000D02*
X159850000Y-83800000D01*
X159850000Y-83800000D02*
X159850000Y-82270000D01*
X193940000Y-85170000D02*
X193940000Y-108150000D01*
X193940000Y-108150000D02*
X196600000Y-108150000D01*
X196600000Y-108150000D02*
X196600000Y-85170000D01*
X196600000Y-85170000D02*
X193940000Y-85170000D01*
X196600000Y-86120000D02*
X202600000Y-86120000D01*
X202600000Y-86120000D02*
X202600000Y-86880000D01*
X202600000Y-86880000D02*
X196600000Y-86880000D01*
X196600000Y-86180000D02*
X202600000Y-86180000D01*
X196600000Y-86300000D02*
X202600000Y-86300000D01*
X196600000Y-86420000D02*
X202600000Y-86420000D01*
X196600000Y-86540000D02*
X202600000Y-86540000D01*
X196600000Y-86660000D02*
X202600000Y-86660000D01*
X196600000Y-86780000D02*
X202600000Y-86780000D01*
X193610000Y-86120000D02*
X193940000Y-86120000D01*
X193610000Y-86880000D02*
X193940000Y-86880000D01*
X193940000Y-87770000D02*
X196600000Y-87770000D01*
X196600000Y-88660000D02*
X202600000Y-88660000D01*
X202600000Y-88660000D02*
X202600000Y-89420000D01*
X202600000Y-89420000D02*
X196600000Y-89420000D01*
X193542929Y-88660000D02*
X193940000Y-88660000D01*
X193542929Y-89420000D02*
X193940000Y-89420000D01*
X193940000Y-90310000D02*
X196600000Y-90310000D01*
X196600000Y-91200000D02*
X202600000Y-91200000D01*
X202600000Y-91200000D02*
X202600000Y-91960000D01*
X202600000Y-91960000D02*
X196600000Y-91960000D01*
X193542929Y-91200000D02*
X193940000Y-91200000D01*
X193542929Y-91960000D02*
X193940000Y-91960000D01*
X193940000Y-92850000D02*
X196600000Y-92850000D01*
X196600000Y-93740000D02*
X202600000Y-93740000D01*
X202600000Y-93740000D02*
X202600000Y-94500000D01*
X202600000Y-94500000D02*
X196600000Y-94500000D01*
X193542929Y-93740000D02*
X193940000Y-93740000D01*
X193542929Y-94500000D02*
X193940000Y-94500000D01*
X193940000Y-95390000D02*
X196600000Y-95390000D01*
X196600000Y-96280000D02*
X202600000Y-96280000D01*
X202600000Y-96280000D02*
X202600000Y-97040000D01*
X202600000Y-97040000D02*
X196600000Y-97040000D01*
X193542929Y-96280000D02*
X193940000Y-96280000D01*
X193542929Y-97040000D02*
X193940000Y-97040000D01*
X193940000Y-97930000D02*
X196600000Y-97930000D01*
X196600000Y-98820000D02*
X202600000Y-98820000D01*
X202600000Y-98820000D02*
X202600000Y-99580000D01*
X202600000Y-99580000D02*
X196600000Y-99580000D01*
X193542929Y-98820000D02*
X193940000Y-98820000D01*
X193542929Y-99580000D02*
X193940000Y-99580000D01*
X193940000Y-100470000D02*
X196600000Y-100470000D01*
X196600000Y-101360000D02*
X202600000Y-101360000D01*
X202600000Y-101360000D02*
X202600000Y-102120000D01*
X202600000Y-102120000D02*
X196600000Y-102120000D01*
X193542929Y-101360000D02*
X193940000Y-101360000D01*
X193542929Y-102120000D02*
X193940000Y-102120000D01*
X193940000Y-103010000D02*
X196600000Y-103010000D01*
X196600000Y-103900000D02*
X202600000Y-103900000D01*
X202600000Y-103900000D02*
X202600000Y-104660000D01*
X202600000Y-104660000D02*
X196600000Y-104660000D01*
X193542929Y-103900000D02*
X193940000Y-103900000D01*
X193542929Y-104660000D02*
X193940000Y-104660000D01*
X193940000Y-105550000D02*
X196600000Y-105550000D01*
X196600000Y-106440000D02*
X202600000Y-106440000D01*
X202600000Y-106440000D02*
X202600000Y-107200000D01*
X202600000Y-107200000D02*
X196600000Y-107200000D01*
X193542929Y-106440000D02*
X193940000Y-106440000D01*
X193542929Y-107200000D02*
X193940000Y-107200000D01*
X191230000Y-86500000D02*
X191230000Y-85230000D01*
X191230000Y-85230000D02*
X192500000Y-85230000D01*
X191230000Y-118730000D02*
X192500000Y-118730000D01*
X191230000Y-120000000D02*
X191230000Y-118730000D01*
X193542929Y-133080000D02*
X193940000Y-133080000D01*
X193542929Y-132320000D02*
X193940000Y-132320000D01*
X202600000Y-133080000D02*
X196600000Y-133080000D01*
X202600000Y-132320000D02*
X202600000Y-133080000D01*
X196600000Y-132320000D02*
X202600000Y-132320000D01*
X193940000Y-131430000D02*
X196600000Y-131430000D01*
X193542929Y-130540000D02*
X193940000Y-130540000D01*
X193542929Y-129780000D02*
X193940000Y-129780000D01*
X202600000Y-130540000D02*
X196600000Y-130540000D01*
X202600000Y-129780000D02*
X202600000Y-130540000D01*
X196600000Y-129780000D02*
X202600000Y-129780000D01*
X193940000Y-128890000D02*
X196600000Y-128890000D01*
X193542929Y-128000000D02*
X193940000Y-128000000D01*
X193542929Y-127240000D02*
X193940000Y-127240000D01*
X202600000Y-128000000D02*
X196600000Y-128000000D01*
X202600000Y-127240000D02*
X202600000Y-128000000D01*
X196600000Y-127240000D02*
X202600000Y-127240000D01*
X193940000Y-126350000D02*
X196600000Y-126350000D01*
X193542929Y-125460000D02*
X193940000Y-125460000D01*
X193542929Y-124700000D02*
X193940000Y-124700000D01*
X202600000Y-125460000D02*
X196600000Y-125460000D01*
X202600000Y-124700000D02*
X202600000Y-125460000D01*
X196600000Y-124700000D02*
X202600000Y-124700000D01*
X193940000Y-123810000D02*
X196600000Y-123810000D01*
X193542929Y-122920000D02*
X193940000Y-122920000D01*
X193542929Y-122160000D02*
X193940000Y-122160000D01*
X202600000Y-122920000D02*
X196600000Y-122920000D01*
X202600000Y-122160000D02*
X202600000Y-122920000D01*
X196600000Y-122160000D02*
X202600000Y-122160000D01*
X193940000Y-121270000D02*
X196600000Y-121270000D01*
X193610000Y-120380000D02*
X193940000Y-120380000D01*
X193610000Y-119620000D02*
X193940000Y-119620000D01*
X196600000Y-120280000D02*
X202600000Y-120280000D01*
X196600000Y-120160000D02*
X202600000Y-120160000D01*
X196600000Y-120040000D02*
X202600000Y-120040000D01*
X196600000Y-119920000D02*
X202600000Y-119920000D01*
X196600000Y-119800000D02*
X202600000Y-119800000D01*
X196600000Y-119680000D02*
X202600000Y-119680000D01*
X202600000Y-120380000D02*
X196600000Y-120380000D01*
X202600000Y-119620000D02*
X202600000Y-120380000D01*
X196600000Y-119620000D02*
X202600000Y-119620000D01*
X196600000Y-118670000D02*
X193940000Y-118670000D01*
X196600000Y-134030000D02*
X196600000Y-118670000D01*
X193940000Y-134030000D02*
X196600000Y-134030000D01*
X193940000Y-118670000D02*
X193940000Y-134030000D01*
X189330000Y-140940000D02*
X173970000Y-140940000D01*
X173970000Y-140940000D02*
X173970000Y-143600000D01*
X173970000Y-143600000D02*
X189330000Y-143600000D01*
X189330000Y-143600000D02*
X189330000Y-140940000D01*
X188380000Y-143600000D02*
X188380000Y-149600000D01*
X188380000Y-149600000D02*
X187620000Y-149600000D01*
X187620000Y-149600000D02*
X187620000Y-143600000D01*
X188320000Y-143600000D02*
X188320000Y-149600000D01*
X188200000Y-143600000D02*
X188200000Y-149600000D01*
X188080000Y-143600000D02*
X188080000Y-149600000D01*
X187960000Y-143600000D02*
X187960000Y-149600000D01*
X187840000Y-143600000D02*
X187840000Y-149600000D01*
X187720000Y-143600000D02*
X187720000Y-149600000D01*
X188380000Y-140610000D02*
X188380000Y-140940000D01*
X187620000Y-140610000D02*
X187620000Y-140940000D01*
X186730000Y-140940000D02*
X186730000Y-143600000D01*
X185840000Y-143600000D02*
X185840000Y-149600000D01*
X185840000Y-149600000D02*
X185080000Y-149600000D01*
X185080000Y-149600000D02*
X185080000Y-143600000D01*
X185840000Y-140542929D02*
X185840000Y-140940000D01*
X185080000Y-140542929D02*
X185080000Y-140940000D01*
X184190000Y-140940000D02*
X184190000Y-143600000D01*
X183300000Y-143600000D02*
X183300000Y-149600000D01*
X183300000Y-149600000D02*
X182540000Y-149600000D01*
X182540000Y-149600000D02*
X182540000Y-143600000D01*
X183300000Y-140542929D02*
X183300000Y-140940000D01*
X182540000Y-140542929D02*
X182540000Y-140940000D01*
X181650000Y-140940000D02*
X181650000Y-143600000D01*
X180760000Y-143600000D02*
X180760000Y-149600000D01*
X180760000Y-149600000D02*
X180000000Y-149600000D01*
X180000000Y-149600000D02*
X180000000Y-143600000D01*
X180760000Y-140542929D02*
X180760000Y-140940000D01*
X180000000Y-140542929D02*
X180000000Y-140940000D01*
X179110000Y-140940000D02*
X179110000Y-143600000D01*
X178220000Y-143600000D02*
X178220000Y-149600000D01*
X178220000Y-149600000D02*
X177460000Y-149600000D01*
X177460000Y-149600000D02*
X177460000Y-143600000D01*
X178220000Y-140542929D02*
X178220000Y-140940000D01*
X177460000Y-140542929D02*
X177460000Y-140940000D01*
X176570000Y-140940000D02*
X176570000Y-143600000D01*
X175680000Y-143600000D02*
X175680000Y-149600000D01*
X175680000Y-149600000D02*
X174920000Y-149600000D01*
X174920000Y-149600000D02*
X174920000Y-143600000D01*
X175680000Y-140542929D02*
X175680000Y-140940000D01*
X174920000Y-140542929D02*
X174920000Y-140940000D01*
X188000000Y-138230000D02*
X189270000Y-138230000D01*
X189270000Y-138230000D02*
X189270000Y-139500000D01*
X119770000Y-126770000D02*
X118500000Y-126770000D01*
X119770000Y-125500000D02*
X119770000Y-126770000D01*
X117457071Y-112420000D02*
X117060000Y-112420000D01*
X117457071Y-113180000D02*
X117060000Y-113180000D01*
X108400000Y-112420000D02*
X114400000Y-112420000D01*
X108400000Y-113180000D02*
X108400000Y-112420000D01*
X114400000Y-113180000D02*
X108400000Y-113180000D01*
X117060000Y-114070000D02*
X114400000Y-114070000D01*
X117457071Y-114960000D02*
X117060000Y-114960000D01*
X117457071Y-115720000D02*
X117060000Y-115720000D01*
X108400000Y-114960000D02*
X114400000Y-114960000D01*
X108400000Y-115720000D02*
X108400000Y-114960000D01*
X114400000Y-115720000D02*
X108400000Y-115720000D01*
X117060000Y-116610000D02*
X114400000Y-116610000D01*
X117457071Y-117500000D02*
X117060000Y-117500000D01*
X117457071Y-118260000D02*
X117060000Y-118260000D01*
X108400000Y-117500000D02*
X114400000Y-117500000D01*
X108400000Y-118260000D02*
X108400000Y-117500000D01*
X114400000Y-118260000D02*
X108400000Y-118260000D01*
X117060000Y-119150000D02*
X114400000Y-119150000D01*
X117457071Y-120040000D02*
X117060000Y-120040000D01*
X117457071Y-120800000D02*
X117060000Y-120800000D01*
X108400000Y-120040000D02*
X114400000Y-120040000D01*
X108400000Y-120800000D02*
X108400000Y-120040000D01*
X114400000Y-120800000D02*
X108400000Y-120800000D01*
X117060000Y-121690000D02*
X114400000Y-121690000D01*
X117457071Y-122580000D02*
X117060000Y-122580000D01*
X117457071Y-123340000D02*
X117060000Y-123340000D01*
X108400000Y-122580000D02*
X114400000Y-122580000D01*
X108400000Y-123340000D02*
X108400000Y-122580000D01*
X114400000Y-123340000D02*
X108400000Y-123340000D01*
X117060000Y-124230000D02*
X114400000Y-124230000D01*
X117390000Y-125120000D02*
X117060000Y-125120000D01*
X117390000Y-125880000D02*
X117060000Y-125880000D01*
X114400000Y-125220000D02*
X108400000Y-125220000D01*
X114400000Y-125340000D02*
X108400000Y-125340000D01*
X114400000Y-125460000D02*
X108400000Y-125460000D01*
X114400000Y-125580000D02*
X108400000Y-125580000D01*
X114400000Y-125700000D02*
X108400000Y-125700000D01*
X114400000Y-125820000D02*
X108400000Y-125820000D01*
X108400000Y-125120000D02*
X114400000Y-125120000D01*
X108400000Y-125880000D02*
X108400000Y-125120000D01*
X114400000Y-125880000D02*
X108400000Y-125880000D01*
X114400000Y-126830000D02*
X117060000Y-126830000D01*
X114400000Y-111470000D02*
X114400000Y-126830000D01*
X117060000Y-111470000D02*
X114400000Y-111470000D01*
X117060000Y-126830000D02*
X117060000Y-111470000D01*
X171330000Y-140940000D02*
X163590000Y-140940000D01*
X163590000Y-140940000D02*
X163590000Y-143600000D01*
X163590000Y-143600000D02*
X171330000Y-143600000D01*
X171330000Y-143600000D02*
X171330000Y-140940000D01*
X170380000Y-143600000D02*
X170380000Y-149600000D01*
X170380000Y-149600000D02*
X169620000Y-149600000D01*
X169620000Y-149600000D02*
X169620000Y-143600000D01*
X170320000Y-143600000D02*
X170320000Y-149600000D01*
X170200000Y-143600000D02*
X170200000Y-149600000D01*
X170080000Y-143600000D02*
X170080000Y-149600000D01*
X169960000Y-143600000D02*
X169960000Y-149600000D01*
X169840000Y-143600000D02*
X169840000Y-149600000D01*
X169720000Y-143600000D02*
X169720000Y-149600000D01*
X170380000Y-140610000D02*
X170380000Y-140940000D01*
X169620000Y-140610000D02*
X169620000Y-140940000D01*
X168730000Y-140940000D02*
X168730000Y-143600000D01*
X167840000Y-143600000D02*
X167840000Y-149600000D01*
X167840000Y-149600000D02*
X167080000Y-149600000D01*
X167080000Y-149600000D02*
X167080000Y-143600000D01*
X167840000Y-140542929D02*
X167840000Y-140940000D01*
X167080000Y-140542929D02*
X167080000Y-140940000D01*
X166190000Y-140940000D02*
X166190000Y-143600000D01*
X165300000Y-143600000D02*
X165300000Y-149600000D01*
X165300000Y-149600000D02*
X164540000Y-149600000D01*
X164540000Y-149600000D02*
X164540000Y-143600000D01*
X165300000Y-140542929D02*
X165300000Y-140940000D01*
X164540000Y-140542929D02*
X164540000Y-140940000D01*
X170000000Y-138230000D02*
X171270000Y-138230000D01*
X171270000Y-138230000D02*
X171270000Y-139500000D01*
X117060000Y-100330000D02*
X117060000Y-84970000D01*
X117060000Y-84970000D02*
X114400000Y-84970000D01*
X114400000Y-84970000D02*
X114400000Y-100330000D01*
X114400000Y-100330000D02*
X117060000Y-100330000D01*
X114400000Y-99380000D02*
X108400000Y-99380000D01*
X108400000Y-99380000D02*
X108400000Y-98620000D01*
X108400000Y-98620000D02*
X114400000Y-98620000D01*
X114400000Y-99320000D02*
X108400000Y-99320000D01*
X114400000Y-99200000D02*
X108400000Y-99200000D01*
X114400000Y-99080000D02*
X108400000Y-99080000D01*
X114400000Y-98960000D02*
X108400000Y-98960000D01*
X114400000Y-98840000D02*
X108400000Y-98840000D01*
X114400000Y-98720000D02*
X108400000Y-98720000D01*
X117390000Y-99380000D02*
X117060000Y-99380000D01*
X117390000Y-98620000D02*
X117060000Y-98620000D01*
X117060000Y-97730000D02*
X114400000Y-97730000D01*
X114400000Y-96840000D02*
X108400000Y-96840000D01*
X108400000Y-96840000D02*
X108400000Y-96080000D01*
X108400000Y-96080000D02*
X114400000Y-96080000D01*
X117457071Y-96840000D02*
X117060000Y-96840000D01*
X117457071Y-96080000D02*
X117060000Y-96080000D01*
X117060000Y-95190000D02*
X114400000Y-95190000D01*
X114400000Y-94300000D02*
X108400000Y-94300000D01*
X108400000Y-94300000D02*
X108400000Y-93540000D01*
X108400000Y-93540000D02*
X114400000Y-93540000D01*
X117457071Y-94300000D02*
X117060000Y-94300000D01*
X117457071Y-93540000D02*
X117060000Y-93540000D01*
X117060000Y-92650000D02*
X114400000Y-92650000D01*
X114400000Y-91760000D02*
X108400000Y-91760000D01*
X108400000Y-91760000D02*
X108400000Y-91000000D01*
X108400000Y-91000000D02*
X114400000Y-91000000D01*
X117457071Y-91760000D02*
X117060000Y-91760000D01*
X117457071Y-91000000D02*
X117060000Y-91000000D01*
X117060000Y-90110000D02*
X114400000Y-90110000D01*
X114400000Y-89220000D02*
X108400000Y-89220000D01*
X108400000Y-89220000D02*
X108400000Y-88460000D01*
X108400000Y-88460000D02*
X114400000Y-88460000D01*
X117457071Y-89220000D02*
X117060000Y-89220000D01*
X117457071Y-88460000D02*
X117060000Y-88460000D01*
X117060000Y-87570000D02*
X114400000Y-87570000D01*
X114400000Y-86680000D02*
X108400000Y-86680000D01*
X108400000Y-86680000D02*
X108400000Y-85920000D01*
X108400000Y-85920000D02*
X114400000Y-85920000D01*
X117457071Y-86680000D02*
X117060000Y-86680000D01*
X117457071Y-85920000D02*
X117060000Y-85920000D01*
X119770000Y-99000000D02*
X119770000Y-100270000D01*
X119770000Y-100270000D02*
X118500000Y-100270000D01*
X161960000Y-122730000D02*
X161960000Y-117530000D01*
X161960000Y-117530000D02*
X159300000Y-117530000D01*
X159300000Y-117530000D02*
X159300000Y-122730000D01*
X159300000Y-122730000D02*
X161960000Y-122730000D01*
X159300000Y-121780000D02*
X153300000Y-121780000D01*
X153300000Y-121780000D02*
X153300000Y-121020000D01*
X153300000Y-121020000D02*
X159300000Y-121020000D01*
X159300000Y-121720000D02*
X153300000Y-121720000D01*
X159300000Y-121600000D02*
X153300000Y-121600000D01*
X159300000Y-121480000D02*
X153300000Y-121480000D01*
X159300000Y-121360000D02*
X153300000Y-121360000D01*
X159300000Y-121240000D02*
X153300000Y-121240000D01*
X159300000Y-121120000D02*
X153300000Y-121120000D01*
X162290000Y-121780000D02*
X161960000Y-121780000D01*
X162290000Y-121020000D02*
X161960000Y-121020000D01*
X161960000Y-120130000D02*
X159300000Y-120130000D01*
X159300000Y-119240000D02*
X153300000Y-119240000D01*
X153300000Y-119240000D02*
X153300000Y-118480000D01*
X153300000Y-118480000D02*
X159300000Y-118480000D01*
X162357071Y-119240000D02*
X161960000Y-119240000D01*
X162357071Y-118480000D02*
X161960000Y-118480000D01*
X164670000Y-121400000D02*
X164670000Y-122670000D01*
X164670000Y-122670000D02*
X163400000Y-122670000D01*
X184220000Y-85460000D02*
X185550000Y-85460000D01*
X184220000Y-86790000D02*
X184220000Y-85460000D01*
X186820000Y-85460000D02*
X189420000Y-85460000D01*
X186820000Y-88060000D02*
X186820000Y-85460000D01*
X184220000Y-88060000D02*
X186820000Y-88060000D01*
X189420000Y-85460000D02*
X189420000Y-136380000D01*
X184220000Y-88060000D02*
X184220000Y-136380000D01*
X184220000Y-136380000D02*
X189420000Y-136380000D01*
X126430000Y-85460000D02*
X121230000Y-85460000D01*
X126430000Y-133780000D02*
X126430000Y-85460000D01*
X121230000Y-136380000D02*
X121230000Y-85460000D01*
X126430000Y-133780000D02*
X123830000Y-133780000D01*
X123830000Y-133780000D02*
X123830000Y-136380000D01*
X123830000Y-136380000D02*
X121230000Y-136380000D01*
X126430000Y-135050000D02*
X126430000Y-136380000D01*
X126430000Y-136380000D02*
X125100000Y-136380000D01*
X170750000Y-129350000D02*
X170750000Y-123450000D01*
X174650000Y-129350000D02*
X174650000Y-123450000D01*
X174650000Y-123450000D02*
X173575000Y-123450000D01*
X166650000Y-129350000D02*
X166650000Y-123450000D01*
X170550000Y-129350000D02*
X170550000Y-123450000D01*
X170550000Y-123450000D02*
X169475000Y-123450000D01*
X166500000Y-123450000D02*
X165425000Y-123450000D01*
X166500000Y-129350000D02*
X166500000Y-123450000D01*
X162600000Y-129350000D02*
X162600000Y-123450000D01*
X158650000Y-129400000D02*
X158650000Y-123500000D01*
X162550000Y-129400000D02*
X162550000Y-123500000D01*
X162550000Y-123500000D02*
X161475000Y-123500000D01*
X158650000Y-123600000D02*
X157575000Y-123600000D01*
X158650000Y-129500000D02*
X158650000Y-123600000D01*
X154750000Y-129500000D02*
X154750000Y-123600000D01*
X154650000Y-123550000D02*
X153575000Y-123550000D01*
X154650000Y-129450000D02*
X154650000Y-123550000D01*
X150750000Y-129450000D02*
X150750000Y-123550000D01*
X146750000Y-129450000D02*
X146750000Y-123550000D01*
X150650000Y-129450000D02*
X150650000Y-123550000D01*
X150650000Y-123550000D02*
X149575000Y-123550000D01*
X146750000Y-123550000D02*
X145675000Y-123550000D01*
X146750000Y-129450000D02*
X146750000Y-123550000D01*
X142850000Y-129450000D02*
X142850000Y-123550000D01*
X138900000Y-129450000D02*
X138900000Y-123550000D01*
X142800000Y-129450000D02*
X142800000Y-123550000D01*
X142800000Y-123550000D02*
X141725000Y-123550000D01*
X134900000Y-129450000D02*
X134900000Y-123550000D01*
X138800000Y-129450000D02*
X138800000Y-123550000D01*
X138800000Y-123550000D02*
X137725000Y-123550000D01*
D10*
X190054761Y-81830952D02*
X190102380Y-81688095D01*
X190102380Y-81450000D01*
X190054761Y-81354761D01*
X190007142Y-81307142D01*
X189911904Y-81259523D01*
X189816666Y-81259523D01*
X189721428Y-81307142D01*
X189673809Y-81354761D01*
X189626190Y-81450000D01*
X189578571Y-81640476D01*
X189530952Y-81735714D01*
X189483333Y-81783333D01*
X189388095Y-81830952D01*
X189292857Y-81830952D01*
X189197619Y-81783333D01*
X189150000Y-81735714D01*
X189102380Y-81640476D01*
X189102380Y-81402380D01*
X189150000Y-81259523D01*
X190102380Y-80830952D02*
X189102380Y-80830952D01*
X189102380Y-80450000D01*
X189150000Y-80354761D01*
X189197619Y-80307142D01*
X189292857Y-80259523D01*
X189435714Y-80259523D01*
X189530952Y-80307142D01*
X189578571Y-80354761D01*
X189626190Y-80450000D01*
X189626190Y-80830952D01*
X190102380Y-79830952D02*
X189102380Y-79830952D01*
X190197619Y-79592857D02*
X190197619Y-78830952D01*
X189102380Y-78402380D02*
X189102380Y-78307142D01*
X189150000Y-78211904D01*
X189197619Y-78164285D01*
X189292857Y-78116666D01*
X189483333Y-78069047D01*
X189721428Y-78069047D01*
X189911904Y-78116666D01*
X190007142Y-78164285D01*
X190054761Y-78211904D01*
X190102380Y-78307142D01*
X190102380Y-78402380D01*
X190054761Y-78497619D01*
X190007142Y-78545238D01*
X189911904Y-78592857D01*
X189721428Y-78640476D01*
X189483333Y-78640476D01*
X189292857Y-78592857D01*
X189197619Y-78545238D01*
X189150000Y-78497619D01*
X189102380Y-78402380D01*
X190383333Y-114630952D02*
X190416666Y-114488095D01*
X190416666Y-114250000D01*
X190383333Y-114154761D01*
X190350000Y-114107142D01*
X190283333Y-114059523D01*
X190216666Y-114059523D01*
X190150000Y-114107142D01*
X190116666Y-114154761D01*
X190083333Y-114250000D01*
X190050000Y-114440476D01*
X190016666Y-114535714D01*
X189983333Y-114583333D01*
X189916666Y-114630952D01*
X189850000Y-114630952D01*
X189783333Y-114583333D01*
X189750000Y-114535714D01*
X189716666Y-114440476D01*
X189716666Y-114202380D01*
X189750000Y-114059523D01*
X190416666Y-113630952D02*
X189716666Y-113630952D01*
X189716666Y-113250000D01*
X189750000Y-113154761D01*
X189783333Y-113107142D01*
X189850000Y-113059523D01*
X189950000Y-113059523D01*
X190016666Y-113107142D01*
X190050000Y-113154761D01*
X190083333Y-113250000D01*
X190083333Y-113630952D01*
X190416666Y-112630952D02*
X189716666Y-112630952D01*
X190483333Y-112392857D02*
X190483333Y-111630952D01*
X190416666Y-110869047D02*
X190416666Y-111440476D01*
X190416666Y-111154761D02*
X189716666Y-111154761D01*
X189816666Y-111250000D01*
X189883333Y-111345238D01*
X189916666Y-111440476D01*
X190504761Y-141480952D02*
X190552380Y-141338095D01*
X190552380Y-141100000D01*
X190504761Y-141004761D01*
X190457142Y-140957142D01*
X190361904Y-140909523D01*
X190266666Y-140909523D01*
X190171428Y-140957142D01*
X190123809Y-141004761D01*
X190076190Y-141100000D01*
X190028571Y-141290476D01*
X189980952Y-141385714D01*
X189933333Y-141433333D01*
X189838095Y-141480952D01*
X189742857Y-141480952D01*
X189647619Y-141433333D01*
X189600000Y-141385714D01*
X189552380Y-141290476D01*
X189552380Y-141052380D01*
X189600000Y-140909523D01*
X190552380Y-140480952D02*
X189552380Y-140480952D01*
X189552380Y-140100000D01*
X189600000Y-140004761D01*
X189647619Y-139957142D01*
X189742857Y-139909523D01*
X189885714Y-139909523D01*
X189980952Y-139957142D01*
X190028571Y-140004761D01*
X190076190Y-140100000D01*
X190076190Y-140480952D01*
X190552380Y-139480952D02*
X189552380Y-139480952D01*
X190647619Y-139242857D02*
X190647619Y-138480952D01*
X189647619Y-138290476D02*
X189600000Y-138242857D01*
X189552380Y-138147619D01*
X189552380Y-137909523D01*
X189600000Y-137814285D01*
X189647619Y-137766666D01*
X189742857Y-137719047D01*
X189838095Y-137719047D01*
X189980952Y-137766666D01*
X190552380Y-138338095D01*
X190552380Y-137719047D01*
X120923809Y-134030952D02*
X120961904Y-133888095D01*
X120961904Y-133650000D01*
X120923809Y-133554761D01*
X120885714Y-133507142D01*
X120809523Y-133459523D01*
X120733333Y-133459523D01*
X120657142Y-133507142D01*
X120619047Y-133554761D01*
X120580952Y-133650000D01*
X120542857Y-133840476D01*
X120504761Y-133935714D01*
X120466666Y-133983333D01*
X120390476Y-134030952D01*
X120314285Y-134030952D01*
X120238095Y-133983333D01*
X120200000Y-133935714D01*
X120161904Y-133840476D01*
X120161904Y-133602380D01*
X120200000Y-133459523D01*
X120961904Y-133030952D02*
X120161904Y-133030952D01*
X120161904Y-132650000D01*
X120200000Y-132554761D01*
X120238095Y-132507142D01*
X120314285Y-132459523D01*
X120428571Y-132459523D01*
X120504761Y-132507142D01*
X120542857Y-132554761D01*
X120580952Y-132650000D01*
X120580952Y-133030952D01*
X120961904Y-132030952D02*
X120161904Y-132030952D01*
X121038095Y-131792857D02*
X121038095Y-131030952D01*
X120161904Y-130888095D02*
X120161904Y-130269047D01*
X120466666Y-130602380D01*
X120466666Y-130459523D01*
X120504761Y-130364285D01*
X120542857Y-130316666D01*
X120619047Y-130269047D01*
X120809523Y-130269047D01*
X120885714Y-130316666D01*
X120923809Y-130364285D01*
X120961904Y-130459523D01*
X120961904Y-130745238D01*
X120923809Y-130840476D01*
X120885714Y-130888095D01*
X121033333Y-108380952D02*
X121066666Y-108238095D01*
X121066666Y-108000000D01*
X121033333Y-107904761D01*
X121000000Y-107857142D01*
X120933333Y-107809523D01*
X120866666Y-107809523D01*
X120800000Y-107857142D01*
X120766666Y-107904761D01*
X120733333Y-108000000D01*
X120700000Y-108190476D01*
X120666666Y-108285714D01*
X120633333Y-108333333D01*
X120566666Y-108380952D01*
X120500000Y-108380952D01*
X120433333Y-108333333D01*
X120400000Y-108285714D01*
X120366666Y-108190476D01*
X120366666Y-107952380D01*
X120400000Y-107809523D01*
X121066666Y-107380952D02*
X120366666Y-107380952D01*
X120366666Y-107000000D01*
X120400000Y-106904761D01*
X120433333Y-106857142D01*
X120500000Y-106809523D01*
X120600000Y-106809523D01*
X120666666Y-106857142D01*
X120700000Y-106904761D01*
X120733333Y-107000000D01*
X120733333Y-107380952D01*
X121066666Y-106380952D02*
X120366666Y-106380952D01*
X121133333Y-106142857D02*
X121133333Y-105380952D01*
X120600000Y-104714285D02*
X121066666Y-104714285D01*
X120333333Y-104952380D02*
X120833333Y-105190476D01*
X120833333Y-104571428D01*
X117660476Y-77276666D02*
X117660476Y-77776666D01*
X117612857Y-77876666D01*
X117517619Y-77943333D01*
X117374761Y-77976666D01*
X117279523Y-77976666D01*
X118660476Y-77976666D02*
X118089047Y-77976666D01*
X118374761Y-77976666D02*
X118374761Y-77276666D01*
X118279523Y-77376666D01*
X118184285Y-77443333D01*
X118089047Y-77476666D01*
X119517619Y-77510000D02*
X119517619Y-77976666D01*
X119279523Y-77243333D02*
X119041428Y-77743333D01*
X119660476Y-77743333D01*
X135380476Y-77156666D02*
X135380476Y-77656666D01*
X135332857Y-77756666D01*
X135237619Y-77823333D01*
X135094761Y-77856666D01*
X134999523Y-77856666D01*
X136380476Y-77856666D02*
X135809047Y-77856666D01*
X136094761Y-77856666D02*
X136094761Y-77156666D01*
X135999523Y-77256666D01*
X135904285Y-77323333D01*
X135809047Y-77356666D01*
X137285238Y-77156666D02*
X136809047Y-77156666D01*
X136761428Y-77490000D01*
X136809047Y-77456666D01*
X136904285Y-77423333D01*
X137142380Y-77423333D01*
X137237619Y-77456666D01*
X137285238Y-77490000D01*
X137332857Y-77556666D01*
X137332857Y-77723333D01*
X137285238Y-77790000D01*
X137237619Y-77823333D01*
X137142380Y-77856666D01*
X136904285Y-77856666D01*
X136809047Y-77823333D01*
X136761428Y-77790000D01*
X126640476Y-77116666D02*
X126640476Y-77616666D01*
X126592857Y-77716666D01*
X126497619Y-77783333D01*
X126354761Y-77816666D01*
X126259523Y-77816666D01*
X127640476Y-77816666D02*
X127069047Y-77816666D01*
X127354761Y-77816666D02*
X127354761Y-77116666D01*
X127259523Y-77216666D01*
X127164285Y-77283333D01*
X127069047Y-77316666D01*
X128497619Y-77116666D02*
X128307142Y-77116666D01*
X128211904Y-77150000D01*
X128164285Y-77183333D01*
X128069047Y-77283333D01*
X128021428Y-77416666D01*
X128021428Y-77683333D01*
X128069047Y-77750000D01*
X128116666Y-77783333D01*
X128211904Y-77816666D01*
X128402380Y-77816666D01*
X128497619Y-77783333D01*
X128545238Y-77750000D01*
X128592857Y-77683333D01*
X128592857Y-77516666D01*
X128545238Y-77450000D01*
X128497619Y-77416666D01*
X128402380Y-77383333D01*
X128211904Y-77383333D01*
X128116666Y-77416666D01*
X128069047Y-77450000D01*
X128021428Y-77516666D01*
X144750476Y-77156666D02*
X144750476Y-77656666D01*
X144702857Y-77756666D01*
X144607619Y-77823333D01*
X144464761Y-77856666D01*
X144369523Y-77856666D01*
X145750476Y-77856666D02*
X145179047Y-77856666D01*
X145464761Y-77856666D02*
X145464761Y-77156666D01*
X145369523Y-77256666D01*
X145274285Y-77323333D01*
X145179047Y-77356666D01*
X146083809Y-77156666D02*
X146750476Y-77156666D01*
X146321904Y-77856666D01*
X153740476Y-77166666D02*
X153740476Y-77666666D01*
X153692857Y-77766666D01*
X153597619Y-77833333D01*
X153454761Y-77866666D01*
X153359523Y-77866666D01*
X154740476Y-77866666D02*
X154169047Y-77866666D01*
X154454761Y-77866666D02*
X154454761Y-77166666D01*
X154359523Y-77266666D01*
X154264285Y-77333333D01*
X154169047Y-77366666D01*
X155311904Y-77466666D02*
X155216666Y-77433333D01*
X155169047Y-77400000D01*
X155121428Y-77333333D01*
X155121428Y-77300000D01*
X155169047Y-77233333D01*
X155216666Y-77200000D01*
X155311904Y-77166666D01*
X155502380Y-77166666D01*
X155597619Y-77200000D01*
X155645238Y-77233333D01*
X155692857Y-77300000D01*
X155692857Y-77333333D01*
X155645238Y-77400000D01*
X155597619Y-77433333D01*
X155502380Y-77466666D01*
X155311904Y-77466666D01*
X155216666Y-77500000D01*
X155169047Y-77533333D01*
X155121428Y-77600000D01*
X155121428Y-77733333D01*
X155169047Y-77800000D01*
X155216666Y-77833333D01*
X155311904Y-77866666D01*
X155502380Y-77866666D01*
X155597619Y-77833333D01*
X155645238Y-77800000D01*
X155692857Y-77733333D01*
X155692857Y-77600000D01*
X155645238Y-77533333D01*
X155597619Y-77500000D01*
X155502380Y-77466666D01*
X162740476Y-77166666D02*
X162740476Y-77666666D01*
X162692857Y-77766666D01*
X162597619Y-77833333D01*
X162454761Y-77866666D01*
X162359523Y-77866666D01*
X163169047Y-77233333D02*
X163216666Y-77200000D01*
X163311904Y-77166666D01*
X163550000Y-77166666D01*
X163645238Y-77200000D01*
X163692857Y-77233333D01*
X163740476Y-77300000D01*
X163740476Y-77366666D01*
X163692857Y-77466666D01*
X163121428Y-77866666D01*
X163740476Y-77866666D01*
X164359523Y-77166666D02*
X164454761Y-77166666D01*
X164550000Y-77200000D01*
X164597619Y-77233333D01*
X164645238Y-77300000D01*
X164692857Y-77433333D01*
X164692857Y-77600000D01*
X164645238Y-77733333D01*
X164597619Y-77800000D01*
X164550000Y-77833333D01*
X164454761Y-77866666D01*
X164359523Y-77866666D01*
X164264285Y-77833333D01*
X164216666Y-77800000D01*
X164169047Y-77733333D01*
X164121428Y-77600000D01*
X164121428Y-77433333D01*
X164169047Y-77300000D01*
X164216666Y-77233333D01*
X164264285Y-77200000D01*
X164359523Y-77166666D01*
X190554761Y-99123809D02*
X190602380Y-98980952D01*
X190602380Y-98742857D01*
X190554761Y-98647619D01*
X190507142Y-98600000D01*
X190411904Y-98552380D01*
X190316666Y-98552380D01*
X190221428Y-98600000D01*
X190173809Y-98647619D01*
X190126190Y-98742857D01*
X190078571Y-98933333D01*
X190030952Y-99028571D01*
X189983333Y-99076190D01*
X189888095Y-99123809D01*
X189792857Y-99123809D01*
X189697619Y-99076190D01*
X189650000Y-99028571D01*
X189602380Y-98933333D01*
X189602380Y-98695238D01*
X189650000Y-98552380D01*
X190554761Y-98171428D02*
X190602380Y-98028571D01*
X190602380Y-97790476D01*
X190554761Y-97695238D01*
X190507142Y-97647619D01*
X190411904Y-97600000D01*
X190316666Y-97600000D01*
X190221428Y-97647619D01*
X190173809Y-97695238D01*
X190126190Y-97790476D01*
X190078571Y-97980952D01*
X190030952Y-98076190D01*
X189983333Y-98123809D01*
X189888095Y-98171428D01*
X189792857Y-98171428D01*
X189697619Y-98123809D01*
X189650000Y-98076190D01*
X189602380Y-97980952D01*
X189602380Y-97742857D01*
X189650000Y-97600000D01*
X190697619Y-97409523D02*
X190697619Y-96647619D01*
X190602380Y-96409523D02*
X189602380Y-96409523D01*
X190602380Y-95838095D01*
X189602380Y-95838095D01*
X190697619Y-95600000D02*
X190697619Y-94838095D01*
X189602380Y-94409523D02*
X189602380Y-94314285D01*
X189650000Y-94219047D01*
X189697619Y-94171428D01*
X189792857Y-94123809D01*
X189983333Y-94076190D01*
X190221428Y-94076190D01*
X190411904Y-94123809D01*
X190507142Y-94171428D01*
X190554761Y-94219047D01*
X190602380Y-94314285D01*
X190602380Y-94409523D01*
X190554761Y-94504761D01*
X190507142Y-94552380D01*
X190411904Y-94600000D01*
X190221428Y-94647619D01*
X189983333Y-94647619D01*
X189792857Y-94600000D01*
X189697619Y-94552380D01*
X189650000Y-94504761D01*
X189602380Y-94409523D01*
X190354761Y-128823809D02*
X190402380Y-128680952D01*
X190402380Y-128442857D01*
X190354761Y-128347619D01*
X190307142Y-128300000D01*
X190211904Y-128252380D01*
X190116666Y-128252380D01*
X190021428Y-128300000D01*
X189973809Y-128347619D01*
X189926190Y-128442857D01*
X189878571Y-128633333D01*
X189830952Y-128728571D01*
X189783333Y-128776190D01*
X189688095Y-128823809D01*
X189592857Y-128823809D01*
X189497619Y-128776190D01*
X189450000Y-128728571D01*
X189402380Y-128633333D01*
X189402380Y-128395238D01*
X189450000Y-128252380D01*
X190354761Y-127871428D02*
X190402380Y-127728571D01*
X190402380Y-127490476D01*
X190354761Y-127395238D01*
X190307142Y-127347619D01*
X190211904Y-127300000D01*
X190116666Y-127300000D01*
X190021428Y-127347619D01*
X189973809Y-127395238D01*
X189926190Y-127490476D01*
X189878571Y-127680952D01*
X189830952Y-127776190D01*
X189783333Y-127823809D01*
X189688095Y-127871428D01*
X189592857Y-127871428D01*
X189497619Y-127823809D01*
X189450000Y-127776190D01*
X189402380Y-127680952D01*
X189402380Y-127442857D01*
X189450000Y-127300000D01*
X190497619Y-127109523D02*
X190497619Y-126347619D01*
X190402380Y-126109523D02*
X189402380Y-126109523D01*
X190402380Y-125538095D01*
X189402380Y-125538095D01*
X190497619Y-125300000D02*
X190497619Y-124538095D01*
X190402380Y-123776190D02*
X190402380Y-124347619D01*
X190402380Y-124061904D02*
X189402380Y-124061904D01*
X189545238Y-124157142D01*
X189640476Y-124252380D01*
X189688095Y-124347619D01*
X178826190Y-137504761D02*
X178969047Y-137552380D01*
X179207142Y-137552380D01*
X179302380Y-137504761D01*
X179350000Y-137457142D01*
X179397619Y-137361904D01*
X179397619Y-137266666D01*
X179350000Y-137171428D01*
X179302380Y-137123809D01*
X179207142Y-137076190D01*
X179016666Y-137028571D01*
X178921428Y-136980952D01*
X178873809Y-136933333D01*
X178826190Y-136838095D01*
X178826190Y-136742857D01*
X178873809Y-136647619D01*
X178921428Y-136600000D01*
X179016666Y-136552380D01*
X179254761Y-136552380D01*
X179397619Y-136600000D01*
X179778571Y-137504761D02*
X179921428Y-137552380D01*
X180159523Y-137552380D01*
X180254761Y-137504761D01*
X180302380Y-137457142D01*
X180350000Y-137361904D01*
X180350000Y-137266666D01*
X180302380Y-137171428D01*
X180254761Y-137123809D01*
X180159523Y-137076190D01*
X179969047Y-137028571D01*
X179873809Y-136980952D01*
X179826190Y-136933333D01*
X179778571Y-136838095D01*
X179778571Y-136742857D01*
X179826190Y-136647619D01*
X179873809Y-136600000D01*
X179969047Y-136552380D01*
X180207142Y-136552380D01*
X180350000Y-136600000D01*
X180540476Y-137647619D02*
X181302380Y-137647619D01*
X181540476Y-137552380D02*
X181540476Y-136552380D01*
X182111904Y-137552380D01*
X182111904Y-136552380D01*
X182350000Y-137647619D02*
X183111904Y-137647619D01*
X183302380Y-136647619D02*
X183350000Y-136600000D01*
X183445238Y-136552380D01*
X183683333Y-136552380D01*
X183778571Y-136600000D01*
X183826190Y-136647619D01*
X183873809Y-136742857D01*
X183873809Y-136838095D01*
X183826190Y-136980952D01*
X183254761Y-137552380D01*
X183873809Y-137552380D01*
X121004761Y-121973809D02*
X121052380Y-121830952D01*
X121052380Y-121592857D01*
X121004761Y-121497619D01*
X120957142Y-121450000D01*
X120861904Y-121402380D01*
X120766666Y-121402380D01*
X120671428Y-121450000D01*
X120623809Y-121497619D01*
X120576190Y-121592857D01*
X120528571Y-121783333D01*
X120480952Y-121878571D01*
X120433333Y-121926190D01*
X120338095Y-121973809D01*
X120242857Y-121973809D01*
X120147619Y-121926190D01*
X120100000Y-121878571D01*
X120052380Y-121783333D01*
X120052380Y-121545238D01*
X120100000Y-121402380D01*
X121004761Y-121021428D02*
X121052380Y-120878571D01*
X121052380Y-120640476D01*
X121004761Y-120545238D01*
X120957142Y-120497619D01*
X120861904Y-120450000D01*
X120766666Y-120450000D01*
X120671428Y-120497619D01*
X120623809Y-120545238D01*
X120576190Y-120640476D01*
X120528571Y-120830952D01*
X120480952Y-120926190D01*
X120433333Y-120973809D01*
X120338095Y-121021428D01*
X120242857Y-121021428D01*
X120147619Y-120973809D01*
X120100000Y-120926190D01*
X120052380Y-120830952D01*
X120052380Y-120592857D01*
X120100000Y-120450000D01*
X121147619Y-120259523D02*
X121147619Y-119497619D01*
X121052380Y-119259523D02*
X120052380Y-119259523D01*
X121052380Y-118688095D01*
X120052380Y-118688095D01*
X121147619Y-118450000D02*
X121147619Y-117688095D01*
X120052380Y-117545238D02*
X120052380Y-116926190D01*
X120433333Y-117259523D01*
X120433333Y-117116666D01*
X120480952Y-117021428D01*
X120528571Y-116973809D01*
X120623809Y-116926190D01*
X120861904Y-116926190D01*
X120957142Y-116973809D01*
X121004761Y-117021428D01*
X121052380Y-117116666D01*
X121052380Y-117402380D01*
X121004761Y-117497619D01*
X120957142Y-117545238D01*
X162780952Y-137402380D02*
X162780952Y-136402380D01*
X163161904Y-136402380D01*
X163257142Y-136450000D01*
X163304761Y-136497619D01*
X163352380Y-136592857D01*
X163352380Y-136735714D01*
X163304761Y-136830952D01*
X163257142Y-136878571D01*
X163161904Y-136926190D01*
X162780952Y-136926190D01*
X163971428Y-136402380D02*
X164161904Y-136402380D01*
X164257142Y-136450000D01*
X164352380Y-136545238D01*
X164400000Y-136735714D01*
X164400000Y-137069047D01*
X164352380Y-137259523D01*
X164257142Y-137354761D01*
X164161904Y-137402380D01*
X163971428Y-137402380D01*
X163876190Y-137354761D01*
X163780952Y-137259523D01*
X163733333Y-137069047D01*
X163733333Y-136735714D01*
X163780952Y-136545238D01*
X163876190Y-136450000D01*
X163971428Y-136402380D01*
X164733333Y-136402380D02*
X164971428Y-137402380D01*
X165161904Y-136688095D01*
X165352380Y-137402380D01*
X165590476Y-136402380D01*
X165971428Y-136878571D02*
X166304761Y-136878571D01*
X166447619Y-137402380D02*
X165971428Y-137402380D01*
X165971428Y-136402380D01*
X166447619Y-136402380D01*
X167447619Y-137402380D02*
X167114285Y-136926190D01*
X166876190Y-137402380D02*
X166876190Y-136402380D01*
X167257142Y-136402380D01*
X167352380Y-136450000D01*
X167400000Y-136497619D01*
X167447619Y-136592857D01*
X167447619Y-136735714D01*
X167400000Y-136830952D01*
X167352380Y-136878571D01*
X167257142Y-136926190D01*
X166876190Y-136926190D01*
X167638095Y-137497619D02*
X168400000Y-137497619D01*
X168590476Y-137354761D02*
X168733333Y-137402380D01*
X168971428Y-137402380D01*
X169066666Y-137354761D01*
X169114285Y-137307142D01*
X169161904Y-137211904D01*
X169161904Y-137116666D01*
X169114285Y-137021428D01*
X169066666Y-136973809D01*
X168971428Y-136926190D01*
X168780952Y-136878571D01*
X168685714Y-136830952D01*
X168638095Y-136783333D01*
X168590476Y-136688095D01*
X168590476Y-136592857D01*
X168638095Y-136497619D01*
X168685714Y-136450000D01*
X168780952Y-136402380D01*
X169019047Y-136402380D01*
X169161904Y-136450000D01*
X169590476Y-136878571D02*
X169923809Y-136878571D01*
X170066666Y-137402380D02*
X169590476Y-137402380D01*
X169590476Y-136402380D01*
X170066666Y-136402380D01*
X170495238Y-137402380D02*
X170495238Y-136402380D01*
X171066666Y-137402380D01*
X171066666Y-136402380D01*
X171495238Y-137354761D02*
X171638095Y-137402380D01*
X171876190Y-137402380D01*
X171971428Y-137354761D01*
X172019047Y-137307142D01*
X172066666Y-137211904D01*
X172066666Y-137116666D01*
X172019047Y-137021428D01*
X171971428Y-136973809D01*
X171876190Y-136926190D01*
X171685714Y-136878571D01*
X171590476Y-136830952D01*
X171542857Y-136783333D01*
X171495238Y-136688095D01*
X171495238Y-136592857D01*
X171542857Y-136497619D01*
X171590476Y-136450000D01*
X171685714Y-136402380D01*
X171923809Y-136402380D01*
X172066666Y-136450000D01*
X121204761Y-95373809D02*
X121252380Y-95230952D01*
X121252380Y-94992857D01*
X121204761Y-94897619D01*
X121157142Y-94850000D01*
X121061904Y-94802380D01*
X120966666Y-94802380D01*
X120871428Y-94850000D01*
X120823809Y-94897619D01*
X120776190Y-94992857D01*
X120728571Y-95183333D01*
X120680952Y-95278571D01*
X120633333Y-95326190D01*
X120538095Y-95373809D01*
X120442857Y-95373809D01*
X120347619Y-95326190D01*
X120300000Y-95278571D01*
X120252380Y-95183333D01*
X120252380Y-94945238D01*
X120300000Y-94802380D01*
X121204761Y-94421428D02*
X121252380Y-94278571D01*
X121252380Y-94040476D01*
X121204761Y-93945238D01*
X121157142Y-93897619D01*
X121061904Y-93850000D01*
X120966666Y-93850000D01*
X120871428Y-93897619D01*
X120823809Y-93945238D01*
X120776190Y-94040476D01*
X120728571Y-94230952D01*
X120680952Y-94326190D01*
X120633333Y-94373809D01*
X120538095Y-94421428D01*
X120442857Y-94421428D01*
X120347619Y-94373809D01*
X120300000Y-94326190D01*
X120252380Y-94230952D01*
X120252380Y-93992857D01*
X120300000Y-93850000D01*
X121347619Y-93659523D02*
X121347619Y-92897619D01*
X121252380Y-92659523D02*
X120252380Y-92659523D01*
X121252380Y-92088095D01*
X120252380Y-92088095D01*
X121347619Y-91850000D02*
X121347619Y-91088095D01*
X120585714Y-90421428D02*
X121252380Y-90421428D01*
X120204761Y-90659523D02*
X120919047Y-90897619D01*
X120919047Y-90278571D01*
M02*
