G04 #@! TF.GenerationSoftware,KiCad,Pcbnew,5.1.0-060a0da~80~ubuntu18.04.1*
G04 #@! TF.CreationDate,2019-05-11T22:14:08+02:00*
G04 #@! TF.ProjectId,myo_shield_pcb,6d796f5f-7368-4696-956c-645f7063622e,rev?*
G04 #@! TF.SameCoordinates,Original*
G04 #@! TF.FileFunction,Copper,L2,Bot*
G04 #@! TF.FilePolarity,Positive*
%FSLAX46Y46*%
G04 Gerber Fmt 4.6, Leading zero omitted, Abs format (unit mm)*
G04 Created by KiCad (PCBNEW 5.1.0-060a0da~80~ubuntu18.04.1) date 2019-05-11 22:14:08*
%MOMM*%
%LPD*%
G04 APERTURE LIST*
%ADD10C,1.800000*%
%ADD11R,1.800000X1.800000*%
%ADD12R,1.700000X1.700000*%
%ADD13O,1.700000X1.700000*%
%ADD14C,0.100000*%
%ADD15C,0.300000*%
%ADD16C,0.800000*%
%ADD17C,0.250000*%
%ADD18C,0.450000*%
G04 APERTURE END LIST*
D10*
X194770000Y-81905000D03*
X192230000Y-80635000D03*
X194770000Y-79365000D03*
D11*
X192230000Y-78095000D03*
X192230000Y-111595000D03*
D10*
X194770000Y-112865000D03*
X192230000Y-114135000D03*
X194770000Y-115405000D03*
X194770000Y-141405000D03*
X192230000Y-140135000D03*
X194770000Y-138865000D03*
D11*
X192230000Y-137595000D03*
D10*
X115730000Y-130595000D03*
X118270000Y-131865000D03*
X115730000Y-133135000D03*
D11*
X118270000Y-134405000D03*
X118270000Y-107905000D03*
D10*
X115730000Y-106635000D03*
X118270000Y-105365000D03*
X115730000Y-104095000D03*
D11*
X116595000Y-82270000D03*
D10*
X117865000Y-79730000D03*
X119135000Y-82270000D03*
X120405000Y-79730000D03*
D11*
X134595000Y-82270000D03*
D10*
X135865000Y-79730000D03*
X137135000Y-82270000D03*
X138405000Y-79730000D03*
X129405000Y-79730000D03*
X128135000Y-82270000D03*
X126865000Y-79730000D03*
D11*
X125595000Y-82270000D03*
X143595000Y-82270000D03*
D10*
X144865000Y-79730000D03*
X146135000Y-82270000D03*
X147405000Y-79730000D03*
X156405000Y-79730000D03*
X155135000Y-82270000D03*
X153865000Y-79730000D03*
D11*
X152595000Y-82270000D03*
X161695000Y-82270000D03*
D10*
X162965000Y-79730000D03*
X164235000Y-82270000D03*
X165505000Y-79730000D03*
D12*
X192500000Y-86500000D03*
D13*
X192500000Y-89040000D03*
X192500000Y-91580000D03*
X192500000Y-94120000D03*
X192500000Y-96660000D03*
X192500000Y-99200000D03*
X192500000Y-101740000D03*
X192500000Y-104280000D03*
X192500000Y-106820000D03*
X192500000Y-132700000D03*
X192500000Y-130160000D03*
X192500000Y-127620000D03*
X192500000Y-125080000D03*
X192500000Y-122540000D03*
D12*
X192500000Y-120000000D03*
X188000000Y-139500000D03*
D13*
X185460000Y-139500000D03*
X182920000Y-139500000D03*
X180380000Y-139500000D03*
X177840000Y-139500000D03*
X175300000Y-139500000D03*
X118500000Y-112800000D03*
X118500000Y-115340000D03*
X118500000Y-117880000D03*
X118500000Y-120420000D03*
X118500000Y-122960000D03*
D12*
X118500000Y-125500000D03*
X170000000Y-139500000D03*
D13*
X167460000Y-139500000D03*
X164920000Y-139500000D03*
D12*
X118500000Y-99000000D03*
D13*
X118500000Y-96460000D03*
X118500000Y-93920000D03*
X118500000Y-91380000D03*
X118500000Y-88840000D03*
X118500000Y-86300000D03*
D12*
X163400000Y-121400000D03*
D13*
X163400000Y-118860000D03*
X188090000Y-135050000D03*
X185550000Y-135050000D03*
X188090000Y-132510000D03*
X185550000Y-132510000D03*
X188090000Y-129970000D03*
X185550000Y-129970000D03*
X188090000Y-127430000D03*
X185550000Y-127430000D03*
X188090000Y-124890000D03*
X185550000Y-124890000D03*
X188090000Y-122350000D03*
X185550000Y-122350000D03*
X188090000Y-119810000D03*
X185550000Y-119810000D03*
X188090000Y-117270000D03*
X185550000Y-117270000D03*
X188090000Y-114730000D03*
X185550000Y-114730000D03*
X188090000Y-112190000D03*
X185550000Y-112190000D03*
X188090000Y-109650000D03*
X185550000Y-109650000D03*
X188090000Y-107110000D03*
X185550000Y-107110000D03*
X188090000Y-104570000D03*
X185550000Y-104570000D03*
X188090000Y-102030000D03*
X185550000Y-102030000D03*
X188090000Y-99490000D03*
X185550000Y-99490000D03*
X188090000Y-96950000D03*
X185550000Y-96950000D03*
X188090000Y-94410000D03*
X185550000Y-94410000D03*
X188090000Y-91870000D03*
X185550000Y-91870000D03*
X188090000Y-89330000D03*
X185550000Y-89330000D03*
X188090000Y-86790000D03*
D12*
X185550000Y-86790000D03*
X125100000Y-135050000D03*
D13*
X122560000Y-135050000D03*
X125100000Y-132510000D03*
X122560000Y-132510000D03*
X125100000Y-129970000D03*
X122560000Y-129970000D03*
X125100000Y-127430000D03*
X122560000Y-127430000D03*
X125100000Y-124890000D03*
X122560000Y-124890000D03*
X125100000Y-122350000D03*
X122560000Y-122350000D03*
X125100000Y-119810000D03*
X122560000Y-119810000D03*
X125100000Y-117270000D03*
X122560000Y-117270000D03*
X125100000Y-114730000D03*
X122560000Y-114730000D03*
X125100000Y-112190000D03*
X122560000Y-112190000D03*
X125100000Y-109650000D03*
X122560000Y-109650000D03*
X125100000Y-107110000D03*
X122560000Y-107110000D03*
X125100000Y-104570000D03*
X122560000Y-104570000D03*
X125100000Y-102030000D03*
X122560000Y-102030000D03*
X125100000Y-99490000D03*
X122560000Y-99490000D03*
X125100000Y-96950000D03*
X122560000Y-96950000D03*
X125100000Y-94410000D03*
X122560000Y-94410000D03*
X125100000Y-91870000D03*
X122560000Y-91870000D03*
X125100000Y-89330000D03*
X122560000Y-89330000D03*
X125100000Y-86790000D03*
X122560000Y-86790000D03*
D14*
G36*
X190882351Y-77950361D02*
G01*
X190889632Y-77951441D01*
X190896771Y-77953229D01*
X190903701Y-77955709D01*
X190910355Y-77958856D01*
X190916668Y-77962640D01*
X190922579Y-77967024D01*
X190928033Y-77971967D01*
X190932976Y-77977421D01*
X190937360Y-77983332D01*
X190941144Y-77989645D01*
X190944291Y-77996299D01*
X190946771Y-78003229D01*
X190948559Y-78010368D01*
X190949639Y-78017649D01*
X190950000Y-78025000D01*
X190950000Y-78175000D01*
X190949639Y-78182351D01*
X190948559Y-78189632D01*
X190946771Y-78196771D01*
X190944291Y-78203701D01*
X190941144Y-78210355D01*
X190937360Y-78216668D01*
X190932976Y-78222579D01*
X190928033Y-78228033D01*
X190922579Y-78232976D01*
X190916668Y-78237360D01*
X190910355Y-78241144D01*
X190903701Y-78244291D01*
X190896771Y-78246771D01*
X190889632Y-78248559D01*
X190882351Y-78249639D01*
X190875000Y-78250000D01*
X190625000Y-78250000D01*
X190617649Y-78249639D01*
X190610368Y-78248559D01*
X190603229Y-78246771D01*
X190596299Y-78244291D01*
X190589645Y-78241144D01*
X190583332Y-78237360D01*
X190577421Y-78232976D01*
X190571967Y-78228033D01*
X190567024Y-78222579D01*
X190562640Y-78216668D01*
X190558856Y-78210355D01*
X190555709Y-78203701D01*
X190553229Y-78196771D01*
X190551441Y-78189632D01*
X190550361Y-78182351D01*
X190550000Y-78175000D01*
X190550000Y-78025000D01*
X190550361Y-78017649D01*
X190551441Y-78010368D01*
X190553229Y-78003229D01*
X190555709Y-77996299D01*
X190558856Y-77989645D01*
X190562640Y-77983332D01*
X190567024Y-77977421D01*
X190571967Y-77971967D01*
X190577421Y-77967024D01*
X190583332Y-77962640D01*
X190589645Y-77958856D01*
X190596299Y-77955709D01*
X190603229Y-77953229D01*
X190610368Y-77951441D01*
X190617649Y-77950361D01*
X190625000Y-77950000D01*
X190875000Y-77950000D01*
X190882351Y-77950361D01*
X190882351Y-77950361D01*
G37*
D15*
X190750000Y-78100000D03*
D14*
G36*
X190382351Y-77950361D02*
G01*
X190389632Y-77951441D01*
X190396771Y-77953229D01*
X190403701Y-77955709D01*
X190410355Y-77958856D01*
X190416668Y-77962640D01*
X190422579Y-77967024D01*
X190428033Y-77971967D01*
X190432976Y-77977421D01*
X190437360Y-77983332D01*
X190441144Y-77989645D01*
X190444291Y-77996299D01*
X190446771Y-78003229D01*
X190448559Y-78010368D01*
X190449639Y-78017649D01*
X190450000Y-78025000D01*
X190450000Y-78175000D01*
X190449639Y-78182351D01*
X190448559Y-78189632D01*
X190446771Y-78196771D01*
X190444291Y-78203701D01*
X190441144Y-78210355D01*
X190437360Y-78216668D01*
X190432976Y-78222579D01*
X190428033Y-78228033D01*
X190422579Y-78232976D01*
X190416668Y-78237360D01*
X190410355Y-78241144D01*
X190403701Y-78244291D01*
X190396771Y-78246771D01*
X190389632Y-78248559D01*
X190382351Y-78249639D01*
X190375000Y-78250000D01*
X190125000Y-78250000D01*
X190117649Y-78249639D01*
X190110368Y-78248559D01*
X190103229Y-78246771D01*
X190096299Y-78244291D01*
X190089645Y-78241144D01*
X190083332Y-78237360D01*
X190077421Y-78232976D01*
X190071967Y-78228033D01*
X190067024Y-78222579D01*
X190062640Y-78216668D01*
X190058856Y-78210355D01*
X190055709Y-78203701D01*
X190053229Y-78196771D01*
X190051441Y-78189632D01*
X190050361Y-78182351D01*
X190050000Y-78175000D01*
X190050000Y-78025000D01*
X190050361Y-78017649D01*
X190051441Y-78010368D01*
X190053229Y-78003229D01*
X190055709Y-77996299D01*
X190058856Y-77989645D01*
X190062640Y-77983332D01*
X190067024Y-77977421D01*
X190071967Y-77971967D01*
X190077421Y-77967024D01*
X190083332Y-77962640D01*
X190089645Y-77958856D01*
X190096299Y-77955709D01*
X190103229Y-77953229D01*
X190110368Y-77951441D01*
X190117649Y-77950361D01*
X190125000Y-77950000D01*
X190375000Y-77950000D01*
X190382351Y-77950361D01*
X190382351Y-77950361D01*
G37*
D15*
X190250000Y-78100000D03*
D14*
G36*
X191982551Y-82959161D02*
G01*
X191989832Y-82960241D01*
X191996971Y-82962029D01*
X192003901Y-82964509D01*
X192010555Y-82967656D01*
X192016868Y-82971440D01*
X192022779Y-82975824D01*
X192028233Y-82980767D01*
X192033176Y-82986221D01*
X192037560Y-82992132D01*
X192041344Y-82998445D01*
X192044491Y-83005099D01*
X192046971Y-83012029D01*
X192048759Y-83019168D01*
X192049839Y-83026449D01*
X192050200Y-83033800D01*
X192050200Y-83183800D01*
X192049839Y-83191151D01*
X192048759Y-83198432D01*
X192046971Y-83205571D01*
X192044491Y-83212501D01*
X192041344Y-83219155D01*
X192037560Y-83225468D01*
X192033176Y-83231379D01*
X192028233Y-83236833D01*
X192022779Y-83241776D01*
X192016868Y-83246160D01*
X192010555Y-83249944D01*
X192003901Y-83253091D01*
X191996971Y-83255571D01*
X191989832Y-83257359D01*
X191982551Y-83258439D01*
X191975200Y-83258800D01*
X191725200Y-83258800D01*
X191717849Y-83258439D01*
X191710568Y-83257359D01*
X191703429Y-83255571D01*
X191696499Y-83253091D01*
X191689845Y-83249944D01*
X191683532Y-83246160D01*
X191677621Y-83241776D01*
X191672167Y-83236833D01*
X191667224Y-83231379D01*
X191662840Y-83225468D01*
X191659056Y-83219155D01*
X191655909Y-83212501D01*
X191653429Y-83205571D01*
X191651641Y-83198432D01*
X191650561Y-83191151D01*
X191650200Y-83183800D01*
X191650200Y-83033800D01*
X191650561Y-83026449D01*
X191651641Y-83019168D01*
X191653429Y-83012029D01*
X191655909Y-83005099D01*
X191659056Y-82998445D01*
X191662840Y-82992132D01*
X191667224Y-82986221D01*
X191672167Y-82980767D01*
X191677621Y-82975824D01*
X191683532Y-82971440D01*
X191689845Y-82967656D01*
X191696499Y-82964509D01*
X191703429Y-82962029D01*
X191710568Y-82960241D01*
X191717849Y-82959161D01*
X191725200Y-82958800D01*
X191975200Y-82958800D01*
X191982551Y-82959161D01*
X191982551Y-82959161D01*
G37*
D15*
X191850200Y-83108800D03*
D14*
G36*
X192482551Y-82959161D02*
G01*
X192489832Y-82960241D01*
X192496971Y-82962029D01*
X192503901Y-82964509D01*
X192510555Y-82967656D01*
X192516868Y-82971440D01*
X192522779Y-82975824D01*
X192528233Y-82980767D01*
X192533176Y-82986221D01*
X192537560Y-82992132D01*
X192541344Y-82998445D01*
X192544491Y-83005099D01*
X192546971Y-83012029D01*
X192548759Y-83019168D01*
X192549839Y-83026449D01*
X192550200Y-83033800D01*
X192550200Y-83183800D01*
X192549839Y-83191151D01*
X192548759Y-83198432D01*
X192546971Y-83205571D01*
X192544491Y-83212501D01*
X192541344Y-83219155D01*
X192537560Y-83225468D01*
X192533176Y-83231379D01*
X192528233Y-83236833D01*
X192522779Y-83241776D01*
X192516868Y-83246160D01*
X192510555Y-83249944D01*
X192503901Y-83253091D01*
X192496971Y-83255571D01*
X192489832Y-83257359D01*
X192482551Y-83258439D01*
X192475200Y-83258800D01*
X192225200Y-83258800D01*
X192217849Y-83258439D01*
X192210568Y-83257359D01*
X192203429Y-83255571D01*
X192196499Y-83253091D01*
X192189845Y-83249944D01*
X192183532Y-83246160D01*
X192177621Y-83241776D01*
X192172167Y-83236833D01*
X192167224Y-83231379D01*
X192162840Y-83225468D01*
X192159056Y-83219155D01*
X192155909Y-83212501D01*
X192153429Y-83205571D01*
X192151641Y-83198432D01*
X192150561Y-83191151D01*
X192150200Y-83183800D01*
X192150200Y-83033800D01*
X192150561Y-83026449D01*
X192151641Y-83019168D01*
X192153429Y-83012029D01*
X192155909Y-83005099D01*
X192159056Y-82998445D01*
X192162840Y-82992132D01*
X192167224Y-82986221D01*
X192172167Y-82980767D01*
X192177621Y-82975824D01*
X192183532Y-82971440D01*
X192189845Y-82967656D01*
X192196499Y-82964509D01*
X192203429Y-82962029D01*
X192210568Y-82960241D01*
X192217849Y-82959161D01*
X192225200Y-82958800D01*
X192475200Y-82958800D01*
X192482551Y-82959161D01*
X192482551Y-82959161D01*
G37*
D15*
X192350200Y-83108800D03*
D14*
G36*
X190132351Y-82650361D02*
G01*
X190139632Y-82651441D01*
X190146771Y-82653229D01*
X190153701Y-82655709D01*
X190160355Y-82658856D01*
X190166668Y-82662640D01*
X190172579Y-82667024D01*
X190178033Y-82671967D01*
X190182976Y-82677421D01*
X190187360Y-82683332D01*
X190191144Y-82689645D01*
X190194291Y-82696299D01*
X190196771Y-82703229D01*
X190198559Y-82710368D01*
X190199639Y-82717649D01*
X190200000Y-82725000D01*
X190200000Y-82875000D01*
X190199639Y-82882351D01*
X190198559Y-82889632D01*
X190196771Y-82896771D01*
X190194291Y-82903701D01*
X190191144Y-82910355D01*
X190187360Y-82916668D01*
X190182976Y-82922579D01*
X190178033Y-82928033D01*
X190172579Y-82932976D01*
X190166668Y-82937360D01*
X190160355Y-82941144D01*
X190153701Y-82944291D01*
X190146771Y-82946771D01*
X190139632Y-82948559D01*
X190132351Y-82949639D01*
X190125000Y-82950000D01*
X189875000Y-82950000D01*
X189867649Y-82949639D01*
X189860368Y-82948559D01*
X189853229Y-82946771D01*
X189846299Y-82944291D01*
X189839645Y-82941144D01*
X189833332Y-82937360D01*
X189827421Y-82932976D01*
X189821967Y-82928033D01*
X189817024Y-82922579D01*
X189812640Y-82916668D01*
X189808856Y-82910355D01*
X189805709Y-82903701D01*
X189803229Y-82896771D01*
X189801441Y-82889632D01*
X189800361Y-82882351D01*
X189800000Y-82875000D01*
X189800000Y-82725000D01*
X189800361Y-82717649D01*
X189801441Y-82710368D01*
X189803229Y-82703229D01*
X189805709Y-82696299D01*
X189808856Y-82689645D01*
X189812640Y-82683332D01*
X189817024Y-82677421D01*
X189821967Y-82671967D01*
X189827421Y-82667024D01*
X189833332Y-82662640D01*
X189839645Y-82658856D01*
X189846299Y-82655709D01*
X189853229Y-82653229D01*
X189860368Y-82651441D01*
X189867649Y-82650361D01*
X189875000Y-82650000D01*
X190125000Y-82650000D01*
X190132351Y-82650361D01*
X190132351Y-82650361D01*
G37*
D15*
X190000000Y-82800000D03*
D14*
G36*
X189632351Y-82650361D02*
G01*
X189639632Y-82651441D01*
X189646771Y-82653229D01*
X189653701Y-82655709D01*
X189660355Y-82658856D01*
X189666668Y-82662640D01*
X189672579Y-82667024D01*
X189678033Y-82671967D01*
X189682976Y-82677421D01*
X189687360Y-82683332D01*
X189691144Y-82689645D01*
X189694291Y-82696299D01*
X189696771Y-82703229D01*
X189698559Y-82710368D01*
X189699639Y-82717649D01*
X189700000Y-82725000D01*
X189700000Y-82875000D01*
X189699639Y-82882351D01*
X189698559Y-82889632D01*
X189696771Y-82896771D01*
X189694291Y-82903701D01*
X189691144Y-82910355D01*
X189687360Y-82916668D01*
X189682976Y-82922579D01*
X189678033Y-82928033D01*
X189672579Y-82932976D01*
X189666668Y-82937360D01*
X189660355Y-82941144D01*
X189653701Y-82944291D01*
X189646771Y-82946771D01*
X189639632Y-82948559D01*
X189632351Y-82949639D01*
X189625000Y-82950000D01*
X189375000Y-82950000D01*
X189367649Y-82949639D01*
X189360368Y-82948559D01*
X189353229Y-82946771D01*
X189346299Y-82944291D01*
X189339645Y-82941144D01*
X189333332Y-82937360D01*
X189327421Y-82932976D01*
X189321967Y-82928033D01*
X189317024Y-82922579D01*
X189312640Y-82916668D01*
X189308856Y-82910355D01*
X189305709Y-82903701D01*
X189303229Y-82896771D01*
X189301441Y-82889632D01*
X189300361Y-82882351D01*
X189300000Y-82875000D01*
X189300000Y-82725000D01*
X189300361Y-82717649D01*
X189301441Y-82710368D01*
X189303229Y-82703229D01*
X189305709Y-82696299D01*
X189308856Y-82689645D01*
X189312640Y-82683332D01*
X189317024Y-82677421D01*
X189321967Y-82671967D01*
X189327421Y-82667024D01*
X189333332Y-82662640D01*
X189339645Y-82658856D01*
X189346299Y-82655709D01*
X189353229Y-82653229D01*
X189360368Y-82651441D01*
X189367649Y-82650361D01*
X189375000Y-82650000D01*
X189625000Y-82650000D01*
X189632351Y-82650361D01*
X189632351Y-82650361D01*
G37*
D15*
X189500000Y-82800000D03*
D14*
G36*
X192332351Y-109550361D02*
G01*
X192339632Y-109551441D01*
X192346771Y-109553229D01*
X192353701Y-109555709D01*
X192360355Y-109558856D01*
X192366668Y-109562640D01*
X192372579Y-109567024D01*
X192378033Y-109571967D01*
X192382976Y-109577421D01*
X192387360Y-109583332D01*
X192391144Y-109589645D01*
X192394291Y-109596299D01*
X192396771Y-109603229D01*
X192398559Y-109610368D01*
X192399639Y-109617649D01*
X192400000Y-109625000D01*
X192400000Y-109875000D01*
X192399639Y-109882351D01*
X192398559Y-109889632D01*
X192396771Y-109896771D01*
X192394291Y-109903701D01*
X192391144Y-109910355D01*
X192387360Y-109916668D01*
X192382976Y-109922579D01*
X192378033Y-109928033D01*
X192372579Y-109932976D01*
X192366668Y-109937360D01*
X192360355Y-109941144D01*
X192353701Y-109944291D01*
X192346771Y-109946771D01*
X192339632Y-109948559D01*
X192332351Y-109949639D01*
X192325000Y-109950000D01*
X192175000Y-109950000D01*
X192167649Y-109949639D01*
X192160368Y-109948559D01*
X192153229Y-109946771D01*
X192146299Y-109944291D01*
X192139645Y-109941144D01*
X192133332Y-109937360D01*
X192127421Y-109932976D01*
X192121967Y-109928033D01*
X192117024Y-109922579D01*
X192112640Y-109916668D01*
X192108856Y-109910355D01*
X192105709Y-109903701D01*
X192103229Y-109896771D01*
X192101441Y-109889632D01*
X192100361Y-109882351D01*
X192100000Y-109875000D01*
X192100000Y-109625000D01*
X192100361Y-109617649D01*
X192101441Y-109610368D01*
X192103229Y-109603229D01*
X192105709Y-109596299D01*
X192108856Y-109589645D01*
X192112640Y-109583332D01*
X192117024Y-109577421D01*
X192121967Y-109571967D01*
X192127421Y-109567024D01*
X192133332Y-109562640D01*
X192139645Y-109558856D01*
X192146299Y-109555709D01*
X192153229Y-109553229D01*
X192160368Y-109551441D01*
X192167649Y-109550361D01*
X192175000Y-109550000D01*
X192325000Y-109550000D01*
X192332351Y-109550361D01*
X192332351Y-109550361D01*
G37*
D15*
X192250000Y-109750000D03*
D14*
G36*
X192332351Y-110050361D02*
G01*
X192339632Y-110051441D01*
X192346771Y-110053229D01*
X192353701Y-110055709D01*
X192360355Y-110058856D01*
X192366668Y-110062640D01*
X192372579Y-110067024D01*
X192378033Y-110071967D01*
X192382976Y-110077421D01*
X192387360Y-110083332D01*
X192391144Y-110089645D01*
X192394291Y-110096299D01*
X192396771Y-110103229D01*
X192398559Y-110110368D01*
X192399639Y-110117649D01*
X192400000Y-110125000D01*
X192400000Y-110375000D01*
X192399639Y-110382351D01*
X192398559Y-110389632D01*
X192396771Y-110396771D01*
X192394291Y-110403701D01*
X192391144Y-110410355D01*
X192387360Y-110416668D01*
X192382976Y-110422579D01*
X192378033Y-110428033D01*
X192372579Y-110432976D01*
X192366668Y-110437360D01*
X192360355Y-110441144D01*
X192353701Y-110444291D01*
X192346771Y-110446771D01*
X192339632Y-110448559D01*
X192332351Y-110449639D01*
X192325000Y-110450000D01*
X192175000Y-110450000D01*
X192167649Y-110449639D01*
X192160368Y-110448559D01*
X192153229Y-110446771D01*
X192146299Y-110444291D01*
X192139645Y-110441144D01*
X192133332Y-110437360D01*
X192127421Y-110432976D01*
X192121967Y-110428033D01*
X192117024Y-110422579D01*
X192112640Y-110416668D01*
X192108856Y-110410355D01*
X192105709Y-110403701D01*
X192103229Y-110396771D01*
X192101441Y-110389632D01*
X192100361Y-110382351D01*
X192100000Y-110375000D01*
X192100000Y-110125000D01*
X192100361Y-110117649D01*
X192101441Y-110110368D01*
X192103229Y-110103229D01*
X192105709Y-110096299D01*
X192108856Y-110089645D01*
X192112640Y-110083332D01*
X192117024Y-110077421D01*
X192121967Y-110071967D01*
X192127421Y-110067024D01*
X192133332Y-110062640D01*
X192139645Y-110058856D01*
X192146299Y-110055709D01*
X192153229Y-110053229D01*
X192160368Y-110051441D01*
X192167649Y-110050361D01*
X192175000Y-110050000D01*
X192325000Y-110050000D01*
X192332351Y-110050361D01*
X192332351Y-110050361D01*
G37*
D15*
X192250000Y-110250000D03*
D14*
G36*
X195732351Y-111000361D02*
G01*
X195739632Y-111001441D01*
X195746771Y-111003229D01*
X195753701Y-111005709D01*
X195760355Y-111008856D01*
X195766668Y-111012640D01*
X195772579Y-111017024D01*
X195778033Y-111021967D01*
X195782976Y-111027421D01*
X195787360Y-111033332D01*
X195791144Y-111039645D01*
X195794291Y-111046299D01*
X195796771Y-111053229D01*
X195798559Y-111060368D01*
X195799639Y-111067649D01*
X195800000Y-111075000D01*
X195800000Y-111325000D01*
X195799639Y-111332351D01*
X195798559Y-111339632D01*
X195796771Y-111346771D01*
X195794291Y-111353701D01*
X195791144Y-111360355D01*
X195787360Y-111366668D01*
X195782976Y-111372579D01*
X195778033Y-111378033D01*
X195772579Y-111382976D01*
X195766668Y-111387360D01*
X195760355Y-111391144D01*
X195753701Y-111394291D01*
X195746771Y-111396771D01*
X195739632Y-111398559D01*
X195732351Y-111399639D01*
X195725000Y-111400000D01*
X195575000Y-111400000D01*
X195567649Y-111399639D01*
X195560368Y-111398559D01*
X195553229Y-111396771D01*
X195546299Y-111394291D01*
X195539645Y-111391144D01*
X195533332Y-111387360D01*
X195527421Y-111382976D01*
X195521967Y-111378033D01*
X195517024Y-111372579D01*
X195512640Y-111366668D01*
X195508856Y-111360355D01*
X195505709Y-111353701D01*
X195503229Y-111346771D01*
X195501441Y-111339632D01*
X195500361Y-111332351D01*
X195500000Y-111325000D01*
X195500000Y-111075000D01*
X195500361Y-111067649D01*
X195501441Y-111060368D01*
X195503229Y-111053229D01*
X195505709Y-111046299D01*
X195508856Y-111039645D01*
X195512640Y-111033332D01*
X195517024Y-111027421D01*
X195521967Y-111021967D01*
X195527421Y-111017024D01*
X195533332Y-111012640D01*
X195539645Y-111008856D01*
X195546299Y-111005709D01*
X195553229Y-111003229D01*
X195560368Y-111001441D01*
X195567649Y-111000361D01*
X195575000Y-111000000D01*
X195725000Y-111000000D01*
X195732351Y-111000361D01*
X195732351Y-111000361D01*
G37*
D15*
X195650000Y-111200000D03*
D14*
G36*
X195732351Y-110500361D02*
G01*
X195739632Y-110501441D01*
X195746771Y-110503229D01*
X195753701Y-110505709D01*
X195760355Y-110508856D01*
X195766668Y-110512640D01*
X195772579Y-110517024D01*
X195778033Y-110521967D01*
X195782976Y-110527421D01*
X195787360Y-110533332D01*
X195791144Y-110539645D01*
X195794291Y-110546299D01*
X195796771Y-110553229D01*
X195798559Y-110560368D01*
X195799639Y-110567649D01*
X195800000Y-110575000D01*
X195800000Y-110825000D01*
X195799639Y-110832351D01*
X195798559Y-110839632D01*
X195796771Y-110846771D01*
X195794291Y-110853701D01*
X195791144Y-110860355D01*
X195787360Y-110866668D01*
X195782976Y-110872579D01*
X195778033Y-110878033D01*
X195772579Y-110882976D01*
X195766668Y-110887360D01*
X195760355Y-110891144D01*
X195753701Y-110894291D01*
X195746771Y-110896771D01*
X195739632Y-110898559D01*
X195732351Y-110899639D01*
X195725000Y-110900000D01*
X195575000Y-110900000D01*
X195567649Y-110899639D01*
X195560368Y-110898559D01*
X195553229Y-110896771D01*
X195546299Y-110894291D01*
X195539645Y-110891144D01*
X195533332Y-110887360D01*
X195527421Y-110882976D01*
X195521967Y-110878033D01*
X195517024Y-110872579D01*
X195512640Y-110866668D01*
X195508856Y-110860355D01*
X195505709Y-110853701D01*
X195503229Y-110846771D01*
X195501441Y-110839632D01*
X195500361Y-110832351D01*
X195500000Y-110825000D01*
X195500000Y-110575000D01*
X195500361Y-110567649D01*
X195501441Y-110560368D01*
X195503229Y-110553229D01*
X195505709Y-110546299D01*
X195508856Y-110539645D01*
X195512640Y-110533332D01*
X195517024Y-110527421D01*
X195521967Y-110521967D01*
X195527421Y-110517024D01*
X195533332Y-110512640D01*
X195539645Y-110508856D01*
X195546299Y-110505709D01*
X195553229Y-110503229D01*
X195560368Y-110501441D01*
X195567649Y-110500361D01*
X195575000Y-110500000D01*
X195725000Y-110500000D01*
X195732351Y-110500361D01*
X195732351Y-110500361D01*
G37*
D15*
X195650000Y-110700000D03*
D14*
G36*
X195632351Y-107800361D02*
G01*
X195639632Y-107801441D01*
X195646771Y-107803229D01*
X195653701Y-107805709D01*
X195660355Y-107808856D01*
X195666668Y-107812640D01*
X195672579Y-107817024D01*
X195678033Y-107821967D01*
X195682976Y-107827421D01*
X195687360Y-107833332D01*
X195691144Y-107839645D01*
X195694291Y-107846299D01*
X195696771Y-107853229D01*
X195698559Y-107860368D01*
X195699639Y-107867649D01*
X195700000Y-107875000D01*
X195700000Y-108025000D01*
X195699639Y-108032351D01*
X195698559Y-108039632D01*
X195696771Y-108046771D01*
X195694291Y-108053701D01*
X195691144Y-108060355D01*
X195687360Y-108066668D01*
X195682976Y-108072579D01*
X195678033Y-108078033D01*
X195672579Y-108082976D01*
X195666668Y-108087360D01*
X195660355Y-108091144D01*
X195653701Y-108094291D01*
X195646771Y-108096771D01*
X195639632Y-108098559D01*
X195632351Y-108099639D01*
X195625000Y-108100000D01*
X195375000Y-108100000D01*
X195367649Y-108099639D01*
X195360368Y-108098559D01*
X195353229Y-108096771D01*
X195346299Y-108094291D01*
X195339645Y-108091144D01*
X195333332Y-108087360D01*
X195327421Y-108082976D01*
X195321967Y-108078033D01*
X195317024Y-108072579D01*
X195312640Y-108066668D01*
X195308856Y-108060355D01*
X195305709Y-108053701D01*
X195303229Y-108046771D01*
X195301441Y-108039632D01*
X195300361Y-108032351D01*
X195300000Y-108025000D01*
X195300000Y-107875000D01*
X195300361Y-107867649D01*
X195301441Y-107860368D01*
X195303229Y-107853229D01*
X195305709Y-107846299D01*
X195308856Y-107839645D01*
X195312640Y-107833332D01*
X195317024Y-107827421D01*
X195321967Y-107821967D01*
X195327421Y-107817024D01*
X195333332Y-107812640D01*
X195339645Y-107808856D01*
X195346299Y-107805709D01*
X195353229Y-107803229D01*
X195360368Y-107801441D01*
X195367649Y-107800361D01*
X195375000Y-107800000D01*
X195625000Y-107800000D01*
X195632351Y-107800361D01*
X195632351Y-107800361D01*
G37*
D15*
X195500000Y-107950000D03*
D14*
G36*
X196132351Y-107800361D02*
G01*
X196139632Y-107801441D01*
X196146771Y-107803229D01*
X196153701Y-107805709D01*
X196160355Y-107808856D01*
X196166668Y-107812640D01*
X196172579Y-107817024D01*
X196178033Y-107821967D01*
X196182976Y-107827421D01*
X196187360Y-107833332D01*
X196191144Y-107839645D01*
X196194291Y-107846299D01*
X196196771Y-107853229D01*
X196198559Y-107860368D01*
X196199639Y-107867649D01*
X196200000Y-107875000D01*
X196200000Y-108025000D01*
X196199639Y-108032351D01*
X196198559Y-108039632D01*
X196196771Y-108046771D01*
X196194291Y-108053701D01*
X196191144Y-108060355D01*
X196187360Y-108066668D01*
X196182976Y-108072579D01*
X196178033Y-108078033D01*
X196172579Y-108082976D01*
X196166668Y-108087360D01*
X196160355Y-108091144D01*
X196153701Y-108094291D01*
X196146771Y-108096771D01*
X196139632Y-108098559D01*
X196132351Y-108099639D01*
X196125000Y-108100000D01*
X195875000Y-108100000D01*
X195867649Y-108099639D01*
X195860368Y-108098559D01*
X195853229Y-108096771D01*
X195846299Y-108094291D01*
X195839645Y-108091144D01*
X195833332Y-108087360D01*
X195827421Y-108082976D01*
X195821967Y-108078033D01*
X195817024Y-108072579D01*
X195812640Y-108066668D01*
X195808856Y-108060355D01*
X195805709Y-108053701D01*
X195803229Y-108046771D01*
X195801441Y-108039632D01*
X195800361Y-108032351D01*
X195800000Y-108025000D01*
X195800000Y-107875000D01*
X195800361Y-107867649D01*
X195801441Y-107860368D01*
X195803229Y-107853229D01*
X195805709Y-107846299D01*
X195808856Y-107839645D01*
X195812640Y-107833332D01*
X195817024Y-107827421D01*
X195821967Y-107821967D01*
X195827421Y-107817024D01*
X195833332Y-107812640D01*
X195839645Y-107808856D01*
X195846299Y-107805709D01*
X195853229Y-107803229D01*
X195860368Y-107801441D01*
X195867649Y-107800361D01*
X195875000Y-107800000D01*
X196125000Y-107800000D01*
X196132351Y-107800361D01*
X196132351Y-107800361D01*
G37*
D15*
X196000000Y-107950000D03*
D14*
G36*
X190082351Y-117100361D02*
G01*
X190089632Y-117101441D01*
X190096771Y-117103229D01*
X190103701Y-117105709D01*
X190110355Y-117108856D01*
X190116668Y-117112640D01*
X190122579Y-117117024D01*
X190128033Y-117121967D01*
X190132976Y-117127421D01*
X190137360Y-117133332D01*
X190141144Y-117139645D01*
X190144291Y-117146299D01*
X190146771Y-117153229D01*
X190148559Y-117160368D01*
X190149639Y-117167649D01*
X190150000Y-117175000D01*
X190150000Y-117425000D01*
X190149639Y-117432351D01*
X190148559Y-117439632D01*
X190146771Y-117446771D01*
X190144291Y-117453701D01*
X190141144Y-117460355D01*
X190137360Y-117466668D01*
X190132976Y-117472579D01*
X190128033Y-117478033D01*
X190122579Y-117482976D01*
X190116668Y-117487360D01*
X190110355Y-117491144D01*
X190103701Y-117494291D01*
X190096771Y-117496771D01*
X190089632Y-117498559D01*
X190082351Y-117499639D01*
X190075000Y-117500000D01*
X189925000Y-117500000D01*
X189917649Y-117499639D01*
X189910368Y-117498559D01*
X189903229Y-117496771D01*
X189896299Y-117494291D01*
X189889645Y-117491144D01*
X189883332Y-117487360D01*
X189877421Y-117482976D01*
X189871967Y-117478033D01*
X189867024Y-117472579D01*
X189862640Y-117466668D01*
X189858856Y-117460355D01*
X189855709Y-117453701D01*
X189853229Y-117446771D01*
X189851441Y-117439632D01*
X189850361Y-117432351D01*
X189850000Y-117425000D01*
X189850000Y-117175000D01*
X189850361Y-117167649D01*
X189851441Y-117160368D01*
X189853229Y-117153229D01*
X189855709Y-117146299D01*
X189858856Y-117139645D01*
X189862640Y-117133332D01*
X189867024Y-117127421D01*
X189871967Y-117121967D01*
X189877421Y-117117024D01*
X189883332Y-117112640D01*
X189889645Y-117108856D01*
X189896299Y-117105709D01*
X189903229Y-117103229D01*
X189910368Y-117101441D01*
X189917649Y-117100361D01*
X189925000Y-117100000D01*
X190075000Y-117100000D01*
X190082351Y-117100361D01*
X190082351Y-117100361D01*
G37*
D15*
X190000000Y-117300000D03*
D14*
G36*
X190082351Y-117600361D02*
G01*
X190089632Y-117601441D01*
X190096771Y-117603229D01*
X190103701Y-117605709D01*
X190110355Y-117608856D01*
X190116668Y-117612640D01*
X190122579Y-117617024D01*
X190128033Y-117621967D01*
X190132976Y-117627421D01*
X190137360Y-117633332D01*
X190141144Y-117639645D01*
X190144291Y-117646299D01*
X190146771Y-117653229D01*
X190148559Y-117660368D01*
X190149639Y-117667649D01*
X190150000Y-117675000D01*
X190150000Y-117925000D01*
X190149639Y-117932351D01*
X190148559Y-117939632D01*
X190146771Y-117946771D01*
X190144291Y-117953701D01*
X190141144Y-117960355D01*
X190137360Y-117966668D01*
X190132976Y-117972579D01*
X190128033Y-117978033D01*
X190122579Y-117982976D01*
X190116668Y-117987360D01*
X190110355Y-117991144D01*
X190103701Y-117994291D01*
X190096771Y-117996771D01*
X190089632Y-117998559D01*
X190082351Y-117999639D01*
X190075000Y-118000000D01*
X189925000Y-118000000D01*
X189917649Y-117999639D01*
X189910368Y-117998559D01*
X189903229Y-117996771D01*
X189896299Y-117994291D01*
X189889645Y-117991144D01*
X189883332Y-117987360D01*
X189877421Y-117982976D01*
X189871967Y-117978033D01*
X189867024Y-117972579D01*
X189862640Y-117966668D01*
X189858856Y-117960355D01*
X189855709Y-117953701D01*
X189853229Y-117946771D01*
X189851441Y-117939632D01*
X189850361Y-117932351D01*
X189850000Y-117925000D01*
X189850000Y-117675000D01*
X189850361Y-117667649D01*
X189851441Y-117660368D01*
X189853229Y-117653229D01*
X189855709Y-117646299D01*
X189858856Y-117639645D01*
X189862640Y-117633332D01*
X189867024Y-117627421D01*
X189871967Y-117621967D01*
X189877421Y-117617024D01*
X189883332Y-117612640D01*
X189889645Y-117608856D01*
X189896299Y-117605709D01*
X189903229Y-117603229D01*
X189910368Y-117601441D01*
X189917649Y-117600361D01*
X189925000Y-117600000D01*
X190075000Y-117600000D01*
X190082351Y-117600361D01*
X190082351Y-117600361D01*
G37*
D15*
X190000000Y-117800000D03*
D14*
G36*
X120882351Y-133000361D02*
G01*
X120889632Y-133001441D01*
X120896771Y-133003229D01*
X120903701Y-133005709D01*
X120910355Y-133008856D01*
X120916668Y-133012640D01*
X120922579Y-133017024D01*
X120928033Y-133021967D01*
X120932976Y-133027421D01*
X120937360Y-133033332D01*
X120941144Y-133039645D01*
X120944291Y-133046299D01*
X120946771Y-133053229D01*
X120948559Y-133060368D01*
X120949639Y-133067649D01*
X120950000Y-133075000D01*
X120950000Y-133225000D01*
X120949639Y-133232351D01*
X120948559Y-133239632D01*
X120946771Y-133246771D01*
X120944291Y-133253701D01*
X120941144Y-133260355D01*
X120937360Y-133266668D01*
X120932976Y-133272579D01*
X120928033Y-133278033D01*
X120922579Y-133282976D01*
X120916668Y-133287360D01*
X120910355Y-133291144D01*
X120903701Y-133294291D01*
X120896771Y-133296771D01*
X120889632Y-133298559D01*
X120882351Y-133299639D01*
X120875000Y-133300000D01*
X120625000Y-133300000D01*
X120617649Y-133299639D01*
X120610368Y-133298559D01*
X120603229Y-133296771D01*
X120596299Y-133294291D01*
X120589645Y-133291144D01*
X120583332Y-133287360D01*
X120577421Y-133282976D01*
X120571967Y-133278033D01*
X120567024Y-133272579D01*
X120562640Y-133266668D01*
X120558856Y-133260355D01*
X120555709Y-133253701D01*
X120553229Y-133246771D01*
X120551441Y-133239632D01*
X120550361Y-133232351D01*
X120550000Y-133225000D01*
X120550000Y-133075000D01*
X120550361Y-133067649D01*
X120551441Y-133060368D01*
X120553229Y-133053229D01*
X120555709Y-133046299D01*
X120558856Y-133039645D01*
X120562640Y-133033332D01*
X120567024Y-133027421D01*
X120571967Y-133021967D01*
X120577421Y-133017024D01*
X120583332Y-133012640D01*
X120589645Y-133008856D01*
X120596299Y-133005709D01*
X120603229Y-133003229D01*
X120610368Y-133001441D01*
X120617649Y-133000361D01*
X120625000Y-133000000D01*
X120875000Y-133000000D01*
X120882351Y-133000361D01*
X120882351Y-133000361D01*
G37*
D15*
X120750000Y-133150000D03*
D14*
G36*
X120382351Y-133000361D02*
G01*
X120389632Y-133001441D01*
X120396771Y-133003229D01*
X120403701Y-133005709D01*
X120410355Y-133008856D01*
X120416668Y-133012640D01*
X120422579Y-133017024D01*
X120428033Y-133021967D01*
X120432976Y-133027421D01*
X120437360Y-133033332D01*
X120441144Y-133039645D01*
X120444291Y-133046299D01*
X120446771Y-133053229D01*
X120448559Y-133060368D01*
X120449639Y-133067649D01*
X120450000Y-133075000D01*
X120450000Y-133225000D01*
X120449639Y-133232351D01*
X120448559Y-133239632D01*
X120446771Y-133246771D01*
X120444291Y-133253701D01*
X120441144Y-133260355D01*
X120437360Y-133266668D01*
X120432976Y-133272579D01*
X120428033Y-133278033D01*
X120422579Y-133282976D01*
X120416668Y-133287360D01*
X120410355Y-133291144D01*
X120403701Y-133294291D01*
X120396771Y-133296771D01*
X120389632Y-133298559D01*
X120382351Y-133299639D01*
X120375000Y-133300000D01*
X120125000Y-133300000D01*
X120117649Y-133299639D01*
X120110368Y-133298559D01*
X120103229Y-133296771D01*
X120096299Y-133294291D01*
X120089645Y-133291144D01*
X120083332Y-133287360D01*
X120077421Y-133282976D01*
X120071967Y-133278033D01*
X120067024Y-133272579D01*
X120062640Y-133266668D01*
X120058856Y-133260355D01*
X120055709Y-133253701D01*
X120053229Y-133246771D01*
X120051441Y-133239632D01*
X120050361Y-133232351D01*
X120050000Y-133225000D01*
X120050000Y-133075000D01*
X120050361Y-133067649D01*
X120051441Y-133060368D01*
X120053229Y-133053229D01*
X120055709Y-133046299D01*
X120058856Y-133039645D01*
X120062640Y-133033332D01*
X120067024Y-133027421D01*
X120071967Y-133021967D01*
X120077421Y-133017024D01*
X120083332Y-133012640D01*
X120089645Y-133008856D01*
X120096299Y-133005709D01*
X120103229Y-133003229D01*
X120110368Y-133001441D01*
X120117649Y-133000361D01*
X120125000Y-133000000D01*
X120375000Y-133000000D01*
X120382351Y-133000361D01*
X120382351Y-133000361D01*
G37*
D15*
X120250000Y-133150000D03*
D14*
G36*
X120582351Y-112150361D02*
G01*
X120589632Y-112151441D01*
X120596771Y-112153229D01*
X120603701Y-112155709D01*
X120610355Y-112158856D01*
X120616668Y-112162640D01*
X120622579Y-112167024D01*
X120628033Y-112171967D01*
X120632976Y-112177421D01*
X120637360Y-112183332D01*
X120641144Y-112189645D01*
X120644291Y-112196299D01*
X120646771Y-112203229D01*
X120648559Y-112210368D01*
X120649639Y-112217649D01*
X120650000Y-112225000D01*
X120650000Y-112475000D01*
X120649639Y-112482351D01*
X120648559Y-112489632D01*
X120646771Y-112496771D01*
X120644291Y-112503701D01*
X120641144Y-112510355D01*
X120637360Y-112516668D01*
X120632976Y-112522579D01*
X120628033Y-112528033D01*
X120622579Y-112532976D01*
X120616668Y-112537360D01*
X120610355Y-112541144D01*
X120603701Y-112544291D01*
X120596771Y-112546771D01*
X120589632Y-112548559D01*
X120582351Y-112549639D01*
X120575000Y-112550000D01*
X120425000Y-112550000D01*
X120417649Y-112549639D01*
X120410368Y-112548559D01*
X120403229Y-112546771D01*
X120396299Y-112544291D01*
X120389645Y-112541144D01*
X120383332Y-112537360D01*
X120377421Y-112532976D01*
X120371967Y-112528033D01*
X120367024Y-112522579D01*
X120362640Y-112516668D01*
X120358856Y-112510355D01*
X120355709Y-112503701D01*
X120353229Y-112496771D01*
X120351441Y-112489632D01*
X120350361Y-112482351D01*
X120350000Y-112475000D01*
X120350000Y-112225000D01*
X120350361Y-112217649D01*
X120351441Y-112210368D01*
X120353229Y-112203229D01*
X120355709Y-112196299D01*
X120358856Y-112189645D01*
X120362640Y-112183332D01*
X120367024Y-112177421D01*
X120371967Y-112171967D01*
X120377421Y-112167024D01*
X120383332Y-112162640D01*
X120389645Y-112158856D01*
X120396299Y-112155709D01*
X120403229Y-112153229D01*
X120410368Y-112151441D01*
X120417649Y-112150361D01*
X120425000Y-112150000D01*
X120575000Y-112150000D01*
X120582351Y-112150361D01*
X120582351Y-112150361D01*
G37*
D15*
X120500000Y-112350000D03*
D14*
G36*
X120582351Y-111650361D02*
G01*
X120589632Y-111651441D01*
X120596771Y-111653229D01*
X120603701Y-111655709D01*
X120610355Y-111658856D01*
X120616668Y-111662640D01*
X120622579Y-111667024D01*
X120628033Y-111671967D01*
X120632976Y-111677421D01*
X120637360Y-111683332D01*
X120641144Y-111689645D01*
X120644291Y-111696299D01*
X120646771Y-111703229D01*
X120648559Y-111710368D01*
X120649639Y-111717649D01*
X120650000Y-111725000D01*
X120650000Y-111975000D01*
X120649639Y-111982351D01*
X120648559Y-111989632D01*
X120646771Y-111996771D01*
X120644291Y-112003701D01*
X120641144Y-112010355D01*
X120637360Y-112016668D01*
X120632976Y-112022579D01*
X120628033Y-112028033D01*
X120622579Y-112032976D01*
X120616668Y-112037360D01*
X120610355Y-112041144D01*
X120603701Y-112044291D01*
X120596771Y-112046771D01*
X120589632Y-112048559D01*
X120582351Y-112049639D01*
X120575000Y-112050000D01*
X120425000Y-112050000D01*
X120417649Y-112049639D01*
X120410368Y-112048559D01*
X120403229Y-112046771D01*
X120396299Y-112044291D01*
X120389645Y-112041144D01*
X120383332Y-112037360D01*
X120377421Y-112032976D01*
X120371967Y-112028033D01*
X120367024Y-112022579D01*
X120362640Y-112016668D01*
X120358856Y-112010355D01*
X120355709Y-112003701D01*
X120353229Y-111996771D01*
X120351441Y-111989632D01*
X120350361Y-111982351D01*
X120350000Y-111975000D01*
X120350000Y-111725000D01*
X120350361Y-111717649D01*
X120351441Y-111710368D01*
X120353229Y-111703229D01*
X120355709Y-111696299D01*
X120358856Y-111689645D01*
X120362640Y-111683332D01*
X120367024Y-111677421D01*
X120371967Y-111671967D01*
X120377421Y-111667024D01*
X120383332Y-111662640D01*
X120389645Y-111658856D01*
X120396299Y-111655709D01*
X120403229Y-111653229D01*
X120410368Y-111651441D01*
X120417649Y-111650361D01*
X120425000Y-111650000D01*
X120575000Y-111650000D01*
X120582351Y-111650361D01*
X120582351Y-111650361D01*
G37*
D15*
X120500000Y-111850000D03*
D14*
G36*
X120082351Y-106900361D02*
G01*
X120089632Y-106901441D01*
X120096771Y-106903229D01*
X120103701Y-106905709D01*
X120110355Y-106908856D01*
X120116668Y-106912640D01*
X120122579Y-106917024D01*
X120128033Y-106921967D01*
X120132976Y-106927421D01*
X120137360Y-106933332D01*
X120141144Y-106939645D01*
X120144291Y-106946299D01*
X120146771Y-106953229D01*
X120148559Y-106960368D01*
X120149639Y-106967649D01*
X120150000Y-106975000D01*
X120150000Y-107125000D01*
X120149639Y-107132351D01*
X120148559Y-107139632D01*
X120146771Y-107146771D01*
X120144291Y-107153701D01*
X120141144Y-107160355D01*
X120137360Y-107166668D01*
X120132976Y-107172579D01*
X120128033Y-107178033D01*
X120122579Y-107182976D01*
X120116668Y-107187360D01*
X120110355Y-107191144D01*
X120103701Y-107194291D01*
X120096771Y-107196771D01*
X120089632Y-107198559D01*
X120082351Y-107199639D01*
X120075000Y-107200000D01*
X119825000Y-107200000D01*
X119817649Y-107199639D01*
X119810368Y-107198559D01*
X119803229Y-107196771D01*
X119796299Y-107194291D01*
X119789645Y-107191144D01*
X119783332Y-107187360D01*
X119777421Y-107182976D01*
X119771967Y-107178033D01*
X119767024Y-107172579D01*
X119762640Y-107166668D01*
X119758856Y-107160355D01*
X119755709Y-107153701D01*
X119753229Y-107146771D01*
X119751441Y-107139632D01*
X119750361Y-107132351D01*
X119750000Y-107125000D01*
X119750000Y-106975000D01*
X119750361Y-106967649D01*
X119751441Y-106960368D01*
X119753229Y-106953229D01*
X119755709Y-106946299D01*
X119758856Y-106939645D01*
X119762640Y-106933332D01*
X119767024Y-106927421D01*
X119771967Y-106921967D01*
X119777421Y-106917024D01*
X119783332Y-106912640D01*
X119789645Y-106908856D01*
X119796299Y-106905709D01*
X119803229Y-106903229D01*
X119810368Y-106901441D01*
X119817649Y-106900361D01*
X119825000Y-106900000D01*
X120075000Y-106900000D01*
X120082351Y-106900361D01*
X120082351Y-106900361D01*
G37*
D15*
X119950000Y-107050000D03*
D14*
G36*
X120582351Y-106900361D02*
G01*
X120589632Y-106901441D01*
X120596771Y-106903229D01*
X120603701Y-106905709D01*
X120610355Y-106908856D01*
X120616668Y-106912640D01*
X120622579Y-106917024D01*
X120628033Y-106921967D01*
X120632976Y-106927421D01*
X120637360Y-106933332D01*
X120641144Y-106939645D01*
X120644291Y-106946299D01*
X120646771Y-106953229D01*
X120648559Y-106960368D01*
X120649639Y-106967649D01*
X120650000Y-106975000D01*
X120650000Y-107125000D01*
X120649639Y-107132351D01*
X120648559Y-107139632D01*
X120646771Y-107146771D01*
X120644291Y-107153701D01*
X120641144Y-107160355D01*
X120637360Y-107166668D01*
X120632976Y-107172579D01*
X120628033Y-107178033D01*
X120622579Y-107182976D01*
X120616668Y-107187360D01*
X120610355Y-107191144D01*
X120603701Y-107194291D01*
X120596771Y-107196771D01*
X120589632Y-107198559D01*
X120582351Y-107199639D01*
X120575000Y-107200000D01*
X120325000Y-107200000D01*
X120317649Y-107199639D01*
X120310368Y-107198559D01*
X120303229Y-107196771D01*
X120296299Y-107194291D01*
X120289645Y-107191144D01*
X120283332Y-107187360D01*
X120277421Y-107182976D01*
X120271967Y-107178033D01*
X120267024Y-107172579D01*
X120262640Y-107166668D01*
X120258856Y-107160355D01*
X120255709Y-107153701D01*
X120253229Y-107146771D01*
X120251441Y-107139632D01*
X120250361Y-107132351D01*
X120250000Y-107125000D01*
X120250000Y-106975000D01*
X120250361Y-106967649D01*
X120251441Y-106960368D01*
X120253229Y-106953229D01*
X120255709Y-106946299D01*
X120258856Y-106939645D01*
X120262640Y-106933332D01*
X120267024Y-106927421D01*
X120271967Y-106921967D01*
X120277421Y-106917024D01*
X120283332Y-106912640D01*
X120289645Y-106908856D01*
X120296299Y-106905709D01*
X120303229Y-106903229D01*
X120310368Y-106901441D01*
X120317649Y-106900361D01*
X120325000Y-106900000D01*
X120575000Y-106900000D01*
X120582351Y-106900361D01*
X120582351Y-106900361D01*
G37*
D15*
X120450000Y-107050000D03*
D16*
X126714999Y-123714999D03*
X171300000Y-130400000D03*
X183134000Y-125984000D03*
X189585600Y-136448800D03*
X122000000Y-81250000D03*
X127832129Y-83890129D03*
X126909990Y-90500000D03*
X123750000Y-103250000D03*
X127000004Y-95885016D03*
X127635000Y-101600014D03*
D17*
X125554951Y-136880051D02*
X126750000Y-135685002D01*
X115730000Y-130595000D02*
X114500000Y-131825000D01*
X114500000Y-131825000D02*
X114500000Y-135426076D01*
X114500000Y-135426076D02*
X115953975Y-136880051D01*
X115953975Y-136880051D02*
X125554951Y-136880051D01*
X126750000Y-135685002D02*
X126750000Y-123750000D01*
X123924999Y-123714999D02*
X126714999Y-123714999D01*
X122560000Y-122350000D02*
X123924999Y-123714999D01*
X126750000Y-123750000D02*
X126714999Y-123714999D01*
X121710001Y-98640001D02*
X122560000Y-99490000D01*
X120894999Y-97824999D02*
X121710001Y-98640001D01*
X117389999Y-97824999D02*
X120894999Y-97824999D01*
X115730000Y-99484998D02*
X117389999Y-97824999D01*
X115730000Y-104095000D02*
X115730000Y-99484998D01*
X163400000Y-121400000D02*
X163400000Y-122500000D01*
X163400000Y-122500000D02*
X171300000Y-130400000D01*
X189474990Y-82825010D02*
X189474990Y-82800000D01*
X186817000Y-85483000D02*
X189474990Y-82825010D01*
X186817000Y-88063000D02*
X186817000Y-85483000D01*
X185550000Y-89330000D02*
X186817000Y-88063000D01*
X188939999Y-85940001D02*
X188090000Y-86790000D01*
X189018999Y-85940001D02*
X191825190Y-83133810D01*
X188939999Y-85940001D02*
X189018999Y-85940001D01*
X190224990Y-78125010D02*
X190224990Y-78100000D01*
X185550000Y-82800000D02*
X190224990Y-78125010D01*
X185550000Y-86790000D02*
X185550000Y-82800000D01*
X188931000Y-100711000D02*
X191650001Y-103430001D01*
X191650001Y-103430001D02*
X192500000Y-104280000D01*
X185550000Y-102030000D02*
X186869000Y-100711000D01*
X186869000Y-100711000D02*
X188931000Y-100711000D01*
X188090000Y-96950000D02*
X190500000Y-99360000D01*
X190500000Y-99740000D02*
X192500000Y-101740000D01*
X190500000Y-99360000D02*
X190500000Y-99740000D01*
X186725001Y-95774999D02*
X190008999Y-95774999D01*
X185550000Y-96950000D02*
X186725001Y-95774999D01*
X190008999Y-95774999D02*
X190627000Y-96393000D01*
X190627000Y-97327000D02*
X192500000Y-99200000D01*
X190627000Y-96393000D02*
X190627000Y-97327000D01*
X191650001Y-95810001D02*
X192500000Y-96660000D01*
X188090000Y-94410000D02*
X190250000Y-94410000D01*
X190250000Y-94410000D02*
X191650001Y-95810001D01*
X191650001Y-93270001D02*
X192500000Y-94120000D01*
X191471000Y-93091000D02*
X191650001Y-93270001D01*
X185550000Y-94410000D02*
X186869000Y-93091000D01*
X186869000Y-93091000D02*
X191471000Y-93091000D01*
X192210000Y-91870000D02*
X192500000Y-91580000D01*
X188090000Y-91870000D02*
X192210000Y-91870000D01*
X191650001Y-89889999D02*
X192500000Y-89040000D01*
X190989000Y-90551000D02*
X191650001Y-89889999D01*
X185550000Y-91870000D02*
X186869000Y-90551000D01*
X186869000Y-90551000D02*
X190989000Y-90551000D01*
X190920000Y-86500000D02*
X192500000Y-86500000D01*
X188090000Y-89330000D02*
X190920000Y-86500000D01*
D18*
X184347919Y-99490000D02*
X182245000Y-97387081D01*
X185550000Y-99490000D02*
X184347919Y-99490000D01*
X182245000Y-97387081D02*
X182245000Y-83947000D01*
X182245000Y-83947000D02*
X181737000Y-83439000D01*
X181737000Y-83439000D02*
X168656000Y-83439000D01*
X168656000Y-83439000D02*
X165354000Y-86741000D01*
X165354000Y-86741000D02*
X165354000Y-118110000D01*
X164604000Y-118860000D02*
X163400000Y-118860000D01*
X165354000Y-118110000D02*
X164604000Y-118860000D01*
D17*
X192230000Y-109510998D02*
X192230000Y-109724990D01*
X192230000Y-109724990D02*
X192250000Y-109724990D01*
X188464003Y-105745001D02*
X192230000Y-109510998D01*
X185550000Y-104570000D02*
X186725001Y-105745001D01*
X186725001Y-105745001D02*
X188464003Y-105745001D01*
X195669999Y-110674990D02*
X195650000Y-110674990D01*
X195669999Y-110243923D02*
X195669999Y-110674990D01*
X194392076Y-108966000D02*
X195669999Y-110243923D01*
X188090000Y-104570000D02*
X192486000Y-108966000D01*
X192486000Y-108966000D02*
X194392076Y-108966000D01*
X195474990Y-107709308D02*
X195474990Y-107950000D01*
X195474990Y-107224990D02*
X195474990Y-107709308D01*
X185550000Y-107110000D02*
X184374999Y-105934999D01*
X184374999Y-103915001D02*
X184895001Y-103394999D01*
X193894999Y-105644999D02*
X195474990Y-107224990D01*
X184374999Y-105934999D02*
X184374999Y-103915001D01*
X184895001Y-103394999D02*
X189373999Y-103394999D01*
X189373999Y-103394999D02*
X191623999Y-105644999D01*
X191623999Y-105644999D02*
X193894999Y-105644999D01*
X188090000Y-107110000D02*
X191004999Y-110024999D01*
X191004999Y-110024999D02*
X191004999Y-114723001D01*
X192500000Y-116218002D02*
X192500000Y-118900000D01*
X192500000Y-118900000D02*
X192500000Y-120000000D01*
X191004999Y-114723001D02*
X192500000Y-116218002D01*
X190554988Y-114909400D02*
X190554988Y-110290988D01*
X191324999Y-121110001D02*
X191324999Y-118889999D01*
X192500000Y-122540000D02*
X192500000Y-122285002D01*
X192500000Y-122285002D02*
X191324999Y-121110001D01*
X191324999Y-118889999D02*
X191741244Y-118473754D01*
X191741244Y-118473754D02*
X191741244Y-116095656D01*
X191741244Y-116095656D02*
X190554988Y-114909400D01*
X186914999Y-108285001D02*
X186399999Y-108800001D01*
X190554988Y-110290988D02*
X188549001Y-108285001D01*
X188549001Y-108285001D02*
X186914999Y-108285001D01*
X186399999Y-108800001D02*
X185550000Y-109650000D01*
X190104977Y-111664977D02*
X188939999Y-110499999D01*
X190874988Y-116242166D02*
X190104977Y-115472155D01*
X190104977Y-115472155D02*
X190104977Y-111664977D01*
X192500000Y-125080000D02*
X190874988Y-123454988D01*
X188939999Y-110499999D02*
X188090000Y-109650000D01*
X190874988Y-123454988D02*
X190874988Y-116242166D01*
X189654966Y-115658556D02*
X189654966Y-111971998D01*
X189654966Y-111971998D02*
X189611000Y-111971998D01*
X190424977Y-116428566D02*
X189654966Y-115658556D01*
X189611000Y-111971998D02*
X188510002Y-110871000D01*
X191291233Y-126411233D02*
X191291233Y-124507644D01*
X192500000Y-127620000D02*
X191291233Y-126411233D01*
X191291233Y-124507644D02*
X190424977Y-123641388D01*
X186869000Y-110871000D02*
X185550000Y-112190000D01*
X188510002Y-110871000D02*
X186869000Y-110871000D01*
X190424977Y-123641388D02*
X190424977Y-116428566D01*
X188549001Y-115905001D02*
X187525999Y-115905001D01*
X186725001Y-113554999D02*
X187240001Y-113039999D01*
X190391211Y-128051211D02*
X190391211Y-124880444D01*
X189524955Y-124014188D02*
X189524955Y-116880955D01*
X189524955Y-116880955D02*
X188549001Y-115905001D01*
X190391211Y-124880444D02*
X189524955Y-124014188D01*
X187525999Y-115905001D02*
X186725001Y-115104003D01*
X187240001Y-113039999D02*
X188090000Y-112190000D01*
X192500000Y-130160000D02*
X190391211Y-128051211D01*
X186725001Y-115104003D02*
X186725001Y-113554999D01*
X186399999Y-115579999D02*
X185550000Y-114730000D01*
X189941200Y-130141200D02*
X189941200Y-125066844D01*
X187401200Y-123596400D02*
X186725001Y-122920201D01*
X186725001Y-122920201D02*
X186725001Y-115905001D01*
X192500000Y-132700000D02*
X189941200Y-130141200D01*
X186725001Y-115905001D02*
X186399999Y-115579999D01*
X189941200Y-125066844D02*
X188470756Y-123596400D01*
X188470756Y-123596400D02*
X187401200Y-123596400D01*
X188090000Y-114730000D02*
X189974966Y-116614966D01*
X189974966Y-116614966D02*
X189974966Y-117274990D01*
X187474989Y-141125011D02*
X173027411Y-141125011D01*
X188000000Y-139500000D02*
X188000000Y-140600000D01*
X188000000Y-140600000D02*
X187474989Y-141125011D01*
X173027411Y-141125011D02*
X172161200Y-140258800D01*
X172161200Y-140258800D02*
X172161200Y-136956800D01*
X172161200Y-136956800D02*
X183134000Y-125984000D01*
X185460000Y-139500000D02*
X188511200Y-136448800D01*
X188511200Y-136448800D02*
X189585600Y-136448800D01*
D18*
X145235001Y-83195001D02*
X144102002Y-84328000D01*
X145235001Y-83169999D02*
X145235001Y-83195001D01*
X146135000Y-82270000D02*
X145235001Y-83169999D01*
X136349792Y-84328000D02*
X134874000Y-84328000D01*
X137135000Y-82270000D02*
X137135000Y-83542792D01*
X144102002Y-84328000D02*
X134874000Y-84328000D01*
X137135000Y-83542792D02*
X136349792Y-84328000D01*
X128161000Y-82296000D02*
X128135000Y-82270000D01*
X129794000Y-82296000D02*
X128161000Y-82296000D01*
X129750000Y-84328000D02*
X129750000Y-82340000D01*
X129750000Y-82340000D02*
X129794000Y-82296000D01*
X129820000Y-82270000D02*
X130730001Y-81359999D01*
X122000000Y-80925924D02*
X122000000Y-81250000D01*
X128135000Y-82270000D02*
X129820000Y-82270000D01*
X130041001Y-78404999D02*
X124520925Y-78404999D01*
X130730001Y-81359999D02*
X130730001Y-79093999D01*
X130730001Y-79093999D02*
X130041001Y-78404999D01*
X124520925Y-78404999D02*
X122000000Y-80925924D01*
X126312081Y-99500000D02*
X126302081Y-99490000D01*
X129750000Y-84372000D02*
X128270000Y-85852000D01*
X129750000Y-84328000D02*
X129750000Y-84372000D01*
X126302081Y-99490000D02*
X125100000Y-99490000D01*
X128270000Y-85852000D02*
X128270000Y-98500000D01*
X128270000Y-98500000D02*
X128195000Y-98500000D01*
X128195000Y-98500000D02*
X127195000Y-99500000D01*
X127195000Y-99500000D02*
X126312081Y-99500000D01*
X133959600Y-84328000D02*
X129750000Y-84328000D01*
X134874000Y-84328000D02*
X133959600Y-84328000D01*
X168309999Y-138650001D02*
X167460000Y-139500000D01*
X180509990Y-126450010D02*
X168309999Y-138650001D01*
X181449990Y-126450010D02*
X180509990Y-126450010D01*
X185550000Y-122350000D02*
X181449990Y-126450010D01*
X153077000Y-84328000D02*
X155135000Y-82270000D01*
X144102002Y-84328000D02*
X153077000Y-84328000D01*
X162177000Y-84328000D02*
X164235000Y-82270000D01*
X153077000Y-84328000D02*
X162177000Y-84328000D01*
X167460000Y-133910000D02*
X167460000Y-134323590D01*
X162358800Y-128808800D02*
X167460000Y-133910000D01*
X167460000Y-134323590D02*
X167460000Y-139500000D01*
X133908800Y-128808800D02*
X162358800Y-128808800D01*
X133959600Y-84328000D02*
X133908800Y-84378800D01*
X133908800Y-84378800D02*
X133908800Y-128808800D01*
D17*
X182920000Y-139500000D02*
X181744999Y-140675001D01*
X174735999Y-140675001D02*
X173685200Y-139624202D01*
X181744999Y-140675001D02*
X174735999Y-140675001D01*
X173685200Y-136754800D02*
X185550000Y-124890000D01*
X173685200Y-139624202D02*
X173685200Y-136754800D01*
X189331600Y-126131600D02*
X188090000Y-124890000D01*
X188531802Y-128727200D02*
X189331600Y-127927402D01*
X185053798Y-128727200D02*
X188531802Y-128727200D01*
X189331600Y-127927402D02*
X189331600Y-126131600D01*
X180380000Y-139500000D02*
X180380000Y-133400998D01*
X180380000Y-133400998D02*
X185053798Y-128727200D01*
X177840000Y-135140000D02*
X185550000Y-127430000D01*
X177840000Y-139500000D02*
X177840000Y-135140000D01*
X187240001Y-126580001D02*
X188090000Y-127430000D01*
X184985999Y-126254999D02*
X186914999Y-126254999D01*
X186914999Y-126254999D02*
X187240001Y-126580001D01*
X175300000Y-135940998D02*
X184985999Y-126254999D01*
X175300000Y-139500000D02*
X175300000Y-135940998D01*
X118764999Y-80629999D02*
X117865000Y-79730000D01*
X122560000Y-83881998D02*
X119308001Y-80629999D01*
X119308001Y-80629999D02*
X118764999Y-80629999D01*
X122560000Y-86790000D02*
X122560000Y-83881998D01*
X126755001Y-83495001D02*
X126865000Y-83385002D01*
X126865000Y-81002792D02*
X126865000Y-79730000D01*
X124504999Y-83495001D02*
X126755001Y-83495001D01*
X126865000Y-83385002D02*
X126865000Y-81002792D01*
X123924999Y-84075001D02*
X124504999Y-83495001D01*
X123924999Y-87965001D02*
X123924999Y-84075001D01*
X122560000Y-89330000D02*
X123924999Y-87965001D01*
X126528001Y-93045001D02*
X127660730Y-91912272D01*
X123735001Y-93045001D02*
X126528001Y-93045001D01*
X127832129Y-84455814D02*
X127832129Y-83890129D01*
X127660730Y-91912272D02*
X127660730Y-84627213D01*
X122560000Y-91870000D02*
X123735001Y-93045001D01*
X127660730Y-84627213D02*
X127832129Y-84455814D01*
X121384999Y-93234999D02*
X121384999Y-91305999D01*
X126149306Y-90694999D02*
X126344305Y-90500000D01*
X126344305Y-90500000D02*
X126909990Y-90500000D01*
X121995999Y-90694999D02*
X126149306Y-90694999D01*
X122560000Y-94410000D02*
X121384999Y-93234999D01*
X121384999Y-91305999D02*
X121995999Y-90694999D01*
X123735001Y-103264999D02*
X123750000Y-103250000D01*
X123735001Y-111014999D02*
X123735001Y-103264999D01*
X122560000Y-112190000D02*
X123735001Y-111014999D01*
X126764987Y-95649999D02*
X127000004Y-95885016D01*
X118500000Y-93920000D02*
X120229999Y-95649999D01*
X120229999Y-95649999D02*
X126764987Y-95649999D01*
X127235001Y-101200015D02*
X127635000Y-101600014D01*
X118500000Y-99000000D02*
X119600000Y-99000000D01*
X126889985Y-100854999D02*
X127235001Y-101200015D01*
X121454999Y-100854999D02*
X126889985Y-100854999D01*
X119600000Y-99000000D02*
X121454999Y-100854999D01*
X121025031Y-107625031D02*
X120475010Y-107075010D01*
X120475010Y-107075010D02*
X120475010Y-107050000D01*
X121025031Y-118275031D02*
X121025031Y-107625031D01*
X122560000Y-119810000D02*
X121025031Y-118275031D01*
X122560000Y-124890000D02*
X120575021Y-122905021D01*
X120525010Y-112375010D02*
X120500000Y-112375010D01*
X120575021Y-122905021D02*
X120575021Y-112425021D01*
X120575021Y-112425021D02*
X120525010Y-112375010D01*
X119349999Y-116189999D02*
X118500000Y-115340000D01*
X120125011Y-116965011D02*
X119349999Y-116189999D01*
X120125011Y-124995011D02*
X120125011Y-116965011D01*
X122560000Y-127430000D02*
X120125011Y-124995011D01*
X119349999Y-121269999D02*
X118500000Y-120420000D01*
X119675001Y-121595001D02*
X119349999Y-121269999D01*
X119675001Y-127085001D02*
X119675001Y-121595001D01*
X122560000Y-129970000D02*
X119675001Y-127085001D01*
X118500000Y-128450000D02*
X118500000Y-125500000D01*
X122560000Y-132510000D02*
X118500000Y-128450000D01*
X120775010Y-133265010D02*
X120775010Y-133150000D01*
X122560000Y-135050000D02*
X120775010Y-133265010D01*
X190065000Y-82800000D02*
X190025010Y-82800000D01*
X192230000Y-80635000D02*
X190065000Y-82800000D01*
X192375210Y-83083790D02*
X192375210Y-83108800D01*
X193544999Y-81914001D02*
X192375210Y-83083790D01*
X193544999Y-80590001D02*
X193544999Y-81914001D01*
X194770000Y-79365000D02*
X193544999Y-80590001D01*
X190775010Y-78095000D02*
X190775010Y-78100000D01*
X192230000Y-78095000D02*
X190775010Y-78095000D01*
X192230000Y-110295010D02*
X192250000Y-110275010D01*
X192230000Y-111595000D02*
X192230000Y-110295010D01*
X194770000Y-112865000D02*
X195669999Y-111965001D01*
X195669999Y-111225010D02*
X195650000Y-111225010D01*
X195669999Y-111965001D02*
X195669999Y-111225010D01*
X195313002Y-114135000D02*
X193502792Y-114135000D01*
X193502792Y-114135000D02*
X192230000Y-114135000D01*
X196120009Y-113327993D02*
X195313002Y-114135000D01*
X196120009Y-107982009D02*
X196120009Y-113327993D01*
X189974967Y-123827788D02*
X189974967Y-117825010D01*
X190841222Y-124694044D02*
X189974967Y-123827788D01*
X190841222Y-127700224D02*
X190841222Y-124694044D01*
X192045998Y-128905000D02*
X190841222Y-127700224D01*
X192230000Y-137595000D02*
X192230000Y-136403924D01*
X192230000Y-136403924D02*
X193929000Y-134704924D01*
X193929000Y-134704924D02*
X193929000Y-129667000D01*
X193929000Y-129667000D02*
X193167000Y-128905000D01*
X193167000Y-128905000D02*
X192045998Y-128905000D01*
X120209990Y-133135000D02*
X120224990Y-133150000D01*
X115730000Y-133135000D02*
X120209990Y-133135000D01*
X120474990Y-111824990D02*
X120500000Y-111824990D01*
X118270000Y-109620000D02*
X120474990Y-111824990D01*
X118270000Y-107905000D02*
X118270000Y-109620000D01*
X119169999Y-106264999D02*
X118270000Y-105365000D01*
X119924990Y-107024990D02*
X119924990Y-107050000D01*
X119169999Y-106264999D02*
X119169999Y-106269999D01*
X119169999Y-106269999D02*
X119924990Y-107024990D01*
M02*
