G04 #@! TF.GenerationSoftware,KiCad,Pcbnew,5.1.0-060a0da~80~ubuntu18.04.1*
G04 #@! TF.CreationDate,2019-05-11T22:14:08+02:00*
G04 #@! TF.ProjectId,myo_shield_pcb,6d796f5f-7368-4696-956c-645f7063622e,rev?*
G04 #@! TF.SameCoordinates,Original*
G04 #@! TF.FileFunction,Legend,Bot*
G04 #@! TF.FilePolarity,Positive*
%FSLAX46Y46*%
G04 Gerber Fmt 4.6, Leading zero omitted, Abs format (unit mm)*
G04 Created by KiCad (PCBNEW 5.1.0-060a0da~80~ubuntu18.04.1) date 2019-05-11 22:14:08*
%MOMM*%
%LPD*%
G04 APERTURE LIST*
%ADD10C,0.150000*%
G04 APERTURE END LIST*
D10*
X190666666Y-77552380D02*
X191000000Y-77076190D01*
X191238095Y-77552380D02*
X191238095Y-76552380D01*
X190857142Y-76552380D01*
X190761904Y-76600000D01*
X190714285Y-76647619D01*
X190666666Y-76742857D01*
X190666666Y-76885714D01*
X190714285Y-76980952D01*
X190761904Y-77028571D01*
X190857142Y-77076190D01*
X191238095Y-77076190D01*
X189714285Y-77552380D02*
X190285714Y-77552380D01*
X190000000Y-77552380D02*
X190000000Y-76552380D01*
X190095238Y-76695238D01*
X190190476Y-76790476D01*
X190285714Y-76838095D01*
X192266866Y-82561180D02*
X192600200Y-82084990D01*
X192838295Y-82561180D02*
X192838295Y-81561180D01*
X192457342Y-81561180D01*
X192362104Y-81608800D01*
X192314485Y-81656419D01*
X192266866Y-81751657D01*
X192266866Y-81894514D01*
X192314485Y-81989752D01*
X192362104Y-82037371D01*
X192457342Y-82084990D01*
X192838295Y-82084990D01*
X191885914Y-81656419D02*
X191838295Y-81608800D01*
X191743057Y-81561180D01*
X191504961Y-81561180D01*
X191409723Y-81608800D01*
X191362104Y-81656419D01*
X191314485Y-81751657D01*
X191314485Y-81846895D01*
X191362104Y-81989752D01*
X191933533Y-82561180D01*
X191314485Y-82561180D01*
X189916666Y-82252380D02*
X190250000Y-81776190D01*
X190488095Y-82252380D02*
X190488095Y-81252380D01*
X190107142Y-81252380D01*
X190011904Y-81300000D01*
X189964285Y-81347619D01*
X189916666Y-81442857D01*
X189916666Y-81585714D01*
X189964285Y-81680952D01*
X190011904Y-81728571D01*
X190107142Y-81776190D01*
X190488095Y-81776190D01*
X189583333Y-81252380D02*
X188964285Y-81252380D01*
X189297619Y-81633333D01*
X189154761Y-81633333D01*
X189059523Y-81680952D01*
X189011904Y-81728571D01*
X188964285Y-81823809D01*
X188964285Y-82061904D01*
X189011904Y-82157142D01*
X189059523Y-82204761D01*
X189154761Y-82252380D01*
X189440476Y-82252380D01*
X189535714Y-82204761D01*
X189583333Y-82157142D01*
X193702380Y-109833333D02*
X193226190Y-109500000D01*
X193702380Y-109261904D02*
X192702380Y-109261904D01*
X192702380Y-109642857D01*
X192750000Y-109738095D01*
X192797619Y-109785714D01*
X192892857Y-109833333D01*
X193035714Y-109833333D01*
X193130952Y-109785714D01*
X193178571Y-109738095D01*
X193226190Y-109642857D01*
X193226190Y-109261904D01*
X193035714Y-110690476D02*
X193702380Y-110690476D01*
X192654761Y-110452380D02*
X193369047Y-110214285D01*
X193369047Y-110833333D01*
X197102380Y-110783333D02*
X196626190Y-110450000D01*
X197102380Y-110211904D02*
X196102380Y-110211904D01*
X196102380Y-110592857D01*
X196150000Y-110688095D01*
X196197619Y-110735714D01*
X196292857Y-110783333D01*
X196435714Y-110783333D01*
X196530952Y-110735714D01*
X196578571Y-110688095D01*
X196626190Y-110592857D01*
X196626190Y-110211904D01*
X196102380Y-111688095D02*
X196102380Y-111211904D01*
X196578571Y-111164285D01*
X196530952Y-111211904D01*
X196483333Y-111307142D01*
X196483333Y-111545238D01*
X196530952Y-111640476D01*
X196578571Y-111688095D01*
X196673809Y-111735714D01*
X196911904Y-111735714D01*
X197007142Y-111688095D01*
X197054761Y-111640476D01*
X197102380Y-111545238D01*
X197102380Y-111307142D01*
X197054761Y-111211904D01*
X197007142Y-111164285D01*
X195916666Y-107402380D02*
X196250000Y-106926190D01*
X196488095Y-107402380D02*
X196488095Y-106402380D01*
X196107142Y-106402380D01*
X196011904Y-106450000D01*
X195964285Y-106497619D01*
X195916666Y-106592857D01*
X195916666Y-106735714D01*
X195964285Y-106830952D01*
X196011904Y-106878571D01*
X196107142Y-106926190D01*
X196488095Y-106926190D01*
X195059523Y-106402380D02*
X195250000Y-106402380D01*
X195345238Y-106450000D01*
X195392857Y-106497619D01*
X195488095Y-106640476D01*
X195535714Y-106830952D01*
X195535714Y-107211904D01*
X195488095Y-107307142D01*
X195440476Y-107354761D01*
X195345238Y-107402380D01*
X195154761Y-107402380D01*
X195059523Y-107354761D01*
X195011904Y-107307142D01*
X194964285Y-107211904D01*
X194964285Y-106973809D01*
X195011904Y-106878571D01*
X195059523Y-106830952D01*
X195154761Y-106783333D01*
X195345238Y-106783333D01*
X195440476Y-106830952D01*
X195488095Y-106878571D01*
X195535714Y-106973809D01*
X191452380Y-117383333D02*
X190976190Y-117050000D01*
X191452380Y-116811904D02*
X190452380Y-116811904D01*
X190452380Y-117192857D01*
X190500000Y-117288095D01*
X190547619Y-117335714D01*
X190642857Y-117383333D01*
X190785714Y-117383333D01*
X190880952Y-117335714D01*
X190928571Y-117288095D01*
X190976190Y-117192857D01*
X190976190Y-116811904D01*
X190452380Y-117716666D02*
X190452380Y-118383333D01*
X191452380Y-117954761D01*
X121142857Y-134602380D02*
X121476190Y-134126190D01*
X121714285Y-134602380D02*
X121714285Y-133602380D01*
X121333333Y-133602380D01*
X121238095Y-133650000D01*
X121190476Y-133697619D01*
X121142857Y-133792857D01*
X121142857Y-133935714D01*
X121190476Y-134030952D01*
X121238095Y-134078571D01*
X121333333Y-134126190D01*
X121714285Y-134126190D01*
X120190476Y-134602380D02*
X120761904Y-134602380D01*
X120476190Y-134602380D02*
X120476190Y-133602380D01*
X120571428Y-133745238D01*
X120666666Y-133840476D01*
X120761904Y-133888095D01*
X119238095Y-134602380D02*
X119809523Y-134602380D01*
X119523809Y-134602380D02*
X119523809Y-133602380D01*
X119619047Y-133745238D01*
X119714285Y-133840476D01*
X119809523Y-133888095D01*
X119952380Y-111457142D02*
X119476190Y-111123809D01*
X119952380Y-110885714D02*
X118952380Y-110885714D01*
X118952380Y-111266666D01*
X119000000Y-111361904D01*
X119047619Y-111409523D01*
X119142857Y-111457142D01*
X119285714Y-111457142D01*
X119380952Y-111409523D01*
X119428571Y-111361904D01*
X119476190Y-111266666D01*
X119476190Y-110885714D01*
X119952380Y-112409523D02*
X119952380Y-111838095D01*
X119952380Y-112123809D02*
X118952380Y-112123809D01*
X119095238Y-112028571D01*
X119190476Y-111933333D01*
X119238095Y-111838095D01*
X118952380Y-112742857D02*
X118952380Y-113361904D01*
X119333333Y-113028571D01*
X119333333Y-113171428D01*
X119380952Y-113266666D01*
X119428571Y-113314285D01*
X119523809Y-113361904D01*
X119761904Y-113361904D01*
X119857142Y-113314285D01*
X119904761Y-113266666D01*
X119952380Y-113171428D01*
X119952380Y-112885714D01*
X119904761Y-112790476D01*
X119857142Y-112742857D01*
X120842857Y-108502380D02*
X121176190Y-108026190D01*
X121414285Y-108502380D02*
X121414285Y-107502380D01*
X121033333Y-107502380D01*
X120938095Y-107550000D01*
X120890476Y-107597619D01*
X120842857Y-107692857D01*
X120842857Y-107835714D01*
X120890476Y-107930952D01*
X120938095Y-107978571D01*
X121033333Y-108026190D01*
X121414285Y-108026190D01*
X119890476Y-108502380D02*
X120461904Y-108502380D01*
X120176190Y-108502380D02*
X120176190Y-107502380D01*
X120271428Y-107645238D01*
X120366666Y-107740476D01*
X120461904Y-107788095D01*
X118985714Y-107502380D02*
X119461904Y-107502380D01*
X119509523Y-107978571D01*
X119461904Y-107930952D01*
X119366666Y-107883333D01*
X119128571Y-107883333D01*
X119033333Y-107930952D01*
X118985714Y-107978571D01*
X118938095Y-108073809D01*
X118938095Y-108311904D01*
X118985714Y-108407142D01*
X119033333Y-108454761D01*
X119128571Y-108502380D01*
X119366666Y-108502380D01*
X119461904Y-108454761D01*
X119509523Y-108407142D01*
M02*
