G04 #@! TF.GenerationSoftware,KiCad,Pcbnew,5.1.0-060a0da~80~ubuntu18.04.1*
G04 #@! TF.CreationDate,2019-05-11T22:14:08+02:00*
G04 #@! TF.ProjectId,myo_shield_pcb,6d796f5f-7368-4696-956c-645f7063622e,rev?*
G04 #@! TF.SameCoordinates,Original*
G04 #@! TF.FileFunction,Profile,NP*
%FSLAX46Y46*%
G04 Gerber Fmt 4.6, Leading zero omitted, Abs format (unit mm)*
G04 Created by KiCad (PCBNEW 5.1.0-060a0da~80~ubuntu18.04.1) date 2019-05-11 22:14:08*
%MOMM*%
%LPD*%
G04 APERTURE LIST*
%ADD10C,0.050000*%
%ADD11C,0.120000*%
G04 APERTURE END LIST*
D10*
X189750000Y-76750000D02*
X189750000Y-74750000D01*
X150750000Y-76750000D02*
X189750000Y-76750000D01*
X180700000Y-85350000D02*
X176850000Y-85350000D01*
X180700000Y-126050000D02*
X180700000Y-85350000D01*
X176950000Y-126050000D02*
X180700000Y-126050000D01*
X176950000Y-117850000D02*
X176950000Y-126050000D01*
X167450000Y-117850000D02*
X176950000Y-117850000D01*
X167500000Y-103500000D02*
X167450000Y-117850000D01*
X167500000Y-87400000D02*
X167500000Y-103500000D01*
X176850000Y-87400000D02*
X167500000Y-87400000D01*
X176850000Y-85350000D02*
X176850000Y-87400000D01*
D11*
X162509431Y-102000000D02*
G75*
G03X162509431Y-102000000I-13259431J0D01*
G01*
D10*
X132950000Y-86500000D02*
X132950000Y-130100000D01*
X129600000Y-86500000D02*
X132950000Y-86500000D01*
X129600000Y-135500000D02*
X129600000Y-86500000D01*
X128250000Y-135500000D02*
X129600000Y-135500000D01*
X150750000Y-76750000D02*
X113250000Y-76750000D01*
X197250000Y-74750000D02*
X189750000Y-74750000D01*
X197250000Y-144250000D02*
X197250000Y-74750000D01*
X162250000Y-144250000D02*
X197250000Y-144250000D01*
X162250000Y-130050000D02*
X162250000Y-144250000D01*
X132950000Y-130100000D02*
X162250000Y-130050000D01*
X128250000Y-138250000D02*
X128250000Y-135500000D01*
X113250000Y-138250000D02*
X128250000Y-138250000D01*
X113250000Y-76750000D02*
X113250000Y-138250000D01*
M02*
