M48
;DRILL file {KiCad 5.0.2-bee76a0~70~ubuntu18.04.1} date Do 26 Sep 2019 00:30:14 CEST
;FORMAT={-:-/ absolute / inch / decimal}
FMAT,2
INCH,TZ
T1C0.0591
T2C0.1260
%
G90
G05
T1
X7.1378Y-5.5669
X4.5254Y-3.1386
X4.5945Y-4.5335
X7.9744Y-4.5512
X4.8699Y-3.1386
X8.0354Y-5.5689
X7.5866Y-5.5669
X7.7795Y-3.1732
X5.3585Y-5.5661
X6.248Y-5.5669
X4.5945Y-5.1732
X7.9291Y-3.6299
X6.6929Y-5.5669
X7.9291Y-4.2756
X5.5589Y-3.1386
X5.2144Y-3.1386
X5.8012Y-5.5669
X7.9783Y-5.0079
T2
X5.3898Y-3.5
X5.3898Y-4.5276
X6.3583Y-3.5039
X6.3622Y-4.5315
T0
M30
