G04 #@! TF.GenerationSoftware,KiCad,Pcbnew,5.0.2-bee76a0~70~ubuntu18.04.1*
G04 #@! TF.CreationDate,2019-09-26T00:30:11+02:00*
G04 #@! TF.ProjectId,myo_shield_pcb,6d796f5f-7368-4696-956c-645f7063622e,rev?*
G04 #@! TF.SameCoordinates,Original*
G04 #@! TF.FileFunction,Paste,Top*
G04 #@! TF.FilePolarity,Positive*
%FSLAX46Y46*%
G04 Gerber Fmt 4.6, Leading zero omitted, Abs format (unit mm)*
G04 Created by KiCad (PCBNEW 5.0.2-bee76a0~70~ubuntu18.04.1) date Do 26 Sep 2019 00:30:11 CEST*
%MOMM*%
%LPD*%
G01*
G04 APERTURE LIST*
%ADD10C,0.025400*%
%ADD11C,0.100000*%
%ADD12C,0.590000*%
%ADD13R,3.403600X1.803400*%
%ADD14R,0.304800X0.812800*%
%ADD15R,0.850000X1.600000*%
%ADD16R,1.803400X3.403600*%
%ADD17R,0.812800X0.304800*%
G04 APERTURE END LIST*
D10*
G04 #@! TO.C,U1*
G36*
X142938742Y-134096431D02*
X141436942Y-134096431D01*
X141436942Y-135699831D01*
X142938742Y-135699831D01*
X142938742Y-134096431D01*
G37*
X142938742Y-134096431D02*
X141436942Y-134096431D01*
X141436942Y-135699831D01*
X142938742Y-135699831D01*
X142938742Y-134096431D01*
G36*
X144640542Y-134096431D02*
X143138742Y-134096431D01*
X143138742Y-135699831D01*
X144640542Y-135699831D01*
X144640542Y-134096431D01*
G37*
X144640542Y-134096431D02*
X143138742Y-134096431D01*
X143138742Y-135699831D01*
X144640542Y-135699831D01*
X144640542Y-134096431D01*
G04 #@! TO.C,U2*
G36*
X155972652Y-134163861D02*
X154470852Y-134163861D01*
X154470852Y-135767261D01*
X155972652Y-135767261D01*
X155972652Y-134163861D01*
G37*
X155972652Y-134163861D02*
X154470852Y-134163861D01*
X154470852Y-135767261D01*
X155972652Y-135767261D01*
X155972652Y-134163861D01*
G36*
X154270852Y-134163861D02*
X152769052Y-134163861D01*
X152769052Y-135767261D01*
X154270852Y-135767261D01*
X154270852Y-134163861D01*
G37*
X154270852Y-134163861D02*
X152769052Y-134163861D01*
X152769052Y-135767261D01*
X154270852Y-135767261D01*
X154270852Y-134163861D01*
G04 #@! TO.C,U3*
G36*
X165115408Y-134134777D02*
X163613608Y-134134777D01*
X163613608Y-135738177D01*
X165115408Y-135738177D01*
X165115408Y-134134777D01*
G37*
X165115408Y-134134777D02*
X163613608Y-134134777D01*
X163613608Y-135738177D01*
X165115408Y-135738177D01*
X165115408Y-134134777D01*
G36*
X166817208Y-134134777D02*
X165315408Y-134134777D01*
X165315408Y-135738177D01*
X166817208Y-135738177D01*
X166817208Y-134134777D01*
G37*
X166817208Y-134134777D02*
X165315408Y-134134777D01*
X165315408Y-135738177D01*
X166817208Y-135738177D01*
X166817208Y-134134777D01*
G04 #@! TO.C,U4*
G36*
X178901800Y-134098300D02*
X177400000Y-134098300D01*
X177400000Y-135701700D01*
X178901800Y-135701700D01*
X178901800Y-134098300D01*
G37*
X178901800Y-134098300D02*
X177400000Y-134098300D01*
X177400000Y-135701700D01*
X178901800Y-135701700D01*
X178901800Y-134098300D01*
G36*
X177200000Y-134098300D02*
X175698200Y-134098300D01*
X175698200Y-135701700D01*
X177200000Y-135701700D01*
X177200000Y-134098300D01*
G37*
X177200000Y-134098300D02*
X175698200Y-134098300D01*
X175698200Y-135701700D01*
X177200000Y-135701700D01*
X177200000Y-134098300D01*
G04 #@! TO.C,U5*
G36*
X194785990Y-134467606D02*
X193284190Y-134467606D01*
X193284190Y-136071006D01*
X194785990Y-136071006D01*
X194785990Y-134467606D01*
G37*
X194785990Y-134467606D02*
X193284190Y-134467606D01*
X193284190Y-136071006D01*
X194785990Y-136071006D01*
X194785990Y-134467606D01*
G36*
X193084190Y-134467606D02*
X191582390Y-134467606D01*
X191582390Y-136071006D01*
X193084190Y-136071006D01*
X193084190Y-134467606D01*
G37*
X193084190Y-134467606D02*
X191582390Y-134467606D01*
X191582390Y-136071006D01*
X193084190Y-136071006D01*
X193084190Y-134467606D01*
G04 #@! TO.C,U6*
G36*
X193897606Y-128980810D02*
X193897606Y-130482610D01*
X195501006Y-130482610D01*
X195501006Y-128980810D01*
X193897606Y-128980810D01*
G37*
X193897606Y-128980810D02*
X193897606Y-130482610D01*
X195501006Y-130482610D01*
X195501006Y-128980810D01*
X193897606Y-128980810D01*
G36*
X193897606Y-127279010D02*
X193897606Y-128780810D01*
X195501006Y-128780810D01*
X195501006Y-127279010D01*
X193897606Y-127279010D01*
G37*
X193897606Y-127279010D02*
X193897606Y-128780810D01*
X195501006Y-128780810D01*
X195501006Y-127279010D01*
X193897606Y-127279010D01*
G04 #@! TO.C,U7*
G36*
X195217606Y-123265810D02*
X195217606Y-124767610D01*
X196821006Y-124767610D01*
X196821006Y-123265810D01*
X195217606Y-123265810D01*
G37*
X195217606Y-123265810D02*
X195217606Y-124767610D01*
X196821006Y-124767610D01*
X196821006Y-123265810D01*
X195217606Y-123265810D01*
G36*
X195217606Y-121564010D02*
X195217606Y-123065810D01*
X196821006Y-123065810D01*
X196821006Y-121564010D01*
X195217606Y-121564010D01*
G37*
X195217606Y-121564010D02*
X195217606Y-123065810D01*
X196821006Y-123065810D01*
X196821006Y-121564010D01*
X195217606Y-121564010D01*
G04 #@! TO.C,U8*
G36*
X194948300Y-115398200D02*
X194948300Y-116900000D01*
X196551700Y-116900000D01*
X196551700Y-115398200D01*
X194948300Y-115398200D01*
G37*
X194948300Y-115398200D02*
X194948300Y-116900000D01*
X196551700Y-116900000D01*
X196551700Y-115398200D01*
X194948300Y-115398200D01*
G36*
X194948300Y-117100000D02*
X194948300Y-118601800D01*
X196551700Y-118601800D01*
X196551700Y-117100000D01*
X194948300Y-117100000D01*
G37*
X194948300Y-117100000D02*
X194948300Y-118601800D01*
X196551700Y-118601800D01*
X196551700Y-117100000D01*
X194948300Y-117100000D01*
G04 #@! TD*
D11*
G04 #@! TO.C,C2*
G36*
X144146958Y-131680710D02*
X144161276Y-131682834D01*
X144175317Y-131686351D01*
X144188946Y-131691228D01*
X144202031Y-131697417D01*
X144214447Y-131704858D01*
X144226073Y-131713481D01*
X144236798Y-131723202D01*
X144246519Y-131733927D01*
X144255142Y-131745553D01*
X144262583Y-131757969D01*
X144268772Y-131771054D01*
X144273649Y-131784683D01*
X144277166Y-131798724D01*
X144279290Y-131813042D01*
X144280000Y-131827500D01*
X144280000Y-132172500D01*
X144279290Y-132186958D01*
X144277166Y-132201276D01*
X144273649Y-132215317D01*
X144268772Y-132228946D01*
X144262583Y-132242031D01*
X144255142Y-132254447D01*
X144246519Y-132266073D01*
X144236798Y-132276798D01*
X144226073Y-132286519D01*
X144214447Y-132295142D01*
X144202031Y-132302583D01*
X144188946Y-132308772D01*
X144175317Y-132313649D01*
X144161276Y-132317166D01*
X144146958Y-132319290D01*
X144132500Y-132320000D01*
X143837500Y-132320000D01*
X143823042Y-132319290D01*
X143808724Y-132317166D01*
X143794683Y-132313649D01*
X143781054Y-132308772D01*
X143767969Y-132302583D01*
X143755553Y-132295142D01*
X143743927Y-132286519D01*
X143733202Y-132276798D01*
X143723481Y-132266073D01*
X143714858Y-132254447D01*
X143707417Y-132242031D01*
X143701228Y-132228946D01*
X143696351Y-132215317D01*
X143692834Y-132201276D01*
X143690710Y-132186958D01*
X143690000Y-132172500D01*
X143690000Y-131827500D01*
X143690710Y-131813042D01*
X143692834Y-131798724D01*
X143696351Y-131784683D01*
X143701228Y-131771054D01*
X143707417Y-131757969D01*
X143714858Y-131745553D01*
X143723481Y-131733927D01*
X143733202Y-131723202D01*
X143743927Y-131713481D01*
X143755553Y-131704858D01*
X143767969Y-131697417D01*
X143781054Y-131691228D01*
X143794683Y-131686351D01*
X143808724Y-131682834D01*
X143823042Y-131680710D01*
X143837500Y-131680000D01*
X144132500Y-131680000D01*
X144146958Y-131680710D01*
X144146958Y-131680710D01*
G37*
D12*
X143985000Y-132000000D03*
D11*
G36*
X143176958Y-131680710D02*
X143191276Y-131682834D01*
X143205317Y-131686351D01*
X143218946Y-131691228D01*
X143232031Y-131697417D01*
X143244447Y-131704858D01*
X143256073Y-131713481D01*
X143266798Y-131723202D01*
X143276519Y-131733927D01*
X143285142Y-131745553D01*
X143292583Y-131757969D01*
X143298772Y-131771054D01*
X143303649Y-131784683D01*
X143307166Y-131798724D01*
X143309290Y-131813042D01*
X143310000Y-131827500D01*
X143310000Y-132172500D01*
X143309290Y-132186958D01*
X143307166Y-132201276D01*
X143303649Y-132215317D01*
X143298772Y-132228946D01*
X143292583Y-132242031D01*
X143285142Y-132254447D01*
X143276519Y-132266073D01*
X143266798Y-132276798D01*
X143256073Y-132286519D01*
X143244447Y-132295142D01*
X143232031Y-132302583D01*
X143218946Y-132308772D01*
X143205317Y-132313649D01*
X143191276Y-132317166D01*
X143176958Y-132319290D01*
X143162500Y-132320000D01*
X142867500Y-132320000D01*
X142853042Y-132319290D01*
X142838724Y-132317166D01*
X142824683Y-132313649D01*
X142811054Y-132308772D01*
X142797969Y-132302583D01*
X142785553Y-132295142D01*
X142773927Y-132286519D01*
X142763202Y-132276798D01*
X142753481Y-132266073D01*
X142744858Y-132254447D01*
X142737417Y-132242031D01*
X142731228Y-132228946D01*
X142726351Y-132215317D01*
X142722834Y-132201276D01*
X142720710Y-132186958D01*
X142720000Y-132172500D01*
X142720000Y-131827500D01*
X142720710Y-131813042D01*
X142722834Y-131798724D01*
X142726351Y-131784683D01*
X142731228Y-131771054D01*
X142737417Y-131757969D01*
X142744858Y-131745553D01*
X142753481Y-131733927D01*
X142763202Y-131723202D01*
X142773927Y-131713481D01*
X142785553Y-131704858D01*
X142797969Y-131697417D01*
X142811054Y-131691228D01*
X142824683Y-131686351D01*
X142838724Y-131682834D01*
X142853042Y-131680710D01*
X142867500Y-131680000D01*
X143162500Y-131680000D01*
X143176958Y-131680710D01*
X143176958Y-131680710D01*
G37*
D12*
X143015000Y-132000000D03*
G04 #@! TD*
D13*
G04 #@! TO.C,U1*
X143038742Y-134898131D03*
D14*
X144288742Y-136345931D03*
X143788742Y-136345931D03*
X143288742Y-136345931D03*
X142788742Y-136345931D03*
X142288742Y-136345931D03*
X141788742Y-136345931D03*
X141788742Y-133450331D03*
X142288742Y-133450331D03*
X142788742Y-133450331D03*
X143288742Y-133450331D03*
X143788742Y-133450331D03*
X144288742Y-133450331D03*
G04 #@! TD*
D11*
G04 #@! TO.C,C1*
G36*
X146186958Y-134220710D02*
X146201276Y-134222834D01*
X146215317Y-134226351D01*
X146228946Y-134231228D01*
X146242031Y-134237417D01*
X146254447Y-134244858D01*
X146266073Y-134253481D01*
X146276798Y-134263202D01*
X146286519Y-134273927D01*
X146295142Y-134285553D01*
X146302583Y-134297969D01*
X146308772Y-134311054D01*
X146313649Y-134324683D01*
X146317166Y-134338724D01*
X146319290Y-134353042D01*
X146320000Y-134367500D01*
X146320000Y-134662500D01*
X146319290Y-134676958D01*
X146317166Y-134691276D01*
X146313649Y-134705317D01*
X146308772Y-134718946D01*
X146302583Y-134732031D01*
X146295142Y-134744447D01*
X146286519Y-134756073D01*
X146276798Y-134766798D01*
X146266073Y-134776519D01*
X146254447Y-134785142D01*
X146242031Y-134792583D01*
X146228946Y-134798772D01*
X146215317Y-134803649D01*
X146201276Y-134807166D01*
X146186958Y-134809290D01*
X146172500Y-134810000D01*
X145827500Y-134810000D01*
X145813042Y-134809290D01*
X145798724Y-134807166D01*
X145784683Y-134803649D01*
X145771054Y-134798772D01*
X145757969Y-134792583D01*
X145745553Y-134785142D01*
X145733927Y-134776519D01*
X145723202Y-134766798D01*
X145713481Y-134756073D01*
X145704858Y-134744447D01*
X145697417Y-134732031D01*
X145691228Y-134718946D01*
X145686351Y-134705317D01*
X145682834Y-134691276D01*
X145680710Y-134676958D01*
X145680000Y-134662500D01*
X145680000Y-134367500D01*
X145680710Y-134353042D01*
X145682834Y-134338724D01*
X145686351Y-134324683D01*
X145691228Y-134311054D01*
X145697417Y-134297969D01*
X145704858Y-134285553D01*
X145713481Y-134273927D01*
X145723202Y-134263202D01*
X145733927Y-134253481D01*
X145745553Y-134244858D01*
X145757969Y-134237417D01*
X145771054Y-134231228D01*
X145784683Y-134226351D01*
X145798724Y-134222834D01*
X145813042Y-134220710D01*
X145827500Y-134220000D01*
X146172500Y-134220000D01*
X146186958Y-134220710D01*
X146186958Y-134220710D01*
G37*
D12*
X146000000Y-134515000D03*
D11*
G36*
X146186958Y-135190710D02*
X146201276Y-135192834D01*
X146215317Y-135196351D01*
X146228946Y-135201228D01*
X146242031Y-135207417D01*
X146254447Y-135214858D01*
X146266073Y-135223481D01*
X146276798Y-135233202D01*
X146286519Y-135243927D01*
X146295142Y-135255553D01*
X146302583Y-135267969D01*
X146308772Y-135281054D01*
X146313649Y-135294683D01*
X146317166Y-135308724D01*
X146319290Y-135323042D01*
X146320000Y-135337500D01*
X146320000Y-135632500D01*
X146319290Y-135646958D01*
X146317166Y-135661276D01*
X146313649Y-135675317D01*
X146308772Y-135688946D01*
X146302583Y-135702031D01*
X146295142Y-135714447D01*
X146286519Y-135726073D01*
X146276798Y-135736798D01*
X146266073Y-135746519D01*
X146254447Y-135755142D01*
X146242031Y-135762583D01*
X146228946Y-135768772D01*
X146215317Y-135773649D01*
X146201276Y-135777166D01*
X146186958Y-135779290D01*
X146172500Y-135780000D01*
X145827500Y-135780000D01*
X145813042Y-135779290D01*
X145798724Y-135777166D01*
X145784683Y-135773649D01*
X145771054Y-135768772D01*
X145757969Y-135762583D01*
X145745553Y-135755142D01*
X145733927Y-135746519D01*
X145723202Y-135736798D01*
X145713481Y-135726073D01*
X145704858Y-135714447D01*
X145697417Y-135702031D01*
X145691228Y-135688946D01*
X145686351Y-135675317D01*
X145682834Y-135661276D01*
X145680710Y-135646958D01*
X145680000Y-135632500D01*
X145680000Y-135337500D01*
X145680710Y-135323042D01*
X145682834Y-135308724D01*
X145686351Y-135294683D01*
X145691228Y-135281054D01*
X145697417Y-135267969D01*
X145704858Y-135255553D01*
X145713481Y-135243927D01*
X145723202Y-135233202D01*
X145733927Y-135223481D01*
X145745553Y-135214858D01*
X145757969Y-135207417D01*
X145771054Y-135201228D01*
X145784683Y-135196351D01*
X145798724Y-135192834D01*
X145813042Y-135190710D01*
X145827500Y-135190000D01*
X146172500Y-135190000D01*
X146186958Y-135190710D01*
X146186958Y-135190710D01*
G37*
D12*
X146000000Y-135485000D03*
G04 #@! TD*
D15*
G04 #@! TO.C,D1*
X174025000Y-119700000D03*
X172275000Y-119700000D03*
X174025000Y-123200000D03*
X172275000Y-123200000D03*
G04 #@! TD*
G04 #@! TO.C,D2*
X169925000Y-119700000D03*
X168175000Y-119700000D03*
X169925000Y-123200000D03*
X168175000Y-123200000D03*
G04 #@! TD*
G04 #@! TO.C,D3*
X164125000Y-123200000D03*
X165875000Y-123200000D03*
X164125000Y-119700000D03*
X165875000Y-119700000D03*
G04 #@! TD*
G04 #@! TO.C,D4*
X161825000Y-119750000D03*
X160075000Y-119750000D03*
X161825000Y-123250000D03*
X160075000Y-123250000D03*
G04 #@! TD*
G04 #@! TO.C,D5*
X156075000Y-123350000D03*
X157825000Y-123350000D03*
X156075000Y-119850000D03*
X157825000Y-119850000D03*
G04 #@! TD*
G04 #@! TO.C,D6*
X152075000Y-123300000D03*
X153825000Y-123300000D03*
X152075000Y-119800000D03*
X153825000Y-119800000D03*
G04 #@! TD*
G04 #@! TO.C,D7*
X149825000Y-119800000D03*
X148075000Y-119800000D03*
X149825000Y-123300000D03*
X148075000Y-123300000D03*
G04 #@! TD*
G04 #@! TO.C,D8*
X144075000Y-123300000D03*
X145825000Y-123300000D03*
X144075000Y-119800000D03*
X145825000Y-119800000D03*
G04 #@! TD*
G04 #@! TO.C,D9*
X141825000Y-119800000D03*
X140075000Y-119800000D03*
X141825000Y-123300000D03*
X140075000Y-123300000D03*
G04 #@! TD*
G04 #@! TO.C,D10*
X137725000Y-119800000D03*
X135975000Y-119800000D03*
X137725000Y-123300000D03*
X135975000Y-123300000D03*
G04 #@! TD*
D11*
G04 #@! TO.C,C3*
G36*
X191386958Y-127820710D02*
X191401276Y-127822834D01*
X191415317Y-127826351D01*
X191428946Y-127831228D01*
X191442031Y-127837417D01*
X191454447Y-127844858D01*
X191466073Y-127853481D01*
X191476798Y-127863202D01*
X191486519Y-127873927D01*
X191495142Y-127885553D01*
X191502583Y-127897969D01*
X191508772Y-127911054D01*
X191513649Y-127924683D01*
X191517166Y-127938724D01*
X191519290Y-127953042D01*
X191520000Y-127967500D01*
X191520000Y-128262500D01*
X191519290Y-128276958D01*
X191517166Y-128291276D01*
X191513649Y-128305317D01*
X191508772Y-128318946D01*
X191502583Y-128332031D01*
X191495142Y-128344447D01*
X191486519Y-128356073D01*
X191476798Y-128366798D01*
X191466073Y-128376519D01*
X191454447Y-128385142D01*
X191442031Y-128392583D01*
X191428946Y-128398772D01*
X191415317Y-128403649D01*
X191401276Y-128407166D01*
X191386958Y-128409290D01*
X191372500Y-128410000D01*
X191027500Y-128410000D01*
X191013042Y-128409290D01*
X190998724Y-128407166D01*
X190984683Y-128403649D01*
X190971054Y-128398772D01*
X190957969Y-128392583D01*
X190945553Y-128385142D01*
X190933927Y-128376519D01*
X190923202Y-128366798D01*
X190913481Y-128356073D01*
X190904858Y-128344447D01*
X190897417Y-128332031D01*
X190891228Y-128318946D01*
X190886351Y-128305317D01*
X190882834Y-128291276D01*
X190880710Y-128276958D01*
X190880000Y-128262500D01*
X190880000Y-127967500D01*
X190880710Y-127953042D01*
X190882834Y-127938724D01*
X190886351Y-127924683D01*
X190891228Y-127911054D01*
X190897417Y-127897969D01*
X190904858Y-127885553D01*
X190913481Y-127873927D01*
X190923202Y-127863202D01*
X190933927Y-127853481D01*
X190945553Y-127844858D01*
X190957969Y-127837417D01*
X190971054Y-127831228D01*
X190984683Y-127826351D01*
X190998724Y-127822834D01*
X191013042Y-127820710D01*
X191027500Y-127820000D01*
X191372500Y-127820000D01*
X191386958Y-127820710D01*
X191386958Y-127820710D01*
G37*
D12*
X191200000Y-128115000D03*
D11*
G36*
X191386958Y-128790710D02*
X191401276Y-128792834D01*
X191415317Y-128796351D01*
X191428946Y-128801228D01*
X191442031Y-128807417D01*
X191454447Y-128814858D01*
X191466073Y-128823481D01*
X191476798Y-128833202D01*
X191486519Y-128843927D01*
X191495142Y-128855553D01*
X191502583Y-128867969D01*
X191508772Y-128881054D01*
X191513649Y-128894683D01*
X191517166Y-128908724D01*
X191519290Y-128923042D01*
X191520000Y-128937500D01*
X191520000Y-129232500D01*
X191519290Y-129246958D01*
X191517166Y-129261276D01*
X191513649Y-129275317D01*
X191508772Y-129288946D01*
X191502583Y-129302031D01*
X191495142Y-129314447D01*
X191486519Y-129326073D01*
X191476798Y-129336798D01*
X191466073Y-129346519D01*
X191454447Y-129355142D01*
X191442031Y-129362583D01*
X191428946Y-129368772D01*
X191415317Y-129373649D01*
X191401276Y-129377166D01*
X191386958Y-129379290D01*
X191372500Y-129380000D01*
X191027500Y-129380000D01*
X191013042Y-129379290D01*
X190998724Y-129377166D01*
X190984683Y-129373649D01*
X190971054Y-129368772D01*
X190957969Y-129362583D01*
X190945553Y-129355142D01*
X190933927Y-129346519D01*
X190923202Y-129336798D01*
X190913481Y-129326073D01*
X190904858Y-129314447D01*
X190897417Y-129302031D01*
X190891228Y-129288946D01*
X190886351Y-129275317D01*
X190882834Y-129261276D01*
X190880710Y-129246958D01*
X190880000Y-129232500D01*
X190880000Y-128937500D01*
X190880710Y-128923042D01*
X190882834Y-128908724D01*
X190886351Y-128894683D01*
X190891228Y-128881054D01*
X190897417Y-128867969D01*
X190904858Y-128855553D01*
X190913481Y-128843927D01*
X190923202Y-128833202D01*
X190933927Y-128823481D01*
X190945553Y-128814858D01*
X190957969Y-128807417D01*
X190971054Y-128801228D01*
X190984683Y-128796351D01*
X190998724Y-128792834D01*
X191013042Y-128790710D01*
X191027500Y-128790000D01*
X191372500Y-128790000D01*
X191386958Y-128790710D01*
X191386958Y-128790710D01*
G37*
D12*
X191200000Y-129085000D03*
G04 #@! TD*
D11*
G04 #@! TO.C,C4*
G36*
X195346264Y-125561520D02*
X195360582Y-125563644D01*
X195374623Y-125567161D01*
X195388252Y-125572038D01*
X195401337Y-125578227D01*
X195413753Y-125585668D01*
X195425379Y-125594291D01*
X195436104Y-125604012D01*
X195445825Y-125614737D01*
X195454448Y-125626363D01*
X195461889Y-125638779D01*
X195468078Y-125651864D01*
X195472955Y-125665493D01*
X195476472Y-125679534D01*
X195478596Y-125693852D01*
X195479306Y-125708310D01*
X195479306Y-126053310D01*
X195478596Y-126067768D01*
X195476472Y-126082086D01*
X195472955Y-126096127D01*
X195468078Y-126109756D01*
X195461889Y-126122841D01*
X195454448Y-126135257D01*
X195445825Y-126146883D01*
X195436104Y-126157608D01*
X195425379Y-126167329D01*
X195413753Y-126175952D01*
X195401337Y-126183393D01*
X195388252Y-126189582D01*
X195374623Y-126194459D01*
X195360582Y-126197976D01*
X195346264Y-126200100D01*
X195331806Y-126200810D01*
X195036806Y-126200810D01*
X195022348Y-126200100D01*
X195008030Y-126197976D01*
X194993989Y-126194459D01*
X194980360Y-126189582D01*
X194967275Y-126183393D01*
X194954859Y-126175952D01*
X194943233Y-126167329D01*
X194932508Y-126157608D01*
X194922787Y-126146883D01*
X194914164Y-126135257D01*
X194906723Y-126122841D01*
X194900534Y-126109756D01*
X194895657Y-126096127D01*
X194892140Y-126082086D01*
X194890016Y-126067768D01*
X194889306Y-126053310D01*
X194889306Y-125708310D01*
X194890016Y-125693852D01*
X194892140Y-125679534D01*
X194895657Y-125665493D01*
X194900534Y-125651864D01*
X194906723Y-125638779D01*
X194914164Y-125626363D01*
X194922787Y-125614737D01*
X194932508Y-125604012D01*
X194943233Y-125594291D01*
X194954859Y-125585668D01*
X194967275Y-125578227D01*
X194980360Y-125572038D01*
X194993989Y-125567161D01*
X195008030Y-125563644D01*
X195022348Y-125561520D01*
X195036806Y-125560810D01*
X195331806Y-125560810D01*
X195346264Y-125561520D01*
X195346264Y-125561520D01*
G37*
D12*
X195184306Y-125880810D03*
D11*
G36*
X194376264Y-125561520D02*
X194390582Y-125563644D01*
X194404623Y-125567161D01*
X194418252Y-125572038D01*
X194431337Y-125578227D01*
X194443753Y-125585668D01*
X194455379Y-125594291D01*
X194466104Y-125604012D01*
X194475825Y-125614737D01*
X194484448Y-125626363D01*
X194491889Y-125638779D01*
X194498078Y-125651864D01*
X194502955Y-125665493D01*
X194506472Y-125679534D01*
X194508596Y-125693852D01*
X194509306Y-125708310D01*
X194509306Y-126053310D01*
X194508596Y-126067768D01*
X194506472Y-126082086D01*
X194502955Y-126096127D01*
X194498078Y-126109756D01*
X194491889Y-126122841D01*
X194484448Y-126135257D01*
X194475825Y-126146883D01*
X194466104Y-126157608D01*
X194455379Y-126167329D01*
X194443753Y-126175952D01*
X194431337Y-126183393D01*
X194418252Y-126189582D01*
X194404623Y-126194459D01*
X194390582Y-126197976D01*
X194376264Y-126200100D01*
X194361806Y-126200810D01*
X194066806Y-126200810D01*
X194052348Y-126200100D01*
X194038030Y-126197976D01*
X194023989Y-126194459D01*
X194010360Y-126189582D01*
X193997275Y-126183393D01*
X193984859Y-126175952D01*
X193973233Y-126167329D01*
X193962508Y-126157608D01*
X193952787Y-126146883D01*
X193944164Y-126135257D01*
X193936723Y-126122841D01*
X193930534Y-126109756D01*
X193925657Y-126096127D01*
X193922140Y-126082086D01*
X193920016Y-126067768D01*
X193919306Y-126053310D01*
X193919306Y-125708310D01*
X193920016Y-125693852D01*
X193922140Y-125679534D01*
X193925657Y-125665493D01*
X193930534Y-125651864D01*
X193936723Y-125638779D01*
X193944164Y-125626363D01*
X193952787Y-125614737D01*
X193962508Y-125604012D01*
X193973233Y-125594291D01*
X193984859Y-125585668D01*
X193997275Y-125578227D01*
X194010360Y-125572038D01*
X194023989Y-125567161D01*
X194038030Y-125563644D01*
X194052348Y-125561520D01*
X194066806Y-125560810D01*
X194361806Y-125560810D01*
X194376264Y-125561520D01*
X194376264Y-125561520D01*
G37*
D12*
X194214306Y-125880810D03*
G04 #@! TD*
D11*
G04 #@! TO.C,C5*
G36*
X168436958Y-134157187D02*
X168451276Y-134159311D01*
X168465317Y-134162828D01*
X168478946Y-134167705D01*
X168492031Y-134173894D01*
X168504447Y-134181335D01*
X168516073Y-134189958D01*
X168526798Y-134199679D01*
X168536519Y-134210404D01*
X168545142Y-134222030D01*
X168552583Y-134234446D01*
X168558772Y-134247531D01*
X168563649Y-134261160D01*
X168567166Y-134275201D01*
X168569290Y-134289519D01*
X168570000Y-134303977D01*
X168570000Y-134598977D01*
X168569290Y-134613435D01*
X168567166Y-134627753D01*
X168563649Y-134641794D01*
X168558772Y-134655423D01*
X168552583Y-134668508D01*
X168545142Y-134680924D01*
X168536519Y-134692550D01*
X168526798Y-134703275D01*
X168516073Y-134712996D01*
X168504447Y-134721619D01*
X168492031Y-134729060D01*
X168478946Y-134735249D01*
X168465317Y-134740126D01*
X168451276Y-134743643D01*
X168436958Y-134745767D01*
X168422500Y-134746477D01*
X168077500Y-134746477D01*
X168063042Y-134745767D01*
X168048724Y-134743643D01*
X168034683Y-134740126D01*
X168021054Y-134735249D01*
X168007969Y-134729060D01*
X167995553Y-134721619D01*
X167983927Y-134712996D01*
X167973202Y-134703275D01*
X167963481Y-134692550D01*
X167954858Y-134680924D01*
X167947417Y-134668508D01*
X167941228Y-134655423D01*
X167936351Y-134641794D01*
X167932834Y-134627753D01*
X167930710Y-134613435D01*
X167930000Y-134598977D01*
X167930000Y-134303977D01*
X167930710Y-134289519D01*
X167932834Y-134275201D01*
X167936351Y-134261160D01*
X167941228Y-134247531D01*
X167947417Y-134234446D01*
X167954858Y-134222030D01*
X167963481Y-134210404D01*
X167973202Y-134199679D01*
X167983927Y-134189958D01*
X167995553Y-134181335D01*
X168007969Y-134173894D01*
X168021054Y-134167705D01*
X168034683Y-134162828D01*
X168048724Y-134159311D01*
X168063042Y-134157187D01*
X168077500Y-134156477D01*
X168422500Y-134156477D01*
X168436958Y-134157187D01*
X168436958Y-134157187D01*
G37*
D12*
X168250000Y-134451477D03*
D11*
G36*
X168436958Y-135127187D02*
X168451276Y-135129311D01*
X168465317Y-135132828D01*
X168478946Y-135137705D01*
X168492031Y-135143894D01*
X168504447Y-135151335D01*
X168516073Y-135159958D01*
X168526798Y-135169679D01*
X168536519Y-135180404D01*
X168545142Y-135192030D01*
X168552583Y-135204446D01*
X168558772Y-135217531D01*
X168563649Y-135231160D01*
X168567166Y-135245201D01*
X168569290Y-135259519D01*
X168570000Y-135273977D01*
X168570000Y-135568977D01*
X168569290Y-135583435D01*
X168567166Y-135597753D01*
X168563649Y-135611794D01*
X168558772Y-135625423D01*
X168552583Y-135638508D01*
X168545142Y-135650924D01*
X168536519Y-135662550D01*
X168526798Y-135673275D01*
X168516073Y-135682996D01*
X168504447Y-135691619D01*
X168492031Y-135699060D01*
X168478946Y-135705249D01*
X168465317Y-135710126D01*
X168451276Y-135713643D01*
X168436958Y-135715767D01*
X168422500Y-135716477D01*
X168077500Y-135716477D01*
X168063042Y-135715767D01*
X168048724Y-135713643D01*
X168034683Y-135710126D01*
X168021054Y-135705249D01*
X168007969Y-135699060D01*
X167995553Y-135691619D01*
X167983927Y-135682996D01*
X167973202Y-135673275D01*
X167963481Y-135662550D01*
X167954858Y-135650924D01*
X167947417Y-135638508D01*
X167941228Y-135625423D01*
X167936351Y-135611794D01*
X167932834Y-135597753D01*
X167930710Y-135583435D01*
X167930000Y-135568977D01*
X167930000Y-135273977D01*
X167930710Y-135259519D01*
X167932834Y-135245201D01*
X167936351Y-135231160D01*
X167941228Y-135217531D01*
X167947417Y-135204446D01*
X167954858Y-135192030D01*
X167963481Y-135180404D01*
X167973202Y-135169679D01*
X167983927Y-135159958D01*
X167995553Y-135151335D01*
X168007969Y-135143894D01*
X168021054Y-135137705D01*
X168034683Y-135132828D01*
X168048724Y-135129311D01*
X168063042Y-135127187D01*
X168077500Y-135126477D01*
X168422500Y-135126477D01*
X168436958Y-135127187D01*
X168436958Y-135127187D01*
G37*
D12*
X168250000Y-135421477D03*
G04 #@! TD*
D11*
G04 #@! TO.C,C6*
G36*
X165276958Y-130780710D02*
X165291276Y-130782834D01*
X165305317Y-130786351D01*
X165318946Y-130791228D01*
X165332031Y-130797417D01*
X165344447Y-130804858D01*
X165356073Y-130813481D01*
X165366798Y-130823202D01*
X165376519Y-130833927D01*
X165385142Y-130845553D01*
X165392583Y-130857969D01*
X165398772Y-130871054D01*
X165403649Y-130884683D01*
X165407166Y-130898724D01*
X165409290Y-130913042D01*
X165410000Y-130927500D01*
X165410000Y-131272500D01*
X165409290Y-131286958D01*
X165407166Y-131301276D01*
X165403649Y-131315317D01*
X165398772Y-131328946D01*
X165392583Y-131342031D01*
X165385142Y-131354447D01*
X165376519Y-131366073D01*
X165366798Y-131376798D01*
X165356073Y-131386519D01*
X165344447Y-131395142D01*
X165332031Y-131402583D01*
X165318946Y-131408772D01*
X165305317Y-131413649D01*
X165291276Y-131417166D01*
X165276958Y-131419290D01*
X165262500Y-131420000D01*
X164967500Y-131420000D01*
X164953042Y-131419290D01*
X164938724Y-131417166D01*
X164924683Y-131413649D01*
X164911054Y-131408772D01*
X164897969Y-131402583D01*
X164885553Y-131395142D01*
X164873927Y-131386519D01*
X164863202Y-131376798D01*
X164853481Y-131366073D01*
X164844858Y-131354447D01*
X164837417Y-131342031D01*
X164831228Y-131328946D01*
X164826351Y-131315317D01*
X164822834Y-131301276D01*
X164820710Y-131286958D01*
X164820000Y-131272500D01*
X164820000Y-130927500D01*
X164820710Y-130913042D01*
X164822834Y-130898724D01*
X164826351Y-130884683D01*
X164831228Y-130871054D01*
X164837417Y-130857969D01*
X164844858Y-130845553D01*
X164853481Y-130833927D01*
X164863202Y-130823202D01*
X164873927Y-130813481D01*
X164885553Y-130804858D01*
X164897969Y-130797417D01*
X164911054Y-130791228D01*
X164924683Y-130786351D01*
X164938724Y-130782834D01*
X164953042Y-130780710D01*
X164967500Y-130780000D01*
X165262500Y-130780000D01*
X165276958Y-130780710D01*
X165276958Y-130780710D01*
G37*
D12*
X165115000Y-131100000D03*
D11*
G36*
X166246958Y-130780710D02*
X166261276Y-130782834D01*
X166275317Y-130786351D01*
X166288946Y-130791228D01*
X166302031Y-130797417D01*
X166314447Y-130804858D01*
X166326073Y-130813481D01*
X166336798Y-130823202D01*
X166346519Y-130833927D01*
X166355142Y-130845553D01*
X166362583Y-130857969D01*
X166368772Y-130871054D01*
X166373649Y-130884683D01*
X166377166Y-130898724D01*
X166379290Y-130913042D01*
X166380000Y-130927500D01*
X166380000Y-131272500D01*
X166379290Y-131286958D01*
X166377166Y-131301276D01*
X166373649Y-131315317D01*
X166368772Y-131328946D01*
X166362583Y-131342031D01*
X166355142Y-131354447D01*
X166346519Y-131366073D01*
X166336798Y-131376798D01*
X166326073Y-131386519D01*
X166314447Y-131395142D01*
X166302031Y-131402583D01*
X166288946Y-131408772D01*
X166275317Y-131413649D01*
X166261276Y-131417166D01*
X166246958Y-131419290D01*
X166232500Y-131420000D01*
X165937500Y-131420000D01*
X165923042Y-131419290D01*
X165908724Y-131417166D01*
X165894683Y-131413649D01*
X165881054Y-131408772D01*
X165867969Y-131402583D01*
X165855553Y-131395142D01*
X165843927Y-131386519D01*
X165833202Y-131376798D01*
X165823481Y-131366073D01*
X165814858Y-131354447D01*
X165807417Y-131342031D01*
X165801228Y-131328946D01*
X165796351Y-131315317D01*
X165792834Y-131301276D01*
X165790710Y-131286958D01*
X165790000Y-131272500D01*
X165790000Y-130927500D01*
X165790710Y-130913042D01*
X165792834Y-130898724D01*
X165796351Y-130884683D01*
X165801228Y-130871054D01*
X165807417Y-130857969D01*
X165814858Y-130845553D01*
X165823481Y-130833927D01*
X165833202Y-130823202D01*
X165843927Y-130813481D01*
X165855553Y-130804858D01*
X165867969Y-130797417D01*
X165881054Y-130791228D01*
X165894683Y-130786351D01*
X165908724Y-130782834D01*
X165923042Y-130780710D01*
X165937500Y-130780000D01*
X166232500Y-130780000D01*
X166246958Y-130780710D01*
X166246958Y-130780710D01*
G37*
D12*
X166085000Y-131100000D03*
G04 #@! TD*
D11*
G04 #@! TO.C,C7*
G36*
X196371148Y-135460016D02*
X196385466Y-135462140D01*
X196399507Y-135465657D01*
X196413136Y-135470534D01*
X196426221Y-135476723D01*
X196438637Y-135484164D01*
X196450263Y-135492787D01*
X196460988Y-135502508D01*
X196470709Y-135513233D01*
X196479332Y-135524859D01*
X196486773Y-135537275D01*
X196492962Y-135550360D01*
X196497839Y-135563989D01*
X196501356Y-135578030D01*
X196503480Y-135592348D01*
X196504190Y-135606806D01*
X196504190Y-135901806D01*
X196503480Y-135916264D01*
X196501356Y-135930582D01*
X196497839Y-135944623D01*
X196492962Y-135958252D01*
X196486773Y-135971337D01*
X196479332Y-135983753D01*
X196470709Y-135995379D01*
X196460988Y-136006104D01*
X196450263Y-136015825D01*
X196438637Y-136024448D01*
X196426221Y-136031889D01*
X196413136Y-136038078D01*
X196399507Y-136042955D01*
X196385466Y-136046472D01*
X196371148Y-136048596D01*
X196356690Y-136049306D01*
X196011690Y-136049306D01*
X195997232Y-136048596D01*
X195982914Y-136046472D01*
X195968873Y-136042955D01*
X195955244Y-136038078D01*
X195942159Y-136031889D01*
X195929743Y-136024448D01*
X195918117Y-136015825D01*
X195907392Y-136006104D01*
X195897671Y-135995379D01*
X195889048Y-135983753D01*
X195881607Y-135971337D01*
X195875418Y-135958252D01*
X195870541Y-135944623D01*
X195867024Y-135930582D01*
X195864900Y-135916264D01*
X195864190Y-135901806D01*
X195864190Y-135606806D01*
X195864900Y-135592348D01*
X195867024Y-135578030D01*
X195870541Y-135563989D01*
X195875418Y-135550360D01*
X195881607Y-135537275D01*
X195889048Y-135524859D01*
X195897671Y-135513233D01*
X195907392Y-135502508D01*
X195918117Y-135492787D01*
X195929743Y-135484164D01*
X195942159Y-135476723D01*
X195955244Y-135470534D01*
X195968873Y-135465657D01*
X195982914Y-135462140D01*
X195997232Y-135460016D01*
X196011690Y-135459306D01*
X196356690Y-135459306D01*
X196371148Y-135460016D01*
X196371148Y-135460016D01*
G37*
D12*
X196184190Y-135754306D03*
D11*
G36*
X196371148Y-134490016D02*
X196385466Y-134492140D01*
X196399507Y-134495657D01*
X196413136Y-134500534D01*
X196426221Y-134506723D01*
X196438637Y-134514164D01*
X196450263Y-134522787D01*
X196460988Y-134532508D01*
X196470709Y-134543233D01*
X196479332Y-134554859D01*
X196486773Y-134567275D01*
X196492962Y-134580360D01*
X196497839Y-134593989D01*
X196501356Y-134608030D01*
X196503480Y-134622348D01*
X196504190Y-134636806D01*
X196504190Y-134931806D01*
X196503480Y-134946264D01*
X196501356Y-134960582D01*
X196497839Y-134974623D01*
X196492962Y-134988252D01*
X196486773Y-135001337D01*
X196479332Y-135013753D01*
X196470709Y-135025379D01*
X196460988Y-135036104D01*
X196450263Y-135045825D01*
X196438637Y-135054448D01*
X196426221Y-135061889D01*
X196413136Y-135068078D01*
X196399507Y-135072955D01*
X196385466Y-135076472D01*
X196371148Y-135078596D01*
X196356690Y-135079306D01*
X196011690Y-135079306D01*
X195997232Y-135078596D01*
X195982914Y-135076472D01*
X195968873Y-135072955D01*
X195955244Y-135068078D01*
X195942159Y-135061889D01*
X195929743Y-135054448D01*
X195918117Y-135045825D01*
X195907392Y-135036104D01*
X195897671Y-135025379D01*
X195889048Y-135013753D01*
X195881607Y-135001337D01*
X195875418Y-134988252D01*
X195870541Y-134974623D01*
X195867024Y-134960582D01*
X195864900Y-134946264D01*
X195864190Y-134931806D01*
X195864190Y-134636806D01*
X195864900Y-134622348D01*
X195867024Y-134608030D01*
X195870541Y-134593989D01*
X195875418Y-134580360D01*
X195881607Y-134567275D01*
X195889048Y-134554859D01*
X195897671Y-134543233D01*
X195907392Y-134532508D01*
X195918117Y-134522787D01*
X195929743Y-134514164D01*
X195942159Y-134506723D01*
X195955244Y-134500534D01*
X195968873Y-134495657D01*
X195982914Y-134492140D01*
X195997232Y-134490016D01*
X196011690Y-134489306D01*
X196356690Y-134489306D01*
X196371148Y-134490016D01*
X196371148Y-134490016D01*
G37*
D12*
X196184190Y-134784306D03*
G04 #@! TD*
D11*
G04 #@! TO.C,C8*
G36*
X194246958Y-132080710D02*
X194261276Y-132082834D01*
X194275317Y-132086351D01*
X194288946Y-132091228D01*
X194302031Y-132097417D01*
X194314447Y-132104858D01*
X194326073Y-132113481D01*
X194336798Y-132123202D01*
X194346519Y-132133927D01*
X194355142Y-132145553D01*
X194362583Y-132157969D01*
X194368772Y-132171054D01*
X194373649Y-132184683D01*
X194377166Y-132198724D01*
X194379290Y-132213042D01*
X194380000Y-132227500D01*
X194380000Y-132572500D01*
X194379290Y-132586958D01*
X194377166Y-132601276D01*
X194373649Y-132615317D01*
X194368772Y-132628946D01*
X194362583Y-132642031D01*
X194355142Y-132654447D01*
X194346519Y-132666073D01*
X194336798Y-132676798D01*
X194326073Y-132686519D01*
X194314447Y-132695142D01*
X194302031Y-132702583D01*
X194288946Y-132708772D01*
X194275317Y-132713649D01*
X194261276Y-132717166D01*
X194246958Y-132719290D01*
X194232500Y-132720000D01*
X193937500Y-132720000D01*
X193923042Y-132719290D01*
X193908724Y-132717166D01*
X193894683Y-132713649D01*
X193881054Y-132708772D01*
X193867969Y-132702583D01*
X193855553Y-132695142D01*
X193843927Y-132686519D01*
X193833202Y-132676798D01*
X193823481Y-132666073D01*
X193814858Y-132654447D01*
X193807417Y-132642031D01*
X193801228Y-132628946D01*
X193796351Y-132615317D01*
X193792834Y-132601276D01*
X193790710Y-132586958D01*
X193790000Y-132572500D01*
X193790000Y-132227500D01*
X193790710Y-132213042D01*
X193792834Y-132198724D01*
X193796351Y-132184683D01*
X193801228Y-132171054D01*
X193807417Y-132157969D01*
X193814858Y-132145553D01*
X193823481Y-132133927D01*
X193833202Y-132123202D01*
X193843927Y-132113481D01*
X193855553Y-132104858D01*
X193867969Y-132097417D01*
X193881054Y-132091228D01*
X193894683Y-132086351D01*
X193908724Y-132082834D01*
X193923042Y-132080710D01*
X193937500Y-132080000D01*
X194232500Y-132080000D01*
X194246958Y-132080710D01*
X194246958Y-132080710D01*
G37*
D12*
X194085000Y-132400000D03*
D11*
G36*
X193276958Y-132080710D02*
X193291276Y-132082834D01*
X193305317Y-132086351D01*
X193318946Y-132091228D01*
X193332031Y-132097417D01*
X193344447Y-132104858D01*
X193356073Y-132113481D01*
X193366798Y-132123202D01*
X193376519Y-132133927D01*
X193385142Y-132145553D01*
X193392583Y-132157969D01*
X193398772Y-132171054D01*
X193403649Y-132184683D01*
X193407166Y-132198724D01*
X193409290Y-132213042D01*
X193410000Y-132227500D01*
X193410000Y-132572500D01*
X193409290Y-132586958D01*
X193407166Y-132601276D01*
X193403649Y-132615317D01*
X193398772Y-132628946D01*
X193392583Y-132642031D01*
X193385142Y-132654447D01*
X193376519Y-132666073D01*
X193366798Y-132676798D01*
X193356073Y-132686519D01*
X193344447Y-132695142D01*
X193332031Y-132702583D01*
X193318946Y-132708772D01*
X193305317Y-132713649D01*
X193291276Y-132717166D01*
X193276958Y-132719290D01*
X193262500Y-132720000D01*
X192967500Y-132720000D01*
X192953042Y-132719290D01*
X192938724Y-132717166D01*
X192924683Y-132713649D01*
X192911054Y-132708772D01*
X192897969Y-132702583D01*
X192885553Y-132695142D01*
X192873927Y-132686519D01*
X192863202Y-132676798D01*
X192853481Y-132666073D01*
X192844858Y-132654447D01*
X192837417Y-132642031D01*
X192831228Y-132628946D01*
X192826351Y-132615317D01*
X192822834Y-132601276D01*
X192820710Y-132586958D01*
X192820000Y-132572500D01*
X192820000Y-132227500D01*
X192820710Y-132213042D01*
X192822834Y-132198724D01*
X192826351Y-132184683D01*
X192831228Y-132171054D01*
X192837417Y-132157969D01*
X192844858Y-132145553D01*
X192853481Y-132133927D01*
X192863202Y-132123202D01*
X192873927Y-132113481D01*
X192885553Y-132104858D01*
X192897969Y-132097417D01*
X192911054Y-132091228D01*
X192924683Y-132086351D01*
X192938724Y-132082834D01*
X192953042Y-132080710D01*
X192967500Y-132080000D01*
X193262500Y-132080000D01*
X193276958Y-132080710D01*
X193276958Y-132080710D01*
G37*
D12*
X193115000Y-132400000D03*
G04 #@! TD*
D11*
G04 #@! TO.C,C9*
G36*
X157686958Y-134220710D02*
X157701276Y-134222834D01*
X157715317Y-134226351D01*
X157728946Y-134231228D01*
X157742031Y-134237417D01*
X157754447Y-134244858D01*
X157766073Y-134253481D01*
X157776798Y-134263202D01*
X157786519Y-134273927D01*
X157795142Y-134285553D01*
X157802583Y-134297969D01*
X157808772Y-134311054D01*
X157813649Y-134324683D01*
X157817166Y-134338724D01*
X157819290Y-134353042D01*
X157820000Y-134367500D01*
X157820000Y-134662500D01*
X157819290Y-134676958D01*
X157817166Y-134691276D01*
X157813649Y-134705317D01*
X157808772Y-134718946D01*
X157802583Y-134732031D01*
X157795142Y-134744447D01*
X157786519Y-134756073D01*
X157776798Y-134766798D01*
X157766073Y-134776519D01*
X157754447Y-134785142D01*
X157742031Y-134792583D01*
X157728946Y-134798772D01*
X157715317Y-134803649D01*
X157701276Y-134807166D01*
X157686958Y-134809290D01*
X157672500Y-134810000D01*
X157327500Y-134810000D01*
X157313042Y-134809290D01*
X157298724Y-134807166D01*
X157284683Y-134803649D01*
X157271054Y-134798772D01*
X157257969Y-134792583D01*
X157245553Y-134785142D01*
X157233927Y-134776519D01*
X157223202Y-134766798D01*
X157213481Y-134756073D01*
X157204858Y-134744447D01*
X157197417Y-134732031D01*
X157191228Y-134718946D01*
X157186351Y-134705317D01*
X157182834Y-134691276D01*
X157180710Y-134676958D01*
X157180000Y-134662500D01*
X157180000Y-134367500D01*
X157180710Y-134353042D01*
X157182834Y-134338724D01*
X157186351Y-134324683D01*
X157191228Y-134311054D01*
X157197417Y-134297969D01*
X157204858Y-134285553D01*
X157213481Y-134273927D01*
X157223202Y-134263202D01*
X157233927Y-134253481D01*
X157245553Y-134244858D01*
X157257969Y-134237417D01*
X157271054Y-134231228D01*
X157284683Y-134226351D01*
X157298724Y-134222834D01*
X157313042Y-134220710D01*
X157327500Y-134220000D01*
X157672500Y-134220000D01*
X157686958Y-134220710D01*
X157686958Y-134220710D01*
G37*
D12*
X157500000Y-134515000D03*
D11*
G36*
X157686958Y-135190710D02*
X157701276Y-135192834D01*
X157715317Y-135196351D01*
X157728946Y-135201228D01*
X157742031Y-135207417D01*
X157754447Y-135214858D01*
X157766073Y-135223481D01*
X157776798Y-135233202D01*
X157786519Y-135243927D01*
X157795142Y-135255553D01*
X157802583Y-135267969D01*
X157808772Y-135281054D01*
X157813649Y-135294683D01*
X157817166Y-135308724D01*
X157819290Y-135323042D01*
X157820000Y-135337500D01*
X157820000Y-135632500D01*
X157819290Y-135646958D01*
X157817166Y-135661276D01*
X157813649Y-135675317D01*
X157808772Y-135688946D01*
X157802583Y-135702031D01*
X157795142Y-135714447D01*
X157786519Y-135726073D01*
X157776798Y-135736798D01*
X157766073Y-135746519D01*
X157754447Y-135755142D01*
X157742031Y-135762583D01*
X157728946Y-135768772D01*
X157715317Y-135773649D01*
X157701276Y-135777166D01*
X157686958Y-135779290D01*
X157672500Y-135780000D01*
X157327500Y-135780000D01*
X157313042Y-135779290D01*
X157298724Y-135777166D01*
X157284683Y-135773649D01*
X157271054Y-135768772D01*
X157257969Y-135762583D01*
X157245553Y-135755142D01*
X157233927Y-135746519D01*
X157223202Y-135736798D01*
X157213481Y-135726073D01*
X157204858Y-135714447D01*
X157197417Y-135702031D01*
X157191228Y-135688946D01*
X157186351Y-135675317D01*
X157182834Y-135661276D01*
X157180710Y-135646958D01*
X157180000Y-135632500D01*
X157180000Y-135337500D01*
X157180710Y-135323042D01*
X157182834Y-135308724D01*
X157186351Y-135294683D01*
X157191228Y-135281054D01*
X157197417Y-135267969D01*
X157204858Y-135255553D01*
X157213481Y-135243927D01*
X157223202Y-135233202D01*
X157233927Y-135223481D01*
X157245553Y-135214858D01*
X157257969Y-135207417D01*
X157271054Y-135201228D01*
X157284683Y-135196351D01*
X157298724Y-135192834D01*
X157313042Y-135190710D01*
X157327500Y-135190000D01*
X157672500Y-135190000D01*
X157686958Y-135190710D01*
X157686958Y-135190710D01*
G37*
D12*
X157500000Y-135485000D03*
G04 #@! TD*
D11*
G04 #@! TO.C,C10*
G36*
X154547810Y-131280710D02*
X154562128Y-131282834D01*
X154576169Y-131286351D01*
X154589798Y-131291228D01*
X154602883Y-131297417D01*
X154615299Y-131304858D01*
X154626925Y-131313481D01*
X154637650Y-131323202D01*
X154647371Y-131333927D01*
X154655994Y-131345553D01*
X154663435Y-131357969D01*
X154669624Y-131371054D01*
X154674501Y-131384683D01*
X154678018Y-131398724D01*
X154680142Y-131413042D01*
X154680852Y-131427500D01*
X154680852Y-131772500D01*
X154680142Y-131786958D01*
X154678018Y-131801276D01*
X154674501Y-131815317D01*
X154669624Y-131828946D01*
X154663435Y-131842031D01*
X154655994Y-131854447D01*
X154647371Y-131866073D01*
X154637650Y-131876798D01*
X154626925Y-131886519D01*
X154615299Y-131895142D01*
X154602883Y-131902583D01*
X154589798Y-131908772D01*
X154576169Y-131913649D01*
X154562128Y-131917166D01*
X154547810Y-131919290D01*
X154533352Y-131920000D01*
X154238352Y-131920000D01*
X154223894Y-131919290D01*
X154209576Y-131917166D01*
X154195535Y-131913649D01*
X154181906Y-131908772D01*
X154168821Y-131902583D01*
X154156405Y-131895142D01*
X154144779Y-131886519D01*
X154134054Y-131876798D01*
X154124333Y-131866073D01*
X154115710Y-131854447D01*
X154108269Y-131842031D01*
X154102080Y-131828946D01*
X154097203Y-131815317D01*
X154093686Y-131801276D01*
X154091562Y-131786958D01*
X154090852Y-131772500D01*
X154090852Y-131427500D01*
X154091562Y-131413042D01*
X154093686Y-131398724D01*
X154097203Y-131384683D01*
X154102080Y-131371054D01*
X154108269Y-131357969D01*
X154115710Y-131345553D01*
X154124333Y-131333927D01*
X154134054Y-131323202D01*
X154144779Y-131313481D01*
X154156405Y-131304858D01*
X154168821Y-131297417D01*
X154181906Y-131291228D01*
X154195535Y-131286351D01*
X154209576Y-131282834D01*
X154223894Y-131280710D01*
X154238352Y-131280000D01*
X154533352Y-131280000D01*
X154547810Y-131280710D01*
X154547810Y-131280710D01*
G37*
D12*
X154385852Y-131600000D03*
D11*
G36*
X155517810Y-131280710D02*
X155532128Y-131282834D01*
X155546169Y-131286351D01*
X155559798Y-131291228D01*
X155572883Y-131297417D01*
X155585299Y-131304858D01*
X155596925Y-131313481D01*
X155607650Y-131323202D01*
X155617371Y-131333927D01*
X155625994Y-131345553D01*
X155633435Y-131357969D01*
X155639624Y-131371054D01*
X155644501Y-131384683D01*
X155648018Y-131398724D01*
X155650142Y-131413042D01*
X155650852Y-131427500D01*
X155650852Y-131772500D01*
X155650142Y-131786958D01*
X155648018Y-131801276D01*
X155644501Y-131815317D01*
X155639624Y-131828946D01*
X155633435Y-131842031D01*
X155625994Y-131854447D01*
X155617371Y-131866073D01*
X155607650Y-131876798D01*
X155596925Y-131886519D01*
X155585299Y-131895142D01*
X155572883Y-131902583D01*
X155559798Y-131908772D01*
X155546169Y-131913649D01*
X155532128Y-131917166D01*
X155517810Y-131919290D01*
X155503352Y-131920000D01*
X155208352Y-131920000D01*
X155193894Y-131919290D01*
X155179576Y-131917166D01*
X155165535Y-131913649D01*
X155151906Y-131908772D01*
X155138821Y-131902583D01*
X155126405Y-131895142D01*
X155114779Y-131886519D01*
X155104054Y-131876798D01*
X155094333Y-131866073D01*
X155085710Y-131854447D01*
X155078269Y-131842031D01*
X155072080Y-131828946D01*
X155067203Y-131815317D01*
X155063686Y-131801276D01*
X155061562Y-131786958D01*
X155060852Y-131772500D01*
X155060852Y-131427500D01*
X155061562Y-131413042D01*
X155063686Y-131398724D01*
X155067203Y-131384683D01*
X155072080Y-131371054D01*
X155078269Y-131357969D01*
X155085710Y-131345553D01*
X155094333Y-131333927D01*
X155104054Y-131323202D01*
X155114779Y-131313481D01*
X155126405Y-131304858D01*
X155138821Y-131297417D01*
X155151906Y-131291228D01*
X155165535Y-131286351D01*
X155179576Y-131282834D01*
X155193894Y-131280710D01*
X155208352Y-131280000D01*
X155503352Y-131280000D01*
X155517810Y-131280710D01*
X155517810Y-131280710D01*
G37*
D12*
X155355852Y-131600000D03*
G04 #@! TD*
D11*
G04 #@! TO.C,C11*
G36*
X192386958Y-123090710D02*
X192401276Y-123092834D01*
X192415317Y-123096351D01*
X192428946Y-123101228D01*
X192442031Y-123107417D01*
X192454447Y-123114858D01*
X192466073Y-123123481D01*
X192476798Y-123133202D01*
X192486519Y-123143927D01*
X192495142Y-123155553D01*
X192502583Y-123167969D01*
X192508772Y-123181054D01*
X192513649Y-123194683D01*
X192517166Y-123208724D01*
X192519290Y-123223042D01*
X192520000Y-123237500D01*
X192520000Y-123532500D01*
X192519290Y-123546958D01*
X192517166Y-123561276D01*
X192513649Y-123575317D01*
X192508772Y-123588946D01*
X192502583Y-123602031D01*
X192495142Y-123614447D01*
X192486519Y-123626073D01*
X192476798Y-123636798D01*
X192466073Y-123646519D01*
X192454447Y-123655142D01*
X192442031Y-123662583D01*
X192428946Y-123668772D01*
X192415317Y-123673649D01*
X192401276Y-123677166D01*
X192386958Y-123679290D01*
X192372500Y-123680000D01*
X192027500Y-123680000D01*
X192013042Y-123679290D01*
X191998724Y-123677166D01*
X191984683Y-123673649D01*
X191971054Y-123668772D01*
X191957969Y-123662583D01*
X191945553Y-123655142D01*
X191933927Y-123646519D01*
X191923202Y-123636798D01*
X191913481Y-123626073D01*
X191904858Y-123614447D01*
X191897417Y-123602031D01*
X191891228Y-123588946D01*
X191886351Y-123575317D01*
X191882834Y-123561276D01*
X191880710Y-123546958D01*
X191880000Y-123532500D01*
X191880000Y-123237500D01*
X191880710Y-123223042D01*
X191882834Y-123208724D01*
X191886351Y-123194683D01*
X191891228Y-123181054D01*
X191897417Y-123167969D01*
X191904858Y-123155553D01*
X191913481Y-123143927D01*
X191923202Y-123133202D01*
X191933927Y-123123481D01*
X191945553Y-123114858D01*
X191957969Y-123107417D01*
X191971054Y-123101228D01*
X191984683Y-123096351D01*
X191998724Y-123092834D01*
X192013042Y-123090710D01*
X192027500Y-123090000D01*
X192372500Y-123090000D01*
X192386958Y-123090710D01*
X192386958Y-123090710D01*
G37*
D12*
X192200000Y-123385000D03*
D11*
G36*
X192386958Y-122120710D02*
X192401276Y-122122834D01*
X192415317Y-122126351D01*
X192428946Y-122131228D01*
X192442031Y-122137417D01*
X192454447Y-122144858D01*
X192466073Y-122153481D01*
X192476798Y-122163202D01*
X192486519Y-122173927D01*
X192495142Y-122185553D01*
X192502583Y-122197969D01*
X192508772Y-122211054D01*
X192513649Y-122224683D01*
X192517166Y-122238724D01*
X192519290Y-122253042D01*
X192520000Y-122267500D01*
X192520000Y-122562500D01*
X192519290Y-122576958D01*
X192517166Y-122591276D01*
X192513649Y-122605317D01*
X192508772Y-122618946D01*
X192502583Y-122632031D01*
X192495142Y-122644447D01*
X192486519Y-122656073D01*
X192476798Y-122666798D01*
X192466073Y-122676519D01*
X192454447Y-122685142D01*
X192442031Y-122692583D01*
X192428946Y-122698772D01*
X192415317Y-122703649D01*
X192401276Y-122707166D01*
X192386958Y-122709290D01*
X192372500Y-122710000D01*
X192027500Y-122710000D01*
X192013042Y-122709290D01*
X191998724Y-122707166D01*
X191984683Y-122703649D01*
X191971054Y-122698772D01*
X191957969Y-122692583D01*
X191945553Y-122685142D01*
X191933927Y-122676519D01*
X191923202Y-122666798D01*
X191913481Y-122656073D01*
X191904858Y-122644447D01*
X191897417Y-122632031D01*
X191891228Y-122618946D01*
X191886351Y-122605317D01*
X191882834Y-122591276D01*
X191880710Y-122576958D01*
X191880000Y-122562500D01*
X191880000Y-122267500D01*
X191880710Y-122253042D01*
X191882834Y-122238724D01*
X191886351Y-122224683D01*
X191891228Y-122211054D01*
X191897417Y-122197969D01*
X191904858Y-122185553D01*
X191913481Y-122173927D01*
X191923202Y-122163202D01*
X191933927Y-122153481D01*
X191945553Y-122144858D01*
X191957969Y-122137417D01*
X191971054Y-122131228D01*
X191984683Y-122126351D01*
X191998724Y-122122834D01*
X192013042Y-122120710D01*
X192027500Y-122120000D01*
X192372500Y-122120000D01*
X192386958Y-122120710D01*
X192386958Y-122120710D01*
G37*
D12*
X192200000Y-122415000D03*
G04 #@! TD*
D11*
G04 #@! TO.C,C12*
G36*
X192886958Y-115620710D02*
X192901276Y-115622834D01*
X192915317Y-115626351D01*
X192928946Y-115631228D01*
X192942031Y-115637417D01*
X192954447Y-115644858D01*
X192966073Y-115653481D01*
X192976798Y-115663202D01*
X192986519Y-115673927D01*
X192995142Y-115685553D01*
X193002583Y-115697969D01*
X193008772Y-115711054D01*
X193013649Y-115724683D01*
X193017166Y-115738724D01*
X193019290Y-115753042D01*
X193020000Y-115767500D01*
X193020000Y-116062500D01*
X193019290Y-116076958D01*
X193017166Y-116091276D01*
X193013649Y-116105317D01*
X193008772Y-116118946D01*
X193002583Y-116132031D01*
X192995142Y-116144447D01*
X192986519Y-116156073D01*
X192976798Y-116166798D01*
X192966073Y-116176519D01*
X192954447Y-116185142D01*
X192942031Y-116192583D01*
X192928946Y-116198772D01*
X192915317Y-116203649D01*
X192901276Y-116207166D01*
X192886958Y-116209290D01*
X192872500Y-116210000D01*
X192527500Y-116210000D01*
X192513042Y-116209290D01*
X192498724Y-116207166D01*
X192484683Y-116203649D01*
X192471054Y-116198772D01*
X192457969Y-116192583D01*
X192445553Y-116185142D01*
X192433927Y-116176519D01*
X192423202Y-116166798D01*
X192413481Y-116156073D01*
X192404858Y-116144447D01*
X192397417Y-116132031D01*
X192391228Y-116118946D01*
X192386351Y-116105317D01*
X192382834Y-116091276D01*
X192380710Y-116076958D01*
X192380000Y-116062500D01*
X192380000Y-115767500D01*
X192380710Y-115753042D01*
X192382834Y-115738724D01*
X192386351Y-115724683D01*
X192391228Y-115711054D01*
X192397417Y-115697969D01*
X192404858Y-115685553D01*
X192413481Y-115673927D01*
X192423202Y-115663202D01*
X192433927Y-115653481D01*
X192445553Y-115644858D01*
X192457969Y-115637417D01*
X192471054Y-115631228D01*
X192484683Y-115626351D01*
X192498724Y-115622834D01*
X192513042Y-115620710D01*
X192527500Y-115620000D01*
X192872500Y-115620000D01*
X192886958Y-115620710D01*
X192886958Y-115620710D01*
G37*
D12*
X192700000Y-115915000D03*
D11*
G36*
X192886958Y-116590710D02*
X192901276Y-116592834D01*
X192915317Y-116596351D01*
X192928946Y-116601228D01*
X192942031Y-116607417D01*
X192954447Y-116614858D01*
X192966073Y-116623481D01*
X192976798Y-116633202D01*
X192986519Y-116643927D01*
X192995142Y-116655553D01*
X193002583Y-116667969D01*
X193008772Y-116681054D01*
X193013649Y-116694683D01*
X193017166Y-116708724D01*
X193019290Y-116723042D01*
X193020000Y-116737500D01*
X193020000Y-117032500D01*
X193019290Y-117046958D01*
X193017166Y-117061276D01*
X193013649Y-117075317D01*
X193008772Y-117088946D01*
X193002583Y-117102031D01*
X192995142Y-117114447D01*
X192986519Y-117126073D01*
X192976798Y-117136798D01*
X192966073Y-117146519D01*
X192954447Y-117155142D01*
X192942031Y-117162583D01*
X192928946Y-117168772D01*
X192915317Y-117173649D01*
X192901276Y-117177166D01*
X192886958Y-117179290D01*
X192872500Y-117180000D01*
X192527500Y-117180000D01*
X192513042Y-117179290D01*
X192498724Y-117177166D01*
X192484683Y-117173649D01*
X192471054Y-117168772D01*
X192457969Y-117162583D01*
X192445553Y-117155142D01*
X192433927Y-117146519D01*
X192423202Y-117136798D01*
X192413481Y-117126073D01*
X192404858Y-117114447D01*
X192397417Y-117102031D01*
X192391228Y-117088946D01*
X192386351Y-117075317D01*
X192382834Y-117061276D01*
X192380710Y-117046958D01*
X192380000Y-117032500D01*
X192380000Y-116737500D01*
X192380710Y-116723042D01*
X192382834Y-116708724D01*
X192386351Y-116694683D01*
X192391228Y-116681054D01*
X192397417Y-116667969D01*
X192404858Y-116655553D01*
X192413481Y-116643927D01*
X192423202Y-116633202D01*
X192433927Y-116623481D01*
X192445553Y-116614858D01*
X192457969Y-116607417D01*
X192471054Y-116601228D01*
X192484683Y-116596351D01*
X192498724Y-116592834D01*
X192513042Y-116590710D01*
X192527500Y-116590000D01*
X192872500Y-116590000D01*
X192886958Y-116590710D01*
X192886958Y-116590710D01*
G37*
D12*
X192700000Y-116885000D03*
G04 #@! TD*
D11*
G04 #@! TO.C,C13*
G36*
X180686958Y-135090710D02*
X180701276Y-135092834D01*
X180715317Y-135096351D01*
X180728946Y-135101228D01*
X180742031Y-135107417D01*
X180754447Y-135114858D01*
X180766073Y-135123481D01*
X180776798Y-135133202D01*
X180786519Y-135143927D01*
X180795142Y-135155553D01*
X180802583Y-135167969D01*
X180808772Y-135181054D01*
X180813649Y-135194683D01*
X180817166Y-135208724D01*
X180819290Y-135223042D01*
X180820000Y-135237500D01*
X180820000Y-135532500D01*
X180819290Y-135546958D01*
X180817166Y-135561276D01*
X180813649Y-135575317D01*
X180808772Y-135588946D01*
X180802583Y-135602031D01*
X180795142Y-135614447D01*
X180786519Y-135626073D01*
X180776798Y-135636798D01*
X180766073Y-135646519D01*
X180754447Y-135655142D01*
X180742031Y-135662583D01*
X180728946Y-135668772D01*
X180715317Y-135673649D01*
X180701276Y-135677166D01*
X180686958Y-135679290D01*
X180672500Y-135680000D01*
X180327500Y-135680000D01*
X180313042Y-135679290D01*
X180298724Y-135677166D01*
X180284683Y-135673649D01*
X180271054Y-135668772D01*
X180257969Y-135662583D01*
X180245553Y-135655142D01*
X180233927Y-135646519D01*
X180223202Y-135636798D01*
X180213481Y-135626073D01*
X180204858Y-135614447D01*
X180197417Y-135602031D01*
X180191228Y-135588946D01*
X180186351Y-135575317D01*
X180182834Y-135561276D01*
X180180710Y-135546958D01*
X180180000Y-135532500D01*
X180180000Y-135237500D01*
X180180710Y-135223042D01*
X180182834Y-135208724D01*
X180186351Y-135194683D01*
X180191228Y-135181054D01*
X180197417Y-135167969D01*
X180204858Y-135155553D01*
X180213481Y-135143927D01*
X180223202Y-135133202D01*
X180233927Y-135123481D01*
X180245553Y-135114858D01*
X180257969Y-135107417D01*
X180271054Y-135101228D01*
X180284683Y-135096351D01*
X180298724Y-135092834D01*
X180313042Y-135090710D01*
X180327500Y-135090000D01*
X180672500Y-135090000D01*
X180686958Y-135090710D01*
X180686958Y-135090710D01*
G37*
D12*
X180500000Y-135385000D03*
D11*
G36*
X180686958Y-134120710D02*
X180701276Y-134122834D01*
X180715317Y-134126351D01*
X180728946Y-134131228D01*
X180742031Y-134137417D01*
X180754447Y-134144858D01*
X180766073Y-134153481D01*
X180776798Y-134163202D01*
X180786519Y-134173927D01*
X180795142Y-134185553D01*
X180802583Y-134197969D01*
X180808772Y-134211054D01*
X180813649Y-134224683D01*
X180817166Y-134238724D01*
X180819290Y-134253042D01*
X180820000Y-134267500D01*
X180820000Y-134562500D01*
X180819290Y-134576958D01*
X180817166Y-134591276D01*
X180813649Y-134605317D01*
X180808772Y-134618946D01*
X180802583Y-134632031D01*
X180795142Y-134644447D01*
X180786519Y-134656073D01*
X180776798Y-134666798D01*
X180766073Y-134676519D01*
X180754447Y-134685142D01*
X180742031Y-134692583D01*
X180728946Y-134698772D01*
X180715317Y-134703649D01*
X180701276Y-134707166D01*
X180686958Y-134709290D01*
X180672500Y-134710000D01*
X180327500Y-134710000D01*
X180313042Y-134709290D01*
X180298724Y-134707166D01*
X180284683Y-134703649D01*
X180271054Y-134698772D01*
X180257969Y-134692583D01*
X180245553Y-134685142D01*
X180233927Y-134676519D01*
X180223202Y-134666798D01*
X180213481Y-134656073D01*
X180204858Y-134644447D01*
X180197417Y-134632031D01*
X180191228Y-134618946D01*
X180186351Y-134605317D01*
X180182834Y-134591276D01*
X180180710Y-134576958D01*
X180180000Y-134562500D01*
X180180000Y-134267500D01*
X180180710Y-134253042D01*
X180182834Y-134238724D01*
X180186351Y-134224683D01*
X180191228Y-134211054D01*
X180197417Y-134197969D01*
X180204858Y-134185553D01*
X180213481Y-134173927D01*
X180223202Y-134163202D01*
X180233927Y-134153481D01*
X180245553Y-134144858D01*
X180257969Y-134137417D01*
X180271054Y-134131228D01*
X180284683Y-134126351D01*
X180298724Y-134122834D01*
X180313042Y-134120710D01*
X180327500Y-134120000D01*
X180672500Y-134120000D01*
X180686958Y-134120710D01*
X180686958Y-134120710D01*
G37*
D12*
X180500000Y-134415000D03*
G04 #@! TD*
D11*
G04 #@! TO.C,C14*
G36*
X178396958Y-131680710D02*
X178411276Y-131682834D01*
X178425317Y-131686351D01*
X178438946Y-131691228D01*
X178452031Y-131697417D01*
X178464447Y-131704858D01*
X178476073Y-131713481D01*
X178486798Y-131723202D01*
X178496519Y-131733927D01*
X178505142Y-131745553D01*
X178512583Y-131757969D01*
X178518772Y-131771054D01*
X178523649Y-131784683D01*
X178527166Y-131798724D01*
X178529290Y-131813042D01*
X178530000Y-131827500D01*
X178530000Y-132172500D01*
X178529290Y-132186958D01*
X178527166Y-132201276D01*
X178523649Y-132215317D01*
X178518772Y-132228946D01*
X178512583Y-132242031D01*
X178505142Y-132254447D01*
X178496519Y-132266073D01*
X178486798Y-132276798D01*
X178476073Y-132286519D01*
X178464447Y-132295142D01*
X178452031Y-132302583D01*
X178438946Y-132308772D01*
X178425317Y-132313649D01*
X178411276Y-132317166D01*
X178396958Y-132319290D01*
X178382500Y-132320000D01*
X178087500Y-132320000D01*
X178073042Y-132319290D01*
X178058724Y-132317166D01*
X178044683Y-132313649D01*
X178031054Y-132308772D01*
X178017969Y-132302583D01*
X178005553Y-132295142D01*
X177993927Y-132286519D01*
X177983202Y-132276798D01*
X177973481Y-132266073D01*
X177964858Y-132254447D01*
X177957417Y-132242031D01*
X177951228Y-132228946D01*
X177946351Y-132215317D01*
X177942834Y-132201276D01*
X177940710Y-132186958D01*
X177940000Y-132172500D01*
X177940000Y-131827500D01*
X177940710Y-131813042D01*
X177942834Y-131798724D01*
X177946351Y-131784683D01*
X177951228Y-131771054D01*
X177957417Y-131757969D01*
X177964858Y-131745553D01*
X177973481Y-131733927D01*
X177983202Y-131723202D01*
X177993927Y-131713481D01*
X178005553Y-131704858D01*
X178017969Y-131697417D01*
X178031054Y-131691228D01*
X178044683Y-131686351D01*
X178058724Y-131682834D01*
X178073042Y-131680710D01*
X178087500Y-131680000D01*
X178382500Y-131680000D01*
X178396958Y-131680710D01*
X178396958Y-131680710D01*
G37*
D12*
X178235000Y-132000000D03*
D11*
G36*
X177426958Y-131680710D02*
X177441276Y-131682834D01*
X177455317Y-131686351D01*
X177468946Y-131691228D01*
X177482031Y-131697417D01*
X177494447Y-131704858D01*
X177506073Y-131713481D01*
X177516798Y-131723202D01*
X177526519Y-131733927D01*
X177535142Y-131745553D01*
X177542583Y-131757969D01*
X177548772Y-131771054D01*
X177553649Y-131784683D01*
X177557166Y-131798724D01*
X177559290Y-131813042D01*
X177560000Y-131827500D01*
X177560000Y-132172500D01*
X177559290Y-132186958D01*
X177557166Y-132201276D01*
X177553649Y-132215317D01*
X177548772Y-132228946D01*
X177542583Y-132242031D01*
X177535142Y-132254447D01*
X177526519Y-132266073D01*
X177516798Y-132276798D01*
X177506073Y-132286519D01*
X177494447Y-132295142D01*
X177482031Y-132302583D01*
X177468946Y-132308772D01*
X177455317Y-132313649D01*
X177441276Y-132317166D01*
X177426958Y-132319290D01*
X177412500Y-132320000D01*
X177117500Y-132320000D01*
X177103042Y-132319290D01*
X177088724Y-132317166D01*
X177074683Y-132313649D01*
X177061054Y-132308772D01*
X177047969Y-132302583D01*
X177035553Y-132295142D01*
X177023927Y-132286519D01*
X177013202Y-132276798D01*
X177003481Y-132266073D01*
X176994858Y-132254447D01*
X176987417Y-132242031D01*
X176981228Y-132228946D01*
X176976351Y-132215317D01*
X176972834Y-132201276D01*
X176970710Y-132186958D01*
X176970000Y-132172500D01*
X176970000Y-131827500D01*
X176970710Y-131813042D01*
X176972834Y-131798724D01*
X176976351Y-131784683D01*
X176981228Y-131771054D01*
X176987417Y-131757969D01*
X176994858Y-131745553D01*
X177003481Y-131733927D01*
X177013202Y-131723202D01*
X177023927Y-131713481D01*
X177035553Y-131704858D01*
X177047969Y-131697417D01*
X177061054Y-131691228D01*
X177074683Y-131686351D01*
X177088724Y-131682834D01*
X177103042Y-131680710D01*
X177117500Y-131680000D01*
X177412500Y-131680000D01*
X177426958Y-131680710D01*
X177426958Y-131680710D01*
G37*
D12*
X177265000Y-132000000D03*
G04 #@! TD*
D11*
G04 #@! TO.C,C15*
G36*
X196596958Y-119880710D02*
X196611276Y-119882834D01*
X196625317Y-119886351D01*
X196638946Y-119891228D01*
X196652031Y-119897417D01*
X196664447Y-119904858D01*
X196676073Y-119913481D01*
X196686798Y-119923202D01*
X196696519Y-119933927D01*
X196705142Y-119945553D01*
X196712583Y-119957969D01*
X196718772Y-119971054D01*
X196723649Y-119984683D01*
X196727166Y-119998724D01*
X196729290Y-120013042D01*
X196730000Y-120027500D01*
X196730000Y-120372500D01*
X196729290Y-120386958D01*
X196727166Y-120401276D01*
X196723649Y-120415317D01*
X196718772Y-120428946D01*
X196712583Y-120442031D01*
X196705142Y-120454447D01*
X196696519Y-120466073D01*
X196686798Y-120476798D01*
X196676073Y-120486519D01*
X196664447Y-120495142D01*
X196652031Y-120502583D01*
X196638946Y-120508772D01*
X196625317Y-120513649D01*
X196611276Y-120517166D01*
X196596958Y-120519290D01*
X196582500Y-120520000D01*
X196287500Y-120520000D01*
X196273042Y-120519290D01*
X196258724Y-120517166D01*
X196244683Y-120513649D01*
X196231054Y-120508772D01*
X196217969Y-120502583D01*
X196205553Y-120495142D01*
X196193927Y-120486519D01*
X196183202Y-120476798D01*
X196173481Y-120466073D01*
X196164858Y-120454447D01*
X196157417Y-120442031D01*
X196151228Y-120428946D01*
X196146351Y-120415317D01*
X196142834Y-120401276D01*
X196140710Y-120386958D01*
X196140000Y-120372500D01*
X196140000Y-120027500D01*
X196140710Y-120013042D01*
X196142834Y-119998724D01*
X196146351Y-119984683D01*
X196151228Y-119971054D01*
X196157417Y-119957969D01*
X196164858Y-119945553D01*
X196173481Y-119933927D01*
X196183202Y-119923202D01*
X196193927Y-119913481D01*
X196205553Y-119904858D01*
X196217969Y-119897417D01*
X196231054Y-119891228D01*
X196244683Y-119886351D01*
X196258724Y-119882834D01*
X196273042Y-119880710D01*
X196287500Y-119880000D01*
X196582500Y-119880000D01*
X196596958Y-119880710D01*
X196596958Y-119880710D01*
G37*
D12*
X196435000Y-120200000D03*
D11*
G36*
X195626958Y-119880710D02*
X195641276Y-119882834D01*
X195655317Y-119886351D01*
X195668946Y-119891228D01*
X195682031Y-119897417D01*
X195694447Y-119904858D01*
X195706073Y-119913481D01*
X195716798Y-119923202D01*
X195726519Y-119933927D01*
X195735142Y-119945553D01*
X195742583Y-119957969D01*
X195748772Y-119971054D01*
X195753649Y-119984683D01*
X195757166Y-119998724D01*
X195759290Y-120013042D01*
X195760000Y-120027500D01*
X195760000Y-120372500D01*
X195759290Y-120386958D01*
X195757166Y-120401276D01*
X195753649Y-120415317D01*
X195748772Y-120428946D01*
X195742583Y-120442031D01*
X195735142Y-120454447D01*
X195726519Y-120466073D01*
X195716798Y-120476798D01*
X195706073Y-120486519D01*
X195694447Y-120495142D01*
X195682031Y-120502583D01*
X195668946Y-120508772D01*
X195655317Y-120513649D01*
X195641276Y-120517166D01*
X195626958Y-120519290D01*
X195612500Y-120520000D01*
X195317500Y-120520000D01*
X195303042Y-120519290D01*
X195288724Y-120517166D01*
X195274683Y-120513649D01*
X195261054Y-120508772D01*
X195247969Y-120502583D01*
X195235553Y-120495142D01*
X195223927Y-120486519D01*
X195213202Y-120476798D01*
X195203481Y-120466073D01*
X195194858Y-120454447D01*
X195187417Y-120442031D01*
X195181228Y-120428946D01*
X195176351Y-120415317D01*
X195172834Y-120401276D01*
X195170710Y-120386958D01*
X195170000Y-120372500D01*
X195170000Y-120027500D01*
X195170710Y-120013042D01*
X195172834Y-119998724D01*
X195176351Y-119984683D01*
X195181228Y-119971054D01*
X195187417Y-119957969D01*
X195194858Y-119945553D01*
X195203481Y-119933927D01*
X195213202Y-119923202D01*
X195223927Y-119913481D01*
X195235553Y-119904858D01*
X195247969Y-119897417D01*
X195261054Y-119891228D01*
X195274683Y-119886351D01*
X195288724Y-119882834D01*
X195303042Y-119880710D01*
X195317500Y-119880000D01*
X195612500Y-119880000D01*
X195626958Y-119880710D01*
X195626958Y-119880710D01*
G37*
D12*
X195465000Y-120200000D03*
G04 #@! TD*
D11*
G04 #@! TO.C,C16*
G36*
X195648464Y-113596520D02*
X195662782Y-113598644D01*
X195676823Y-113602161D01*
X195690452Y-113607038D01*
X195703537Y-113613227D01*
X195715953Y-113620668D01*
X195727579Y-113629291D01*
X195738304Y-113639012D01*
X195748025Y-113649737D01*
X195756648Y-113661363D01*
X195764089Y-113673779D01*
X195770278Y-113686864D01*
X195775155Y-113700493D01*
X195778672Y-113714534D01*
X195780796Y-113728852D01*
X195781506Y-113743310D01*
X195781506Y-114088310D01*
X195780796Y-114102768D01*
X195778672Y-114117086D01*
X195775155Y-114131127D01*
X195770278Y-114144756D01*
X195764089Y-114157841D01*
X195756648Y-114170257D01*
X195748025Y-114181883D01*
X195738304Y-114192608D01*
X195727579Y-114202329D01*
X195715953Y-114210952D01*
X195703537Y-114218393D01*
X195690452Y-114224582D01*
X195676823Y-114229459D01*
X195662782Y-114232976D01*
X195648464Y-114235100D01*
X195634006Y-114235810D01*
X195339006Y-114235810D01*
X195324548Y-114235100D01*
X195310230Y-114232976D01*
X195296189Y-114229459D01*
X195282560Y-114224582D01*
X195269475Y-114218393D01*
X195257059Y-114210952D01*
X195245433Y-114202329D01*
X195234708Y-114192608D01*
X195224987Y-114181883D01*
X195216364Y-114170257D01*
X195208923Y-114157841D01*
X195202734Y-114144756D01*
X195197857Y-114131127D01*
X195194340Y-114117086D01*
X195192216Y-114102768D01*
X195191506Y-114088310D01*
X195191506Y-113743310D01*
X195192216Y-113728852D01*
X195194340Y-113714534D01*
X195197857Y-113700493D01*
X195202734Y-113686864D01*
X195208923Y-113673779D01*
X195216364Y-113661363D01*
X195224987Y-113649737D01*
X195234708Y-113639012D01*
X195245433Y-113629291D01*
X195257059Y-113620668D01*
X195269475Y-113613227D01*
X195282560Y-113607038D01*
X195296189Y-113602161D01*
X195310230Y-113598644D01*
X195324548Y-113596520D01*
X195339006Y-113595810D01*
X195634006Y-113595810D01*
X195648464Y-113596520D01*
X195648464Y-113596520D01*
G37*
D12*
X195486506Y-113915810D03*
D11*
G36*
X196618464Y-113596520D02*
X196632782Y-113598644D01*
X196646823Y-113602161D01*
X196660452Y-113607038D01*
X196673537Y-113613227D01*
X196685953Y-113620668D01*
X196697579Y-113629291D01*
X196708304Y-113639012D01*
X196718025Y-113649737D01*
X196726648Y-113661363D01*
X196734089Y-113673779D01*
X196740278Y-113686864D01*
X196745155Y-113700493D01*
X196748672Y-113714534D01*
X196750796Y-113728852D01*
X196751506Y-113743310D01*
X196751506Y-114088310D01*
X196750796Y-114102768D01*
X196748672Y-114117086D01*
X196745155Y-114131127D01*
X196740278Y-114144756D01*
X196734089Y-114157841D01*
X196726648Y-114170257D01*
X196718025Y-114181883D01*
X196708304Y-114192608D01*
X196697579Y-114202329D01*
X196685953Y-114210952D01*
X196673537Y-114218393D01*
X196660452Y-114224582D01*
X196646823Y-114229459D01*
X196632782Y-114232976D01*
X196618464Y-114235100D01*
X196604006Y-114235810D01*
X196309006Y-114235810D01*
X196294548Y-114235100D01*
X196280230Y-114232976D01*
X196266189Y-114229459D01*
X196252560Y-114224582D01*
X196239475Y-114218393D01*
X196227059Y-114210952D01*
X196215433Y-114202329D01*
X196204708Y-114192608D01*
X196194987Y-114181883D01*
X196186364Y-114170257D01*
X196178923Y-114157841D01*
X196172734Y-114144756D01*
X196167857Y-114131127D01*
X196164340Y-114117086D01*
X196162216Y-114102768D01*
X196161506Y-114088310D01*
X196161506Y-113743310D01*
X196162216Y-113728852D01*
X196164340Y-113714534D01*
X196167857Y-113700493D01*
X196172734Y-113686864D01*
X196178923Y-113673779D01*
X196186364Y-113661363D01*
X196194987Y-113649737D01*
X196204708Y-113639012D01*
X196215433Y-113629291D01*
X196227059Y-113620668D01*
X196239475Y-113613227D01*
X196252560Y-113607038D01*
X196266189Y-113602161D01*
X196280230Y-113598644D01*
X196294548Y-113596520D01*
X196309006Y-113595810D01*
X196604006Y-113595810D01*
X196618464Y-113596520D01*
X196618464Y-113596520D01*
G37*
D12*
X196456506Y-113915810D03*
G04 #@! TD*
D14*
G04 #@! TO.C,U2*
X155620852Y-133517761D03*
X155120852Y-133517761D03*
X154620852Y-133517761D03*
X154120852Y-133517761D03*
X153620852Y-133517761D03*
X153120852Y-133517761D03*
X153120852Y-136413361D03*
X153620852Y-136413361D03*
X154120852Y-136413361D03*
X154620852Y-136413361D03*
X155120852Y-136413361D03*
X155620852Y-136413361D03*
D13*
X154370852Y-134965561D03*
G04 #@! TD*
G04 #@! TO.C,U3*
X165215408Y-134936477D03*
D14*
X166465408Y-136384277D03*
X165965408Y-136384277D03*
X165465408Y-136384277D03*
X164965408Y-136384277D03*
X164465408Y-136384277D03*
X163965408Y-136384277D03*
X163965408Y-133488677D03*
X164465408Y-133488677D03*
X164965408Y-133488677D03*
X165465408Y-133488677D03*
X165965408Y-133488677D03*
X166465408Y-133488677D03*
G04 #@! TD*
G04 #@! TO.C,U4*
X178550000Y-133452200D03*
X178050000Y-133452200D03*
X177550000Y-133452200D03*
X177050000Y-133452200D03*
X176550000Y-133452200D03*
X176050000Y-133452200D03*
X176050000Y-136347800D03*
X176550000Y-136347800D03*
X177050000Y-136347800D03*
X177550000Y-136347800D03*
X178050000Y-136347800D03*
X178550000Y-136347800D03*
D13*
X177300000Y-134900000D03*
G04 #@! TD*
D14*
G04 #@! TO.C,U5*
X194434190Y-133821506D03*
X193934190Y-133821506D03*
X193434190Y-133821506D03*
X192934190Y-133821506D03*
X192434190Y-133821506D03*
X191934190Y-133821506D03*
X191934190Y-136717106D03*
X192434190Y-136717106D03*
X192934190Y-136717106D03*
X193434190Y-136717106D03*
X193934190Y-136717106D03*
X194434190Y-136717106D03*
D13*
X193184190Y-135269306D03*
G04 #@! TD*
D16*
G04 #@! TO.C,U6*
X194699306Y-128880810D03*
D17*
X196147106Y-127630810D03*
X196147106Y-128130810D03*
X196147106Y-128630810D03*
X196147106Y-129130810D03*
X196147106Y-129630810D03*
X196147106Y-130130810D03*
X193251506Y-130130810D03*
X193251506Y-129630810D03*
X193251506Y-129130810D03*
X193251506Y-128630810D03*
X193251506Y-128130810D03*
X193251506Y-127630810D03*
G04 #@! TD*
D16*
G04 #@! TO.C,U7*
X196019306Y-123165810D03*
D17*
X197467106Y-121915810D03*
X197467106Y-122415810D03*
X197467106Y-122915810D03*
X197467106Y-123415810D03*
X197467106Y-123915810D03*
X197467106Y-124415810D03*
X194571506Y-124415810D03*
X194571506Y-123915810D03*
X194571506Y-123415810D03*
X194571506Y-122915810D03*
X194571506Y-122415810D03*
X194571506Y-121915810D03*
G04 #@! TD*
G04 #@! TO.C,U8*
X194302200Y-115750000D03*
X194302200Y-116250000D03*
X194302200Y-116750000D03*
X194302200Y-117250000D03*
X194302200Y-117750000D03*
X194302200Y-118250000D03*
X197197800Y-118250000D03*
X197197800Y-117750000D03*
X197197800Y-117250000D03*
X197197800Y-116750000D03*
X197197800Y-116250000D03*
X197197800Y-115750000D03*
D16*
X195750000Y-117000000D03*
G04 #@! TD*
M02*
