G04 #@! TF.GenerationSoftware,KiCad,Pcbnew,5.0.2-bee76a0~70~ubuntu18.04.1*
G04 #@! TF.CreationDate,2019-09-26T00:30:11+02:00*
G04 #@! TF.ProjectId,myo_shield_pcb,6d796f5f-7368-4696-956c-645f7063622e,rev?*
G04 #@! TF.SameCoordinates,Original*
G04 #@! TF.FileFunction,Legend,Top*
G04 #@! TF.FilePolarity,Positive*
%FSLAX46Y46*%
G04 Gerber Fmt 4.6, Leading zero omitted, Abs format (unit mm)*
G04 Created by KiCad (PCBNEW 5.0.2-bee76a0~70~ubuntu18.04.1) date Do 26 Sep 2019 00:30:11 CEST*
%MOMM*%
%LPD*%
G01*
G04 APERTURE LIST*
%ADD10C,0.150000*%
%ADD11C,0.200000*%
%ADD12C,0.120000*%
%ADD13C,0.152400*%
%ADD14C,0.060000*%
%ADD15C,0.010000*%
%ADD16C,0.050000*%
G04 APERTURE END LIST*
D10*
X152852380Y-84976190D02*
X152852380Y-84357142D01*
X153233333Y-84690476D01*
X153233333Y-84547619D01*
X153280952Y-84452380D01*
X153328571Y-84404761D01*
X153423809Y-84357142D01*
X153661904Y-84357142D01*
X153757142Y-84404761D01*
X153804761Y-84452380D01*
X153852380Y-84547619D01*
X153852380Y-84833333D01*
X153804761Y-84928571D01*
X153757142Y-84976190D01*
X153757142Y-83928571D02*
X153804761Y-83880952D01*
X153852380Y-83928571D01*
X153804761Y-83976190D01*
X153757142Y-83928571D01*
X153852380Y-83928571D01*
X152852380Y-83547619D02*
X152852380Y-82928571D01*
X153233333Y-83261904D01*
X153233333Y-83119047D01*
X153280952Y-83023809D01*
X153328571Y-82976190D01*
X153423809Y-82928571D01*
X153661904Y-82928571D01*
X153757142Y-82976190D01*
X153804761Y-83023809D01*
X153852380Y-83119047D01*
X153852380Y-83404761D01*
X153804761Y-83500000D01*
X153757142Y-83547619D01*
X152852380Y-82642857D02*
X153852380Y-82309523D01*
X152852380Y-81976190D01*
X152852380Y-79390476D02*
X152852380Y-79866666D01*
X153328571Y-79914285D01*
X153280952Y-79866666D01*
X153233333Y-79771428D01*
X153233333Y-79533333D01*
X153280952Y-79438095D01*
X153328571Y-79390476D01*
X153423809Y-79342857D01*
X153661904Y-79342857D01*
X153757142Y-79390476D01*
X153804761Y-79438095D01*
X153852380Y-79533333D01*
X153852380Y-79771428D01*
X153804761Y-79866666D01*
X153757142Y-79914285D01*
X152852380Y-79057142D02*
X153852380Y-78723809D01*
X152852380Y-78390476D01*
D11*
X154400000Y-85800000D02*
X154400000Y-81600000D01*
X152300000Y-85800000D02*
X154400000Y-85800000D01*
X154400000Y-81400000D02*
X152400000Y-81400000D01*
X154400000Y-77200000D02*
X154400000Y-81600000D01*
X152300000Y-77200000D02*
X154400000Y-77200000D01*
D10*
X171038095Y-81300000D02*
X170942857Y-81252380D01*
X170800000Y-81252380D01*
X170657142Y-81300000D01*
X170561904Y-81395238D01*
X170514285Y-81490476D01*
X170466666Y-81680952D01*
X170466666Y-81823809D01*
X170514285Y-82014285D01*
X170561904Y-82109523D01*
X170657142Y-82204761D01*
X170800000Y-82252380D01*
X170895238Y-82252380D01*
X171038095Y-82204761D01*
X171085714Y-82157142D01*
X171085714Y-81823809D01*
X170895238Y-81823809D01*
X171514285Y-82252380D02*
X171514285Y-81252380D01*
X172085714Y-82252380D01*
X172085714Y-81252380D01*
X172561904Y-82252380D02*
X172561904Y-81252380D01*
X172800000Y-81252380D01*
X172942857Y-81300000D01*
X173038095Y-81395238D01*
X173085714Y-81490476D01*
X173133333Y-81680952D01*
X173133333Y-81823809D01*
X173085714Y-82014285D01*
X173038095Y-82109523D01*
X172942857Y-82204761D01*
X172800000Y-82252380D01*
X172561904Y-82252380D01*
X171109523Y-78552380D02*
X170633333Y-78552380D01*
X170585714Y-79028571D01*
X170633333Y-78980952D01*
X170728571Y-78933333D01*
X170966666Y-78933333D01*
X171061904Y-78980952D01*
X171109523Y-79028571D01*
X171157142Y-79123809D01*
X171157142Y-79361904D01*
X171109523Y-79457142D01*
X171061904Y-79504761D01*
X170966666Y-79552380D01*
X170728571Y-79552380D01*
X170633333Y-79504761D01*
X170585714Y-79457142D01*
X171442857Y-78552380D02*
X171776190Y-79552380D01*
X172109523Y-78552380D01*
X115652380Y-98771428D02*
X114985714Y-98771428D01*
X115080952Y-98771428D02*
X115033333Y-98723809D01*
X114985714Y-98628571D01*
X114985714Y-98485714D01*
X115033333Y-98390476D01*
X115128571Y-98342857D01*
X115652380Y-98342857D01*
X115128571Y-98342857D02*
X115033333Y-98295238D01*
X114985714Y-98200000D01*
X114985714Y-98057142D01*
X115033333Y-97961904D01*
X115128571Y-97914285D01*
X115652380Y-97914285D01*
X114985714Y-97533333D02*
X115652380Y-97295238D01*
X114985714Y-97057142D02*
X115652380Y-97295238D01*
X115890476Y-97390476D01*
X115938095Y-97438095D01*
X115985714Y-97533333D01*
X115652380Y-96533333D02*
X115604761Y-96628571D01*
X115557142Y-96676190D01*
X115461904Y-96723809D01*
X115176190Y-96723809D01*
X115080952Y-96676190D01*
X115033333Y-96628571D01*
X114985714Y-96533333D01*
X114985714Y-96390476D01*
X115033333Y-96295238D01*
X115080952Y-96247619D01*
X115176190Y-96200000D01*
X115461904Y-96200000D01*
X115557142Y-96247619D01*
X115604761Y-96295238D01*
X115652380Y-96390476D01*
X115652380Y-96533333D01*
X115747619Y-96009523D02*
X115747619Y-95247619D01*
X115604761Y-95057142D02*
X115652380Y-94961904D01*
X115652380Y-94771428D01*
X115604761Y-94676190D01*
X115509523Y-94628571D01*
X115461904Y-94628571D01*
X115366666Y-94676190D01*
X115319047Y-94771428D01*
X115319047Y-94914285D01*
X115271428Y-95009523D01*
X115176190Y-95057142D01*
X115128571Y-95057142D01*
X115033333Y-95009523D01*
X114985714Y-94914285D01*
X114985714Y-94771428D01*
X115033333Y-94676190D01*
X115652380Y-94200000D02*
X114652380Y-94200000D01*
X115652380Y-93771428D02*
X115128571Y-93771428D01*
X115033333Y-93819047D01*
X114985714Y-93914285D01*
X114985714Y-94057142D01*
X115033333Y-94152380D01*
X115080952Y-94200000D01*
X115652380Y-93295238D02*
X114985714Y-93295238D01*
X114652380Y-93295238D02*
X114700000Y-93342857D01*
X114747619Y-93295238D01*
X114700000Y-93247619D01*
X114652380Y-93295238D01*
X114747619Y-93295238D01*
X115604761Y-92438095D02*
X115652380Y-92533333D01*
X115652380Y-92723809D01*
X115604761Y-92819047D01*
X115509523Y-92866666D01*
X115128571Y-92866666D01*
X115033333Y-92819047D01*
X114985714Y-92723809D01*
X114985714Y-92533333D01*
X115033333Y-92438095D01*
X115128571Y-92390476D01*
X115223809Y-92390476D01*
X115319047Y-92866666D01*
X115652380Y-91819047D02*
X115604761Y-91914285D01*
X115509523Y-91961904D01*
X114652380Y-91961904D01*
X115652380Y-91009523D02*
X114652380Y-91009523D01*
X115604761Y-91009523D02*
X115652380Y-91104761D01*
X115652380Y-91295238D01*
X115604761Y-91390476D01*
X115557142Y-91438095D01*
X115461904Y-91485714D01*
X115176190Y-91485714D01*
X115080952Y-91438095D01*
X115033333Y-91390476D01*
X114985714Y-91295238D01*
X114985714Y-91104761D01*
X115033333Y-91009523D01*
X115747619Y-90771428D02*
X115747619Y-90009523D01*
X115652380Y-89771428D02*
X114985714Y-89771428D01*
X115176190Y-89771428D02*
X115080952Y-89723809D01*
X115033333Y-89676190D01*
X114985714Y-89580952D01*
X114985714Y-89485714D01*
X115604761Y-88771428D02*
X115652380Y-88866666D01*
X115652380Y-89057142D01*
X115604761Y-89152380D01*
X115509523Y-89200000D01*
X115128571Y-89200000D01*
X115033333Y-89152380D01*
X114985714Y-89057142D01*
X114985714Y-88866666D01*
X115033333Y-88771428D01*
X115128571Y-88723809D01*
X115223809Y-88723809D01*
X115319047Y-89200000D01*
X114985714Y-88390476D02*
X115652380Y-88152380D01*
X114985714Y-87914285D01*
X114652380Y-87342857D02*
X114652380Y-87247619D01*
X114700000Y-87152380D01*
X114747619Y-87104761D01*
X114842857Y-87057142D01*
X115033333Y-87009523D01*
X115271428Y-87009523D01*
X115461904Y-87057142D01*
X115557142Y-87104761D01*
X115604761Y-87152380D01*
X115652380Y-87247619D01*
X115652380Y-87342857D01*
X115604761Y-87438095D01*
X115557142Y-87485714D01*
X115461904Y-87533333D01*
X115271428Y-87580952D01*
X115033333Y-87580952D01*
X114842857Y-87533333D01*
X114747619Y-87485714D01*
X114700000Y-87438095D01*
X114652380Y-87342857D01*
X115557142Y-86580952D02*
X115604761Y-86533333D01*
X115652380Y-86580952D01*
X115604761Y-86628571D01*
X115557142Y-86580952D01*
X115652380Y-86580952D01*
X114652380Y-85628571D02*
X114652380Y-86104761D01*
X115128571Y-86152380D01*
X115080952Y-86104761D01*
X115033333Y-86009523D01*
X115033333Y-85771428D01*
X115080952Y-85676190D01*
X115128571Y-85628571D01*
X115223809Y-85580952D01*
X115461904Y-85580952D01*
X115557142Y-85628571D01*
X115604761Y-85676190D01*
X115652380Y-85771428D01*
X115652380Y-86009523D01*
X115604761Y-86104761D01*
X115557142Y-86152380D01*
D12*
G04 #@! TO.C,J20*
X147825000Y-138070000D02*
X147825000Y-139600000D01*
X145950000Y-138070000D02*
X147825000Y-138070000D01*
X144680000Y-140870000D02*
X144680000Y-139000000D01*
X146550000Y-140870000D02*
X144680000Y-140870000D01*
X147825000Y-142140000D02*
X147825000Y-143670000D01*
X147825000Y-143670000D02*
X137725000Y-143670000D01*
X137725000Y-138070000D02*
X137725000Y-143670000D01*
X143410000Y-138070000D02*
X137725000Y-138070000D01*
D13*
G04 #@! TO.C,U1*
X145223142Y-133221731D02*
X144765942Y-133221731D01*
X145223142Y-136574531D02*
X145223142Y-133221731D01*
X140854342Y-136574531D02*
X141311542Y-136574531D01*
X140854342Y-133221731D02*
X140854342Y-136574531D01*
X141311542Y-133221731D02*
X140854342Y-133221731D01*
X144765942Y-136574531D02*
X145223142Y-136574531D01*
D12*
G04 #@! TO.C,J16*
X114500000Y-83050000D02*
X114500000Y-81520000D01*
X116345000Y-83050000D02*
X114500000Y-83050000D01*
X117615000Y-80250000D02*
X117615000Y-82120000D01*
X115745000Y-80250000D02*
X117615000Y-80250000D01*
X114500000Y-78980000D02*
X114500000Y-77450000D01*
X114500000Y-77450000D02*
X122000000Y-77450000D01*
X122000000Y-83050000D02*
X122000000Y-77450000D01*
X118885000Y-83050000D02*
X122000000Y-83050000D01*
G04 #@! TO.C,J17*
X136385000Y-83050000D02*
X139500000Y-83050000D01*
X139500000Y-83050000D02*
X139500000Y-77450000D01*
X132000000Y-77450000D02*
X139500000Y-77450000D01*
X132000000Y-78980000D02*
X132000000Y-77450000D01*
X133245000Y-80250000D02*
X135115000Y-80250000D01*
X135115000Y-80250000D02*
X135115000Y-82120000D01*
X133845000Y-83050000D02*
X132000000Y-83050000D01*
X132000000Y-83050000D02*
X132000000Y-81520000D01*
G04 #@! TO.C,J18*
X123250000Y-83050000D02*
X123250000Y-81520000D01*
X125095000Y-83050000D02*
X123250000Y-83050000D01*
X126365000Y-80250000D02*
X126365000Y-82120000D01*
X124495000Y-80250000D02*
X126365000Y-80250000D01*
X123250000Y-78980000D02*
X123250000Y-77450000D01*
X123250000Y-77450000D02*
X130750000Y-77450000D01*
X130750000Y-83050000D02*
X130750000Y-77450000D01*
X127635000Y-83050000D02*
X130750000Y-83050000D01*
G04 #@! TO.C,J19*
X167160000Y-82930000D02*
X167160000Y-77730000D01*
X167160000Y-77730000D02*
X164500000Y-77730000D01*
X164500000Y-77730000D02*
X164500000Y-82930000D01*
X164500000Y-82930000D02*
X167160000Y-82930000D01*
X164500000Y-81980000D02*
X158500000Y-81980000D01*
X158500000Y-81980000D02*
X158500000Y-81220000D01*
X158500000Y-81220000D02*
X164500000Y-81220000D01*
X164500000Y-81920000D02*
X158500000Y-81920000D01*
X164500000Y-81800000D02*
X158500000Y-81800000D01*
X164500000Y-81680000D02*
X158500000Y-81680000D01*
X164500000Y-81560000D02*
X158500000Y-81560000D01*
X164500000Y-81440000D02*
X158500000Y-81440000D01*
X164500000Y-81320000D02*
X158500000Y-81320000D01*
X167490000Y-81980000D02*
X167160000Y-81980000D01*
X167490000Y-81220000D02*
X167160000Y-81220000D01*
X167160000Y-80330000D02*
X164500000Y-80330000D01*
X164500000Y-79440000D02*
X158500000Y-79440000D01*
X158500000Y-79440000D02*
X158500000Y-78680000D01*
X158500000Y-78680000D02*
X164500000Y-78680000D01*
X167557071Y-79440000D02*
X167160000Y-79440000D01*
X167557071Y-78680000D02*
X167160000Y-78680000D01*
X169870000Y-81600000D02*
X169870000Y-82870000D01*
X169870000Y-82870000D02*
X168600000Y-82870000D01*
G04 #@! TO.C,J3*
X184220000Y-85460000D02*
X185550000Y-85460000D01*
X184220000Y-86790000D02*
X184220000Y-85460000D01*
X186820000Y-85460000D02*
X189420000Y-85460000D01*
X186820000Y-88060000D02*
X186820000Y-85460000D01*
X184220000Y-88060000D02*
X186820000Y-88060000D01*
X189420000Y-85460000D02*
X189420000Y-136380000D01*
X184220000Y-88060000D02*
X184220000Y-136380000D01*
X184220000Y-136380000D02*
X189420000Y-136380000D01*
G04 #@! TO.C,J6*
X126430000Y-85460000D02*
X121230000Y-85460000D01*
X126430000Y-133780000D02*
X126430000Y-85460000D01*
X121230000Y-136380000D02*
X121230000Y-85460000D01*
X126430000Y-133780000D02*
X123830000Y-133780000D01*
X123830000Y-133780000D02*
X123830000Y-136380000D01*
X123830000Y-136380000D02*
X121230000Y-136380000D01*
X126430000Y-135050000D02*
X126430000Y-136380000D01*
X126430000Y-136380000D02*
X125100000Y-136380000D01*
G04 #@! TO.C,D1*
X171200000Y-124400000D02*
X171200000Y-118500000D01*
X175100000Y-124400000D02*
X175100000Y-118500000D01*
X175100000Y-118500000D02*
X174025000Y-118500000D01*
G04 #@! TO.C,D2*
X167100000Y-124400000D02*
X167100000Y-118500000D01*
X171000000Y-124400000D02*
X171000000Y-118500000D01*
X171000000Y-118500000D02*
X169925000Y-118500000D01*
G04 #@! TO.C,D3*
X166950000Y-118500000D02*
X165875000Y-118500000D01*
X166950000Y-124400000D02*
X166950000Y-118500000D01*
X163050000Y-124400000D02*
X163050000Y-118500000D01*
G04 #@! TO.C,D4*
X159000000Y-124450000D02*
X159000000Y-118550000D01*
X162900000Y-124450000D02*
X162900000Y-118550000D01*
X162900000Y-118550000D02*
X161825000Y-118550000D01*
G04 #@! TO.C,D5*
X158900000Y-118650000D02*
X157825000Y-118650000D01*
X158900000Y-124550000D02*
X158900000Y-118650000D01*
X155000000Y-124550000D02*
X155000000Y-118650000D01*
G04 #@! TO.C,D6*
X154900000Y-118600000D02*
X153825000Y-118600000D01*
X154900000Y-124500000D02*
X154900000Y-118600000D01*
X151000000Y-124500000D02*
X151000000Y-118600000D01*
G04 #@! TO.C,D7*
X147000000Y-124500000D02*
X147000000Y-118600000D01*
X150900000Y-124500000D02*
X150900000Y-118600000D01*
X150900000Y-118600000D02*
X149825000Y-118600000D01*
G04 #@! TO.C,D8*
X146900000Y-118600000D02*
X145825000Y-118600000D01*
X146900000Y-124500000D02*
X146900000Y-118600000D01*
X143000000Y-124500000D02*
X143000000Y-118600000D01*
G04 #@! TO.C,D9*
X139000000Y-124500000D02*
X139000000Y-118600000D01*
X142900000Y-124500000D02*
X142900000Y-118600000D01*
X142900000Y-118600000D02*
X141825000Y-118600000D01*
G04 #@! TO.C,D10*
X134900000Y-124500000D02*
X134900000Y-118600000D01*
X138800000Y-124500000D02*
X138800000Y-118600000D01*
X138800000Y-118600000D02*
X137725000Y-118600000D01*
G04 #@! TO.C,J1*
X193175000Y-138070000D02*
X193175000Y-139600000D01*
X191300000Y-138070000D02*
X193175000Y-138070000D01*
X190030000Y-140870000D02*
X190030000Y-139000000D01*
X191900000Y-140870000D02*
X190030000Y-140870000D01*
X193175000Y-142140000D02*
X193175000Y-143670000D01*
X193175000Y-143670000D02*
X183075000Y-143670000D01*
X183075000Y-138070000D02*
X183075000Y-143670000D01*
X188760000Y-138070000D02*
X183075000Y-138070000D01*
G04 #@! TO.C,J2*
X154760000Y-138070000D02*
X149075000Y-138070000D01*
X149075000Y-138070000D02*
X149075000Y-143670000D01*
X159175000Y-143670000D02*
X149075000Y-143670000D01*
X159175000Y-142140000D02*
X159175000Y-143670000D01*
X157900000Y-140870000D02*
X156030000Y-140870000D01*
X156030000Y-140870000D02*
X156030000Y-139000000D01*
X157300000Y-138070000D02*
X159175000Y-138070000D01*
X159175000Y-138070000D02*
X159175000Y-139600000D01*
G04 #@! TO.C,J4*
X204575000Y-138120000D02*
X204575000Y-139650000D01*
X202700000Y-138120000D02*
X204575000Y-138120000D01*
X201430000Y-140920000D02*
X201430000Y-139050000D01*
X203300000Y-140920000D02*
X201430000Y-140920000D01*
X204575000Y-142190000D02*
X204575000Y-143720000D01*
X204575000Y-143720000D02*
X194475000Y-143720000D01*
X194475000Y-138120000D02*
X194475000Y-143720000D01*
X200160000Y-138120000D02*
X194475000Y-138120000D01*
G04 #@! TO.C,J5*
X170475000Y-138070000D02*
X170475000Y-139600000D01*
X168600000Y-138070000D02*
X170475000Y-138070000D01*
X167330000Y-140870000D02*
X167330000Y-139000000D01*
X169200000Y-140870000D02*
X167330000Y-140870000D01*
X170475000Y-142140000D02*
X170475000Y-143670000D01*
X170475000Y-143670000D02*
X160375000Y-143670000D01*
X160375000Y-138070000D02*
X160375000Y-143670000D01*
X166060000Y-138070000D02*
X160375000Y-138070000D01*
G04 #@! TO.C,J7*
X199320000Y-131140000D02*
X199320000Y-136825000D01*
X199320000Y-136825000D02*
X204920000Y-136825000D01*
X204920000Y-126725000D02*
X204920000Y-136825000D01*
X203390000Y-126725000D02*
X204920000Y-126725000D01*
X202120000Y-128000000D02*
X202120000Y-129870000D01*
X202120000Y-129870000D02*
X200250000Y-129870000D01*
X199320000Y-128600000D02*
X199320000Y-126725000D01*
X199320000Y-126725000D02*
X200850000Y-126725000D01*
G04 #@! TO.C,J8*
X177360000Y-138070000D02*
X171675000Y-138070000D01*
X171675000Y-138070000D02*
X171675000Y-143670000D01*
X181775000Y-143670000D02*
X171675000Y-143670000D01*
X181775000Y-142140000D02*
X181775000Y-143670000D01*
X180500000Y-140870000D02*
X178630000Y-140870000D01*
X178630000Y-140870000D02*
X178630000Y-139000000D01*
X179900000Y-138070000D02*
X181775000Y-138070000D01*
X181775000Y-138070000D02*
X181775000Y-139600000D01*
G04 #@! TO.C,J9*
X199220000Y-119540000D02*
X199220000Y-125225000D01*
X199220000Y-125225000D02*
X204820000Y-125225000D01*
X204820000Y-115125000D02*
X204820000Y-125225000D01*
X203290000Y-115125000D02*
X204820000Y-115125000D01*
X202020000Y-116400000D02*
X202020000Y-118270000D01*
X202020000Y-118270000D02*
X200150000Y-118270000D01*
X199220000Y-117000000D02*
X199220000Y-115125000D01*
X199220000Y-115125000D02*
X200750000Y-115125000D01*
G04 #@! TO.C,J10*
X120030000Y-131835000D02*
X118500000Y-131835000D01*
X120030000Y-130000000D02*
X120030000Y-131835000D01*
X117230000Y-128730000D02*
X119100000Y-128730000D01*
X117230000Y-130600000D02*
X117230000Y-128730000D01*
X115960000Y-131835000D02*
X114430000Y-131835000D01*
X114430000Y-131835000D02*
X114430000Y-116735000D01*
X120030000Y-116735000D02*
X114430000Y-116735000D01*
X120030000Y-127460000D02*
X120030000Y-116735000D01*
G04 #@! TO.C,J11*
X132165000Y-138050000D02*
X129050000Y-138050000D01*
X129050000Y-138050000D02*
X129050000Y-143650000D01*
X136550000Y-143650000D02*
X129050000Y-143650000D01*
X136550000Y-142120000D02*
X136550000Y-143650000D01*
X135305000Y-140850000D02*
X133435000Y-140850000D01*
X133435000Y-140850000D02*
X133435000Y-138980000D01*
X134705000Y-138050000D02*
X136550000Y-138050000D01*
X136550000Y-138050000D02*
X136550000Y-139580000D01*
G04 #@! TO.C,J12*
X120030000Y-111210000D02*
X120030000Y-100485000D01*
X120030000Y-100485000D02*
X114430000Y-100485000D01*
X114430000Y-115585000D02*
X114430000Y-100485000D01*
X115960000Y-115585000D02*
X114430000Y-115585000D01*
X117230000Y-114350000D02*
X117230000Y-112480000D01*
X117230000Y-112480000D02*
X119100000Y-112480000D01*
X120030000Y-113750000D02*
X120030000Y-115585000D01*
X120030000Y-115585000D02*
X118500000Y-115585000D01*
G04 #@! TO.C,J13*
X204730000Y-109035000D02*
X203200000Y-109035000D01*
X204730000Y-107200000D02*
X204730000Y-109035000D01*
X201930000Y-105930000D02*
X203800000Y-105930000D01*
X201930000Y-107800000D02*
X201930000Y-105930000D01*
X200660000Y-109035000D02*
X199130000Y-109035000D01*
X199130000Y-109035000D02*
X199130000Y-93935000D01*
X204730000Y-93935000D02*
X199130000Y-93935000D01*
X204730000Y-104660000D02*
X204730000Y-93935000D01*
G04 #@! TO.C,J14*
X204730000Y-88260000D02*
X204730000Y-77535000D01*
X204730000Y-77535000D02*
X199130000Y-77535000D01*
X199130000Y-92635000D02*
X199130000Y-77535000D01*
X200660000Y-92635000D02*
X199130000Y-92635000D01*
X201930000Y-91400000D02*
X201930000Y-89530000D01*
X201930000Y-89530000D02*
X203800000Y-89530000D01*
X204730000Y-90800000D02*
X204730000Y-92635000D01*
X204730000Y-92635000D02*
X203200000Y-92635000D01*
G04 #@! TO.C,J15*
X193660000Y-77270000D02*
X182935000Y-77270000D01*
X182935000Y-77270000D02*
X182935000Y-82870000D01*
X198035000Y-82870000D02*
X182935000Y-82870000D01*
X198035000Y-81340000D02*
X198035000Y-82870000D01*
X196800000Y-80070000D02*
X194930000Y-80070000D01*
X194930000Y-80070000D02*
X194930000Y-78200000D01*
X196200000Y-77270000D02*
X198035000Y-77270000D01*
X198035000Y-77270000D02*
X198035000Y-78800000D01*
G04 #@! TO.C,J21*
X140750000Y-83050000D02*
X140750000Y-81520000D01*
X142595000Y-83050000D02*
X140750000Y-83050000D01*
X143865000Y-80250000D02*
X143865000Y-82120000D01*
X141995000Y-80250000D02*
X143865000Y-80250000D01*
X140750000Y-78980000D02*
X140750000Y-77450000D01*
X140750000Y-77450000D02*
X148250000Y-77450000D01*
X148250000Y-83050000D02*
X148250000Y-77450000D01*
X145135000Y-83050000D02*
X148250000Y-83050000D01*
G04 #@! TO.C,JP1*
X150500000Y-85330000D02*
X149170000Y-85330000D01*
X149170000Y-85330000D02*
X149170000Y-84000000D01*
X149170000Y-82730000D02*
X149170000Y-77590000D01*
X151830000Y-77590000D02*
X149170000Y-77590000D01*
X151830000Y-82730000D02*
X151830000Y-77590000D01*
X151830000Y-82730000D02*
X149170000Y-82730000D01*
D13*
G04 #@! TO.C,U2*
X156098052Y-136641961D02*
X156555252Y-136641961D01*
X152643652Y-133289161D02*
X152186452Y-133289161D01*
X152186452Y-133289161D02*
X152186452Y-136641961D01*
X152186452Y-136641961D02*
X152643652Y-136641961D01*
X156555252Y-136641961D02*
X156555252Y-133289161D01*
X156555252Y-133289161D02*
X156098052Y-133289161D01*
G04 #@! TO.C,U3*
X167399808Y-133260077D02*
X166942608Y-133260077D01*
X167399808Y-136612877D02*
X167399808Y-133260077D01*
X163031008Y-136612877D02*
X163488208Y-136612877D01*
X163031008Y-133260077D02*
X163031008Y-136612877D01*
X163488208Y-133260077D02*
X163031008Y-133260077D01*
X166942608Y-136612877D02*
X167399808Y-136612877D01*
G04 #@! TO.C,U4*
X179027200Y-136576400D02*
X179484400Y-136576400D01*
X175572800Y-133223600D02*
X175115600Y-133223600D01*
X175115600Y-133223600D02*
X175115600Y-136576400D01*
X175115600Y-136576400D02*
X175572800Y-136576400D01*
X179484400Y-136576400D02*
X179484400Y-133223600D01*
X179484400Y-133223600D02*
X179027200Y-133223600D01*
G04 #@! TO.C,U5*
X194911390Y-136945706D02*
X195368590Y-136945706D01*
X191456990Y-133592906D02*
X190999790Y-133592906D01*
X190999790Y-133592906D02*
X190999790Y-136945706D01*
X190999790Y-136945706D02*
X191456990Y-136945706D01*
X195368590Y-136945706D02*
X195368590Y-133592906D01*
X195368590Y-133592906D02*
X194911390Y-133592906D01*
G04 #@! TO.C,U6*
X193022906Y-126696410D02*
X193022906Y-127153610D01*
X196375706Y-126696410D02*
X193022906Y-126696410D01*
X196375706Y-131065210D02*
X196375706Y-130608010D01*
X193022906Y-131065210D02*
X196375706Y-131065210D01*
X193022906Y-130608010D02*
X193022906Y-131065210D01*
X196375706Y-127153610D02*
X196375706Y-126696410D01*
G04 #@! TO.C,U7*
X194342906Y-120981410D02*
X194342906Y-121438610D01*
X197695706Y-120981410D02*
X194342906Y-120981410D01*
X197695706Y-125350210D02*
X197695706Y-124893010D01*
X194342906Y-125350210D02*
X197695706Y-125350210D01*
X194342906Y-124893010D02*
X194342906Y-125350210D01*
X197695706Y-121438610D02*
X197695706Y-120981410D01*
G04 #@! TO.C,U8*
X197426400Y-115272800D02*
X197426400Y-114815600D01*
X194073600Y-118727200D02*
X194073600Y-119184400D01*
X194073600Y-119184400D02*
X197426400Y-119184400D01*
X197426400Y-119184400D02*
X197426400Y-118727200D01*
X197426400Y-114815600D02*
X194073600Y-114815600D01*
X194073600Y-114815600D02*
X194073600Y-115272800D01*
D14*
G04 #@! TO.C,G\002A\002A\002A*
G36*
X119124692Y-141931830D02*
X119128884Y-141937238D01*
X119129842Y-141945434D01*
X119125424Y-141950854D01*
X119113375Y-141958710D01*
X119095655Y-141968093D01*
X119074225Y-141978090D01*
X119051046Y-141987791D01*
X119028078Y-141996284D01*
X119007282Y-142002659D01*
X119005917Y-142003013D01*
X118962856Y-142010486D01*
X118914361Y-142012860D01*
X118863785Y-142010138D01*
X118817500Y-142002965D01*
X118790200Y-141997186D01*
X118771309Y-141992973D01*
X118759286Y-141989840D01*
X118752588Y-141987302D01*
X118749673Y-141984876D01*
X118748999Y-141982076D01*
X118748997Y-141981433D01*
X118750026Y-141973727D01*
X118753898Y-141969084D01*
X118762140Y-141967369D01*
X118776276Y-141968449D01*
X118797832Y-141972190D01*
X118814960Y-141975657D01*
X118873922Y-141985109D01*
X118927388Y-141987441D01*
X118977312Y-141982442D01*
X119025646Y-141969901D01*
X119074342Y-141949609D01*
X119079221Y-141947188D01*
X119101207Y-141936758D01*
X119115915Y-141931654D01*
X119124692Y-141931830D01*
X119124692Y-141931830D01*
G37*
X119124692Y-141931830D02*
X119128884Y-141937238D01*
X119129842Y-141945434D01*
X119125424Y-141950854D01*
X119113375Y-141958710D01*
X119095655Y-141968093D01*
X119074225Y-141978090D01*
X119051046Y-141987791D01*
X119028078Y-141996284D01*
X119007282Y-142002659D01*
X119005917Y-142003013D01*
X118962856Y-142010486D01*
X118914361Y-142012860D01*
X118863785Y-142010138D01*
X118817500Y-142002965D01*
X118790200Y-141997186D01*
X118771309Y-141992973D01*
X118759286Y-141989840D01*
X118752588Y-141987302D01*
X118749673Y-141984876D01*
X118748999Y-141982076D01*
X118748997Y-141981433D01*
X118750026Y-141973727D01*
X118753898Y-141969084D01*
X118762140Y-141967369D01*
X118776276Y-141968449D01*
X118797832Y-141972190D01*
X118814960Y-141975657D01*
X118873922Y-141985109D01*
X118927388Y-141987441D01*
X118977312Y-141982442D01*
X119025646Y-141969901D01*
X119074342Y-141949609D01*
X119079221Y-141947188D01*
X119101207Y-141936758D01*
X119115915Y-141931654D01*
X119124692Y-141931830D01*
D15*
G36*
X117793665Y-140492400D02*
X117811199Y-140494815D01*
X117827879Y-140500076D01*
X117846678Y-140508404D01*
X117896544Y-140536810D01*
X117946028Y-140574026D01*
X117994186Y-140618713D01*
X118040077Y-140669536D01*
X118082757Y-140725158D01*
X118121285Y-140784244D01*
X118154717Y-140845456D01*
X118182112Y-140907459D01*
X118202526Y-140968917D01*
X118215018Y-141028492D01*
X118215381Y-141031129D01*
X118218149Y-141074196D01*
X118214456Y-141112257D01*
X118204593Y-141144427D01*
X118188853Y-141169822D01*
X118167525Y-141187556D01*
X118163187Y-141189832D01*
X118135219Y-141198318D01*
X118103409Y-141199581D01*
X118071189Y-141193488D01*
X118070740Y-141193346D01*
X118027203Y-141175057D01*
X117982270Y-141147842D01*
X117936881Y-141112665D01*
X117891976Y-141070487D01*
X117848495Y-141022272D01*
X117807378Y-140968982D01*
X117769565Y-140911579D01*
X117735996Y-140851026D01*
X117735540Y-140850119D01*
X117710181Y-140795845D01*
X117701711Y-140773574D01*
X117855284Y-140773574D01*
X117855543Y-140801315D01*
X117858121Y-140829311D01*
X117862567Y-140852702D01*
X117872407Y-140882865D01*
X117886999Y-140917156D01*
X117904535Y-140951944D01*
X117923208Y-140983596D01*
X117938382Y-141005022D01*
X117969895Y-141040806D01*
X118001152Y-141068895D01*
X118031506Y-141089000D01*
X118060309Y-141100834D01*
X118086913Y-141104109D01*
X118110670Y-141098538D01*
X118126133Y-141088466D01*
X118140767Y-141071999D01*
X118150019Y-141052003D01*
X118154606Y-141026313D01*
X118155402Y-141000316D01*
X118151584Y-140961085D01*
X118141587Y-140920767D01*
X118126265Y-140880451D01*
X118106466Y-140841228D01*
X118083042Y-140804188D01*
X118056844Y-140770421D01*
X118028723Y-140741018D01*
X117999529Y-140717069D01*
X117970113Y-140699664D01*
X117941326Y-140689894D01*
X117914019Y-140688849D01*
X117912521Y-140689075D01*
X117890226Y-140697610D01*
X117871870Y-140714429D01*
X117861805Y-140731686D01*
X117857365Y-140749295D01*
X117855284Y-140773574D01*
X117701711Y-140773574D01*
X117691505Y-140746742D01*
X117678956Y-140700850D01*
X117671980Y-140656209D01*
X117670024Y-140618820D01*
X117670147Y-140593734D01*
X117671356Y-140575780D01*
X117674108Y-140561950D01*
X117678861Y-140549235D01*
X117681443Y-140543751D01*
X117692212Y-140526421D01*
X117705671Y-140510733D01*
X117711471Y-140505651D01*
X117721774Y-140498608D01*
X117731873Y-140494452D01*
X117744939Y-140492443D01*
X117764145Y-140491838D01*
X117770641Y-140491820D01*
X117793665Y-140492400D01*
X117793665Y-140492400D01*
G37*
X117793665Y-140492400D02*
X117811199Y-140494815D01*
X117827879Y-140500076D01*
X117846678Y-140508404D01*
X117896544Y-140536810D01*
X117946028Y-140574026D01*
X117994186Y-140618713D01*
X118040077Y-140669536D01*
X118082757Y-140725158D01*
X118121285Y-140784244D01*
X118154717Y-140845456D01*
X118182112Y-140907459D01*
X118202526Y-140968917D01*
X118215018Y-141028492D01*
X118215381Y-141031129D01*
X118218149Y-141074196D01*
X118214456Y-141112257D01*
X118204593Y-141144427D01*
X118188853Y-141169822D01*
X118167525Y-141187556D01*
X118163187Y-141189832D01*
X118135219Y-141198318D01*
X118103409Y-141199581D01*
X118071189Y-141193488D01*
X118070740Y-141193346D01*
X118027203Y-141175057D01*
X117982270Y-141147842D01*
X117936881Y-141112665D01*
X117891976Y-141070487D01*
X117848495Y-141022272D01*
X117807378Y-140968982D01*
X117769565Y-140911579D01*
X117735996Y-140851026D01*
X117735540Y-140850119D01*
X117710181Y-140795845D01*
X117701711Y-140773574D01*
X117855284Y-140773574D01*
X117855543Y-140801315D01*
X117858121Y-140829311D01*
X117862567Y-140852702D01*
X117872407Y-140882865D01*
X117886999Y-140917156D01*
X117904535Y-140951944D01*
X117923208Y-140983596D01*
X117938382Y-141005022D01*
X117969895Y-141040806D01*
X118001152Y-141068895D01*
X118031506Y-141089000D01*
X118060309Y-141100834D01*
X118086913Y-141104109D01*
X118110670Y-141098538D01*
X118126133Y-141088466D01*
X118140767Y-141071999D01*
X118150019Y-141052003D01*
X118154606Y-141026313D01*
X118155402Y-141000316D01*
X118151584Y-140961085D01*
X118141587Y-140920767D01*
X118126265Y-140880451D01*
X118106466Y-140841228D01*
X118083042Y-140804188D01*
X118056844Y-140770421D01*
X118028723Y-140741018D01*
X117999529Y-140717069D01*
X117970113Y-140699664D01*
X117941326Y-140689894D01*
X117914019Y-140688849D01*
X117912521Y-140689075D01*
X117890226Y-140697610D01*
X117871870Y-140714429D01*
X117861805Y-140731686D01*
X117857365Y-140749295D01*
X117855284Y-140773574D01*
X117701711Y-140773574D01*
X117691505Y-140746742D01*
X117678956Y-140700850D01*
X117671980Y-140656209D01*
X117670024Y-140618820D01*
X117670147Y-140593734D01*
X117671356Y-140575780D01*
X117674108Y-140561950D01*
X117678861Y-140549235D01*
X117681443Y-140543751D01*
X117692212Y-140526421D01*
X117705671Y-140510733D01*
X117711471Y-140505651D01*
X117721774Y-140498608D01*
X117731873Y-140494452D01*
X117744939Y-140492443D01*
X117764145Y-140491838D01*
X117770641Y-140491820D01*
X117793665Y-140492400D01*
G36*
X119418423Y-140301777D02*
X119456263Y-140305066D01*
X119476759Y-140308897D01*
X119528390Y-140325874D01*
X119573060Y-140349654D01*
X119610646Y-140379527D01*
X119641024Y-140414781D01*
X119664071Y-140454703D01*
X119679661Y-140498583D01*
X119687672Y-140545708D01*
X119687980Y-140595366D01*
X119680461Y-140646846D01*
X119664990Y-140699436D01*
X119641445Y-140752424D01*
X119609701Y-140805099D01*
X119571669Y-140854398D01*
X119522024Y-140905506D01*
X119467034Y-140950255D01*
X119407863Y-140988142D01*
X119345678Y-141018666D01*
X119281645Y-141041325D01*
X119216929Y-141055617D01*
X119152695Y-141061041D01*
X119098218Y-141058169D01*
X119043393Y-141047107D01*
X118994297Y-141028036D01*
X118951371Y-141001148D01*
X118932887Y-140985333D01*
X118901140Y-140951436D01*
X118878000Y-140916962D01*
X118862118Y-140879320D01*
X118852141Y-140835916D01*
X118850986Y-140828145D01*
X118848426Y-140773755D01*
X118855286Y-140718691D01*
X118870934Y-140663752D01*
X118884275Y-140633475D01*
X119249164Y-140633475D01*
X119251545Y-140655112D01*
X119264506Y-140699304D01*
X119285689Y-140738657D01*
X119314198Y-140772122D01*
X119349137Y-140798653D01*
X119389610Y-140817204D01*
X119390453Y-140817481D01*
X119410411Y-140821460D01*
X119437461Y-140823152D01*
X119455684Y-140822976D01*
X119479938Y-140821571D01*
X119498324Y-140818634D01*
X119515122Y-140813176D01*
X119532690Y-140805155D01*
X119569679Y-140781788D01*
X119600282Y-140751948D01*
X119623754Y-140717048D01*
X119639349Y-140678504D01*
X119646322Y-140637728D01*
X119643925Y-140596134D01*
X119643670Y-140594722D01*
X119630966Y-140552824D01*
X119609644Y-140514438D01*
X119580985Y-140481215D01*
X119546270Y-140454806D01*
X119527445Y-140444858D01*
X119497518Y-140435350D01*
X119462396Y-140430786D01*
X119425790Y-140431225D01*
X119391413Y-140436724D01*
X119373531Y-140442426D01*
X119338383Y-140461486D01*
X119307691Y-140487944D01*
X119282440Y-140520087D01*
X119263613Y-140556199D01*
X119252193Y-140594567D01*
X119249164Y-140633475D01*
X118884275Y-140633475D01*
X118894736Y-140609736D01*
X118926061Y-140557441D01*
X118964274Y-140507666D01*
X119008745Y-140461207D01*
X119058840Y-140418864D01*
X119113926Y-140381434D01*
X119173370Y-140349716D01*
X119236541Y-140324507D01*
X119254886Y-140318701D01*
X119291263Y-140310238D01*
X119332757Y-140304503D01*
X119376199Y-140301636D01*
X119418423Y-140301777D01*
X119418423Y-140301777D01*
G37*
X119418423Y-140301777D02*
X119456263Y-140305066D01*
X119476759Y-140308897D01*
X119528390Y-140325874D01*
X119573060Y-140349654D01*
X119610646Y-140379527D01*
X119641024Y-140414781D01*
X119664071Y-140454703D01*
X119679661Y-140498583D01*
X119687672Y-140545708D01*
X119687980Y-140595366D01*
X119680461Y-140646846D01*
X119664990Y-140699436D01*
X119641445Y-140752424D01*
X119609701Y-140805099D01*
X119571669Y-140854398D01*
X119522024Y-140905506D01*
X119467034Y-140950255D01*
X119407863Y-140988142D01*
X119345678Y-141018666D01*
X119281645Y-141041325D01*
X119216929Y-141055617D01*
X119152695Y-141061041D01*
X119098218Y-141058169D01*
X119043393Y-141047107D01*
X118994297Y-141028036D01*
X118951371Y-141001148D01*
X118932887Y-140985333D01*
X118901140Y-140951436D01*
X118878000Y-140916962D01*
X118862118Y-140879320D01*
X118852141Y-140835916D01*
X118850986Y-140828145D01*
X118848426Y-140773755D01*
X118855286Y-140718691D01*
X118870934Y-140663752D01*
X118884275Y-140633475D01*
X119249164Y-140633475D01*
X119251545Y-140655112D01*
X119264506Y-140699304D01*
X119285689Y-140738657D01*
X119314198Y-140772122D01*
X119349137Y-140798653D01*
X119389610Y-140817204D01*
X119390453Y-140817481D01*
X119410411Y-140821460D01*
X119437461Y-140823152D01*
X119455684Y-140822976D01*
X119479938Y-140821571D01*
X119498324Y-140818634D01*
X119515122Y-140813176D01*
X119532690Y-140805155D01*
X119569679Y-140781788D01*
X119600282Y-140751948D01*
X119623754Y-140717048D01*
X119639349Y-140678504D01*
X119646322Y-140637728D01*
X119643925Y-140596134D01*
X119643670Y-140594722D01*
X119630966Y-140552824D01*
X119609644Y-140514438D01*
X119580985Y-140481215D01*
X119546270Y-140454806D01*
X119527445Y-140444858D01*
X119497518Y-140435350D01*
X119462396Y-140430786D01*
X119425790Y-140431225D01*
X119391413Y-140436724D01*
X119373531Y-140442426D01*
X119338383Y-140461486D01*
X119307691Y-140487944D01*
X119282440Y-140520087D01*
X119263613Y-140556199D01*
X119252193Y-140594567D01*
X119249164Y-140633475D01*
X118884275Y-140633475D01*
X118894736Y-140609736D01*
X118926061Y-140557441D01*
X118964274Y-140507666D01*
X119008745Y-140461207D01*
X119058840Y-140418864D01*
X119113926Y-140381434D01*
X119173370Y-140349716D01*
X119236541Y-140324507D01*
X119254886Y-140318701D01*
X119291263Y-140310238D01*
X119332757Y-140304503D01*
X119376199Y-140301636D01*
X119418423Y-140301777D01*
G36*
X120678201Y-139129738D02*
X120698348Y-139131965D01*
X120715863Y-139135564D01*
X120731188Y-139141308D01*
X120744766Y-139149971D01*
X120757039Y-139162324D01*
X120768450Y-139179140D01*
X120779440Y-139201193D01*
X120790453Y-139229255D01*
X120801931Y-139264099D01*
X120814316Y-139306498D01*
X120828050Y-139357225D01*
X120843577Y-139417052D01*
X120844299Y-139419867D01*
X120861506Y-139492474D01*
X120875540Y-139564276D01*
X120886689Y-139637443D01*
X120895238Y-139714150D01*
X120901474Y-139796569D01*
X120905609Y-139884760D01*
X120906717Y-139918405D01*
X120907222Y-139944525D01*
X120906933Y-139965749D01*
X120905658Y-139984703D01*
X120903208Y-140004014D01*
X120899391Y-140026309D01*
X120894016Y-140054217D01*
X120892872Y-140060020D01*
X120876391Y-140138711D01*
X120858865Y-140213406D01*
X120840546Y-140283339D01*
X120821687Y-140347741D01*
X120802541Y-140405845D01*
X120783359Y-140456882D01*
X120764394Y-140500085D01*
X120745900Y-140534686D01*
X120728657Y-140559293D01*
X120717953Y-140572749D01*
X120703677Y-140591717D01*
X120687975Y-140613311D01*
X120677487Y-140628152D01*
X120651986Y-140662275D01*
X120628222Y-140689201D01*
X120606922Y-140708184D01*
X120589823Y-140718106D01*
X120577848Y-140720698D01*
X120560149Y-140722358D01*
X120545639Y-140722712D01*
X120529049Y-140721866D01*
X120513769Y-140719024D01*
X120496746Y-140713303D01*
X120474929Y-140703818D01*
X120465960Y-140699618D01*
X120443192Y-140687894D01*
X120421706Y-140675181D01*
X120404652Y-140663418D01*
X120398199Y-140657955D01*
X120375298Y-140629710D01*
X120355228Y-140591883D01*
X120337972Y-140544420D01*
X120323507Y-140487269D01*
X120314959Y-140441020D01*
X120312442Y-140423764D01*
X120310422Y-140405587D01*
X120308848Y-140385174D01*
X120307672Y-140361208D01*
X120306843Y-140332375D01*
X120306312Y-140297359D01*
X120306029Y-140254844D01*
X120305945Y-140203516D01*
X120305945Y-140202260D01*
X120306068Y-140145778D01*
X120306514Y-140097431D01*
X120307403Y-140055192D01*
X120308857Y-140017037D01*
X120310997Y-139980942D01*
X120313942Y-139944882D01*
X120317814Y-139906833D01*
X120322734Y-139864769D01*
X120328823Y-139816667D01*
X120329068Y-139814778D01*
X120338126Y-139757754D01*
X120350976Y-139695299D01*
X120367031Y-139629301D01*
X120385706Y-139561648D01*
X120406413Y-139494227D01*
X120428565Y-139428927D01*
X120451577Y-139367635D01*
X120474862Y-139312239D01*
X120497832Y-139264626D01*
X120503030Y-139254937D01*
X120530897Y-139210835D01*
X120561983Y-139173517D01*
X120562588Y-139172896D01*
X120585380Y-139151619D01*
X120606068Y-139137902D01*
X120627763Y-139130583D01*
X120653575Y-139128502D01*
X120678201Y-139129738D01*
X120678201Y-139129738D01*
G37*
X120678201Y-139129738D02*
X120698348Y-139131965D01*
X120715863Y-139135564D01*
X120731188Y-139141308D01*
X120744766Y-139149971D01*
X120757039Y-139162324D01*
X120768450Y-139179140D01*
X120779440Y-139201193D01*
X120790453Y-139229255D01*
X120801931Y-139264099D01*
X120814316Y-139306498D01*
X120828050Y-139357225D01*
X120843577Y-139417052D01*
X120844299Y-139419867D01*
X120861506Y-139492474D01*
X120875540Y-139564276D01*
X120886689Y-139637443D01*
X120895238Y-139714150D01*
X120901474Y-139796569D01*
X120905609Y-139884760D01*
X120906717Y-139918405D01*
X120907222Y-139944525D01*
X120906933Y-139965749D01*
X120905658Y-139984703D01*
X120903208Y-140004014D01*
X120899391Y-140026309D01*
X120894016Y-140054217D01*
X120892872Y-140060020D01*
X120876391Y-140138711D01*
X120858865Y-140213406D01*
X120840546Y-140283339D01*
X120821687Y-140347741D01*
X120802541Y-140405845D01*
X120783359Y-140456882D01*
X120764394Y-140500085D01*
X120745900Y-140534686D01*
X120728657Y-140559293D01*
X120717953Y-140572749D01*
X120703677Y-140591717D01*
X120687975Y-140613311D01*
X120677487Y-140628152D01*
X120651986Y-140662275D01*
X120628222Y-140689201D01*
X120606922Y-140708184D01*
X120589823Y-140718106D01*
X120577848Y-140720698D01*
X120560149Y-140722358D01*
X120545639Y-140722712D01*
X120529049Y-140721866D01*
X120513769Y-140719024D01*
X120496746Y-140713303D01*
X120474929Y-140703818D01*
X120465960Y-140699618D01*
X120443192Y-140687894D01*
X120421706Y-140675181D01*
X120404652Y-140663418D01*
X120398199Y-140657955D01*
X120375298Y-140629710D01*
X120355228Y-140591883D01*
X120337972Y-140544420D01*
X120323507Y-140487269D01*
X120314959Y-140441020D01*
X120312442Y-140423764D01*
X120310422Y-140405587D01*
X120308848Y-140385174D01*
X120307672Y-140361208D01*
X120306843Y-140332375D01*
X120306312Y-140297359D01*
X120306029Y-140254844D01*
X120305945Y-140203516D01*
X120305945Y-140202260D01*
X120306068Y-140145778D01*
X120306514Y-140097431D01*
X120307403Y-140055192D01*
X120308857Y-140017037D01*
X120310997Y-139980942D01*
X120313942Y-139944882D01*
X120317814Y-139906833D01*
X120322734Y-139864769D01*
X120328823Y-139816667D01*
X120329068Y-139814778D01*
X120338126Y-139757754D01*
X120350976Y-139695299D01*
X120367031Y-139629301D01*
X120385706Y-139561648D01*
X120406413Y-139494227D01*
X120428565Y-139428927D01*
X120451577Y-139367635D01*
X120474862Y-139312239D01*
X120497832Y-139264626D01*
X120503030Y-139254937D01*
X120530897Y-139210835D01*
X120561983Y-139173517D01*
X120562588Y-139172896D01*
X120585380Y-139151619D01*
X120606068Y-139137902D01*
X120627763Y-139130583D01*
X120653575Y-139128502D01*
X120678201Y-139129738D01*
G04 #@! TO.C,C7*
D10*
X195371332Y-135435972D02*
X195418951Y-135483591D01*
X195466570Y-135626448D01*
X195466570Y-135721686D01*
X195418951Y-135864544D01*
X195323713Y-135959782D01*
X195228475Y-136007401D01*
X195037999Y-136055020D01*
X194895142Y-136055020D01*
X194704666Y-136007401D01*
X194609428Y-135959782D01*
X194514190Y-135864544D01*
X194466570Y-135721686D01*
X194466570Y-135626448D01*
X194514190Y-135483591D01*
X194561809Y-135435972D01*
X194466570Y-135102639D02*
X194466570Y-134435972D01*
X195466570Y-134864544D01*
G04 #@! TO.C,U2*
D16*
X152210934Y-135798652D02*
X152210934Y-135948633D01*
X151895973Y-135948633D01*
X151895973Y-135738659D02*
X151895973Y-135558681D01*
X152210934Y-135648670D02*
X151895973Y-135648670D01*
X152180938Y-135273717D02*
X152195936Y-135288715D01*
X152210934Y-135333709D01*
X152210934Y-135363705D01*
X152195936Y-135408700D01*
X152165939Y-135438696D01*
X152135943Y-135453694D01*
X152075951Y-135468692D01*
X152030956Y-135468692D01*
X151970964Y-135453694D01*
X151940967Y-135438696D01*
X151910971Y-135408700D01*
X151895973Y-135363705D01*
X151895973Y-135333709D01*
X151910971Y-135288715D01*
X151925969Y-135273717D01*
X151925969Y-135153731D02*
X151910971Y-135138733D01*
X151895973Y-135108737D01*
X151895973Y-135033746D01*
X151910971Y-135003750D01*
X151925969Y-134988752D01*
X151955965Y-134973754D01*
X151985962Y-134973754D01*
X152030956Y-134988752D01*
X152210934Y-135168730D01*
X152210934Y-134973754D01*
X152030956Y-134793776D02*
X152015958Y-134823772D01*
X152000960Y-134838770D01*
X151970964Y-134853769D01*
X151955965Y-134853769D01*
X151925969Y-134838770D01*
X151910971Y-134823772D01*
X151895973Y-134793776D01*
X151895973Y-134733783D01*
X151910971Y-134703787D01*
X151925969Y-134688789D01*
X151955965Y-134673791D01*
X151970964Y-134673791D01*
X152000960Y-134688789D01*
X152015958Y-134703787D01*
X152030956Y-134733783D01*
X152030956Y-134793776D01*
X152045954Y-134823772D01*
X152060952Y-134838770D01*
X152090949Y-134853769D01*
X152150941Y-134853769D01*
X152180938Y-134838770D01*
X152195936Y-134823772D01*
X152210934Y-134793776D01*
X152210934Y-134733783D01*
X152195936Y-134703787D01*
X152180938Y-134688789D01*
X152150941Y-134673791D01*
X152090949Y-134673791D01*
X152060952Y-134688789D01*
X152045954Y-134703787D01*
X152030956Y-134733783D01*
X151895973Y-134388826D02*
X151895973Y-134538808D01*
X152045954Y-134553806D01*
X152030956Y-134538808D01*
X152015958Y-134508811D01*
X152015958Y-134433821D01*
X152030956Y-134403824D01*
X152045954Y-134388826D01*
X152075951Y-134373828D01*
X152150941Y-134373828D01*
X152180938Y-134388826D01*
X152195936Y-134403824D01*
X152210934Y-134433821D01*
X152210934Y-134508811D01*
X152195936Y-134538808D01*
X152180938Y-134553806D01*
X151895973Y-134088863D02*
X151895973Y-134238845D01*
X152045954Y-134253843D01*
X152030956Y-134238845D01*
X152015958Y-134208848D01*
X152015958Y-134133858D01*
X152030956Y-134103861D01*
X152045954Y-134088863D01*
X152075951Y-134073865D01*
X152150941Y-134073865D01*
X152180938Y-134088863D01*
X152195936Y-134103861D01*
X152210934Y-134133858D01*
X152210934Y-134208848D01*
X152195936Y-134238845D01*
X152180938Y-134253843D01*
X152180938Y-133758904D02*
X152195936Y-133773902D01*
X152210934Y-133818897D01*
X152210934Y-133848893D01*
X152195936Y-133893887D01*
X152165939Y-133923884D01*
X152135943Y-133938882D01*
X152075951Y-133953880D01*
X152030956Y-133953880D01*
X151970964Y-133938882D01*
X151940967Y-133923884D01*
X151910971Y-133893887D01*
X151895973Y-133848893D01*
X151895973Y-133818897D01*
X151910971Y-133773902D01*
X151925969Y-133758904D01*
X152210934Y-133623921D02*
X151895973Y-133623921D01*
X151895973Y-133548930D01*
X151910971Y-133503936D01*
X151940967Y-133473939D01*
X151970964Y-133458941D01*
X152030956Y-133443943D01*
X152075951Y-133443943D01*
X152135943Y-133458941D01*
X152165939Y-133473939D01*
X152195936Y-133503936D01*
X152210934Y-133548930D01*
X152210934Y-133623921D01*
X152045954Y-133308960D02*
X152045954Y-133203973D01*
X152210934Y-133158978D02*
X152210934Y-133308960D01*
X151895973Y-133308960D01*
X151895973Y-133158978D01*
X152210934Y-133023995D02*
X151895973Y-133023995D01*
X151895973Y-132904010D01*
X151910971Y-132874014D01*
X151925969Y-132859016D01*
X151955965Y-132844017D01*
X152000960Y-132844017D01*
X152030956Y-132859016D01*
X152045954Y-132874014D01*
X152060952Y-132904010D01*
X152060952Y-133023995D01*
X152045954Y-132604047D02*
X152060952Y-132559053D01*
X152075951Y-132544055D01*
X152105947Y-132529056D01*
X152150941Y-132529056D01*
X152180938Y-132544055D01*
X152195936Y-132559053D01*
X152210934Y-132589049D01*
X152210934Y-132709034D01*
X151895973Y-132709034D01*
X151895973Y-132604047D01*
X151910971Y-132574051D01*
X151925969Y-132559053D01*
X151955965Y-132544055D01*
X151985962Y-132544055D01*
X152015958Y-132559053D01*
X152030956Y-132574051D01*
X152045954Y-132604047D01*
X152045954Y-132709034D01*
X152045954Y-132289086D02*
X152045954Y-132394073D01*
X152210934Y-132394073D02*
X151895973Y-132394073D01*
X151895973Y-132244092D01*
G04 #@! TO.C,U3*
X163055490Y-135769568D02*
X163055490Y-135919549D01*
X162740529Y-135919549D01*
X162740529Y-135709575D02*
X162740529Y-135529597D01*
X163055490Y-135619586D02*
X162740529Y-135619586D01*
X163025494Y-135244633D02*
X163040492Y-135259631D01*
X163055490Y-135304625D01*
X163055490Y-135334621D01*
X163040492Y-135379616D01*
X163010495Y-135409612D01*
X162980499Y-135424610D01*
X162920507Y-135439608D01*
X162875512Y-135439608D01*
X162815520Y-135424610D01*
X162785523Y-135409612D01*
X162755527Y-135379616D01*
X162740529Y-135334621D01*
X162740529Y-135304625D01*
X162755527Y-135259631D01*
X162770525Y-135244633D01*
X162770525Y-135124647D02*
X162755527Y-135109649D01*
X162740529Y-135079653D01*
X162740529Y-135004662D01*
X162755527Y-134974666D01*
X162770525Y-134959668D01*
X162800521Y-134944670D01*
X162830518Y-134944670D01*
X162875512Y-134959668D01*
X163055490Y-135139646D01*
X163055490Y-134944670D01*
X162875512Y-134764692D02*
X162860514Y-134794688D01*
X162845516Y-134809686D01*
X162815520Y-134824685D01*
X162800521Y-134824685D01*
X162770525Y-134809686D01*
X162755527Y-134794688D01*
X162740529Y-134764692D01*
X162740529Y-134704699D01*
X162755527Y-134674703D01*
X162770525Y-134659705D01*
X162800521Y-134644707D01*
X162815520Y-134644707D01*
X162845516Y-134659705D01*
X162860514Y-134674703D01*
X162875512Y-134704699D01*
X162875512Y-134764692D01*
X162890510Y-134794688D01*
X162905508Y-134809686D01*
X162935505Y-134824685D01*
X162995497Y-134824685D01*
X163025494Y-134809686D01*
X163040492Y-134794688D01*
X163055490Y-134764692D01*
X163055490Y-134704699D01*
X163040492Y-134674703D01*
X163025494Y-134659705D01*
X162995497Y-134644707D01*
X162935505Y-134644707D01*
X162905508Y-134659705D01*
X162890510Y-134674703D01*
X162875512Y-134704699D01*
X162740529Y-134359742D02*
X162740529Y-134509724D01*
X162890510Y-134524722D01*
X162875512Y-134509724D01*
X162860514Y-134479727D01*
X162860514Y-134404737D01*
X162875512Y-134374740D01*
X162890510Y-134359742D01*
X162920507Y-134344744D01*
X162995497Y-134344744D01*
X163025494Y-134359742D01*
X163040492Y-134374740D01*
X163055490Y-134404737D01*
X163055490Y-134479727D01*
X163040492Y-134509724D01*
X163025494Y-134524722D01*
X162740529Y-134059779D02*
X162740529Y-134209761D01*
X162890510Y-134224759D01*
X162875512Y-134209761D01*
X162860514Y-134179764D01*
X162860514Y-134104774D01*
X162875512Y-134074777D01*
X162890510Y-134059779D01*
X162920507Y-134044781D01*
X162995497Y-134044781D01*
X163025494Y-134059779D01*
X163040492Y-134074777D01*
X163055490Y-134104774D01*
X163055490Y-134179764D01*
X163040492Y-134209761D01*
X163025494Y-134224759D01*
X163025494Y-133729820D02*
X163040492Y-133744818D01*
X163055490Y-133789813D01*
X163055490Y-133819809D01*
X163040492Y-133864803D01*
X163010495Y-133894800D01*
X162980499Y-133909798D01*
X162920507Y-133924796D01*
X162875512Y-133924796D01*
X162815520Y-133909798D01*
X162785523Y-133894800D01*
X162755527Y-133864803D01*
X162740529Y-133819809D01*
X162740529Y-133789813D01*
X162755527Y-133744818D01*
X162770525Y-133729820D01*
X163055490Y-133594837D02*
X162740529Y-133594837D01*
X162740529Y-133519846D01*
X162755527Y-133474852D01*
X162785523Y-133444855D01*
X162815520Y-133429857D01*
X162875512Y-133414859D01*
X162920507Y-133414859D01*
X162980499Y-133429857D01*
X163010495Y-133444855D01*
X163040492Y-133474852D01*
X163055490Y-133519846D01*
X163055490Y-133594837D01*
X162890510Y-133279876D02*
X162890510Y-133174889D01*
X163055490Y-133129894D02*
X163055490Y-133279876D01*
X162740529Y-133279876D01*
X162740529Y-133129894D01*
X163055490Y-132994911D02*
X162740529Y-132994911D01*
X162740529Y-132874926D01*
X162755527Y-132844930D01*
X162770525Y-132829932D01*
X162800521Y-132814933D01*
X162845516Y-132814933D01*
X162875512Y-132829932D01*
X162890510Y-132844930D01*
X162905508Y-132874926D01*
X162905508Y-132994911D01*
X162890510Y-132574963D02*
X162905508Y-132529969D01*
X162920507Y-132514971D01*
X162950503Y-132499972D01*
X162995497Y-132499972D01*
X163025494Y-132514971D01*
X163040492Y-132529969D01*
X163055490Y-132559965D01*
X163055490Y-132679950D01*
X162740529Y-132679950D01*
X162740529Y-132574963D01*
X162755527Y-132544967D01*
X162770525Y-132529969D01*
X162800521Y-132514971D01*
X162830518Y-132514971D01*
X162860514Y-132529969D01*
X162875512Y-132544967D01*
X162890510Y-132574963D01*
X162890510Y-132679950D01*
X162890510Y-132260002D02*
X162890510Y-132364989D01*
X163055490Y-132364989D02*
X162740529Y-132364989D01*
X162740529Y-132215008D01*
G04 #@! TO.C,U4*
X175140082Y-135733091D02*
X175140082Y-135883072D01*
X174825121Y-135883072D01*
X174825121Y-135673098D02*
X174825121Y-135493120D01*
X175140082Y-135583109D02*
X174825121Y-135583109D01*
X175110086Y-135208156D02*
X175125084Y-135223154D01*
X175140082Y-135268148D01*
X175140082Y-135298144D01*
X175125084Y-135343139D01*
X175095087Y-135373135D01*
X175065091Y-135388133D01*
X175005099Y-135403131D01*
X174960104Y-135403131D01*
X174900112Y-135388133D01*
X174870115Y-135373135D01*
X174840119Y-135343139D01*
X174825121Y-135298144D01*
X174825121Y-135268148D01*
X174840119Y-135223154D01*
X174855117Y-135208156D01*
X174855117Y-135088170D02*
X174840119Y-135073172D01*
X174825121Y-135043176D01*
X174825121Y-134968185D01*
X174840119Y-134938189D01*
X174855117Y-134923191D01*
X174885113Y-134908193D01*
X174915110Y-134908193D01*
X174960104Y-134923191D01*
X175140082Y-135103169D01*
X175140082Y-134908193D01*
X174960104Y-134728215D02*
X174945106Y-134758211D01*
X174930108Y-134773209D01*
X174900112Y-134788208D01*
X174885113Y-134788208D01*
X174855117Y-134773209D01*
X174840119Y-134758211D01*
X174825121Y-134728215D01*
X174825121Y-134668222D01*
X174840119Y-134638226D01*
X174855117Y-134623228D01*
X174885113Y-134608230D01*
X174900112Y-134608230D01*
X174930108Y-134623228D01*
X174945106Y-134638226D01*
X174960104Y-134668222D01*
X174960104Y-134728215D01*
X174975102Y-134758211D01*
X174990100Y-134773209D01*
X175020097Y-134788208D01*
X175080089Y-134788208D01*
X175110086Y-134773209D01*
X175125084Y-134758211D01*
X175140082Y-134728215D01*
X175140082Y-134668222D01*
X175125084Y-134638226D01*
X175110086Y-134623228D01*
X175080089Y-134608230D01*
X175020097Y-134608230D01*
X174990100Y-134623228D01*
X174975102Y-134638226D01*
X174960104Y-134668222D01*
X174825121Y-134323265D02*
X174825121Y-134473247D01*
X174975102Y-134488245D01*
X174960104Y-134473247D01*
X174945106Y-134443250D01*
X174945106Y-134368260D01*
X174960104Y-134338263D01*
X174975102Y-134323265D01*
X175005099Y-134308267D01*
X175080089Y-134308267D01*
X175110086Y-134323265D01*
X175125084Y-134338263D01*
X175140082Y-134368260D01*
X175140082Y-134443250D01*
X175125084Y-134473247D01*
X175110086Y-134488245D01*
X174825121Y-134023302D02*
X174825121Y-134173284D01*
X174975102Y-134188282D01*
X174960104Y-134173284D01*
X174945106Y-134143287D01*
X174945106Y-134068297D01*
X174960104Y-134038300D01*
X174975102Y-134023302D01*
X175005099Y-134008304D01*
X175080089Y-134008304D01*
X175110086Y-134023302D01*
X175125084Y-134038300D01*
X175140082Y-134068297D01*
X175140082Y-134143287D01*
X175125084Y-134173284D01*
X175110086Y-134188282D01*
X175110086Y-133693343D02*
X175125084Y-133708341D01*
X175140082Y-133753336D01*
X175140082Y-133783332D01*
X175125084Y-133828326D01*
X175095087Y-133858323D01*
X175065091Y-133873321D01*
X175005099Y-133888319D01*
X174960104Y-133888319D01*
X174900112Y-133873321D01*
X174870115Y-133858323D01*
X174840119Y-133828326D01*
X174825121Y-133783332D01*
X174825121Y-133753336D01*
X174840119Y-133708341D01*
X174855117Y-133693343D01*
X175140082Y-133558360D02*
X174825121Y-133558360D01*
X174825121Y-133483369D01*
X174840119Y-133438375D01*
X174870115Y-133408378D01*
X174900112Y-133393380D01*
X174960104Y-133378382D01*
X175005099Y-133378382D01*
X175065091Y-133393380D01*
X175095087Y-133408378D01*
X175125084Y-133438375D01*
X175140082Y-133483369D01*
X175140082Y-133558360D01*
X174975102Y-133243399D02*
X174975102Y-133138412D01*
X175140082Y-133093417D02*
X175140082Y-133243399D01*
X174825121Y-133243399D01*
X174825121Y-133093417D01*
X175140082Y-132958434D02*
X174825121Y-132958434D01*
X174825121Y-132838449D01*
X174840119Y-132808453D01*
X174855117Y-132793455D01*
X174885113Y-132778456D01*
X174930108Y-132778456D01*
X174960104Y-132793455D01*
X174975102Y-132808453D01*
X174990100Y-132838449D01*
X174990100Y-132958434D01*
X174975102Y-132538486D02*
X174990100Y-132493492D01*
X175005099Y-132478494D01*
X175035095Y-132463495D01*
X175080089Y-132463495D01*
X175110086Y-132478494D01*
X175125084Y-132493492D01*
X175140082Y-132523488D01*
X175140082Y-132643473D01*
X174825121Y-132643473D01*
X174825121Y-132538486D01*
X174840119Y-132508490D01*
X174855117Y-132493492D01*
X174885113Y-132478494D01*
X174915110Y-132478494D01*
X174945106Y-132493492D01*
X174960104Y-132508490D01*
X174975102Y-132538486D01*
X174975102Y-132643473D01*
X174975102Y-132223525D02*
X174975102Y-132328512D01*
X175140082Y-132328512D02*
X174825121Y-132328512D01*
X174825121Y-132178531D01*
G04 #@! TO.C,U5*
X195314111Y-134455076D02*
X195569079Y-134455076D01*
X195599076Y-134440078D01*
X195614074Y-134425080D01*
X195629072Y-134395083D01*
X195629072Y-134335091D01*
X195614074Y-134305094D01*
X195599076Y-134290096D01*
X195569079Y-134275098D01*
X195314111Y-134275098D01*
X195314111Y-133975135D02*
X195314111Y-134125117D01*
X195464092Y-134140115D01*
X195449094Y-134125117D01*
X195434096Y-134095120D01*
X195434096Y-134020130D01*
X195449094Y-133990133D01*
X195464092Y-133975135D01*
X195494089Y-133960137D01*
X195569079Y-133960137D01*
X195599076Y-133975135D01*
X195614074Y-133990133D01*
X195629072Y-134020130D01*
X195629072Y-134095120D01*
X195614074Y-134125117D01*
X195599076Y-134140115D01*
X191024272Y-136102397D02*
X191024272Y-136252378D01*
X190709311Y-136252378D01*
X190709311Y-136042404D02*
X190709311Y-135862426D01*
X191024272Y-135952415D02*
X190709311Y-135952415D01*
X190994276Y-135577462D02*
X191009274Y-135592460D01*
X191024272Y-135637454D01*
X191024272Y-135667450D01*
X191009274Y-135712445D01*
X190979277Y-135742441D01*
X190949281Y-135757439D01*
X190889289Y-135772437D01*
X190844294Y-135772437D01*
X190784302Y-135757439D01*
X190754305Y-135742441D01*
X190724309Y-135712445D01*
X190709311Y-135667450D01*
X190709311Y-135637454D01*
X190724309Y-135592460D01*
X190739307Y-135577462D01*
X190739307Y-135457476D02*
X190724309Y-135442478D01*
X190709311Y-135412482D01*
X190709311Y-135337491D01*
X190724309Y-135307495D01*
X190739307Y-135292497D01*
X190769303Y-135277499D01*
X190799300Y-135277499D01*
X190844294Y-135292497D01*
X191024272Y-135472475D01*
X191024272Y-135277499D01*
X190844294Y-135097521D02*
X190829296Y-135127517D01*
X190814298Y-135142515D01*
X190784302Y-135157514D01*
X190769303Y-135157514D01*
X190739307Y-135142515D01*
X190724309Y-135127517D01*
X190709311Y-135097521D01*
X190709311Y-135037528D01*
X190724309Y-135007532D01*
X190739307Y-134992534D01*
X190769303Y-134977536D01*
X190784302Y-134977536D01*
X190814298Y-134992534D01*
X190829296Y-135007532D01*
X190844294Y-135037528D01*
X190844294Y-135097521D01*
X190859292Y-135127517D01*
X190874290Y-135142515D01*
X190904287Y-135157514D01*
X190964279Y-135157514D01*
X190994276Y-135142515D01*
X191009274Y-135127517D01*
X191024272Y-135097521D01*
X191024272Y-135037528D01*
X191009274Y-135007532D01*
X190994276Y-134992534D01*
X190964279Y-134977536D01*
X190904287Y-134977536D01*
X190874290Y-134992534D01*
X190859292Y-135007532D01*
X190844294Y-135037528D01*
X190709311Y-134692571D02*
X190709311Y-134842553D01*
X190859292Y-134857551D01*
X190844294Y-134842553D01*
X190829296Y-134812556D01*
X190829296Y-134737566D01*
X190844294Y-134707569D01*
X190859292Y-134692571D01*
X190889289Y-134677573D01*
X190964279Y-134677573D01*
X190994276Y-134692571D01*
X191009274Y-134707569D01*
X191024272Y-134737566D01*
X191024272Y-134812556D01*
X191009274Y-134842553D01*
X190994276Y-134857551D01*
X190709311Y-134392608D02*
X190709311Y-134542590D01*
X190859292Y-134557588D01*
X190844294Y-134542590D01*
X190829296Y-134512593D01*
X190829296Y-134437603D01*
X190844294Y-134407606D01*
X190859292Y-134392608D01*
X190889289Y-134377610D01*
X190964279Y-134377610D01*
X190994276Y-134392608D01*
X191009274Y-134407606D01*
X191024272Y-134437603D01*
X191024272Y-134512593D01*
X191009274Y-134542590D01*
X190994276Y-134557588D01*
X190994276Y-134062649D02*
X191009274Y-134077647D01*
X191024272Y-134122642D01*
X191024272Y-134152638D01*
X191009274Y-134197632D01*
X190979277Y-134227629D01*
X190949281Y-134242627D01*
X190889289Y-134257625D01*
X190844294Y-134257625D01*
X190784302Y-134242627D01*
X190754305Y-134227629D01*
X190724309Y-134197632D01*
X190709311Y-134152638D01*
X190709311Y-134122642D01*
X190724309Y-134077647D01*
X190739307Y-134062649D01*
X191024272Y-133927666D02*
X190709311Y-133927666D01*
X190709311Y-133852675D01*
X190724309Y-133807681D01*
X190754305Y-133777684D01*
X190784302Y-133762686D01*
X190844294Y-133747688D01*
X190889289Y-133747688D01*
X190949281Y-133762686D01*
X190979277Y-133777684D01*
X191009274Y-133807681D01*
X191024272Y-133852675D01*
X191024272Y-133927666D01*
X190859292Y-133612705D02*
X190859292Y-133507718D01*
X191024272Y-133462723D02*
X191024272Y-133612705D01*
X190709311Y-133612705D01*
X190709311Y-133462723D01*
X191024272Y-133327740D02*
X190709311Y-133327740D01*
X190709311Y-133207755D01*
X190724309Y-133177759D01*
X190739307Y-133162761D01*
X190769303Y-133147762D01*
X190814298Y-133147762D01*
X190844294Y-133162761D01*
X190859292Y-133177759D01*
X190874290Y-133207755D01*
X190874290Y-133327740D01*
X190859292Y-132907792D02*
X190874290Y-132862798D01*
X190889289Y-132847800D01*
X190919285Y-132832801D01*
X190964279Y-132832801D01*
X190994276Y-132847800D01*
X191009274Y-132862798D01*
X191024272Y-132892794D01*
X191024272Y-133012779D01*
X190709311Y-133012779D01*
X190709311Y-132907792D01*
X190724309Y-132877796D01*
X190739307Y-132862798D01*
X190769303Y-132847800D01*
X190799300Y-132847800D01*
X190829296Y-132862798D01*
X190844294Y-132877796D01*
X190859292Y-132907792D01*
X190859292Y-133012779D01*
X190859292Y-132592831D02*
X190859292Y-132697818D01*
X191024272Y-132697818D02*
X190709311Y-132697818D01*
X190709311Y-132547837D01*
G04 #@! TO.C,U6*
X192157814Y-131325692D02*
X192007833Y-131325692D01*
X192007833Y-131010731D01*
X192217807Y-131010731D02*
X192397785Y-131010731D01*
X192307796Y-131325692D02*
X192307796Y-131010731D01*
X192682749Y-131295696D02*
X192667751Y-131310694D01*
X192622757Y-131325692D01*
X192592761Y-131325692D01*
X192547766Y-131310694D01*
X192517770Y-131280697D01*
X192502772Y-131250701D01*
X192487774Y-131190709D01*
X192487774Y-131145714D01*
X192502772Y-131085722D01*
X192517770Y-131055725D01*
X192547766Y-131025729D01*
X192592761Y-131010731D01*
X192622757Y-131010731D01*
X192667751Y-131025729D01*
X192682749Y-131040727D01*
X192802735Y-131040727D02*
X192817733Y-131025729D01*
X192847729Y-131010731D01*
X192922720Y-131010731D01*
X192952716Y-131025729D01*
X192967714Y-131040727D01*
X192982712Y-131070723D01*
X192982712Y-131100720D01*
X192967714Y-131145714D01*
X192787736Y-131325692D01*
X192982712Y-131325692D01*
X193162690Y-131145714D02*
X193132694Y-131130716D01*
X193117696Y-131115718D01*
X193102697Y-131085722D01*
X193102697Y-131070723D01*
X193117696Y-131040727D01*
X193132694Y-131025729D01*
X193162690Y-131010731D01*
X193222683Y-131010731D01*
X193252679Y-131025729D01*
X193267677Y-131040727D01*
X193282675Y-131070723D01*
X193282675Y-131085722D01*
X193267677Y-131115718D01*
X193252679Y-131130716D01*
X193222683Y-131145714D01*
X193162690Y-131145714D01*
X193132694Y-131160712D01*
X193117696Y-131175710D01*
X193102697Y-131205707D01*
X193102697Y-131265699D01*
X193117696Y-131295696D01*
X193132694Y-131310694D01*
X193162690Y-131325692D01*
X193222683Y-131325692D01*
X193252679Y-131310694D01*
X193267677Y-131295696D01*
X193282675Y-131265699D01*
X193282675Y-131205707D01*
X193267677Y-131175710D01*
X193252679Y-131160712D01*
X193222683Y-131145714D01*
X193567640Y-131010731D02*
X193417658Y-131010731D01*
X193402660Y-131160712D01*
X193417658Y-131145714D01*
X193447655Y-131130716D01*
X193522645Y-131130716D01*
X193552642Y-131145714D01*
X193567640Y-131160712D01*
X193582638Y-131190709D01*
X193582638Y-131265699D01*
X193567640Y-131295696D01*
X193552642Y-131310694D01*
X193522645Y-131325692D01*
X193447655Y-131325692D01*
X193417658Y-131310694D01*
X193402660Y-131295696D01*
X193867603Y-131010731D02*
X193717621Y-131010731D01*
X193702623Y-131160712D01*
X193717621Y-131145714D01*
X193747618Y-131130716D01*
X193822608Y-131130716D01*
X193852605Y-131145714D01*
X193867603Y-131160712D01*
X193882601Y-131190709D01*
X193882601Y-131265699D01*
X193867603Y-131295696D01*
X193852605Y-131310694D01*
X193822608Y-131325692D01*
X193747618Y-131325692D01*
X193717621Y-131310694D01*
X193702623Y-131295696D01*
X194197562Y-131295696D02*
X194182564Y-131310694D01*
X194137569Y-131325692D01*
X194107573Y-131325692D01*
X194062579Y-131310694D01*
X194032582Y-131280697D01*
X194017584Y-131250701D01*
X194002586Y-131190709D01*
X194002586Y-131145714D01*
X194017584Y-131085722D01*
X194032582Y-131055725D01*
X194062579Y-131025729D01*
X194107573Y-131010731D01*
X194137569Y-131010731D01*
X194182564Y-131025729D01*
X194197562Y-131040727D01*
X194332545Y-131325692D02*
X194332545Y-131010731D01*
X194407536Y-131010731D01*
X194452530Y-131025729D01*
X194482527Y-131055725D01*
X194497525Y-131085722D01*
X194512523Y-131145714D01*
X194512523Y-131190709D01*
X194497525Y-131250701D01*
X194482527Y-131280697D01*
X194452530Y-131310694D01*
X194407536Y-131325692D01*
X194332545Y-131325692D01*
X194647506Y-131160712D02*
X194752493Y-131160712D01*
X194797488Y-131325692D02*
X194647506Y-131325692D01*
X194647506Y-131010731D01*
X194797488Y-131010731D01*
X194932471Y-131325692D02*
X194932471Y-131010731D01*
X195052456Y-131010731D01*
X195082452Y-131025729D01*
X195097450Y-131040727D01*
X195112449Y-131070723D01*
X195112449Y-131115718D01*
X195097450Y-131145714D01*
X195082452Y-131160712D01*
X195052456Y-131175710D01*
X194932471Y-131175710D01*
X195352419Y-131160712D02*
X195397413Y-131175710D01*
X195412411Y-131190709D01*
X195427410Y-131220705D01*
X195427410Y-131265699D01*
X195412411Y-131295696D01*
X195397413Y-131310694D01*
X195367417Y-131325692D01*
X195247432Y-131325692D01*
X195247432Y-131010731D01*
X195352419Y-131010731D01*
X195382415Y-131025729D01*
X195397413Y-131040727D01*
X195412411Y-131070723D01*
X195412411Y-131100720D01*
X195397413Y-131130716D01*
X195382415Y-131145714D01*
X195352419Y-131160712D01*
X195247432Y-131160712D01*
X195667380Y-131160712D02*
X195562393Y-131160712D01*
X195562393Y-131325692D02*
X195562393Y-131010731D01*
X195712374Y-131010731D01*
G04 #@! TO.C,U7*
X193477814Y-125610692D02*
X193327833Y-125610692D01*
X193327833Y-125295731D01*
X193537807Y-125295731D02*
X193717785Y-125295731D01*
X193627796Y-125610692D02*
X193627796Y-125295731D01*
X194002749Y-125580696D02*
X193987751Y-125595694D01*
X193942757Y-125610692D01*
X193912761Y-125610692D01*
X193867766Y-125595694D01*
X193837770Y-125565697D01*
X193822772Y-125535701D01*
X193807774Y-125475709D01*
X193807774Y-125430714D01*
X193822772Y-125370722D01*
X193837770Y-125340725D01*
X193867766Y-125310729D01*
X193912761Y-125295731D01*
X193942757Y-125295731D01*
X193987751Y-125310729D01*
X194002749Y-125325727D01*
X194122735Y-125325727D02*
X194137733Y-125310729D01*
X194167729Y-125295731D01*
X194242720Y-125295731D01*
X194272716Y-125310729D01*
X194287714Y-125325727D01*
X194302712Y-125355723D01*
X194302712Y-125385720D01*
X194287714Y-125430714D01*
X194107736Y-125610692D01*
X194302712Y-125610692D01*
X194482690Y-125430714D02*
X194452694Y-125415716D01*
X194437696Y-125400718D01*
X194422697Y-125370722D01*
X194422697Y-125355723D01*
X194437696Y-125325727D01*
X194452694Y-125310729D01*
X194482690Y-125295731D01*
X194542683Y-125295731D01*
X194572679Y-125310729D01*
X194587677Y-125325727D01*
X194602675Y-125355723D01*
X194602675Y-125370722D01*
X194587677Y-125400718D01*
X194572679Y-125415716D01*
X194542683Y-125430714D01*
X194482690Y-125430714D01*
X194452694Y-125445712D01*
X194437696Y-125460710D01*
X194422697Y-125490707D01*
X194422697Y-125550699D01*
X194437696Y-125580696D01*
X194452694Y-125595694D01*
X194482690Y-125610692D01*
X194542683Y-125610692D01*
X194572679Y-125595694D01*
X194587677Y-125580696D01*
X194602675Y-125550699D01*
X194602675Y-125490707D01*
X194587677Y-125460710D01*
X194572679Y-125445712D01*
X194542683Y-125430714D01*
X194887640Y-125295731D02*
X194737658Y-125295731D01*
X194722660Y-125445712D01*
X194737658Y-125430714D01*
X194767655Y-125415716D01*
X194842645Y-125415716D01*
X194872642Y-125430714D01*
X194887640Y-125445712D01*
X194902638Y-125475709D01*
X194902638Y-125550699D01*
X194887640Y-125580696D01*
X194872642Y-125595694D01*
X194842645Y-125610692D01*
X194767655Y-125610692D01*
X194737658Y-125595694D01*
X194722660Y-125580696D01*
X195187603Y-125295731D02*
X195037621Y-125295731D01*
X195022623Y-125445712D01*
X195037621Y-125430714D01*
X195067618Y-125415716D01*
X195142608Y-125415716D01*
X195172605Y-125430714D01*
X195187603Y-125445712D01*
X195202601Y-125475709D01*
X195202601Y-125550699D01*
X195187603Y-125580696D01*
X195172605Y-125595694D01*
X195142608Y-125610692D01*
X195067618Y-125610692D01*
X195037621Y-125595694D01*
X195022623Y-125580696D01*
X195517562Y-125580696D02*
X195502564Y-125595694D01*
X195457569Y-125610692D01*
X195427573Y-125610692D01*
X195382579Y-125595694D01*
X195352582Y-125565697D01*
X195337584Y-125535701D01*
X195322586Y-125475709D01*
X195322586Y-125430714D01*
X195337584Y-125370722D01*
X195352582Y-125340725D01*
X195382579Y-125310729D01*
X195427573Y-125295731D01*
X195457569Y-125295731D01*
X195502564Y-125310729D01*
X195517562Y-125325727D01*
X195652545Y-125610692D02*
X195652545Y-125295731D01*
X195727536Y-125295731D01*
X195772530Y-125310729D01*
X195802527Y-125340725D01*
X195817525Y-125370722D01*
X195832523Y-125430714D01*
X195832523Y-125475709D01*
X195817525Y-125535701D01*
X195802527Y-125565697D01*
X195772530Y-125595694D01*
X195727536Y-125610692D01*
X195652545Y-125610692D01*
X195967506Y-125445712D02*
X196072493Y-125445712D01*
X196117488Y-125610692D02*
X195967506Y-125610692D01*
X195967506Y-125295731D01*
X196117488Y-125295731D01*
X196252471Y-125610692D02*
X196252471Y-125295731D01*
X196372456Y-125295731D01*
X196402452Y-125310729D01*
X196417450Y-125325727D01*
X196432449Y-125355723D01*
X196432449Y-125400718D01*
X196417450Y-125430714D01*
X196402452Y-125445712D01*
X196372456Y-125460710D01*
X196252471Y-125460710D01*
X196672419Y-125445712D02*
X196717413Y-125460710D01*
X196732411Y-125475709D01*
X196747410Y-125505705D01*
X196747410Y-125550699D01*
X196732411Y-125580696D01*
X196717413Y-125595694D01*
X196687417Y-125610692D01*
X196567432Y-125610692D01*
X196567432Y-125295731D01*
X196672419Y-125295731D01*
X196702415Y-125310729D01*
X196717413Y-125325727D01*
X196732411Y-125355723D01*
X196732411Y-125385720D01*
X196717413Y-125415716D01*
X196702415Y-125430714D01*
X196672419Y-125445712D01*
X196567432Y-125445712D01*
X196987380Y-125445712D02*
X196882393Y-125445712D01*
X196882393Y-125610692D02*
X196882393Y-125295731D01*
X197032374Y-125295731D01*
G04 #@! TO.C,U8*
X193208508Y-119444882D02*
X193058527Y-119444882D01*
X193058527Y-119129921D01*
X193268501Y-119129921D02*
X193448479Y-119129921D01*
X193358490Y-119444882D02*
X193358490Y-119129921D01*
X193733443Y-119414886D02*
X193718445Y-119429884D01*
X193673451Y-119444882D01*
X193643455Y-119444882D01*
X193598460Y-119429884D01*
X193568464Y-119399887D01*
X193553466Y-119369891D01*
X193538468Y-119309899D01*
X193538468Y-119264904D01*
X193553466Y-119204912D01*
X193568464Y-119174915D01*
X193598460Y-119144919D01*
X193643455Y-119129921D01*
X193673451Y-119129921D01*
X193718445Y-119144919D01*
X193733443Y-119159917D01*
X193853429Y-119159917D02*
X193868427Y-119144919D01*
X193898423Y-119129921D01*
X193973414Y-119129921D01*
X194003410Y-119144919D01*
X194018408Y-119159917D01*
X194033406Y-119189913D01*
X194033406Y-119219910D01*
X194018408Y-119264904D01*
X193838430Y-119444882D01*
X194033406Y-119444882D01*
X194213384Y-119264904D02*
X194183388Y-119249906D01*
X194168390Y-119234908D01*
X194153391Y-119204912D01*
X194153391Y-119189913D01*
X194168390Y-119159917D01*
X194183388Y-119144919D01*
X194213384Y-119129921D01*
X194273377Y-119129921D01*
X194303373Y-119144919D01*
X194318371Y-119159917D01*
X194333369Y-119189913D01*
X194333369Y-119204912D01*
X194318371Y-119234908D01*
X194303373Y-119249906D01*
X194273377Y-119264904D01*
X194213384Y-119264904D01*
X194183388Y-119279902D01*
X194168390Y-119294900D01*
X194153391Y-119324897D01*
X194153391Y-119384889D01*
X194168390Y-119414886D01*
X194183388Y-119429884D01*
X194213384Y-119444882D01*
X194273377Y-119444882D01*
X194303373Y-119429884D01*
X194318371Y-119414886D01*
X194333369Y-119384889D01*
X194333369Y-119324897D01*
X194318371Y-119294900D01*
X194303373Y-119279902D01*
X194273377Y-119264904D01*
X194618334Y-119129921D02*
X194468352Y-119129921D01*
X194453354Y-119279902D01*
X194468352Y-119264904D01*
X194498349Y-119249906D01*
X194573339Y-119249906D01*
X194603336Y-119264904D01*
X194618334Y-119279902D01*
X194633332Y-119309899D01*
X194633332Y-119384889D01*
X194618334Y-119414886D01*
X194603336Y-119429884D01*
X194573339Y-119444882D01*
X194498349Y-119444882D01*
X194468352Y-119429884D01*
X194453354Y-119414886D01*
X194918297Y-119129921D02*
X194768315Y-119129921D01*
X194753317Y-119279902D01*
X194768315Y-119264904D01*
X194798312Y-119249906D01*
X194873302Y-119249906D01*
X194903299Y-119264904D01*
X194918297Y-119279902D01*
X194933295Y-119309899D01*
X194933295Y-119384889D01*
X194918297Y-119414886D01*
X194903299Y-119429884D01*
X194873302Y-119444882D01*
X194798312Y-119444882D01*
X194768315Y-119429884D01*
X194753317Y-119414886D01*
X195248256Y-119414886D02*
X195233258Y-119429884D01*
X195188263Y-119444882D01*
X195158267Y-119444882D01*
X195113273Y-119429884D01*
X195083276Y-119399887D01*
X195068278Y-119369891D01*
X195053280Y-119309899D01*
X195053280Y-119264904D01*
X195068278Y-119204912D01*
X195083276Y-119174915D01*
X195113273Y-119144919D01*
X195158267Y-119129921D01*
X195188263Y-119129921D01*
X195233258Y-119144919D01*
X195248256Y-119159917D01*
X195383239Y-119444882D02*
X195383239Y-119129921D01*
X195458230Y-119129921D01*
X195503224Y-119144919D01*
X195533221Y-119174915D01*
X195548219Y-119204912D01*
X195563217Y-119264904D01*
X195563217Y-119309899D01*
X195548219Y-119369891D01*
X195533221Y-119399887D01*
X195503224Y-119429884D01*
X195458230Y-119444882D01*
X195383239Y-119444882D01*
X195698200Y-119279902D02*
X195803187Y-119279902D01*
X195848182Y-119444882D02*
X195698200Y-119444882D01*
X195698200Y-119129921D01*
X195848182Y-119129921D01*
X195983165Y-119444882D02*
X195983165Y-119129921D01*
X196103150Y-119129921D01*
X196133146Y-119144919D01*
X196148144Y-119159917D01*
X196163143Y-119189913D01*
X196163143Y-119234908D01*
X196148144Y-119264904D01*
X196133146Y-119279902D01*
X196103150Y-119294900D01*
X195983165Y-119294900D01*
X196403113Y-119279902D02*
X196448107Y-119294900D01*
X196463105Y-119309899D01*
X196478104Y-119339895D01*
X196478104Y-119384889D01*
X196463105Y-119414886D01*
X196448107Y-119429884D01*
X196418111Y-119444882D01*
X196298126Y-119444882D01*
X196298126Y-119129921D01*
X196403113Y-119129921D01*
X196433109Y-119144919D01*
X196448107Y-119159917D01*
X196463105Y-119189913D01*
X196463105Y-119219910D01*
X196448107Y-119249906D01*
X196433109Y-119264904D01*
X196403113Y-119279902D01*
X196298126Y-119279902D01*
X196718074Y-119279902D02*
X196613087Y-119279902D01*
X196613087Y-119444882D02*
X196613087Y-119129921D01*
X196763068Y-119129921D01*
G04 #@! TD*
M02*
