G04 #@! TF.GenerationSoftware,KiCad,Pcbnew,5.0.2-bee76a0~70~ubuntu18.04.1*
G04 #@! TF.CreationDate,2019-09-26T00:30:11+02:00*
G04 #@! TF.ProjectId,myo_shield_pcb,6d796f5f-7368-4696-956c-645f7063622e,rev?*
G04 #@! TF.SameCoordinates,Original*
G04 #@! TF.FileFunction,Copper,L2,Bot*
G04 #@! TF.FilePolarity,Positive*
%FSLAX46Y46*%
G04 Gerber Fmt 4.6, Leading zero omitted, Abs format (unit mm)*
G04 Created by KiCad (PCBNEW 5.0.2-bee76a0~70~ubuntu18.04.1) date Do 26 Sep 2019 00:30:11 CEST*
%MOMM*%
%LPD*%
G01*
G04 APERTURE LIST*
G04 #@! TA.AperFunction,ComponentPad*
%ADD10C,1.800000*%
G04 #@! TD*
G04 #@! TA.AperFunction,ComponentPad*
%ADD11R,1.800000X1.800000*%
G04 #@! TD*
G04 #@! TA.AperFunction,ComponentPad*
%ADD12R,1.700000X1.700000*%
G04 #@! TD*
G04 #@! TA.AperFunction,ComponentPad*
%ADD13O,1.700000X1.700000*%
G04 #@! TD*
G04 #@! TA.AperFunction,ViaPad*
%ADD14C,0.800000*%
G04 #@! TD*
G04 #@! TA.AperFunction,Conductor*
%ADD15C,0.250000*%
G04 #@! TD*
G04 #@! TA.AperFunction,Conductor*
%ADD16C,0.300000*%
G04 #@! TD*
G04 #@! TA.AperFunction,Conductor*
%ADD17C,0.254000*%
G04 #@! TD*
G04 APERTURE END LIST*
D10*
G04 #@! TO.P,J20,4*
G04 #@! TO.N,/icebus0_h_Tx*
X142140000Y-142140000D03*
G04 #@! TO.P,J20,3*
G04 #@! TO.N,/icebus0_l_Tx*
X143410000Y-139600000D03*
G04 #@! TO.P,J20,2*
G04 #@! TO.N,/icebus0_h_Rx*
X144680000Y-142140000D03*
D11*
G04 #@! TO.P,J20,1*
G04 #@! TO.N,/icebus0_l_Rx*
X145950000Y-139600000D03*
D10*
G04 #@! TO.P,J20,5*
G04 #@! TO.N,GND*
X140870000Y-139600000D03*
G04 #@! TO.P,J20,6*
X139600000Y-142140000D03*
G04 #@! TD*
G04 #@! TO.P,J16,4*
G04 #@! TO.N,/SDA_0_AUXILIARY*
X120155000Y-78980000D03*
G04 #@! TO.P,J16,3*
G04 #@! TO.N,/SCL_0_AUXILIARY*
X118885000Y-81520000D03*
G04 #@! TO.P,J16,2*
G04 #@! TO.N,Net-(J16-Pad2)*
X117615000Y-78980000D03*
D11*
G04 #@! TO.P,J16,1*
G04 #@! TO.N,GND*
X116345000Y-81520000D03*
G04 #@! TD*
G04 #@! TO.P,J17,1*
G04 #@! TO.N,GND*
X133845000Y-81520000D03*
D10*
G04 #@! TO.P,J17,2*
G04 #@! TO.N,Net-(J16-Pad2)*
X135115000Y-78980000D03*
G04 #@! TO.P,J17,3*
G04 #@! TO.N,/SCL_2_AUXILIARY*
X136385000Y-81520000D03*
G04 #@! TO.P,J17,4*
G04 #@! TO.N,/SDA_2_AUXILIARY*
X137655000Y-78980000D03*
G04 #@! TD*
G04 #@! TO.P,J18,4*
G04 #@! TO.N,/SDA_1_AUXILIARY*
X128905000Y-78980000D03*
G04 #@! TO.P,J18,3*
G04 #@! TO.N,/SCL_1_AUXILIARY*
X127635000Y-81520000D03*
G04 #@! TO.P,J18,2*
G04 #@! TO.N,Net-(J16-Pad2)*
X126365000Y-78980000D03*
D11*
G04 #@! TO.P,J18,1*
G04 #@! TO.N,GND*
X125095000Y-81520000D03*
G04 #@! TD*
D12*
G04 #@! TO.P,J19,1*
G04 #@! TO.N,GND*
X168600000Y-81600000D03*
D13*
G04 #@! TO.P,J19,2*
G04 #@! TO.N,+5V*
X168600000Y-79060000D03*
G04 #@! TD*
G04 #@! TO.P,J3,40*
G04 #@! TO.N,/icebus3_rx*
X188090000Y-135050000D03*
G04 #@! TO.P,J3,39*
G04 #@! TO.N,/icebus3_tx*
X185550000Y-135050000D03*
G04 #@! TO.P,J3,38*
G04 #@! TO.N,/icebus4_rx*
X188090000Y-132510000D03*
G04 #@! TO.P,J3,37*
G04 #@! TO.N,/icebus4_tx*
X185550000Y-132510000D03*
G04 #@! TO.P,J3,36*
G04 #@! TO.N,/icebus5_rx*
X188090000Y-129970000D03*
G04 #@! TO.P,J3,35*
G04 #@! TO.N,/icebus5_tx*
X185550000Y-129970000D03*
G04 #@! TO.P,J3,34*
G04 #@! TO.N,/icebus6_rx*
X188090000Y-127430000D03*
G04 #@! TO.P,J3,33*
G04 #@! TO.N,/icebus6_tx*
X185550000Y-127430000D03*
G04 #@! TO.P,J3,32*
G04 #@! TO.N,/icebus7_rx*
X188090000Y-124890000D03*
G04 #@! TO.P,J3,31*
G04 #@! TO.N,/icebus7_tx*
X185550000Y-124890000D03*
G04 #@! TO.P,J3,30*
G04 #@! TO.N,GND*
X188090000Y-122350000D03*
G04 #@! TO.P,J3,29*
G04 #@! TO.N,+3V3*
X185550000Y-122350000D03*
G04 #@! TO.P,J3,28*
G04 #@! TO.N,Net-(J3-Pad28)*
X188090000Y-119810000D03*
G04 #@! TO.P,J3,27*
G04 #@! TO.N,/NEOPX*
X185550000Y-119810000D03*
G04 #@! TO.P,J3,26*
G04 #@! TO.N,/SCL_0_SHOULDER_RIGHT*
X188090000Y-117270000D03*
G04 #@! TO.P,J3,25*
G04 #@! TO.N,/SDA_0_SHOULDER_RIGHT*
X185550000Y-117270000D03*
G04 #@! TO.P,J3,24*
G04 #@! TO.N,/SCL_1_SHOULDER_RIGHT*
X188090000Y-114730000D03*
G04 #@! TO.P,J3,23*
G04 #@! TO.N,/SDA_1_SHOULDER_RIGHT*
X185550000Y-114730000D03*
G04 #@! TO.P,J3,22*
G04 #@! TO.N,/SCL_2_SHOULDER_RIGHT*
X188090000Y-112190000D03*
G04 #@! TO.P,J3,21*
G04 #@! TO.N,/SDA_2_SHOULDER_RIGHT*
X185550000Y-112190000D03*
G04 #@! TO.P,J3,20*
G04 #@! TO.N,/SCL_3_SHOULDER_RIGHT*
X188090000Y-109650000D03*
G04 #@! TO.P,J3,19*
G04 #@! TO.N,/SDA_3_SHOULDER_RIGHT*
X185550000Y-109650000D03*
G04 #@! TO.P,J3,18*
G04 #@! TO.N,/SCL_0_HIP_LEFT*
X188090000Y-107110000D03*
G04 #@! TO.P,J3,17*
G04 #@! TO.N,/SDA_0_HIP_LEFT*
X185550000Y-107110000D03*
G04 #@! TO.P,J3,16*
G04 #@! TO.N,/SCL_1_HIP_LEFT*
X188090000Y-104570000D03*
G04 #@! TO.P,J3,15*
G04 #@! TO.N,/SDA_1_HIP_LEFT*
X185550000Y-104570000D03*
G04 #@! TO.P,J3,14*
G04 #@! TO.N,/SCL_2_HIP_LEFT*
X188090000Y-102030000D03*
G04 #@! TO.P,J3,13*
G04 #@! TO.N,/SDA_2_HIP_LEFT*
X185550000Y-102030000D03*
G04 #@! TO.P,J3,12*
G04 #@! TO.N,GND*
X188090000Y-99490000D03*
G04 #@! TO.P,J3,11*
G04 #@! TO.N,+5V*
X185550000Y-99490000D03*
G04 #@! TO.P,J3,10*
G04 #@! TO.N,/SCL_3_HIP_LEFT*
X188090000Y-96950000D03*
G04 #@! TO.P,J3,9*
G04 #@! TO.N,/SDA_3_HIP_LEFT*
X185550000Y-96950000D03*
G04 #@! TO.P,J3,8*
G04 #@! TO.N,/SCL_0_HIP_RIGHT*
X188090000Y-94410000D03*
G04 #@! TO.P,J3,7*
G04 #@! TO.N,/SDA_0_HIP_RIGHT*
X185550000Y-94410000D03*
G04 #@! TO.P,J3,6*
G04 #@! TO.N,/SCL_1_HIP_RIGHT*
X188090000Y-91870000D03*
G04 #@! TO.P,J3,5*
G04 #@! TO.N,/SDA_1_HIP_RIGHT*
X185550000Y-91870000D03*
G04 #@! TO.P,J3,4*
G04 #@! TO.N,/SCL_2_HIP_RIGHT*
X188090000Y-89330000D03*
G04 #@! TO.P,J3,3*
G04 #@! TO.N,/SDA_2_HIP_RIGHT*
X185550000Y-89330000D03*
G04 #@! TO.P,J3,2*
G04 #@! TO.N,/SCL_3_HIP_RIGHT*
X188090000Y-86790000D03*
D12*
G04 #@! TO.P,J3,1*
G04 #@! TO.N,/SDA_3_HIP_RIGHT*
X185550000Y-86790000D03*
G04 #@! TD*
G04 #@! TO.P,J6,1*
G04 #@! TO.N,/icebus0_rx*
X125100000Y-135050000D03*
D13*
G04 #@! TO.P,J6,2*
G04 #@! TO.N,/icebus0_tx*
X122560000Y-135050000D03*
G04 #@! TO.P,J6,3*
G04 #@! TO.N,/icebus1_rx*
X125100000Y-132510000D03*
G04 #@! TO.P,J6,4*
G04 #@! TO.N,/icebus1_tx*
X122560000Y-132510000D03*
G04 #@! TO.P,J6,5*
G04 #@! TO.N,/icebus2_rx*
X125100000Y-129970000D03*
G04 #@! TO.P,J6,6*
G04 #@! TO.N,/icebus2_tx*
X122560000Y-129970000D03*
G04 #@! TO.P,J6,7*
G04 #@! TO.N,/power_sense_n*
X125100000Y-127430000D03*
G04 #@! TO.P,J6,8*
G04 #@! TO.N,Net-(J6-Pad8)*
X122560000Y-127430000D03*
G04 #@! TO.P,J6,9*
G04 #@! TO.N,Net-(J6-Pad9)*
X125100000Y-124890000D03*
G04 #@! TO.P,J6,10*
G04 #@! TO.N,Net-(J6-Pad10)*
X122560000Y-124890000D03*
G04 #@! TO.P,J6,11*
G04 #@! TO.N,+5V*
X125100000Y-122350000D03*
G04 #@! TO.P,J6,12*
G04 #@! TO.N,GND*
X122560000Y-122350000D03*
G04 #@! TO.P,J6,13*
G04 #@! TO.N,/SCL_0_HEAD*
X125100000Y-119810000D03*
G04 #@! TO.P,J6,14*
G04 #@! TO.N,/SDA_0_HEAD*
X122560000Y-119810000D03*
G04 #@! TO.P,J6,15*
G04 #@! TO.N,/SCL_1_HEAD*
X125100000Y-117270000D03*
G04 #@! TO.P,J6,16*
G04 #@! TO.N,/SDA_1_HEAD*
X122560000Y-117270000D03*
G04 #@! TO.P,J6,17*
G04 #@! TO.N,/SCL_2_HEAD*
X125100000Y-114730000D03*
G04 #@! TO.P,J6,18*
G04 #@! TO.N,/SDA_2_HEAD*
X122560000Y-114730000D03*
G04 #@! TO.P,J6,19*
G04 #@! TO.N,/SCL_3_HEAD*
X125100000Y-112190000D03*
G04 #@! TO.P,J6,20*
G04 #@! TO.N,/SDA_3_HEAD*
X122560000Y-112190000D03*
G04 #@! TO.P,J6,21*
G04 #@! TO.N,/SCL_0_SHOULDER_LEFT*
X125100000Y-109650000D03*
G04 #@! TO.P,J6,22*
G04 #@! TO.N,/SDA_0_SHOULDER_LEFT*
X122560000Y-109650000D03*
G04 #@! TO.P,J6,23*
G04 #@! TO.N,/SCL_1_SHOULDER_LEFT*
X125100000Y-107110000D03*
G04 #@! TO.P,J6,24*
G04 #@! TO.N,/SDA_1_SHOULDER_LEFT*
X122560000Y-107110000D03*
G04 #@! TO.P,J6,25*
G04 #@! TO.N,/SCL_2_SHOULDER_LEFT*
X125100000Y-104570000D03*
G04 #@! TO.P,J6,26*
G04 #@! TO.N,/SDA_2_SHOULDER_LEFT*
X122560000Y-104570000D03*
G04 #@! TO.P,J6,27*
G04 #@! TO.N,/SCL_3_SHOULDER_LEFT*
X125100000Y-102030000D03*
G04 #@! TO.P,J6,28*
G04 #@! TO.N,/SDA_3_SHOULDER_LEFT*
X122560000Y-102030000D03*
G04 #@! TO.P,J6,29*
G04 #@! TO.N,+3V3*
X125100000Y-99490000D03*
G04 #@! TO.P,J6,30*
G04 #@! TO.N,GND*
X122560000Y-99490000D03*
G04 #@! TO.P,J6,31*
G04 #@! TO.N,Net-(J6-Pad31)*
X125100000Y-96950000D03*
G04 #@! TO.P,J6,32*
G04 #@! TO.N,Net-(J6-Pad32)*
X122560000Y-96950000D03*
G04 #@! TO.P,J6,33*
G04 #@! TO.N,/SCL_3_AUXILIARY*
X125100000Y-94410000D03*
G04 #@! TO.P,J6,34*
G04 #@! TO.N,/SDA_3_AUXILIARY*
X122560000Y-94410000D03*
G04 #@! TO.P,J6,35*
G04 #@! TO.N,/SCL_2_AUXILIARY*
X125100000Y-91870000D03*
G04 #@! TO.P,J6,36*
G04 #@! TO.N,/SDA_2_AUXILIARY*
X122560000Y-91870000D03*
G04 #@! TO.P,J6,37*
G04 #@! TO.N,/SCL_1_AUXILIARY*
X125100000Y-89330000D03*
G04 #@! TO.P,J6,38*
G04 #@! TO.N,/SDA_1_AUXILIARY*
X122560000Y-89330000D03*
G04 #@! TO.P,J6,39*
G04 #@! TO.N,/SCL_0_AUXILIARY*
X125100000Y-86790000D03*
G04 #@! TO.P,J6,40*
G04 #@! TO.N,/SDA_0_AUXILIARY*
X122560000Y-86790000D03*
G04 #@! TD*
D10*
G04 #@! TO.P,J1,4*
G04 #@! TO.N,/icebus4_h_Tx*
X187490000Y-142140000D03*
G04 #@! TO.P,J1,3*
G04 #@! TO.N,/icebus4_l_Tx*
X188760000Y-139600000D03*
G04 #@! TO.P,J1,2*
G04 #@! TO.N,/icebus4_h_Rx*
X190030000Y-142140000D03*
D11*
G04 #@! TO.P,J1,1*
G04 #@! TO.N,/icebus4_l_Rx*
X191300000Y-139600000D03*
D10*
G04 #@! TO.P,J1,5*
G04 #@! TO.N,GND*
X186220000Y-139600000D03*
G04 #@! TO.P,J1,6*
X184950000Y-142140000D03*
G04 #@! TD*
G04 #@! TO.P,J2,6*
G04 #@! TO.N,GND*
X150950000Y-142140000D03*
G04 #@! TO.P,J2,5*
X152220000Y-139600000D03*
D11*
G04 #@! TO.P,J2,1*
G04 #@! TO.N,/icebus1_l_Rx*
X157300000Y-139600000D03*
D10*
G04 #@! TO.P,J2,2*
G04 #@! TO.N,/icebus1_h_Rx*
X156030000Y-142140000D03*
G04 #@! TO.P,J2,3*
G04 #@! TO.N,/icebus1_l_Tx*
X154760000Y-139600000D03*
G04 #@! TO.P,J2,4*
G04 #@! TO.N,/icebus1_h_Tx*
X153490000Y-142140000D03*
G04 #@! TD*
G04 #@! TO.P,J4,4*
G04 #@! TO.N,/icebus5_h_Tx*
X198890000Y-142190000D03*
G04 #@! TO.P,J4,3*
G04 #@! TO.N,/icebus5_l_Tx*
X200160000Y-139650000D03*
G04 #@! TO.P,J4,2*
G04 #@! TO.N,/icebus5_h_Rx*
X201430000Y-142190000D03*
D11*
G04 #@! TO.P,J4,1*
G04 #@! TO.N,/icebus5_l_Rx*
X202700000Y-139650000D03*
D10*
G04 #@! TO.P,J4,5*
G04 #@! TO.N,GND*
X197620000Y-139650000D03*
G04 #@! TO.P,J4,6*
X196350000Y-142190000D03*
G04 #@! TD*
G04 #@! TO.P,J5,4*
G04 #@! TO.N,/icebus2_h_Tx*
X164790000Y-142140000D03*
G04 #@! TO.P,J5,3*
G04 #@! TO.N,/icebus2_l_Tx*
X166060000Y-139600000D03*
G04 #@! TO.P,J5,2*
G04 #@! TO.N,/icebus2_h_Rx*
X167330000Y-142140000D03*
D11*
G04 #@! TO.P,J5,1*
G04 #@! TO.N,/icebus2_l_Rx*
X168600000Y-139600000D03*
D10*
G04 #@! TO.P,J5,5*
G04 #@! TO.N,GND*
X163520000Y-139600000D03*
G04 #@! TO.P,J5,6*
X162250000Y-142140000D03*
G04 #@! TD*
G04 #@! TO.P,J7,6*
G04 #@! TO.N,GND*
X203390000Y-134950000D03*
G04 #@! TO.P,J7,5*
X200850000Y-133680000D03*
D11*
G04 #@! TO.P,J7,1*
G04 #@! TO.N,/icebus6_l_Rx*
X200850000Y-128600000D03*
D10*
G04 #@! TO.P,J7,2*
G04 #@! TO.N,/icebus6_h_Rx*
X203390000Y-129870000D03*
G04 #@! TO.P,J7,3*
G04 #@! TO.N,/icebus6_l_Tx*
X200850000Y-131140000D03*
G04 #@! TO.P,J7,4*
G04 #@! TO.N,/icebus6_h_Tx*
X203390000Y-132410000D03*
G04 #@! TD*
G04 #@! TO.P,J8,6*
G04 #@! TO.N,GND*
X173550000Y-142140000D03*
G04 #@! TO.P,J8,5*
X174820000Y-139600000D03*
D11*
G04 #@! TO.P,J8,1*
G04 #@! TO.N,/icebus3_l_Rx*
X179900000Y-139600000D03*
D10*
G04 #@! TO.P,J8,2*
G04 #@! TO.N,/icebus3_h_Rx*
X178630000Y-142140000D03*
G04 #@! TO.P,J8,3*
G04 #@! TO.N,/icebus3_l_Tx*
X177360000Y-139600000D03*
G04 #@! TO.P,J8,4*
G04 #@! TO.N,/icebus3_h_Tx*
X176090000Y-142140000D03*
G04 #@! TD*
G04 #@! TO.P,J9,6*
G04 #@! TO.N,GND*
X203290000Y-123350000D03*
G04 #@! TO.P,J9,5*
X200750000Y-122080000D03*
D11*
G04 #@! TO.P,J9,1*
G04 #@! TO.N,/icebus7_l_Rx*
X200750000Y-117000000D03*
D10*
G04 #@! TO.P,J9,2*
G04 #@! TO.N,/icebus7_h_Rx*
X203290000Y-118270000D03*
G04 #@! TO.P,J9,3*
G04 #@! TO.N,/icebus7_l_Tx*
X200750000Y-119540000D03*
G04 #@! TO.P,J9,4*
G04 #@! TO.N,/icebus7_h_Tx*
X203290000Y-120810000D03*
G04 #@! TD*
G04 #@! TO.P,J10,4*
G04 #@! TO.N,/SDA_0_HEAD*
X115960000Y-126190000D03*
G04 #@! TO.P,J10,3*
G04 #@! TO.N,/SCL_0_HEAD*
X118500000Y-127460000D03*
G04 #@! TO.P,J10,2*
G04 #@! TO.N,+3V3*
X115960000Y-128730000D03*
D11*
G04 #@! TO.P,J10,1*
G04 #@! TO.N,GND*
X118500000Y-130000000D03*
D10*
G04 #@! TO.P,J10,5*
G04 #@! TO.N,/SCL_1_HEAD*
X118500000Y-124920000D03*
G04 #@! TO.P,J10,6*
G04 #@! TO.N,/SDA_1_HEAD*
X115960000Y-123650000D03*
G04 #@! TO.P,J10,7*
G04 #@! TO.N,/SCL_2_HEAD*
X118500000Y-122380000D03*
G04 #@! TO.P,J10,8*
G04 #@! TO.N,/SDA_2_HEAD*
X115960000Y-121110000D03*
G04 #@! TO.P,J10,9*
G04 #@! TO.N,/SCL_3_HEAD*
X118500000Y-119840000D03*
G04 #@! TO.P,J10,10*
G04 #@! TO.N,/SDA_3_HEAD*
X115960000Y-118570000D03*
G04 #@! TD*
D11*
G04 #@! TO.P,J11,1*
G04 #@! TO.N,/power_sense_n*
X134705000Y-139580000D03*
D10*
G04 #@! TO.P,J11,2*
G04 #@! TO.N,+3V3*
X133435000Y-142120000D03*
G04 #@! TO.P,J11,3*
G04 #@! TO.N,GND*
X132165000Y-139580000D03*
G04 #@! TO.P,J11,4*
G04 #@! TO.N,N/C*
X130895000Y-142120000D03*
G04 #@! TD*
G04 #@! TO.P,J12,10*
G04 #@! TO.N,/SDA_3_SHOULDER_LEFT*
X115960000Y-102320000D03*
G04 #@! TO.P,J12,9*
G04 #@! TO.N,/SCL_3_SHOULDER_LEFT*
X118500000Y-103590000D03*
G04 #@! TO.P,J12,8*
G04 #@! TO.N,/SDA_2_SHOULDER_LEFT*
X115960000Y-104860000D03*
G04 #@! TO.P,J12,7*
G04 #@! TO.N,/SCL_2_SHOULDER_LEFT*
X118500000Y-106130000D03*
G04 #@! TO.P,J12,6*
G04 #@! TO.N,/SDA_1_SHOULDER_LEFT*
X115960000Y-107400000D03*
G04 #@! TO.P,J12,5*
G04 #@! TO.N,/SCL_1_SHOULDER_LEFT*
X118500000Y-108670000D03*
D11*
G04 #@! TO.P,J12,1*
G04 #@! TO.N,GND*
X118500000Y-113750000D03*
D10*
G04 #@! TO.P,J12,2*
G04 #@! TO.N,+3V3*
X115960000Y-112480000D03*
G04 #@! TO.P,J12,3*
G04 #@! TO.N,/SCL_0_SHOULDER_LEFT*
X118500000Y-111210000D03*
G04 #@! TO.P,J12,4*
G04 #@! TO.N,/SDA_0_SHOULDER_LEFT*
X115960000Y-109940000D03*
G04 #@! TD*
G04 #@! TO.P,J13,4*
G04 #@! TO.N,/SDA_0_SHOULDER_RIGHT*
X200660000Y-103390000D03*
G04 #@! TO.P,J13,3*
G04 #@! TO.N,/SCL_0_SHOULDER_RIGHT*
X203200000Y-104660000D03*
G04 #@! TO.P,J13,2*
G04 #@! TO.N,+3V3*
X200660000Y-105930000D03*
D11*
G04 #@! TO.P,J13,1*
G04 #@! TO.N,GND*
X203200000Y-107200000D03*
D10*
G04 #@! TO.P,J13,5*
G04 #@! TO.N,/SCL_1_SHOULDER_RIGHT*
X203200000Y-102120000D03*
G04 #@! TO.P,J13,6*
G04 #@! TO.N,/SDA_1_SHOULDER_RIGHT*
X200660000Y-100850000D03*
G04 #@! TO.P,J13,7*
G04 #@! TO.N,/SCL_2_SHOULDER_RIGHT*
X203200000Y-99580000D03*
G04 #@! TO.P,J13,8*
G04 #@! TO.N,/SDA_2_SHOULDER_RIGHT*
X200660000Y-98310000D03*
G04 #@! TO.P,J13,9*
G04 #@! TO.N,/SCL_3_SHOULDER_RIGHT*
X203200000Y-97040000D03*
G04 #@! TO.P,J13,10*
G04 #@! TO.N,/SDA_3_SHOULDER_RIGHT*
X200660000Y-95770000D03*
G04 #@! TD*
G04 #@! TO.P,J14,10*
G04 #@! TO.N,/SDA_3_HIP_LEFT*
X200660000Y-79370000D03*
G04 #@! TO.P,J14,9*
G04 #@! TO.N,/SCL_3_HIP_LEFT*
X203200000Y-80640000D03*
G04 #@! TO.P,J14,8*
G04 #@! TO.N,/SDA_2_HIP_LEFT*
X200660000Y-81910000D03*
G04 #@! TO.P,J14,7*
G04 #@! TO.N,/SCL_2_HIP_LEFT*
X203200000Y-83180000D03*
G04 #@! TO.P,J14,6*
G04 #@! TO.N,/SDA_1_HIP_LEFT*
X200660000Y-84450000D03*
G04 #@! TO.P,J14,5*
G04 #@! TO.N,/SCL_1_HIP_LEFT*
X203200000Y-85720000D03*
D11*
G04 #@! TO.P,J14,1*
G04 #@! TO.N,GND*
X203200000Y-90800000D03*
D10*
G04 #@! TO.P,J14,2*
G04 #@! TO.N,+3V3*
X200660000Y-89530000D03*
G04 #@! TO.P,J14,3*
G04 #@! TO.N,/SCL_0_HIP_LEFT*
X203200000Y-88260000D03*
G04 #@! TO.P,J14,4*
G04 #@! TO.N,/SDA_0_HIP_LEFT*
X200660000Y-86990000D03*
G04 #@! TD*
G04 #@! TO.P,J15,10*
G04 #@! TO.N,/SDA_3_HIP_RIGHT*
X184770000Y-81340000D03*
G04 #@! TO.P,J15,9*
G04 #@! TO.N,/SCL_3_HIP_RIGHT*
X186040000Y-78800000D03*
G04 #@! TO.P,J15,8*
G04 #@! TO.N,/SDA_2_HIP_RIGHT*
X187310000Y-81340000D03*
G04 #@! TO.P,J15,7*
G04 #@! TO.N,/SCL_2_HIP_RIGHT*
X188580000Y-78800000D03*
G04 #@! TO.P,J15,6*
G04 #@! TO.N,/SDA_1_HIP_RIGHT*
X189850000Y-81340000D03*
G04 #@! TO.P,J15,5*
G04 #@! TO.N,/SCL_1_HIP_RIGHT*
X191120000Y-78800000D03*
D11*
G04 #@! TO.P,J15,1*
G04 #@! TO.N,GND*
X196200000Y-78800000D03*
D10*
G04 #@! TO.P,J15,2*
G04 #@! TO.N,+3V3*
X194930000Y-81340000D03*
G04 #@! TO.P,J15,3*
G04 #@! TO.N,/SCL_0_HIP_RIGHT*
X193660000Y-78800000D03*
G04 #@! TO.P,J15,4*
G04 #@! TO.N,/SDA_0_HIP_RIGHT*
X192390000Y-81340000D03*
G04 #@! TD*
G04 #@! TO.P,J21,4*
G04 #@! TO.N,/SDA_3_AUXILIARY*
X146405000Y-78980000D03*
G04 #@! TO.P,J21,3*
G04 #@! TO.N,/SCL_3_AUXILIARY*
X145135000Y-81520000D03*
G04 #@! TO.P,J21,2*
G04 #@! TO.N,Net-(J16-Pad2)*
X143865000Y-78980000D03*
D11*
G04 #@! TO.P,J21,1*
G04 #@! TO.N,GND*
X142595000Y-81520000D03*
G04 #@! TD*
D13*
G04 #@! TO.P,JP1,3*
G04 #@! TO.N,+5V*
X150500000Y-78920000D03*
G04 #@! TO.P,JP1,2*
G04 #@! TO.N,Net-(J16-Pad2)*
X150500000Y-81460000D03*
D12*
G04 #@! TO.P,JP1,1*
G04 #@! TO.N,+3V3*
X150500000Y-84000000D03*
G04 #@! TD*
D14*
G04 #@! TO.N,GND*
X195400000Y-131300000D03*
X197900000Y-125700000D03*
X193100000Y-119200000D03*
X140100000Y-137100000D03*
G04 #@! TO.N,+3V3*
X140200000Y-132200000D03*
X151100000Y-132300000D03*
X157700000Y-133200000D03*
X163700000Y-131300000D03*
X168300000Y-133200000D03*
X173600000Y-131600000D03*
X180000000Y-136600000D03*
X191900000Y-132200000D03*
X191400000Y-124600000D03*
X191500000Y-117500000D03*
X197500000Y-120100000D03*
X194700000Y-111890000D03*
X196300000Y-125900000D03*
X190300000Y-130000000D03*
X195700000Y-137300000D03*
G04 #@! TO.N,/icebus5_l_Tx*
X196750000Y-131750000D03*
G04 #@! TO.N,/icebus5_l_Rx*
X197762653Y-128737347D03*
G04 #@! TO.N,/icebus1_tx*
X153500000Y-132300000D03*
G04 #@! TO.N,/icebus3_tx*
X176200000Y-132400000D03*
G04 #@! TO.N,/icebus1_rx*
X156500000Y-132700000D03*
G04 #@! TD*
D15*
G04 #@! TO.N,GND*
X133845000Y-80370000D02*
X133845000Y-81520000D01*
X133920001Y-80294999D02*
X133845000Y-80370000D01*
X140219999Y-80294999D02*
X133920001Y-80294999D01*
X141445000Y-81520000D02*
X140219999Y-80294999D01*
X142595000Y-81520000D02*
X141445000Y-81520000D01*
X116345000Y-80370000D02*
X116345000Y-81520000D01*
X119428002Y-80250000D02*
X116465000Y-80250000D01*
X116465000Y-80250000D02*
X116345000Y-80370000D01*
X120698002Y-81520000D02*
X119428002Y-80250000D01*
X125095000Y-81520000D02*
X120698002Y-81520000D01*
X122185997Y-118634999D02*
X123734999Y-118634999D01*
X118500000Y-113750000D02*
X118500000Y-114949002D01*
X118500000Y-114949002D02*
X122185997Y-118634999D01*
X123409999Y-121500001D02*
X122560000Y-122350000D01*
X123409999Y-120863591D02*
X123409999Y-121500001D01*
X123924999Y-120348591D02*
X123409999Y-120863591D01*
X123924999Y-118824999D02*
X123924999Y-120348591D01*
X123734999Y-118634999D02*
X123924999Y-118824999D01*
X197350000Y-78800000D02*
X196200000Y-78800000D01*
X198005001Y-78144999D02*
X197350000Y-78800000D01*
X202518001Y-78144999D02*
X198005001Y-78144999D01*
X204425001Y-88848001D02*
X204425001Y-80051999D01*
X203200000Y-90073002D02*
X204425001Y-88848001D01*
X204425001Y-80051999D02*
X202518001Y-78144999D01*
X203200000Y-90800000D02*
X203200000Y-90073002D01*
X165700000Y-88100000D02*
X165700000Y-89200000D01*
X176225001Y-77574999D02*
X165700000Y-88100000D01*
X196124999Y-77574999D02*
X176225001Y-77574999D01*
X196200000Y-77650000D02*
X196124999Y-77574999D01*
X196200000Y-78800000D02*
X196200000Y-77650000D01*
D16*
G04 #@! TO.N,+3V3*
X115370001Y-100829999D02*
X114300000Y-101900000D01*
X125100000Y-99490000D02*
X123760001Y-100829999D01*
X123760001Y-100829999D02*
X115370001Y-100829999D01*
X114300000Y-110820000D02*
X115960000Y-112480000D01*
X114300000Y-101900000D02*
X114300000Y-110820000D01*
X114300000Y-111100000D02*
X114500000Y-111300000D01*
X114300000Y-110820000D02*
X114300000Y-111100000D01*
X114500000Y-127270000D02*
X115960000Y-128730000D01*
X114500000Y-111300000D02*
X114500000Y-127270000D01*
X132184999Y-143370001D02*
X123929999Y-143370001D01*
X133435000Y-142120000D02*
X132184999Y-143370001D01*
X115060001Y-129629999D02*
X115960000Y-128730000D01*
X115060001Y-134500003D02*
X115060001Y-129629999D01*
X123929999Y-143370001D02*
X115060001Y-134500003D01*
X139654998Y-132200000D02*
X140200000Y-132200000D01*
X133435000Y-142120000D02*
X133435000Y-138419998D01*
X133435000Y-138419998D02*
X139654998Y-132200000D01*
X140200000Y-132200000D02*
X151000000Y-132200000D01*
X151000000Y-132200000D02*
X151100000Y-132300000D01*
X157449999Y-133450001D02*
X157700000Y-133200000D01*
X151100000Y-132300000D02*
X152250001Y-133450001D01*
X152250001Y-133450001D02*
X157449999Y-133450001D01*
X159600000Y-131300000D02*
X157700000Y-133200000D01*
X163700000Y-131300000D02*
X159600000Y-131300000D01*
X163700000Y-131300000D02*
X164265685Y-131300000D01*
X164265685Y-131300000D02*
X166400000Y-131300000D01*
X166400000Y-131300000D02*
X168300000Y-133200000D01*
X173600000Y-131600000D02*
X178600000Y-136600000D01*
X178600000Y-136600000D02*
X180000000Y-136600000D01*
X180565685Y-136600000D02*
X180000000Y-136600000D01*
X188316002Y-136600000D02*
X180565685Y-136600000D01*
X191900000Y-133016002D02*
X188316002Y-136600000D01*
X191900000Y-132200000D02*
X191900000Y-133016002D01*
X186399999Y-123199999D02*
X185550000Y-122350000D01*
X186750001Y-123550001D02*
X186399999Y-123199999D01*
X189784316Y-123550001D02*
X186750001Y-123550001D01*
X190834315Y-124600000D02*
X189784316Y-123550001D01*
X191400000Y-124600000D02*
X190834315Y-124600000D01*
X191400000Y-117600000D02*
X191500000Y-117500000D01*
X191500000Y-117500000D02*
X191500000Y-115090000D01*
X200660000Y-105930000D02*
X198900000Y-104170000D01*
X198900000Y-91290000D02*
X200660000Y-89530000D01*
X198900000Y-104170000D02*
X198900000Y-91290000D01*
X194930000Y-83800000D02*
X194930000Y-81340000D01*
X200660000Y-89530000D02*
X194930000Y-83800000D01*
X125100000Y-99490000D02*
X128500000Y-96090000D01*
X149350000Y-84000000D02*
X150500000Y-84000000D01*
X131405008Y-84000000D02*
X149350000Y-84000000D01*
X128500000Y-86905008D02*
X131405008Y-84000000D01*
X128500000Y-96090000D02*
X128500000Y-86905008D01*
X191700000Y-120100000D02*
X191400000Y-119800000D01*
X197500000Y-120100000D02*
X191700000Y-120100000D01*
X191400000Y-124600000D02*
X191400000Y-119800000D01*
X191400000Y-119800000D02*
X191400000Y-117600000D01*
X191500000Y-115090000D02*
X194700000Y-111890000D01*
X194700000Y-111890000D02*
X200660000Y-105930000D01*
X192700000Y-125900000D02*
X191400000Y-124600000D01*
X196300000Y-125900000D02*
X192700000Y-125900000D01*
X191900000Y-132200000D02*
X191900000Y-131600000D01*
X191900000Y-131600000D02*
X190300000Y-130000000D01*
X195000000Y-136600000D02*
X188316002Y-136600000D01*
X195700000Y-137300000D02*
X195000000Y-136600000D01*
X192700000Y-127034315D02*
X192700000Y-125900000D01*
X190300000Y-129434315D02*
X192700000Y-127034315D01*
X190300000Y-130000000D02*
X190300000Y-129434315D01*
D15*
G04 #@! TO.N,/icebus5_l_Tx*
X196750000Y-136240000D02*
X200160000Y-139650000D01*
X196750000Y-131750000D02*
X196750000Y-136240000D01*
G04 #@! TO.N,/icebus5_l_Rx*
X197762653Y-134712653D02*
X202700000Y-139650000D01*
X197762653Y-128737347D02*
X197762653Y-134712653D01*
G04 #@! TO.N,/SCL_1_AUXILIARY*
X127635000Y-82001412D02*
X125936402Y-83700010D01*
X127635000Y-81520000D02*
X127635000Y-82001412D01*
X125936402Y-83700010D02*
X122686400Y-83700010D01*
X124250001Y-88480001D02*
X125100000Y-89330000D01*
X123924999Y-88154999D02*
X124250001Y-88480001D01*
X122185997Y-88154999D02*
X123924999Y-88154999D01*
X121384999Y-87354001D02*
X122185997Y-88154999D01*
X121384999Y-85001411D02*
X121384999Y-87354001D01*
X122686400Y-83700010D02*
X121384999Y-85001411D01*
G04 #@! TO.N,/SDA_1_AUXILIARY*
X122390000Y-89500000D02*
X122560000Y-89330000D01*
X121750000Y-89500000D02*
X122390000Y-89500000D01*
X120500000Y-88250000D02*
X121750000Y-89500000D01*
X120500000Y-85250000D02*
X120500000Y-88250000D01*
X128005001Y-79879999D02*
X127461999Y-79879999D01*
X128905000Y-78980000D02*
X128005001Y-79879999D01*
X126320001Y-82680001D02*
X125750002Y-83250000D01*
X127461999Y-79879999D02*
X126320001Y-81021997D01*
X122500000Y-83250000D02*
X120500000Y-85250000D01*
X126320001Y-81021997D02*
X126320001Y-82680001D01*
X125750002Y-83250000D02*
X122500000Y-83250000D01*
G04 #@! TO.N,/icebus1_tx*
X123735001Y-133685001D02*
X127285001Y-133685001D01*
X122560000Y-132510000D02*
X123735001Y-133685001D01*
X128049990Y-134449990D02*
X128049990Y-135249990D01*
X127285001Y-133685001D02*
X128049990Y-134449990D01*
X129175020Y-136375020D02*
X133446027Y-136375019D01*
X128049990Y-135249990D02*
X129175020Y-136375020D01*
X133446027Y-136375019D02*
X138821046Y-131000000D01*
X139400000Y-131000000D02*
X139449990Y-130950010D01*
X138821046Y-131000000D02*
X139400000Y-131000000D01*
X139449990Y-130950010D02*
X152150010Y-130950010D01*
X152150010Y-130950010D02*
X153500000Y-132300000D01*
G04 #@! TO.N,/icebus3_tx*
X185550000Y-135050000D02*
X178850000Y-135050000D01*
X178850000Y-135050000D02*
X176200000Y-132400000D01*
G04 #@! TO.N,/icebus1_rx*
X156500000Y-132134315D02*
X156500000Y-132700000D01*
X154865685Y-130500000D02*
X156500000Y-132134315D01*
X138684636Y-130500000D02*
X154865685Y-130500000D01*
X125100000Y-132510000D02*
X127210000Y-132510000D01*
X127210000Y-132510000D02*
X128500000Y-133800000D01*
X133259626Y-135925010D02*
X138684636Y-130500000D01*
X128500000Y-133800000D02*
X128500000Y-135059636D01*
X128500000Y-135059636D02*
X129365374Y-135925010D01*
X129365374Y-135925010D02*
X133259626Y-135925010D01*
G04 #@! TO.N,/SCL_0_HEAD*
X124250001Y-120659999D02*
X125100000Y-119810000D01*
X123924999Y-120985001D02*
X124250001Y-120659999D01*
X123924999Y-122724003D02*
X123924999Y-120985001D01*
X123124001Y-123525001D02*
X123924999Y-122724003D01*
X121708001Y-123525001D02*
X123124001Y-123525001D01*
X118500000Y-126733002D02*
X121708001Y-123525001D01*
X118500000Y-127460000D02*
X118500000Y-126733002D01*
G04 #@! TO.N,/SDA_0_HEAD*
X116859999Y-125290001D02*
X115960000Y-126190000D01*
X116859999Y-124563003D02*
X116859999Y-125290001D01*
X117818001Y-123605001D02*
X116859999Y-124563003D01*
X119088001Y-123605001D02*
X117818001Y-123605001D01*
X121710001Y-120983001D02*
X119088001Y-123605001D01*
X121710001Y-120659999D02*
X121710001Y-120983001D01*
X122560000Y-119810000D02*
X121710001Y-120659999D01*
G04 #@! TD*
D17*
G04 #@! TO.N,GND*
G36*
X185170493Y-77498690D02*
X184738690Y-77930493D01*
X184505000Y-78494670D01*
X184505000Y-79105330D01*
X184738690Y-79669507D01*
X184874183Y-79805000D01*
X184464670Y-79805000D01*
X183900493Y-80038690D01*
X183468690Y-80470493D01*
X183235000Y-81034670D01*
X183235000Y-81645330D01*
X183468690Y-82209507D01*
X183900493Y-82641310D01*
X184464670Y-82875000D01*
X185075330Y-82875000D01*
X185639507Y-82641310D01*
X186040000Y-82240817D01*
X186440493Y-82641310D01*
X187004670Y-82875000D01*
X187615330Y-82875000D01*
X188179507Y-82641310D01*
X188580000Y-82240817D01*
X188980493Y-82641310D01*
X189544670Y-82875000D01*
X190155330Y-82875000D01*
X190719507Y-82641310D01*
X191120000Y-82240817D01*
X191520493Y-82641310D01*
X192084670Y-82875000D01*
X192695330Y-82875000D01*
X193259507Y-82641310D01*
X193660000Y-82240817D01*
X194060493Y-82641310D01*
X194145000Y-82676314D01*
X194145000Y-83722688D01*
X194129622Y-83800000D01*
X194145000Y-83877312D01*
X194145000Y-83877315D01*
X194171393Y-84010000D01*
X194190546Y-84106291D01*
X194310295Y-84285507D01*
X194364047Y-84365953D01*
X194429592Y-84409749D01*
X199160005Y-89140162D01*
X199125000Y-89224670D01*
X199125000Y-89835330D01*
X199160004Y-89919838D01*
X198399590Y-90680253D01*
X198334048Y-90724047D01*
X198290254Y-90789589D01*
X198290251Y-90789592D01*
X198160546Y-90983709D01*
X198099622Y-91290000D01*
X198115001Y-91367317D01*
X198115000Y-104092688D01*
X198099622Y-104170000D01*
X198115000Y-104247312D01*
X198115000Y-104247315D01*
X198160546Y-104476291D01*
X198334047Y-104735953D01*
X198399592Y-104779749D01*
X199160004Y-105540162D01*
X199125000Y-105624670D01*
X199125000Y-106235330D01*
X199160004Y-106319838D01*
X194624843Y-110855000D01*
X194494126Y-110855000D01*
X194113720Y-111012569D01*
X193822569Y-111303720D01*
X193665000Y-111684126D01*
X193665000Y-111814842D01*
X190999590Y-114480253D01*
X190934048Y-114524047D01*
X190890254Y-114589589D01*
X190890251Y-114589592D01*
X190760546Y-114783709D01*
X190699622Y-115090000D01*
X190715001Y-115167317D01*
X190715000Y-116821289D01*
X190622569Y-116913720D01*
X190465000Y-117294126D01*
X190465000Y-117705874D01*
X190615001Y-118068009D01*
X190615000Y-119722688D01*
X190599622Y-119800000D01*
X190615000Y-119877312D01*
X190615000Y-119877315D01*
X190615001Y-119877320D01*
X190615000Y-123270528D01*
X190394065Y-123049593D01*
X190350269Y-122984048D01*
X190090608Y-122810547D01*
X189861632Y-122765001D01*
X189861628Y-122765001D01*
X189784316Y-122749623D01*
X189707004Y-122765001D01*
X189507407Y-122765001D01*
X189531476Y-122706890D01*
X189410155Y-122477000D01*
X188217000Y-122477000D01*
X188217000Y-122497000D01*
X187963000Y-122497000D01*
X187963000Y-122477000D01*
X187943000Y-122477000D01*
X187943000Y-122223000D01*
X187963000Y-122223000D01*
X187963000Y-122203000D01*
X188217000Y-122203000D01*
X188217000Y-122223000D01*
X189410155Y-122223000D01*
X189531476Y-121993110D01*
X189361645Y-121583076D01*
X188971358Y-121154817D01*
X188841522Y-121093843D01*
X189160625Y-120880625D01*
X189488839Y-120389418D01*
X189604092Y-119810000D01*
X189488839Y-119230582D01*
X189160625Y-118739375D01*
X188862239Y-118540000D01*
X189160625Y-118340625D01*
X189488839Y-117849418D01*
X189604092Y-117270000D01*
X189488839Y-116690582D01*
X189160625Y-116199375D01*
X188862239Y-116000000D01*
X189160625Y-115800625D01*
X189488839Y-115309418D01*
X189604092Y-114730000D01*
X189488839Y-114150582D01*
X189160625Y-113659375D01*
X188862239Y-113460000D01*
X189160625Y-113260625D01*
X189488839Y-112769418D01*
X189604092Y-112190000D01*
X189488839Y-111610582D01*
X189160625Y-111119375D01*
X188862239Y-110920000D01*
X189160625Y-110720625D01*
X189488839Y-110229418D01*
X189604092Y-109650000D01*
X189488839Y-109070582D01*
X189160625Y-108579375D01*
X188862239Y-108380000D01*
X189160625Y-108180625D01*
X189488839Y-107689418D01*
X189604092Y-107110000D01*
X189488839Y-106530582D01*
X189160625Y-106039375D01*
X188862239Y-105840000D01*
X189160625Y-105640625D01*
X189488839Y-105149418D01*
X189604092Y-104570000D01*
X189488839Y-103990582D01*
X189160625Y-103499375D01*
X188862239Y-103300000D01*
X189160625Y-103100625D01*
X189488839Y-102609418D01*
X189604092Y-102030000D01*
X189488839Y-101450582D01*
X189160625Y-100959375D01*
X188841522Y-100746157D01*
X188971358Y-100685183D01*
X189361645Y-100256924D01*
X189531476Y-99846890D01*
X189410155Y-99617000D01*
X188217000Y-99617000D01*
X188217000Y-99637000D01*
X187963000Y-99637000D01*
X187963000Y-99617000D01*
X187943000Y-99617000D01*
X187943000Y-99363000D01*
X187963000Y-99363000D01*
X187963000Y-99343000D01*
X188217000Y-99343000D01*
X188217000Y-99363000D01*
X189410155Y-99363000D01*
X189531476Y-99133110D01*
X189361645Y-98723076D01*
X188971358Y-98294817D01*
X188841522Y-98233843D01*
X189160625Y-98020625D01*
X189488839Y-97529418D01*
X189604092Y-96950000D01*
X189488839Y-96370582D01*
X189160625Y-95879375D01*
X188862239Y-95680000D01*
X189160625Y-95480625D01*
X189488839Y-94989418D01*
X189604092Y-94410000D01*
X189488839Y-93830582D01*
X189160625Y-93339375D01*
X188862239Y-93140000D01*
X189160625Y-92940625D01*
X189488839Y-92449418D01*
X189604092Y-91870000D01*
X189488839Y-91290582D01*
X189160625Y-90799375D01*
X188862239Y-90600000D01*
X189160625Y-90400625D01*
X189488839Y-89909418D01*
X189604092Y-89330000D01*
X189488839Y-88750582D01*
X189160625Y-88259375D01*
X188862239Y-88060000D01*
X189160625Y-87860625D01*
X189488839Y-87369418D01*
X189604092Y-86790000D01*
X189488839Y-86210582D01*
X189160625Y-85719375D01*
X188669418Y-85391161D01*
X188236256Y-85305000D01*
X187943744Y-85305000D01*
X187510582Y-85391161D01*
X187019375Y-85719375D01*
X187007184Y-85737619D01*
X186998157Y-85692235D01*
X186857809Y-85482191D01*
X186647765Y-85341843D01*
X186400000Y-85292560D01*
X184700000Y-85292560D01*
X184452235Y-85341843D01*
X184242191Y-85482191D01*
X184101843Y-85692235D01*
X184052560Y-85940000D01*
X184052560Y-87640000D01*
X184101843Y-87887765D01*
X184242191Y-88097809D01*
X184452235Y-88238157D01*
X184497619Y-88247184D01*
X184479375Y-88259375D01*
X184151161Y-88750582D01*
X184035908Y-89330000D01*
X184151161Y-89909418D01*
X184479375Y-90400625D01*
X184777761Y-90600000D01*
X184479375Y-90799375D01*
X184151161Y-91290582D01*
X184035908Y-91870000D01*
X184151161Y-92449418D01*
X184479375Y-92940625D01*
X184777761Y-93140000D01*
X184479375Y-93339375D01*
X184151161Y-93830582D01*
X184035908Y-94410000D01*
X184151161Y-94989418D01*
X184479375Y-95480625D01*
X184777761Y-95680000D01*
X184479375Y-95879375D01*
X184151161Y-96370582D01*
X184035908Y-96950000D01*
X184151161Y-97529418D01*
X184479375Y-98020625D01*
X184777761Y-98220000D01*
X184479375Y-98419375D01*
X184151161Y-98910582D01*
X184035908Y-99490000D01*
X184151161Y-100069418D01*
X184479375Y-100560625D01*
X184777761Y-100760000D01*
X184479375Y-100959375D01*
X184151161Y-101450582D01*
X184035908Y-102030000D01*
X184151161Y-102609418D01*
X184479375Y-103100625D01*
X184777761Y-103300000D01*
X184479375Y-103499375D01*
X184151161Y-103990582D01*
X184035908Y-104570000D01*
X184151161Y-105149418D01*
X184479375Y-105640625D01*
X184777761Y-105840000D01*
X184479375Y-106039375D01*
X184151161Y-106530582D01*
X184035908Y-107110000D01*
X184151161Y-107689418D01*
X184479375Y-108180625D01*
X184777761Y-108380000D01*
X184479375Y-108579375D01*
X184151161Y-109070582D01*
X184035908Y-109650000D01*
X184151161Y-110229418D01*
X184479375Y-110720625D01*
X184777761Y-110920000D01*
X184479375Y-111119375D01*
X184151161Y-111610582D01*
X184035908Y-112190000D01*
X184151161Y-112769418D01*
X184479375Y-113260625D01*
X184777761Y-113460000D01*
X184479375Y-113659375D01*
X184151161Y-114150582D01*
X184035908Y-114730000D01*
X184151161Y-115309418D01*
X184479375Y-115800625D01*
X184777761Y-116000000D01*
X184479375Y-116199375D01*
X184151161Y-116690582D01*
X184035908Y-117270000D01*
X184151161Y-117849418D01*
X184479375Y-118340625D01*
X184777761Y-118540000D01*
X184479375Y-118739375D01*
X184151161Y-119230582D01*
X184035908Y-119810000D01*
X184151161Y-120389418D01*
X184479375Y-120880625D01*
X184777761Y-121080000D01*
X184479375Y-121279375D01*
X184151161Y-121770582D01*
X184035908Y-122350000D01*
X184151161Y-122929418D01*
X184479375Y-123420625D01*
X184777761Y-123620000D01*
X184479375Y-123819375D01*
X184151161Y-124310582D01*
X184035908Y-124890000D01*
X184151161Y-125469418D01*
X184479375Y-125960625D01*
X184777761Y-126160000D01*
X184479375Y-126359375D01*
X184151161Y-126850582D01*
X184035908Y-127430000D01*
X184151161Y-128009418D01*
X184479375Y-128500625D01*
X184777761Y-128700000D01*
X184479375Y-128899375D01*
X184151161Y-129390582D01*
X184035908Y-129970000D01*
X184151161Y-130549418D01*
X184479375Y-131040625D01*
X184777761Y-131240000D01*
X184479375Y-131439375D01*
X184151161Y-131930582D01*
X184035908Y-132510000D01*
X184151161Y-133089418D01*
X184479375Y-133580625D01*
X184777761Y-133780000D01*
X184479375Y-133979375D01*
X184271822Y-134290000D01*
X179164802Y-134290000D01*
X177235000Y-132360199D01*
X177235000Y-132194126D01*
X177077431Y-131813720D01*
X176786280Y-131522569D01*
X176405874Y-131365000D01*
X175994126Y-131365000D01*
X175613720Y-131522569D01*
X175322569Y-131813720D01*
X175205795Y-132095638D01*
X174635000Y-131524843D01*
X174635000Y-131394126D01*
X174477431Y-131013720D01*
X174186280Y-130722569D01*
X173805874Y-130565000D01*
X173394126Y-130565000D01*
X173013720Y-130722569D01*
X172722569Y-131013720D01*
X172565000Y-131394126D01*
X172565000Y-131805874D01*
X172722569Y-132186280D01*
X173013720Y-132477431D01*
X173394126Y-132635000D01*
X173524843Y-132635000D01*
X177990253Y-137100411D01*
X178034047Y-137165953D01*
X178099589Y-137209747D01*
X178099591Y-137209749D01*
X178293708Y-137339454D01*
X178522684Y-137385000D01*
X178522688Y-137385000D01*
X178600000Y-137400378D01*
X178677312Y-137385000D01*
X179321289Y-137385000D01*
X179413720Y-137477431D01*
X179794126Y-137635000D01*
X180205874Y-137635000D01*
X180586280Y-137477431D01*
X180678711Y-137385000D01*
X188238690Y-137385000D01*
X188316002Y-137400378D01*
X188393314Y-137385000D01*
X194665000Y-137385000D01*
X194665000Y-137505874D01*
X194822569Y-137886280D01*
X195113720Y-138177431D01*
X195494126Y-138335000D01*
X195905874Y-138335000D01*
X196286280Y-138177431D01*
X196577431Y-137886280D01*
X196735000Y-137505874D01*
X196735000Y-137299801D01*
X197551713Y-138116515D01*
X197250540Y-138129161D01*
X196805852Y-138313357D01*
X196719446Y-138569841D01*
X197620000Y-139470395D01*
X197634143Y-139456253D01*
X197813748Y-139635858D01*
X197799605Y-139650000D01*
X197813748Y-139664143D01*
X197634143Y-139843748D01*
X197620000Y-139829605D01*
X197605858Y-139843748D01*
X197426253Y-139664143D01*
X197440395Y-139650000D01*
X196539841Y-138749446D01*
X196283357Y-138835852D01*
X196073542Y-139409336D01*
X196099161Y-140019460D01*
X196283357Y-140464148D01*
X196539839Y-140550553D01*
X196440547Y-140649845D01*
X195980540Y-140669161D01*
X195535852Y-140853357D01*
X195449446Y-141109841D01*
X196350000Y-142010395D01*
X196364143Y-141996253D01*
X196543748Y-142175858D01*
X196529605Y-142190000D01*
X197430159Y-143090554D01*
X197580562Y-143039885D01*
X197588690Y-143059507D01*
X198020493Y-143491310D01*
X198258751Y-143590000D01*
X197011191Y-143590000D01*
X197164148Y-143526643D01*
X197250554Y-143270159D01*
X196350000Y-142369605D01*
X195449446Y-143270159D01*
X195535852Y-143526643D01*
X195709025Y-143590000D01*
X190540538Y-143590000D01*
X190899507Y-143441310D01*
X191331310Y-143009507D01*
X191565000Y-142445330D01*
X191565000Y-142223757D01*
X191915432Y-142574189D01*
X192424496Y-142785050D01*
X192975504Y-142785050D01*
X193484568Y-142574189D01*
X193874189Y-142184568D01*
X193971625Y-141949336D01*
X194803542Y-141949336D01*
X194829161Y-142559460D01*
X195013357Y-143004148D01*
X195269841Y-143090554D01*
X196170395Y-142190000D01*
X195269841Y-141289446D01*
X195013357Y-141375852D01*
X194803542Y-141949336D01*
X193971625Y-141949336D01*
X194085050Y-141675504D01*
X194085050Y-141124496D01*
X193874189Y-140615432D01*
X193484568Y-140225811D01*
X192975504Y-140014950D01*
X192847440Y-140014950D01*
X192847440Y-138700000D01*
X192798157Y-138452235D01*
X192657809Y-138242191D01*
X192447765Y-138101843D01*
X192200000Y-138052560D01*
X190400000Y-138052560D01*
X190152235Y-138101843D01*
X189942191Y-138242191D01*
X189801843Y-138452235D01*
X189798725Y-138467908D01*
X189629507Y-138298690D01*
X189065330Y-138065000D01*
X188454670Y-138065000D01*
X187890493Y-138298690D01*
X187458690Y-138730493D01*
X187450562Y-138750115D01*
X187300159Y-138699446D01*
X186399605Y-139600000D01*
X186413748Y-139614143D01*
X186234143Y-139793748D01*
X186220000Y-139779605D01*
X186205858Y-139793748D01*
X186026253Y-139614143D01*
X186040395Y-139600000D01*
X185139841Y-138699446D01*
X184883357Y-138785852D01*
X184673542Y-139359336D01*
X184699161Y-139969460D01*
X184883357Y-140414148D01*
X185139839Y-140500553D01*
X185040547Y-140599845D01*
X184580540Y-140619161D01*
X184135852Y-140803357D01*
X184049446Y-141059841D01*
X184950000Y-141960395D01*
X184964143Y-141946253D01*
X185143748Y-142125858D01*
X185129605Y-142140000D01*
X186030159Y-143040554D01*
X186180562Y-142989885D01*
X186188690Y-143009507D01*
X186620493Y-143441310D01*
X186979462Y-143590000D01*
X185490480Y-143590000D01*
X185764148Y-143476643D01*
X185850554Y-143220159D01*
X184950000Y-142319605D01*
X184049446Y-143220159D01*
X184135852Y-143476643D01*
X184445689Y-143590000D01*
X179140538Y-143590000D01*
X179499507Y-143441310D01*
X179931310Y-143009507D01*
X180165000Y-142445330D01*
X180165000Y-142223757D01*
X180515432Y-142574189D01*
X181024496Y-142785050D01*
X181575504Y-142785050D01*
X182084568Y-142574189D01*
X182474189Y-142184568D01*
X182592335Y-141899336D01*
X183403542Y-141899336D01*
X183429161Y-142509460D01*
X183613357Y-142954148D01*
X183869841Y-143040554D01*
X184770395Y-142140000D01*
X183869841Y-141239446D01*
X183613357Y-141325852D01*
X183403542Y-141899336D01*
X182592335Y-141899336D01*
X182685050Y-141675504D01*
X182685050Y-141124496D01*
X182474189Y-140615432D01*
X182084568Y-140225811D01*
X181575504Y-140014950D01*
X181447440Y-140014950D01*
X181447440Y-138700000D01*
X181411605Y-138519841D01*
X185319446Y-138519841D01*
X186220000Y-139420395D01*
X187120554Y-138519841D01*
X187034148Y-138263357D01*
X186460664Y-138053542D01*
X185850540Y-138079161D01*
X185405852Y-138263357D01*
X185319446Y-138519841D01*
X181411605Y-138519841D01*
X181398157Y-138452235D01*
X181257809Y-138242191D01*
X181047765Y-138101843D01*
X180800000Y-138052560D01*
X179000000Y-138052560D01*
X178752235Y-138101843D01*
X178542191Y-138242191D01*
X178401843Y-138452235D01*
X178398725Y-138467908D01*
X178229507Y-138298690D01*
X177665330Y-138065000D01*
X177054670Y-138065000D01*
X176490493Y-138298690D01*
X176058690Y-138730493D01*
X176050562Y-138750115D01*
X175900159Y-138699446D01*
X174999605Y-139600000D01*
X175013748Y-139614143D01*
X174834143Y-139793748D01*
X174820000Y-139779605D01*
X174805858Y-139793748D01*
X174626253Y-139614143D01*
X174640395Y-139600000D01*
X173739841Y-138699446D01*
X173483357Y-138785852D01*
X173273542Y-139359336D01*
X173299161Y-139969460D01*
X173483357Y-140414148D01*
X173739839Y-140500553D01*
X173640547Y-140599845D01*
X173180540Y-140619161D01*
X172735852Y-140803357D01*
X172649446Y-141059841D01*
X173550000Y-141960395D01*
X173564143Y-141946253D01*
X173743748Y-142125858D01*
X173729605Y-142140000D01*
X174630159Y-143040554D01*
X174780562Y-142989885D01*
X174788690Y-143009507D01*
X175220493Y-143441310D01*
X175579462Y-143590000D01*
X174090480Y-143590000D01*
X174364148Y-143476643D01*
X174450554Y-143220159D01*
X173550000Y-142319605D01*
X172649446Y-143220159D01*
X172735852Y-143476643D01*
X173045689Y-143590000D01*
X167840538Y-143590000D01*
X168199507Y-143441310D01*
X168631310Y-143009507D01*
X168865000Y-142445330D01*
X168865000Y-142223757D01*
X169215432Y-142574189D01*
X169724496Y-142785050D01*
X170275504Y-142785050D01*
X170784568Y-142574189D01*
X171174189Y-142184568D01*
X171292335Y-141899336D01*
X172003542Y-141899336D01*
X172029161Y-142509460D01*
X172213357Y-142954148D01*
X172469841Y-143040554D01*
X173370395Y-142140000D01*
X172469841Y-141239446D01*
X172213357Y-141325852D01*
X172003542Y-141899336D01*
X171292335Y-141899336D01*
X171385050Y-141675504D01*
X171385050Y-141124496D01*
X171174189Y-140615432D01*
X170784568Y-140225811D01*
X170275504Y-140014950D01*
X170147440Y-140014950D01*
X170147440Y-138700000D01*
X170111605Y-138519841D01*
X173919446Y-138519841D01*
X174820000Y-139420395D01*
X175720554Y-138519841D01*
X175634148Y-138263357D01*
X175060664Y-138053542D01*
X174450540Y-138079161D01*
X174005852Y-138263357D01*
X173919446Y-138519841D01*
X170111605Y-138519841D01*
X170098157Y-138452235D01*
X169957809Y-138242191D01*
X169747765Y-138101843D01*
X169500000Y-138052560D01*
X167700000Y-138052560D01*
X167452235Y-138101843D01*
X167242191Y-138242191D01*
X167101843Y-138452235D01*
X167098725Y-138467908D01*
X166929507Y-138298690D01*
X166365330Y-138065000D01*
X165754670Y-138065000D01*
X165190493Y-138298690D01*
X164758690Y-138730493D01*
X164750562Y-138750115D01*
X164600159Y-138699446D01*
X163699605Y-139600000D01*
X163713748Y-139614143D01*
X163534143Y-139793748D01*
X163520000Y-139779605D01*
X163505858Y-139793748D01*
X163326253Y-139614143D01*
X163340395Y-139600000D01*
X162439841Y-138699446D01*
X162183357Y-138785852D01*
X161973542Y-139359336D01*
X161999161Y-139969460D01*
X162183357Y-140414148D01*
X162439839Y-140500553D01*
X162340547Y-140599845D01*
X161880540Y-140619161D01*
X161435852Y-140803357D01*
X161349446Y-141059841D01*
X162250000Y-141960395D01*
X162264143Y-141946253D01*
X162443748Y-142125858D01*
X162429605Y-142140000D01*
X163330159Y-143040554D01*
X163480562Y-142989885D01*
X163488690Y-143009507D01*
X163920493Y-143441310D01*
X164279462Y-143590000D01*
X162790480Y-143590000D01*
X163064148Y-143476643D01*
X163150554Y-143220159D01*
X162250000Y-142319605D01*
X161349446Y-143220159D01*
X161435852Y-143476643D01*
X161745689Y-143590000D01*
X156540538Y-143590000D01*
X156899507Y-143441310D01*
X157331310Y-143009507D01*
X157565000Y-142445330D01*
X157565000Y-142223757D01*
X157915432Y-142574189D01*
X158424496Y-142785050D01*
X158975504Y-142785050D01*
X159484568Y-142574189D01*
X159874189Y-142184568D01*
X159992335Y-141899336D01*
X160703542Y-141899336D01*
X160729161Y-142509460D01*
X160913357Y-142954148D01*
X161169841Y-143040554D01*
X162070395Y-142140000D01*
X161169841Y-141239446D01*
X160913357Y-141325852D01*
X160703542Y-141899336D01*
X159992335Y-141899336D01*
X160085050Y-141675504D01*
X160085050Y-141124496D01*
X159874189Y-140615432D01*
X159484568Y-140225811D01*
X158975504Y-140014950D01*
X158847440Y-140014950D01*
X158847440Y-138700000D01*
X158811605Y-138519841D01*
X162619446Y-138519841D01*
X163520000Y-139420395D01*
X164420554Y-138519841D01*
X164334148Y-138263357D01*
X163760664Y-138053542D01*
X163150540Y-138079161D01*
X162705852Y-138263357D01*
X162619446Y-138519841D01*
X158811605Y-138519841D01*
X158798157Y-138452235D01*
X158657809Y-138242191D01*
X158447765Y-138101843D01*
X158200000Y-138052560D01*
X156400000Y-138052560D01*
X156152235Y-138101843D01*
X155942191Y-138242191D01*
X155801843Y-138452235D01*
X155798725Y-138467908D01*
X155629507Y-138298690D01*
X155065330Y-138065000D01*
X154454670Y-138065000D01*
X153890493Y-138298690D01*
X153458690Y-138730493D01*
X153450562Y-138750115D01*
X153300159Y-138699446D01*
X152399605Y-139600000D01*
X152413748Y-139614143D01*
X152234143Y-139793748D01*
X152220000Y-139779605D01*
X152205858Y-139793748D01*
X152026253Y-139614143D01*
X152040395Y-139600000D01*
X151139841Y-138699446D01*
X150883357Y-138785852D01*
X150673542Y-139359336D01*
X150699161Y-139969460D01*
X150883357Y-140414148D01*
X151139839Y-140500553D01*
X151040547Y-140599845D01*
X150580540Y-140619161D01*
X150135852Y-140803357D01*
X150049446Y-141059841D01*
X150950000Y-141960395D01*
X150964143Y-141946253D01*
X151143748Y-142125858D01*
X151129605Y-142140000D01*
X152030159Y-143040554D01*
X152180562Y-142989885D01*
X152188690Y-143009507D01*
X152620493Y-143441310D01*
X152979462Y-143590000D01*
X151490480Y-143590000D01*
X151764148Y-143476643D01*
X151850554Y-143220159D01*
X150950000Y-142319605D01*
X150049446Y-143220159D01*
X150135852Y-143476643D01*
X150445689Y-143590000D01*
X145190538Y-143590000D01*
X145549507Y-143441310D01*
X145981310Y-143009507D01*
X146215000Y-142445330D01*
X146215000Y-142223757D01*
X146565432Y-142574189D01*
X147074496Y-142785050D01*
X147625504Y-142785050D01*
X148134568Y-142574189D01*
X148524189Y-142184568D01*
X148642335Y-141899336D01*
X149403542Y-141899336D01*
X149429161Y-142509460D01*
X149613357Y-142954148D01*
X149869841Y-143040554D01*
X150770395Y-142140000D01*
X149869841Y-141239446D01*
X149613357Y-141325852D01*
X149403542Y-141899336D01*
X148642335Y-141899336D01*
X148735050Y-141675504D01*
X148735050Y-141124496D01*
X148524189Y-140615432D01*
X148134568Y-140225811D01*
X147625504Y-140014950D01*
X147497440Y-140014950D01*
X147497440Y-138700000D01*
X147461605Y-138519841D01*
X151319446Y-138519841D01*
X152220000Y-139420395D01*
X153120554Y-138519841D01*
X153034148Y-138263357D01*
X152460664Y-138053542D01*
X151850540Y-138079161D01*
X151405852Y-138263357D01*
X151319446Y-138519841D01*
X147461605Y-138519841D01*
X147448157Y-138452235D01*
X147307809Y-138242191D01*
X147097765Y-138101843D01*
X146850000Y-138052560D01*
X145050000Y-138052560D01*
X144802235Y-138101843D01*
X144592191Y-138242191D01*
X144451843Y-138452235D01*
X144448725Y-138467908D01*
X144279507Y-138298690D01*
X143715330Y-138065000D01*
X143104670Y-138065000D01*
X142540493Y-138298690D01*
X142108690Y-138730493D01*
X142100562Y-138750115D01*
X141950159Y-138699446D01*
X141049605Y-139600000D01*
X141063748Y-139614143D01*
X140884143Y-139793748D01*
X140870000Y-139779605D01*
X140855858Y-139793748D01*
X140676253Y-139614143D01*
X140690395Y-139600000D01*
X139789841Y-138699446D01*
X139533357Y-138785852D01*
X139323542Y-139359336D01*
X139349161Y-139969460D01*
X139533357Y-140414148D01*
X139789839Y-140500553D01*
X139690547Y-140599845D01*
X139230540Y-140619161D01*
X138785852Y-140803357D01*
X138699446Y-141059841D01*
X139600000Y-141960395D01*
X139614143Y-141946253D01*
X139793748Y-142125858D01*
X139779605Y-142140000D01*
X140680159Y-143040554D01*
X140830562Y-142989885D01*
X140838690Y-143009507D01*
X141270493Y-143441310D01*
X141629462Y-143590000D01*
X140140480Y-143590000D01*
X140414148Y-143476643D01*
X140500554Y-143220159D01*
X139600000Y-142319605D01*
X138699446Y-143220159D01*
X138785852Y-143476643D01*
X139095689Y-143590000D01*
X133897254Y-143590000D01*
X134304507Y-143421310D01*
X134736310Y-142989507D01*
X134970000Y-142425330D01*
X134970000Y-142203757D01*
X135320432Y-142554189D01*
X135829496Y-142765050D01*
X136380504Y-142765050D01*
X136889568Y-142554189D01*
X137279189Y-142164568D01*
X137389051Y-141899336D01*
X138053542Y-141899336D01*
X138079161Y-142509460D01*
X138263357Y-142954148D01*
X138519841Y-143040554D01*
X139420395Y-142140000D01*
X138519841Y-141239446D01*
X138263357Y-141325852D01*
X138053542Y-141899336D01*
X137389051Y-141899336D01*
X137490050Y-141655504D01*
X137490050Y-141104496D01*
X137279189Y-140595432D01*
X136889568Y-140205811D01*
X136380504Y-139994950D01*
X136252440Y-139994950D01*
X136252440Y-138680000D01*
X136220583Y-138519841D01*
X139969446Y-138519841D01*
X140870000Y-139420395D01*
X141770554Y-138519841D01*
X141684148Y-138263357D01*
X141110664Y-138053542D01*
X140500540Y-138079161D01*
X140055852Y-138263357D01*
X139969446Y-138519841D01*
X136220583Y-138519841D01*
X136203157Y-138432235D01*
X136062809Y-138222191D01*
X135852765Y-138081843D01*
X135605000Y-138032560D01*
X134932595Y-138032560D01*
X139807470Y-133157685D01*
X139994126Y-133235000D01*
X140405874Y-133235000D01*
X140786280Y-133077431D01*
X140878711Y-132985000D01*
X150321289Y-132985000D01*
X150513720Y-133177431D01*
X150894126Y-133335000D01*
X151024843Y-133335000D01*
X151640254Y-133950412D01*
X151684048Y-134015954D01*
X151749590Y-134059748D01*
X151749592Y-134059750D01*
X151913804Y-134169473D01*
X151943709Y-134189455D01*
X152172685Y-134235001D01*
X152172688Y-134235001D01*
X152250000Y-134250379D01*
X152327312Y-134235001D01*
X157372687Y-134235001D01*
X157449999Y-134250379D01*
X157527311Y-134235001D01*
X157527315Y-134235001D01*
X157527320Y-134235000D01*
X157905874Y-134235000D01*
X158286280Y-134077431D01*
X158577431Y-133786280D01*
X158735000Y-133405874D01*
X158735000Y-133275157D01*
X159925157Y-132085000D01*
X163021289Y-132085000D01*
X163113720Y-132177431D01*
X163494126Y-132335000D01*
X163905874Y-132335000D01*
X164286280Y-132177431D01*
X164378711Y-132085000D01*
X166074843Y-132085000D01*
X167265000Y-133275157D01*
X167265000Y-133405874D01*
X167422569Y-133786280D01*
X167713720Y-134077431D01*
X168094126Y-134235000D01*
X168505874Y-134235000D01*
X168886280Y-134077431D01*
X169177431Y-133786280D01*
X169335000Y-133405874D01*
X169335000Y-132994126D01*
X169177431Y-132613720D01*
X168886280Y-132322569D01*
X168505874Y-132165000D01*
X168375157Y-132165000D01*
X167009749Y-130799592D01*
X166965953Y-130734047D01*
X166706292Y-130560546D01*
X166477316Y-130515000D01*
X166477312Y-130515000D01*
X166400000Y-130499622D01*
X166322688Y-130515000D01*
X164378711Y-130515000D01*
X164286280Y-130422569D01*
X163905874Y-130265000D01*
X163494126Y-130265000D01*
X163113720Y-130422569D01*
X163021289Y-130515000D01*
X159677312Y-130515000D01*
X159600000Y-130499622D01*
X159522688Y-130515000D01*
X159522684Y-130515000D01*
X159293708Y-130560546D01*
X159034047Y-130734047D01*
X158990251Y-130799592D01*
X157624843Y-132165000D01*
X157494126Y-132165000D01*
X157412651Y-132198748D01*
X157377431Y-132113720D01*
X157244314Y-131980603D01*
X157215904Y-131837778D01*
X157146593Y-131734047D01*
X157090329Y-131649841D01*
X157090327Y-131649839D01*
X157047929Y-131586386D01*
X156984476Y-131543988D01*
X155456016Y-130015530D01*
X155413614Y-129952071D01*
X155162222Y-129784096D01*
X154940537Y-129740000D01*
X154940532Y-129740000D01*
X154865685Y-129725112D01*
X154790838Y-129740000D01*
X138759484Y-129740000D01*
X138684636Y-129725112D01*
X138609788Y-129740000D01*
X138609784Y-129740000D01*
X138447165Y-129772347D01*
X138388098Y-129784096D01*
X138306393Y-129838690D01*
X138136707Y-129952071D01*
X138094307Y-130015527D01*
X133708878Y-134400957D01*
X133675025Y-101224267D01*
X134448134Y-101224267D01*
X134449511Y-102801566D01*
X134618490Y-104369788D01*
X134873000Y-105541992D01*
X134873000Y-114053275D01*
X134665000Y-114555431D01*
X134665000Y-115444569D01*
X134873000Y-115946725D01*
X134873000Y-117000000D01*
X134882667Y-117048601D01*
X134910197Y-117089803D01*
X134951399Y-117117333D01*
X135000000Y-117127000D01*
X136194696Y-117127000D01*
X136455431Y-117235000D01*
X137344569Y-117235000D01*
X137605304Y-117127000D01*
X160653275Y-117127000D01*
X161155431Y-117335000D01*
X162044569Y-117335000D01*
X162546725Y-117127000D01*
X163500000Y-117127000D01*
X163548601Y-117117333D01*
X163589803Y-117089803D01*
X163617333Y-117048601D01*
X163627000Y-117000000D01*
X163627000Y-116046725D01*
X163835000Y-115544569D01*
X163835000Y-114655431D01*
X163627000Y-114153275D01*
X163627000Y-105537357D01*
X163737433Y-105132294D01*
X163988255Y-103575065D01*
X164072179Y-102000000D01*
X164072156Y-101974130D01*
X163985484Y-100399214D01*
X163731944Y-98842425D01*
X163627000Y-98460125D01*
X163627000Y-89705304D01*
X163735000Y-89444569D01*
X163735000Y-88555431D01*
X163627000Y-88294696D01*
X163627000Y-87400000D01*
X166827070Y-87400000D01*
X166840000Y-87465002D01*
X166840001Y-103434993D01*
X166840000Y-103434998D01*
X166840001Y-117734992D01*
X166827070Y-117800000D01*
X166878294Y-118057519D01*
X167024167Y-118275833D01*
X167242481Y-118421706D01*
X167434997Y-118460000D01*
X167500000Y-118472930D01*
X167565003Y-118460000D01*
X176340000Y-118460000D01*
X176340001Y-126034992D01*
X176327070Y-126100000D01*
X176378294Y-126357519D01*
X176524167Y-126575833D01*
X176742481Y-126721706D01*
X176934997Y-126760000D01*
X177000000Y-126772930D01*
X177065003Y-126760000D01*
X181034997Y-126760000D01*
X181100000Y-126772930D01*
X181165003Y-126760000D01*
X181357519Y-126721706D01*
X181575833Y-126575833D01*
X181721706Y-126357519D01*
X181772930Y-126100000D01*
X181760000Y-126034997D01*
X181760000Y-87065003D01*
X181772930Y-87000000D01*
X181721706Y-86742481D01*
X181575833Y-86524167D01*
X181357519Y-86378294D01*
X181165003Y-86340000D01*
X181100000Y-86327070D01*
X181034997Y-86340000D01*
X177065003Y-86340000D01*
X177000000Y-86327070D01*
X176934997Y-86340000D01*
X176742481Y-86378294D01*
X176524167Y-86524167D01*
X176379952Y-86740000D01*
X167565003Y-86740000D01*
X167500000Y-86727070D01*
X167434997Y-86740000D01*
X167242481Y-86778294D01*
X167024167Y-86924167D01*
X166878294Y-87142481D01*
X166827070Y-87400000D01*
X163627000Y-87400000D01*
X163627000Y-87000000D01*
X163617333Y-86951399D01*
X163589803Y-86910197D01*
X163548601Y-86882667D01*
X163500000Y-86873000D01*
X162205304Y-86873000D01*
X161944569Y-86765000D01*
X161055431Y-86765000D01*
X160794696Y-86873000D01*
X137846725Y-86873000D01*
X137344569Y-86665000D01*
X136455431Y-86665000D01*
X135953275Y-86873000D01*
X135000000Y-86873000D01*
X134951399Y-86882667D01*
X134910197Y-86910197D01*
X134882667Y-86951399D01*
X134873000Y-87000000D01*
X134873000Y-87953275D01*
X134665000Y-88455431D01*
X134665000Y-89344569D01*
X134873000Y-89846725D01*
X134873000Y-98454495D01*
X134614376Y-99655753D01*
X134448134Y-101224267D01*
X133675025Y-101224267D01*
X133660066Y-86564671D01*
X133672930Y-86500000D01*
X133659933Y-86434662D01*
X133659933Y-86434324D01*
X133647366Y-86371483D01*
X133621706Y-86242481D01*
X133621510Y-86242188D01*
X133621442Y-86241847D01*
X133548919Y-86133547D01*
X133475833Y-86024167D01*
X133475541Y-86023972D01*
X133475347Y-86023682D01*
X133366803Y-85951315D01*
X133257519Y-85878294D01*
X133257174Y-85878225D01*
X133256884Y-85878032D01*
X133128914Y-85852713D01*
X133065003Y-85840000D01*
X133064660Y-85840000D01*
X132999314Y-85827071D01*
X132934661Y-85840000D01*
X130675165Y-85840000D01*
X131730165Y-84785000D01*
X149002560Y-84785000D01*
X149002560Y-84850000D01*
X149051843Y-85097765D01*
X149192191Y-85307809D01*
X149402235Y-85448157D01*
X149650000Y-85497440D01*
X151350000Y-85497440D01*
X151597765Y-85448157D01*
X151807809Y-85307809D01*
X151948157Y-85097765D01*
X151997440Y-84850000D01*
X151997440Y-83150000D01*
X151948157Y-82902235D01*
X151807809Y-82692191D01*
X151597765Y-82551843D01*
X151552381Y-82542816D01*
X151570625Y-82530625D01*
X151898839Y-82039418D01*
X151929405Y-81885750D01*
X167115000Y-81885750D01*
X167115000Y-82576310D01*
X167211673Y-82809699D01*
X167390302Y-82988327D01*
X167623691Y-83085000D01*
X168314250Y-83085000D01*
X168473000Y-82926250D01*
X168473000Y-81727000D01*
X168727000Y-81727000D01*
X168727000Y-82926250D01*
X168885750Y-83085000D01*
X169576309Y-83085000D01*
X169809698Y-82988327D01*
X169988327Y-82809699D01*
X170085000Y-82576310D01*
X170085000Y-81885750D01*
X169926250Y-81727000D01*
X168727000Y-81727000D01*
X168473000Y-81727000D01*
X167273750Y-81727000D01*
X167115000Y-81885750D01*
X151929405Y-81885750D01*
X152014092Y-81460000D01*
X151898839Y-80880582D01*
X151570625Y-80389375D01*
X151272239Y-80190000D01*
X151570625Y-79990625D01*
X151898839Y-79499418D01*
X151986244Y-79060000D01*
X167085908Y-79060000D01*
X167201161Y-79639418D01*
X167529375Y-80130625D01*
X167551033Y-80145096D01*
X167390302Y-80211673D01*
X167211673Y-80390301D01*
X167115000Y-80623690D01*
X167115000Y-81314250D01*
X167273750Y-81473000D01*
X168473000Y-81473000D01*
X168473000Y-81453000D01*
X168727000Y-81453000D01*
X168727000Y-81473000D01*
X169926250Y-81473000D01*
X170085000Y-81314250D01*
X170085000Y-80623690D01*
X169988327Y-80390301D01*
X169809698Y-80211673D01*
X169648967Y-80145096D01*
X169670625Y-80130625D01*
X169998839Y-79639418D01*
X170114092Y-79060000D01*
X169998839Y-78480582D01*
X169670625Y-77989375D01*
X169179418Y-77661161D01*
X168746256Y-77575000D01*
X168453744Y-77575000D01*
X168020582Y-77661161D01*
X167529375Y-77989375D01*
X167201161Y-78480582D01*
X167085908Y-79060000D01*
X151986244Y-79060000D01*
X152014092Y-78920000D01*
X151898839Y-78340582D01*
X151570625Y-77849375D01*
X151079418Y-77521161D01*
X150646256Y-77435000D01*
X150353744Y-77435000D01*
X149920582Y-77521161D01*
X149429375Y-77849375D01*
X149101161Y-78340582D01*
X148985908Y-78920000D01*
X149101161Y-79499418D01*
X149429375Y-79990625D01*
X149727761Y-80190000D01*
X149429375Y-80389375D01*
X149101161Y-80880582D01*
X148985908Y-81460000D01*
X149101161Y-82039418D01*
X149429375Y-82530625D01*
X149447619Y-82542816D01*
X149402235Y-82551843D01*
X149192191Y-82692191D01*
X149051843Y-82902235D01*
X149002560Y-83150000D01*
X149002560Y-83215000D01*
X131482320Y-83215000D01*
X131405008Y-83199622D01*
X131327696Y-83215000D01*
X131327692Y-83215000D01*
X131098716Y-83260546D01*
X130839055Y-83434047D01*
X130795259Y-83499592D01*
X127999590Y-86295261D01*
X127934048Y-86339055D01*
X127890254Y-86404597D01*
X127890251Y-86404600D01*
X127760546Y-86598717D01*
X127699622Y-86905008D01*
X127715001Y-86982325D01*
X127715000Y-95764842D01*
X126600114Y-96879728D01*
X126498839Y-96370582D01*
X126170625Y-95879375D01*
X125872239Y-95680000D01*
X126170625Y-95480625D01*
X126498839Y-94989418D01*
X126614092Y-94410000D01*
X126498839Y-93830582D01*
X126170625Y-93339375D01*
X125872239Y-93140000D01*
X126170625Y-92940625D01*
X126498839Y-92449418D01*
X126614092Y-91870000D01*
X126498839Y-91290582D01*
X126170625Y-90799375D01*
X125872239Y-90600000D01*
X126170625Y-90400625D01*
X126498839Y-89909418D01*
X126614092Y-89330000D01*
X126498839Y-88750582D01*
X126170625Y-88259375D01*
X125872239Y-88060000D01*
X126170625Y-87860625D01*
X126498839Y-87369418D01*
X126614092Y-86790000D01*
X126498839Y-86210582D01*
X126170625Y-85719375D01*
X125679418Y-85391161D01*
X125246256Y-85305000D01*
X124953744Y-85305000D01*
X124520582Y-85391161D01*
X124029375Y-85719375D01*
X123830000Y-86017761D01*
X123630625Y-85719375D01*
X123139418Y-85391161D01*
X122706256Y-85305000D01*
X122413744Y-85305000D01*
X122144999Y-85358457D01*
X122144999Y-85316212D01*
X123001202Y-84460010D01*
X125861555Y-84460010D01*
X125936402Y-84474898D01*
X126011249Y-84460010D01*
X126011254Y-84460010D01*
X126232939Y-84415914D01*
X126484331Y-84247939D01*
X126526733Y-84184480D01*
X127656214Y-83055000D01*
X127940330Y-83055000D01*
X128504507Y-82821310D01*
X128936310Y-82389507D01*
X129170000Y-81825330D01*
X129170000Y-81805750D01*
X132310000Y-81805750D01*
X132310000Y-82546309D01*
X132406673Y-82779698D01*
X132585301Y-82958327D01*
X132818690Y-83055000D01*
X133559250Y-83055000D01*
X133718000Y-82896250D01*
X133718000Y-81647000D01*
X132468750Y-81647000D01*
X132310000Y-81805750D01*
X129170000Y-81805750D01*
X129170000Y-81214670D01*
X128936310Y-80650493D01*
X128800817Y-80515000D01*
X129210330Y-80515000D01*
X129774507Y-80281310D01*
X130206310Y-79849507D01*
X130374071Y-79444496D01*
X131059950Y-79444496D01*
X131059950Y-79995504D01*
X131270811Y-80504568D01*
X131660432Y-80894189D01*
X132169496Y-81105050D01*
X132310000Y-81105050D01*
X132310000Y-81234250D01*
X132468750Y-81393000D01*
X133718000Y-81393000D01*
X133718000Y-80266017D01*
X133830050Y-79995504D01*
X133830050Y-79865867D01*
X134039967Y-80075784D01*
X133972000Y-80143750D01*
X133972000Y-81393000D01*
X133992000Y-81393000D01*
X133992000Y-81647000D01*
X133972000Y-81647000D01*
X133972000Y-82896250D01*
X134130750Y-83055000D01*
X134871310Y-83055000D01*
X135104699Y-82958327D01*
X135283327Y-82779698D01*
X135339139Y-82644956D01*
X135515493Y-82821310D01*
X136079670Y-83055000D01*
X136690330Y-83055000D01*
X137254507Y-82821310D01*
X137686310Y-82389507D01*
X137920000Y-81825330D01*
X137920000Y-81805750D01*
X141060000Y-81805750D01*
X141060000Y-82546309D01*
X141156673Y-82779698D01*
X141335301Y-82958327D01*
X141568690Y-83055000D01*
X142309250Y-83055000D01*
X142468000Y-82896250D01*
X142468000Y-81647000D01*
X141218750Y-81647000D01*
X141060000Y-81805750D01*
X137920000Y-81805750D01*
X137920000Y-81214670D01*
X137686310Y-80650493D01*
X137550817Y-80515000D01*
X137960330Y-80515000D01*
X138524507Y-80281310D01*
X138956310Y-79849507D01*
X139124071Y-79444496D01*
X139809950Y-79444496D01*
X139809950Y-79995504D01*
X140020811Y-80504568D01*
X140410432Y-80894189D01*
X140919496Y-81105050D01*
X141060000Y-81105050D01*
X141060000Y-81234250D01*
X141218750Y-81393000D01*
X142468000Y-81393000D01*
X142468000Y-80266017D01*
X142580050Y-79995504D01*
X142580050Y-79865867D01*
X142789967Y-80075784D01*
X142722000Y-80143750D01*
X142722000Y-81393000D01*
X142742000Y-81393000D01*
X142742000Y-81647000D01*
X142722000Y-81647000D01*
X142722000Y-82896250D01*
X142880750Y-83055000D01*
X143621310Y-83055000D01*
X143854699Y-82958327D01*
X144033327Y-82779698D01*
X144089139Y-82644956D01*
X144265493Y-82821310D01*
X144829670Y-83055000D01*
X145440330Y-83055000D01*
X146004507Y-82821310D01*
X146436310Y-82389507D01*
X146670000Y-81825330D01*
X146670000Y-81214670D01*
X146436310Y-80650493D01*
X146300817Y-80515000D01*
X146710330Y-80515000D01*
X147274507Y-80281310D01*
X147706310Y-79849507D01*
X147940000Y-79285330D01*
X147940000Y-78674670D01*
X147706310Y-78110493D01*
X147274507Y-77678690D01*
X146710330Y-77445000D01*
X146099670Y-77445000D01*
X145535493Y-77678690D01*
X145135000Y-78079183D01*
X144734507Y-77678690D01*
X144170330Y-77445000D01*
X143559670Y-77445000D01*
X142995493Y-77678690D01*
X142563690Y-78110493D01*
X142330000Y-78674670D01*
X142330000Y-78896243D01*
X141979568Y-78545811D01*
X141470504Y-78334950D01*
X140919496Y-78334950D01*
X140410432Y-78545811D01*
X140020811Y-78935432D01*
X139809950Y-79444496D01*
X139124071Y-79444496D01*
X139190000Y-79285330D01*
X139190000Y-78674670D01*
X138956310Y-78110493D01*
X138524507Y-77678690D01*
X137960330Y-77445000D01*
X137349670Y-77445000D01*
X136785493Y-77678690D01*
X136385000Y-78079183D01*
X135984507Y-77678690D01*
X135420330Y-77445000D01*
X134809670Y-77445000D01*
X134245493Y-77678690D01*
X133813690Y-78110493D01*
X133580000Y-78674670D01*
X133580000Y-78896243D01*
X133229568Y-78545811D01*
X132720504Y-78334950D01*
X132169496Y-78334950D01*
X131660432Y-78545811D01*
X131270811Y-78935432D01*
X131059950Y-79444496D01*
X130374071Y-79444496D01*
X130440000Y-79285330D01*
X130440000Y-78674670D01*
X130206310Y-78110493D01*
X129774507Y-77678690D01*
X129210330Y-77445000D01*
X128599670Y-77445000D01*
X128035493Y-77678690D01*
X127635000Y-78079183D01*
X127234507Y-77678690D01*
X126670330Y-77445000D01*
X126059670Y-77445000D01*
X125495493Y-77678690D01*
X125063690Y-78110493D01*
X124830000Y-78674670D01*
X124830000Y-78896243D01*
X124479568Y-78545811D01*
X123970504Y-78334950D01*
X123419496Y-78334950D01*
X122910432Y-78545811D01*
X122520811Y-78935432D01*
X122309950Y-79444496D01*
X122309950Y-79995504D01*
X122520811Y-80504568D01*
X122910432Y-80894189D01*
X123419496Y-81105050D01*
X123560000Y-81105050D01*
X123560000Y-81234250D01*
X123718750Y-81393000D01*
X124968000Y-81393000D01*
X124968000Y-80266017D01*
X125080050Y-79995504D01*
X125080050Y-79865867D01*
X125289967Y-80075784D01*
X125222000Y-80143750D01*
X125222000Y-81393000D01*
X125242000Y-81393000D01*
X125242000Y-81647000D01*
X125222000Y-81647000D01*
X125222000Y-81667000D01*
X124968000Y-81667000D01*
X124968000Y-81647000D01*
X123718750Y-81647000D01*
X123560000Y-81805750D01*
X123560000Y-82490000D01*
X122574846Y-82490000D01*
X122499999Y-82475112D01*
X122425152Y-82490000D01*
X122425148Y-82490000D01*
X122203463Y-82534096D01*
X121952071Y-82702071D01*
X121909671Y-82765527D01*
X120015530Y-84659669D01*
X119952071Y-84702071D01*
X119784096Y-84953464D01*
X119740000Y-85175149D01*
X119740000Y-85175153D01*
X119725112Y-85250000D01*
X119740000Y-85324847D01*
X119740001Y-88175148D01*
X119725112Y-88250000D01*
X119784097Y-88546537D01*
X119906431Y-88729622D01*
X119952072Y-88797929D01*
X120015528Y-88840329D01*
X121159671Y-89984473D01*
X121202071Y-90047929D01*
X121295362Y-90110264D01*
X121489375Y-90400625D01*
X121787761Y-90600000D01*
X121489375Y-90799375D01*
X121161161Y-91290582D01*
X121045908Y-91870000D01*
X121161161Y-92449418D01*
X121489375Y-92940625D01*
X121787761Y-93140000D01*
X121489375Y-93339375D01*
X121161161Y-93830582D01*
X121045908Y-94410000D01*
X121161161Y-94989418D01*
X121489375Y-95480625D01*
X121787761Y-95680000D01*
X121489375Y-95879375D01*
X121161161Y-96370582D01*
X121045908Y-96950000D01*
X121161161Y-97529418D01*
X121489375Y-98020625D01*
X121808478Y-98233843D01*
X121678642Y-98294817D01*
X121288355Y-98723076D01*
X121118524Y-99133110D01*
X121239845Y-99363000D01*
X122433000Y-99363000D01*
X122433000Y-99343000D01*
X122687000Y-99343000D01*
X122687000Y-99363000D01*
X122707000Y-99363000D01*
X122707000Y-99617000D01*
X122687000Y-99617000D01*
X122687000Y-99637000D01*
X122433000Y-99637000D01*
X122433000Y-99617000D01*
X121239845Y-99617000D01*
X121118524Y-99846890D01*
X121200578Y-100044999D01*
X115447313Y-100044999D01*
X115370001Y-100029621D01*
X115292689Y-100044999D01*
X115292685Y-100044999D01*
X115063709Y-100090545D01*
X114869592Y-100220250D01*
X114869590Y-100220252D01*
X114804048Y-100264046D01*
X114760254Y-100329588D01*
X114410000Y-100679842D01*
X114410000Y-81805750D01*
X114810000Y-81805750D01*
X114810000Y-82546309D01*
X114906673Y-82779698D01*
X115085301Y-82958327D01*
X115318690Y-83055000D01*
X116059250Y-83055000D01*
X116218000Y-82896250D01*
X116218000Y-81647000D01*
X114968750Y-81647000D01*
X114810000Y-81805750D01*
X114410000Y-81805750D01*
X114410000Y-80997563D01*
X114669496Y-81105050D01*
X114810000Y-81105050D01*
X114810000Y-81234250D01*
X114968750Y-81393000D01*
X116218000Y-81393000D01*
X116218000Y-80266017D01*
X116330050Y-79995504D01*
X116330050Y-79865867D01*
X116539967Y-80075784D01*
X116472000Y-80143750D01*
X116472000Y-81393000D01*
X116492000Y-81393000D01*
X116492000Y-81647000D01*
X116472000Y-81647000D01*
X116472000Y-82896250D01*
X116630750Y-83055000D01*
X117371310Y-83055000D01*
X117604699Y-82958327D01*
X117783327Y-82779698D01*
X117839139Y-82644956D01*
X118015493Y-82821310D01*
X118579670Y-83055000D01*
X119190330Y-83055000D01*
X119754507Y-82821310D01*
X120186310Y-82389507D01*
X120420000Y-81825330D01*
X120420000Y-81214670D01*
X120186310Y-80650493D01*
X120050817Y-80515000D01*
X120460330Y-80515000D01*
X121024507Y-80281310D01*
X121456310Y-79849507D01*
X121690000Y-79285330D01*
X121690000Y-78674670D01*
X121456310Y-78110493D01*
X121024507Y-77678690D01*
X120460330Y-77445000D01*
X119849670Y-77445000D01*
X119285493Y-77678690D01*
X118885000Y-78079183D01*
X118484507Y-77678690D01*
X117920330Y-77445000D01*
X117309670Y-77445000D01*
X116745493Y-77678690D01*
X116313690Y-78110493D01*
X116080000Y-78674670D01*
X116080000Y-78896243D01*
X115729568Y-78545811D01*
X115220504Y-78334950D01*
X114669496Y-78334950D01*
X114410000Y-78442437D01*
X114410000Y-77410000D01*
X185384609Y-77410000D01*
X185170493Y-77498690D01*
X185170493Y-77498690D01*
G37*
X185170493Y-77498690D02*
X184738690Y-77930493D01*
X184505000Y-78494670D01*
X184505000Y-79105330D01*
X184738690Y-79669507D01*
X184874183Y-79805000D01*
X184464670Y-79805000D01*
X183900493Y-80038690D01*
X183468690Y-80470493D01*
X183235000Y-81034670D01*
X183235000Y-81645330D01*
X183468690Y-82209507D01*
X183900493Y-82641310D01*
X184464670Y-82875000D01*
X185075330Y-82875000D01*
X185639507Y-82641310D01*
X186040000Y-82240817D01*
X186440493Y-82641310D01*
X187004670Y-82875000D01*
X187615330Y-82875000D01*
X188179507Y-82641310D01*
X188580000Y-82240817D01*
X188980493Y-82641310D01*
X189544670Y-82875000D01*
X190155330Y-82875000D01*
X190719507Y-82641310D01*
X191120000Y-82240817D01*
X191520493Y-82641310D01*
X192084670Y-82875000D01*
X192695330Y-82875000D01*
X193259507Y-82641310D01*
X193660000Y-82240817D01*
X194060493Y-82641310D01*
X194145000Y-82676314D01*
X194145000Y-83722688D01*
X194129622Y-83800000D01*
X194145000Y-83877312D01*
X194145000Y-83877315D01*
X194171393Y-84010000D01*
X194190546Y-84106291D01*
X194310295Y-84285507D01*
X194364047Y-84365953D01*
X194429592Y-84409749D01*
X199160005Y-89140162D01*
X199125000Y-89224670D01*
X199125000Y-89835330D01*
X199160004Y-89919838D01*
X198399590Y-90680253D01*
X198334048Y-90724047D01*
X198290254Y-90789589D01*
X198290251Y-90789592D01*
X198160546Y-90983709D01*
X198099622Y-91290000D01*
X198115001Y-91367317D01*
X198115000Y-104092688D01*
X198099622Y-104170000D01*
X198115000Y-104247312D01*
X198115000Y-104247315D01*
X198160546Y-104476291D01*
X198334047Y-104735953D01*
X198399592Y-104779749D01*
X199160004Y-105540162D01*
X199125000Y-105624670D01*
X199125000Y-106235330D01*
X199160004Y-106319838D01*
X194624843Y-110855000D01*
X194494126Y-110855000D01*
X194113720Y-111012569D01*
X193822569Y-111303720D01*
X193665000Y-111684126D01*
X193665000Y-111814842D01*
X190999590Y-114480253D01*
X190934048Y-114524047D01*
X190890254Y-114589589D01*
X190890251Y-114589592D01*
X190760546Y-114783709D01*
X190699622Y-115090000D01*
X190715001Y-115167317D01*
X190715000Y-116821289D01*
X190622569Y-116913720D01*
X190465000Y-117294126D01*
X190465000Y-117705874D01*
X190615001Y-118068009D01*
X190615000Y-119722688D01*
X190599622Y-119800000D01*
X190615000Y-119877312D01*
X190615000Y-119877315D01*
X190615001Y-119877320D01*
X190615000Y-123270528D01*
X190394065Y-123049593D01*
X190350269Y-122984048D01*
X190090608Y-122810547D01*
X189861632Y-122765001D01*
X189861628Y-122765001D01*
X189784316Y-122749623D01*
X189707004Y-122765001D01*
X189507407Y-122765001D01*
X189531476Y-122706890D01*
X189410155Y-122477000D01*
X188217000Y-122477000D01*
X188217000Y-122497000D01*
X187963000Y-122497000D01*
X187963000Y-122477000D01*
X187943000Y-122477000D01*
X187943000Y-122223000D01*
X187963000Y-122223000D01*
X187963000Y-122203000D01*
X188217000Y-122203000D01*
X188217000Y-122223000D01*
X189410155Y-122223000D01*
X189531476Y-121993110D01*
X189361645Y-121583076D01*
X188971358Y-121154817D01*
X188841522Y-121093843D01*
X189160625Y-120880625D01*
X189488839Y-120389418D01*
X189604092Y-119810000D01*
X189488839Y-119230582D01*
X189160625Y-118739375D01*
X188862239Y-118540000D01*
X189160625Y-118340625D01*
X189488839Y-117849418D01*
X189604092Y-117270000D01*
X189488839Y-116690582D01*
X189160625Y-116199375D01*
X188862239Y-116000000D01*
X189160625Y-115800625D01*
X189488839Y-115309418D01*
X189604092Y-114730000D01*
X189488839Y-114150582D01*
X189160625Y-113659375D01*
X188862239Y-113460000D01*
X189160625Y-113260625D01*
X189488839Y-112769418D01*
X189604092Y-112190000D01*
X189488839Y-111610582D01*
X189160625Y-111119375D01*
X188862239Y-110920000D01*
X189160625Y-110720625D01*
X189488839Y-110229418D01*
X189604092Y-109650000D01*
X189488839Y-109070582D01*
X189160625Y-108579375D01*
X188862239Y-108380000D01*
X189160625Y-108180625D01*
X189488839Y-107689418D01*
X189604092Y-107110000D01*
X189488839Y-106530582D01*
X189160625Y-106039375D01*
X188862239Y-105840000D01*
X189160625Y-105640625D01*
X189488839Y-105149418D01*
X189604092Y-104570000D01*
X189488839Y-103990582D01*
X189160625Y-103499375D01*
X188862239Y-103300000D01*
X189160625Y-103100625D01*
X189488839Y-102609418D01*
X189604092Y-102030000D01*
X189488839Y-101450582D01*
X189160625Y-100959375D01*
X188841522Y-100746157D01*
X188971358Y-100685183D01*
X189361645Y-100256924D01*
X189531476Y-99846890D01*
X189410155Y-99617000D01*
X188217000Y-99617000D01*
X188217000Y-99637000D01*
X187963000Y-99637000D01*
X187963000Y-99617000D01*
X187943000Y-99617000D01*
X187943000Y-99363000D01*
X187963000Y-99363000D01*
X187963000Y-99343000D01*
X188217000Y-99343000D01*
X188217000Y-99363000D01*
X189410155Y-99363000D01*
X189531476Y-99133110D01*
X189361645Y-98723076D01*
X188971358Y-98294817D01*
X188841522Y-98233843D01*
X189160625Y-98020625D01*
X189488839Y-97529418D01*
X189604092Y-96950000D01*
X189488839Y-96370582D01*
X189160625Y-95879375D01*
X188862239Y-95680000D01*
X189160625Y-95480625D01*
X189488839Y-94989418D01*
X189604092Y-94410000D01*
X189488839Y-93830582D01*
X189160625Y-93339375D01*
X188862239Y-93140000D01*
X189160625Y-92940625D01*
X189488839Y-92449418D01*
X189604092Y-91870000D01*
X189488839Y-91290582D01*
X189160625Y-90799375D01*
X188862239Y-90600000D01*
X189160625Y-90400625D01*
X189488839Y-89909418D01*
X189604092Y-89330000D01*
X189488839Y-88750582D01*
X189160625Y-88259375D01*
X188862239Y-88060000D01*
X189160625Y-87860625D01*
X189488839Y-87369418D01*
X189604092Y-86790000D01*
X189488839Y-86210582D01*
X189160625Y-85719375D01*
X188669418Y-85391161D01*
X188236256Y-85305000D01*
X187943744Y-85305000D01*
X187510582Y-85391161D01*
X187019375Y-85719375D01*
X187007184Y-85737619D01*
X186998157Y-85692235D01*
X186857809Y-85482191D01*
X186647765Y-85341843D01*
X186400000Y-85292560D01*
X184700000Y-85292560D01*
X184452235Y-85341843D01*
X184242191Y-85482191D01*
X184101843Y-85692235D01*
X184052560Y-85940000D01*
X184052560Y-87640000D01*
X184101843Y-87887765D01*
X184242191Y-88097809D01*
X184452235Y-88238157D01*
X184497619Y-88247184D01*
X184479375Y-88259375D01*
X184151161Y-88750582D01*
X184035908Y-89330000D01*
X184151161Y-89909418D01*
X184479375Y-90400625D01*
X184777761Y-90600000D01*
X184479375Y-90799375D01*
X184151161Y-91290582D01*
X184035908Y-91870000D01*
X184151161Y-92449418D01*
X184479375Y-92940625D01*
X184777761Y-93140000D01*
X184479375Y-93339375D01*
X184151161Y-93830582D01*
X184035908Y-94410000D01*
X184151161Y-94989418D01*
X184479375Y-95480625D01*
X184777761Y-95680000D01*
X184479375Y-95879375D01*
X184151161Y-96370582D01*
X184035908Y-96950000D01*
X184151161Y-97529418D01*
X184479375Y-98020625D01*
X184777761Y-98220000D01*
X184479375Y-98419375D01*
X184151161Y-98910582D01*
X184035908Y-99490000D01*
X184151161Y-100069418D01*
X184479375Y-100560625D01*
X184777761Y-100760000D01*
X184479375Y-100959375D01*
X184151161Y-101450582D01*
X184035908Y-102030000D01*
X184151161Y-102609418D01*
X184479375Y-103100625D01*
X184777761Y-103300000D01*
X184479375Y-103499375D01*
X184151161Y-103990582D01*
X184035908Y-104570000D01*
X184151161Y-105149418D01*
X184479375Y-105640625D01*
X184777761Y-105840000D01*
X184479375Y-106039375D01*
X184151161Y-106530582D01*
X184035908Y-107110000D01*
X184151161Y-107689418D01*
X184479375Y-108180625D01*
X184777761Y-108380000D01*
X184479375Y-108579375D01*
X184151161Y-109070582D01*
X184035908Y-109650000D01*
X184151161Y-110229418D01*
X184479375Y-110720625D01*
X184777761Y-110920000D01*
X184479375Y-111119375D01*
X184151161Y-111610582D01*
X184035908Y-112190000D01*
X184151161Y-112769418D01*
X184479375Y-113260625D01*
X184777761Y-113460000D01*
X184479375Y-113659375D01*
X184151161Y-114150582D01*
X184035908Y-114730000D01*
X184151161Y-115309418D01*
X184479375Y-115800625D01*
X184777761Y-116000000D01*
X184479375Y-116199375D01*
X184151161Y-116690582D01*
X184035908Y-117270000D01*
X184151161Y-117849418D01*
X184479375Y-118340625D01*
X184777761Y-118540000D01*
X184479375Y-118739375D01*
X184151161Y-119230582D01*
X184035908Y-119810000D01*
X184151161Y-120389418D01*
X184479375Y-120880625D01*
X184777761Y-121080000D01*
X184479375Y-121279375D01*
X184151161Y-121770582D01*
X184035908Y-122350000D01*
X184151161Y-122929418D01*
X184479375Y-123420625D01*
X184777761Y-123620000D01*
X184479375Y-123819375D01*
X184151161Y-124310582D01*
X184035908Y-124890000D01*
X184151161Y-125469418D01*
X184479375Y-125960625D01*
X184777761Y-126160000D01*
X184479375Y-126359375D01*
X184151161Y-126850582D01*
X184035908Y-127430000D01*
X184151161Y-128009418D01*
X184479375Y-128500625D01*
X184777761Y-128700000D01*
X184479375Y-128899375D01*
X184151161Y-129390582D01*
X184035908Y-129970000D01*
X184151161Y-130549418D01*
X184479375Y-131040625D01*
X184777761Y-131240000D01*
X184479375Y-131439375D01*
X184151161Y-131930582D01*
X184035908Y-132510000D01*
X184151161Y-133089418D01*
X184479375Y-133580625D01*
X184777761Y-133780000D01*
X184479375Y-133979375D01*
X184271822Y-134290000D01*
X179164802Y-134290000D01*
X177235000Y-132360199D01*
X177235000Y-132194126D01*
X177077431Y-131813720D01*
X176786280Y-131522569D01*
X176405874Y-131365000D01*
X175994126Y-131365000D01*
X175613720Y-131522569D01*
X175322569Y-131813720D01*
X175205795Y-132095638D01*
X174635000Y-131524843D01*
X174635000Y-131394126D01*
X174477431Y-131013720D01*
X174186280Y-130722569D01*
X173805874Y-130565000D01*
X173394126Y-130565000D01*
X173013720Y-130722569D01*
X172722569Y-131013720D01*
X172565000Y-131394126D01*
X172565000Y-131805874D01*
X172722569Y-132186280D01*
X173013720Y-132477431D01*
X173394126Y-132635000D01*
X173524843Y-132635000D01*
X177990253Y-137100411D01*
X178034047Y-137165953D01*
X178099589Y-137209747D01*
X178099591Y-137209749D01*
X178293708Y-137339454D01*
X178522684Y-137385000D01*
X178522688Y-137385000D01*
X178600000Y-137400378D01*
X178677312Y-137385000D01*
X179321289Y-137385000D01*
X179413720Y-137477431D01*
X179794126Y-137635000D01*
X180205874Y-137635000D01*
X180586280Y-137477431D01*
X180678711Y-137385000D01*
X188238690Y-137385000D01*
X188316002Y-137400378D01*
X188393314Y-137385000D01*
X194665000Y-137385000D01*
X194665000Y-137505874D01*
X194822569Y-137886280D01*
X195113720Y-138177431D01*
X195494126Y-138335000D01*
X195905874Y-138335000D01*
X196286280Y-138177431D01*
X196577431Y-137886280D01*
X196735000Y-137505874D01*
X196735000Y-137299801D01*
X197551713Y-138116515D01*
X197250540Y-138129161D01*
X196805852Y-138313357D01*
X196719446Y-138569841D01*
X197620000Y-139470395D01*
X197634143Y-139456253D01*
X197813748Y-139635858D01*
X197799605Y-139650000D01*
X197813748Y-139664143D01*
X197634143Y-139843748D01*
X197620000Y-139829605D01*
X197605858Y-139843748D01*
X197426253Y-139664143D01*
X197440395Y-139650000D01*
X196539841Y-138749446D01*
X196283357Y-138835852D01*
X196073542Y-139409336D01*
X196099161Y-140019460D01*
X196283357Y-140464148D01*
X196539839Y-140550553D01*
X196440547Y-140649845D01*
X195980540Y-140669161D01*
X195535852Y-140853357D01*
X195449446Y-141109841D01*
X196350000Y-142010395D01*
X196364143Y-141996253D01*
X196543748Y-142175858D01*
X196529605Y-142190000D01*
X197430159Y-143090554D01*
X197580562Y-143039885D01*
X197588690Y-143059507D01*
X198020493Y-143491310D01*
X198258751Y-143590000D01*
X197011191Y-143590000D01*
X197164148Y-143526643D01*
X197250554Y-143270159D01*
X196350000Y-142369605D01*
X195449446Y-143270159D01*
X195535852Y-143526643D01*
X195709025Y-143590000D01*
X190540538Y-143590000D01*
X190899507Y-143441310D01*
X191331310Y-143009507D01*
X191565000Y-142445330D01*
X191565000Y-142223757D01*
X191915432Y-142574189D01*
X192424496Y-142785050D01*
X192975504Y-142785050D01*
X193484568Y-142574189D01*
X193874189Y-142184568D01*
X193971625Y-141949336D01*
X194803542Y-141949336D01*
X194829161Y-142559460D01*
X195013357Y-143004148D01*
X195269841Y-143090554D01*
X196170395Y-142190000D01*
X195269841Y-141289446D01*
X195013357Y-141375852D01*
X194803542Y-141949336D01*
X193971625Y-141949336D01*
X194085050Y-141675504D01*
X194085050Y-141124496D01*
X193874189Y-140615432D01*
X193484568Y-140225811D01*
X192975504Y-140014950D01*
X192847440Y-140014950D01*
X192847440Y-138700000D01*
X192798157Y-138452235D01*
X192657809Y-138242191D01*
X192447765Y-138101843D01*
X192200000Y-138052560D01*
X190400000Y-138052560D01*
X190152235Y-138101843D01*
X189942191Y-138242191D01*
X189801843Y-138452235D01*
X189798725Y-138467908D01*
X189629507Y-138298690D01*
X189065330Y-138065000D01*
X188454670Y-138065000D01*
X187890493Y-138298690D01*
X187458690Y-138730493D01*
X187450562Y-138750115D01*
X187300159Y-138699446D01*
X186399605Y-139600000D01*
X186413748Y-139614143D01*
X186234143Y-139793748D01*
X186220000Y-139779605D01*
X186205858Y-139793748D01*
X186026253Y-139614143D01*
X186040395Y-139600000D01*
X185139841Y-138699446D01*
X184883357Y-138785852D01*
X184673542Y-139359336D01*
X184699161Y-139969460D01*
X184883357Y-140414148D01*
X185139839Y-140500553D01*
X185040547Y-140599845D01*
X184580540Y-140619161D01*
X184135852Y-140803357D01*
X184049446Y-141059841D01*
X184950000Y-141960395D01*
X184964143Y-141946253D01*
X185143748Y-142125858D01*
X185129605Y-142140000D01*
X186030159Y-143040554D01*
X186180562Y-142989885D01*
X186188690Y-143009507D01*
X186620493Y-143441310D01*
X186979462Y-143590000D01*
X185490480Y-143590000D01*
X185764148Y-143476643D01*
X185850554Y-143220159D01*
X184950000Y-142319605D01*
X184049446Y-143220159D01*
X184135852Y-143476643D01*
X184445689Y-143590000D01*
X179140538Y-143590000D01*
X179499507Y-143441310D01*
X179931310Y-143009507D01*
X180165000Y-142445330D01*
X180165000Y-142223757D01*
X180515432Y-142574189D01*
X181024496Y-142785050D01*
X181575504Y-142785050D01*
X182084568Y-142574189D01*
X182474189Y-142184568D01*
X182592335Y-141899336D01*
X183403542Y-141899336D01*
X183429161Y-142509460D01*
X183613357Y-142954148D01*
X183869841Y-143040554D01*
X184770395Y-142140000D01*
X183869841Y-141239446D01*
X183613357Y-141325852D01*
X183403542Y-141899336D01*
X182592335Y-141899336D01*
X182685050Y-141675504D01*
X182685050Y-141124496D01*
X182474189Y-140615432D01*
X182084568Y-140225811D01*
X181575504Y-140014950D01*
X181447440Y-140014950D01*
X181447440Y-138700000D01*
X181411605Y-138519841D01*
X185319446Y-138519841D01*
X186220000Y-139420395D01*
X187120554Y-138519841D01*
X187034148Y-138263357D01*
X186460664Y-138053542D01*
X185850540Y-138079161D01*
X185405852Y-138263357D01*
X185319446Y-138519841D01*
X181411605Y-138519841D01*
X181398157Y-138452235D01*
X181257809Y-138242191D01*
X181047765Y-138101843D01*
X180800000Y-138052560D01*
X179000000Y-138052560D01*
X178752235Y-138101843D01*
X178542191Y-138242191D01*
X178401843Y-138452235D01*
X178398725Y-138467908D01*
X178229507Y-138298690D01*
X177665330Y-138065000D01*
X177054670Y-138065000D01*
X176490493Y-138298690D01*
X176058690Y-138730493D01*
X176050562Y-138750115D01*
X175900159Y-138699446D01*
X174999605Y-139600000D01*
X175013748Y-139614143D01*
X174834143Y-139793748D01*
X174820000Y-139779605D01*
X174805858Y-139793748D01*
X174626253Y-139614143D01*
X174640395Y-139600000D01*
X173739841Y-138699446D01*
X173483357Y-138785852D01*
X173273542Y-139359336D01*
X173299161Y-139969460D01*
X173483357Y-140414148D01*
X173739839Y-140500553D01*
X173640547Y-140599845D01*
X173180540Y-140619161D01*
X172735852Y-140803357D01*
X172649446Y-141059841D01*
X173550000Y-141960395D01*
X173564143Y-141946253D01*
X173743748Y-142125858D01*
X173729605Y-142140000D01*
X174630159Y-143040554D01*
X174780562Y-142989885D01*
X174788690Y-143009507D01*
X175220493Y-143441310D01*
X175579462Y-143590000D01*
X174090480Y-143590000D01*
X174364148Y-143476643D01*
X174450554Y-143220159D01*
X173550000Y-142319605D01*
X172649446Y-143220159D01*
X172735852Y-143476643D01*
X173045689Y-143590000D01*
X167840538Y-143590000D01*
X168199507Y-143441310D01*
X168631310Y-143009507D01*
X168865000Y-142445330D01*
X168865000Y-142223757D01*
X169215432Y-142574189D01*
X169724496Y-142785050D01*
X170275504Y-142785050D01*
X170784568Y-142574189D01*
X171174189Y-142184568D01*
X171292335Y-141899336D01*
X172003542Y-141899336D01*
X172029161Y-142509460D01*
X172213357Y-142954148D01*
X172469841Y-143040554D01*
X173370395Y-142140000D01*
X172469841Y-141239446D01*
X172213357Y-141325852D01*
X172003542Y-141899336D01*
X171292335Y-141899336D01*
X171385050Y-141675504D01*
X171385050Y-141124496D01*
X171174189Y-140615432D01*
X170784568Y-140225811D01*
X170275504Y-140014950D01*
X170147440Y-140014950D01*
X170147440Y-138700000D01*
X170111605Y-138519841D01*
X173919446Y-138519841D01*
X174820000Y-139420395D01*
X175720554Y-138519841D01*
X175634148Y-138263357D01*
X175060664Y-138053542D01*
X174450540Y-138079161D01*
X174005852Y-138263357D01*
X173919446Y-138519841D01*
X170111605Y-138519841D01*
X170098157Y-138452235D01*
X169957809Y-138242191D01*
X169747765Y-138101843D01*
X169500000Y-138052560D01*
X167700000Y-138052560D01*
X167452235Y-138101843D01*
X167242191Y-138242191D01*
X167101843Y-138452235D01*
X167098725Y-138467908D01*
X166929507Y-138298690D01*
X166365330Y-138065000D01*
X165754670Y-138065000D01*
X165190493Y-138298690D01*
X164758690Y-138730493D01*
X164750562Y-138750115D01*
X164600159Y-138699446D01*
X163699605Y-139600000D01*
X163713748Y-139614143D01*
X163534143Y-139793748D01*
X163520000Y-139779605D01*
X163505858Y-139793748D01*
X163326253Y-139614143D01*
X163340395Y-139600000D01*
X162439841Y-138699446D01*
X162183357Y-138785852D01*
X161973542Y-139359336D01*
X161999161Y-139969460D01*
X162183357Y-140414148D01*
X162439839Y-140500553D01*
X162340547Y-140599845D01*
X161880540Y-140619161D01*
X161435852Y-140803357D01*
X161349446Y-141059841D01*
X162250000Y-141960395D01*
X162264143Y-141946253D01*
X162443748Y-142125858D01*
X162429605Y-142140000D01*
X163330159Y-143040554D01*
X163480562Y-142989885D01*
X163488690Y-143009507D01*
X163920493Y-143441310D01*
X164279462Y-143590000D01*
X162790480Y-143590000D01*
X163064148Y-143476643D01*
X163150554Y-143220159D01*
X162250000Y-142319605D01*
X161349446Y-143220159D01*
X161435852Y-143476643D01*
X161745689Y-143590000D01*
X156540538Y-143590000D01*
X156899507Y-143441310D01*
X157331310Y-143009507D01*
X157565000Y-142445330D01*
X157565000Y-142223757D01*
X157915432Y-142574189D01*
X158424496Y-142785050D01*
X158975504Y-142785050D01*
X159484568Y-142574189D01*
X159874189Y-142184568D01*
X159992335Y-141899336D01*
X160703542Y-141899336D01*
X160729161Y-142509460D01*
X160913357Y-142954148D01*
X161169841Y-143040554D01*
X162070395Y-142140000D01*
X161169841Y-141239446D01*
X160913357Y-141325852D01*
X160703542Y-141899336D01*
X159992335Y-141899336D01*
X160085050Y-141675504D01*
X160085050Y-141124496D01*
X159874189Y-140615432D01*
X159484568Y-140225811D01*
X158975504Y-140014950D01*
X158847440Y-140014950D01*
X158847440Y-138700000D01*
X158811605Y-138519841D01*
X162619446Y-138519841D01*
X163520000Y-139420395D01*
X164420554Y-138519841D01*
X164334148Y-138263357D01*
X163760664Y-138053542D01*
X163150540Y-138079161D01*
X162705852Y-138263357D01*
X162619446Y-138519841D01*
X158811605Y-138519841D01*
X158798157Y-138452235D01*
X158657809Y-138242191D01*
X158447765Y-138101843D01*
X158200000Y-138052560D01*
X156400000Y-138052560D01*
X156152235Y-138101843D01*
X155942191Y-138242191D01*
X155801843Y-138452235D01*
X155798725Y-138467908D01*
X155629507Y-138298690D01*
X155065330Y-138065000D01*
X154454670Y-138065000D01*
X153890493Y-138298690D01*
X153458690Y-138730493D01*
X153450562Y-138750115D01*
X153300159Y-138699446D01*
X152399605Y-139600000D01*
X152413748Y-139614143D01*
X152234143Y-139793748D01*
X152220000Y-139779605D01*
X152205858Y-139793748D01*
X152026253Y-139614143D01*
X152040395Y-139600000D01*
X151139841Y-138699446D01*
X150883357Y-138785852D01*
X150673542Y-139359336D01*
X150699161Y-139969460D01*
X150883357Y-140414148D01*
X151139839Y-140500553D01*
X151040547Y-140599845D01*
X150580540Y-140619161D01*
X150135852Y-140803357D01*
X150049446Y-141059841D01*
X150950000Y-141960395D01*
X150964143Y-141946253D01*
X151143748Y-142125858D01*
X151129605Y-142140000D01*
X152030159Y-143040554D01*
X152180562Y-142989885D01*
X152188690Y-143009507D01*
X152620493Y-143441310D01*
X152979462Y-143590000D01*
X151490480Y-143590000D01*
X151764148Y-143476643D01*
X151850554Y-143220159D01*
X150950000Y-142319605D01*
X150049446Y-143220159D01*
X150135852Y-143476643D01*
X150445689Y-143590000D01*
X145190538Y-143590000D01*
X145549507Y-143441310D01*
X145981310Y-143009507D01*
X146215000Y-142445330D01*
X146215000Y-142223757D01*
X146565432Y-142574189D01*
X147074496Y-142785050D01*
X147625504Y-142785050D01*
X148134568Y-142574189D01*
X148524189Y-142184568D01*
X148642335Y-141899336D01*
X149403542Y-141899336D01*
X149429161Y-142509460D01*
X149613357Y-142954148D01*
X149869841Y-143040554D01*
X150770395Y-142140000D01*
X149869841Y-141239446D01*
X149613357Y-141325852D01*
X149403542Y-141899336D01*
X148642335Y-141899336D01*
X148735050Y-141675504D01*
X148735050Y-141124496D01*
X148524189Y-140615432D01*
X148134568Y-140225811D01*
X147625504Y-140014950D01*
X147497440Y-140014950D01*
X147497440Y-138700000D01*
X147461605Y-138519841D01*
X151319446Y-138519841D01*
X152220000Y-139420395D01*
X153120554Y-138519841D01*
X153034148Y-138263357D01*
X152460664Y-138053542D01*
X151850540Y-138079161D01*
X151405852Y-138263357D01*
X151319446Y-138519841D01*
X147461605Y-138519841D01*
X147448157Y-138452235D01*
X147307809Y-138242191D01*
X147097765Y-138101843D01*
X146850000Y-138052560D01*
X145050000Y-138052560D01*
X144802235Y-138101843D01*
X144592191Y-138242191D01*
X144451843Y-138452235D01*
X144448725Y-138467908D01*
X144279507Y-138298690D01*
X143715330Y-138065000D01*
X143104670Y-138065000D01*
X142540493Y-138298690D01*
X142108690Y-138730493D01*
X142100562Y-138750115D01*
X141950159Y-138699446D01*
X141049605Y-139600000D01*
X141063748Y-139614143D01*
X140884143Y-139793748D01*
X140870000Y-139779605D01*
X140855858Y-139793748D01*
X140676253Y-139614143D01*
X140690395Y-139600000D01*
X139789841Y-138699446D01*
X139533357Y-138785852D01*
X139323542Y-139359336D01*
X139349161Y-139969460D01*
X139533357Y-140414148D01*
X139789839Y-140500553D01*
X139690547Y-140599845D01*
X139230540Y-140619161D01*
X138785852Y-140803357D01*
X138699446Y-141059841D01*
X139600000Y-141960395D01*
X139614143Y-141946253D01*
X139793748Y-142125858D01*
X139779605Y-142140000D01*
X140680159Y-143040554D01*
X140830562Y-142989885D01*
X140838690Y-143009507D01*
X141270493Y-143441310D01*
X141629462Y-143590000D01*
X140140480Y-143590000D01*
X140414148Y-143476643D01*
X140500554Y-143220159D01*
X139600000Y-142319605D01*
X138699446Y-143220159D01*
X138785852Y-143476643D01*
X139095689Y-143590000D01*
X133897254Y-143590000D01*
X134304507Y-143421310D01*
X134736310Y-142989507D01*
X134970000Y-142425330D01*
X134970000Y-142203757D01*
X135320432Y-142554189D01*
X135829496Y-142765050D01*
X136380504Y-142765050D01*
X136889568Y-142554189D01*
X137279189Y-142164568D01*
X137389051Y-141899336D01*
X138053542Y-141899336D01*
X138079161Y-142509460D01*
X138263357Y-142954148D01*
X138519841Y-143040554D01*
X139420395Y-142140000D01*
X138519841Y-141239446D01*
X138263357Y-141325852D01*
X138053542Y-141899336D01*
X137389051Y-141899336D01*
X137490050Y-141655504D01*
X137490050Y-141104496D01*
X137279189Y-140595432D01*
X136889568Y-140205811D01*
X136380504Y-139994950D01*
X136252440Y-139994950D01*
X136252440Y-138680000D01*
X136220583Y-138519841D01*
X139969446Y-138519841D01*
X140870000Y-139420395D01*
X141770554Y-138519841D01*
X141684148Y-138263357D01*
X141110664Y-138053542D01*
X140500540Y-138079161D01*
X140055852Y-138263357D01*
X139969446Y-138519841D01*
X136220583Y-138519841D01*
X136203157Y-138432235D01*
X136062809Y-138222191D01*
X135852765Y-138081843D01*
X135605000Y-138032560D01*
X134932595Y-138032560D01*
X139807470Y-133157685D01*
X139994126Y-133235000D01*
X140405874Y-133235000D01*
X140786280Y-133077431D01*
X140878711Y-132985000D01*
X150321289Y-132985000D01*
X150513720Y-133177431D01*
X150894126Y-133335000D01*
X151024843Y-133335000D01*
X151640254Y-133950412D01*
X151684048Y-134015954D01*
X151749590Y-134059748D01*
X151749592Y-134059750D01*
X151913804Y-134169473D01*
X151943709Y-134189455D01*
X152172685Y-134235001D01*
X152172688Y-134235001D01*
X152250000Y-134250379D01*
X152327312Y-134235001D01*
X157372687Y-134235001D01*
X157449999Y-134250379D01*
X157527311Y-134235001D01*
X157527315Y-134235001D01*
X157527320Y-134235000D01*
X157905874Y-134235000D01*
X158286280Y-134077431D01*
X158577431Y-133786280D01*
X158735000Y-133405874D01*
X158735000Y-133275157D01*
X159925157Y-132085000D01*
X163021289Y-132085000D01*
X163113720Y-132177431D01*
X163494126Y-132335000D01*
X163905874Y-132335000D01*
X164286280Y-132177431D01*
X164378711Y-132085000D01*
X166074843Y-132085000D01*
X167265000Y-133275157D01*
X167265000Y-133405874D01*
X167422569Y-133786280D01*
X167713720Y-134077431D01*
X168094126Y-134235000D01*
X168505874Y-134235000D01*
X168886280Y-134077431D01*
X169177431Y-133786280D01*
X169335000Y-133405874D01*
X169335000Y-132994126D01*
X169177431Y-132613720D01*
X168886280Y-132322569D01*
X168505874Y-132165000D01*
X168375157Y-132165000D01*
X167009749Y-130799592D01*
X166965953Y-130734047D01*
X166706292Y-130560546D01*
X166477316Y-130515000D01*
X166477312Y-130515000D01*
X166400000Y-130499622D01*
X166322688Y-130515000D01*
X164378711Y-130515000D01*
X164286280Y-130422569D01*
X163905874Y-130265000D01*
X163494126Y-130265000D01*
X163113720Y-130422569D01*
X163021289Y-130515000D01*
X159677312Y-130515000D01*
X159600000Y-130499622D01*
X159522688Y-130515000D01*
X159522684Y-130515000D01*
X159293708Y-130560546D01*
X159034047Y-130734047D01*
X158990251Y-130799592D01*
X157624843Y-132165000D01*
X157494126Y-132165000D01*
X157412651Y-132198748D01*
X157377431Y-132113720D01*
X157244314Y-131980603D01*
X157215904Y-131837778D01*
X157146593Y-131734047D01*
X157090329Y-131649841D01*
X157090327Y-131649839D01*
X157047929Y-131586386D01*
X156984476Y-131543988D01*
X155456016Y-130015530D01*
X155413614Y-129952071D01*
X155162222Y-129784096D01*
X154940537Y-129740000D01*
X154940532Y-129740000D01*
X154865685Y-129725112D01*
X154790838Y-129740000D01*
X138759484Y-129740000D01*
X138684636Y-129725112D01*
X138609788Y-129740000D01*
X138609784Y-129740000D01*
X138447165Y-129772347D01*
X138388098Y-129784096D01*
X138306393Y-129838690D01*
X138136707Y-129952071D01*
X138094307Y-130015527D01*
X133708878Y-134400957D01*
X133675025Y-101224267D01*
X134448134Y-101224267D01*
X134449511Y-102801566D01*
X134618490Y-104369788D01*
X134873000Y-105541992D01*
X134873000Y-114053275D01*
X134665000Y-114555431D01*
X134665000Y-115444569D01*
X134873000Y-115946725D01*
X134873000Y-117000000D01*
X134882667Y-117048601D01*
X134910197Y-117089803D01*
X134951399Y-117117333D01*
X135000000Y-117127000D01*
X136194696Y-117127000D01*
X136455431Y-117235000D01*
X137344569Y-117235000D01*
X137605304Y-117127000D01*
X160653275Y-117127000D01*
X161155431Y-117335000D01*
X162044569Y-117335000D01*
X162546725Y-117127000D01*
X163500000Y-117127000D01*
X163548601Y-117117333D01*
X163589803Y-117089803D01*
X163617333Y-117048601D01*
X163627000Y-117000000D01*
X163627000Y-116046725D01*
X163835000Y-115544569D01*
X163835000Y-114655431D01*
X163627000Y-114153275D01*
X163627000Y-105537357D01*
X163737433Y-105132294D01*
X163988255Y-103575065D01*
X164072179Y-102000000D01*
X164072156Y-101974130D01*
X163985484Y-100399214D01*
X163731944Y-98842425D01*
X163627000Y-98460125D01*
X163627000Y-89705304D01*
X163735000Y-89444569D01*
X163735000Y-88555431D01*
X163627000Y-88294696D01*
X163627000Y-87400000D01*
X166827070Y-87400000D01*
X166840000Y-87465002D01*
X166840001Y-103434993D01*
X166840000Y-103434998D01*
X166840001Y-117734992D01*
X166827070Y-117800000D01*
X166878294Y-118057519D01*
X167024167Y-118275833D01*
X167242481Y-118421706D01*
X167434997Y-118460000D01*
X167500000Y-118472930D01*
X167565003Y-118460000D01*
X176340000Y-118460000D01*
X176340001Y-126034992D01*
X176327070Y-126100000D01*
X176378294Y-126357519D01*
X176524167Y-126575833D01*
X176742481Y-126721706D01*
X176934997Y-126760000D01*
X177000000Y-126772930D01*
X177065003Y-126760000D01*
X181034997Y-126760000D01*
X181100000Y-126772930D01*
X181165003Y-126760000D01*
X181357519Y-126721706D01*
X181575833Y-126575833D01*
X181721706Y-126357519D01*
X181772930Y-126100000D01*
X181760000Y-126034997D01*
X181760000Y-87065003D01*
X181772930Y-87000000D01*
X181721706Y-86742481D01*
X181575833Y-86524167D01*
X181357519Y-86378294D01*
X181165003Y-86340000D01*
X181100000Y-86327070D01*
X181034997Y-86340000D01*
X177065003Y-86340000D01*
X177000000Y-86327070D01*
X176934997Y-86340000D01*
X176742481Y-86378294D01*
X176524167Y-86524167D01*
X176379952Y-86740000D01*
X167565003Y-86740000D01*
X167500000Y-86727070D01*
X167434997Y-86740000D01*
X167242481Y-86778294D01*
X167024167Y-86924167D01*
X166878294Y-87142481D01*
X166827070Y-87400000D01*
X163627000Y-87400000D01*
X163627000Y-87000000D01*
X163617333Y-86951399D01*
X163589803Y-86910197D01*
X163548601Y-86882667D01*
X163500000Y-86873000D01*
X162205304Y-86873000D01*
X161944569Y-86765000D01*
X161055431Y-86765000D01*
X160794696Y-86873000D01*
X137846725Y-86873000D01*
X137344569Y-86665000D01*
X136455431Y-86665000D01*
X135953275Y-86873000D01*
X135000000Y-86873000D01*
X134951399Y-86882667D01*
X134910197Y-86910197D01*
X134882667Y-86951399D01*
X134873000Y-87000000D01*
X134873000Y-87953275D01*
X134665000Y-88455431D01*
X134665000Y-89344569D01*
X134873000Y-89846725D01*
X134873000Y-98454495D01*
X134614376Y-99655753D01*
X134448134Y-101224267D01*
X133675025Y-101224267D01*
X133660066Y-86564671D01*
X133672930Y-86500000D01*
X133659933Y-86434662D01*
X133659933Y-86434324D01*
X133647366Y-86371483D01*
X133621706Y-86242481D01*
X133621510Y-86242188D01*
X133621442Y-86241847D01*
X133548919Y-86133547D01*
X133475833Y-86024167D01*
X133475541Y-86023972D01*
X133475347Y-86023682D01*
X133366803Y-85951315D01*
X133257519Y-85878294D01*
X133257174Y-85878225D01*
X133256884Y-85878032D01*
X133128914Y-85852713D01*
X133065003Y-85840000D01*
X133064660Y-85840000D01*
X132999314Y-85827071D01*
X132934661Y-85840000D01*
X130675165Y-85840000D01*
X131730165Y-84785000D01*
X149002560Y-84785000D01*
X149002560Y-84850000D01*
X149051843Y-85097765D01*
X149192191Y-85307809D01*
X149402235Y-85448157D01*
X149650000Y-85497440D01*
X151350000Y-85497440D01*
X151597765Y-85448157D01*
X151807809Y-85307809D01*
X151948157Y-85097765D01*
X151997440Y-84850000D01*
X151997440Y-83150000D01*
X151948157Y-82902235D01*
X151807809Y-82692191D01*
X151597765Y-82551843D01*
X151552381Y-82542816D01*
X151570625Y-82530625D01*
X151898839Y-82039418D01*
X151929405Y-81885750D01*
X167115000Y-81885750D01*
X167115000Y-82576310D01*
X167211673Y-82809699D01*
X167390302Y-82988327D01*
X167623691Y-83085000D01*
X168314250Y-83085000D01*
X168473000Y-82926250D01*
X168473000Y-81727000D01*
X168727000Y-81727000D01*
X168727000Y-82926250D01*
X168885750Y-83085000D01*
X169576309Y-83085000D01*
X169809698Y-82988327D01*
X169988327Y-82809699D01*
X170085000Y-82576310D01*
X170085000Y-81885750D01*
X169926250Y-81727000D01*
X168727000Y-81727000D01*
X168473000Y-81727000D01*
X167273750Y-81727000D01*
X167115000Y-81885750D01*
X151929405Y-81885750D01*
X152014092Y-81460000D01*
X151898839Y-80880582D01*
X151570625Y-80389375D01*
X151272239Y-80190000D01*
X151570625Y-79990625D01*
X151898839Y-79499418D01*
X151986244Y-79060000D01*
X167085908Y-79060000D01*
X167201161Y-79639418D01*
X167529375Y-80130625D01*
X167551033Y-80145096D01*
X167390302Y-80211673D01*
X167211673Y-80390301D01*
X167115000Y-80623690D01*
X167115000Y-81314250D01*
X167273750Y-81473000D01*
X168473000Y-81473000D01*
X168473000Y-81453000D01*
X168727000Y-81453000D01*
X168727000Y-81473000D01*
X169926250Y-81473000D01*
X170085000Y-81314250D01*
X170085000Y-80623690D01*
X169988327Y-80390301D01*
X169809698Y-80211673D01*
X169648967Y-80145096D01*
X169670625Y-80130625D01*
X169998839Y-79639418D01*
X170114092Y-79060000D01*
X169998839Y-78480582D01*
X169670625Y-77989375D01*
X169179418Y-77661161D01*
X168746256Y-77575000D01*
X168453744Y-77575000D01*
X168020582Y-77661161D01*
X167529375Y-77989375D01*
X167201161Y-78480582D01*
X167085908Y-79060000D01*
X151986244Y-79060000D01*
X152014092Y-78920000D01*
X151898839Y-78340582D01*
X151570625Y-77849375D01*
X151079418Y-77521161D01*
X150646256Y-77435000D01*
X150353744Y-77435000D01*
X149920582Y-77521161D01*
X149429375Y-77849375D01*
X149101161Y-78340582D01*
X148985908Y-78920000D01*
X149101161Y-79499418D01*
X149429375Y-79990625D01*
X149727761Y-80190000D01*
X149429375Y-80389375D01*
X149101161Y-80880582D01*
X148985908Y-81460000D01*
X149101161Y-82039418D01*
X149429375Y-82530625D01*
X149447619Y-82542816D01*
X149402235Y-82551843D01*
X149192191Y-82692191D01*
X149051843Y-82902235D01*
X149002560Y-83150000D01*
X149002560Y-83215000D01*
X131482320Y-83215000D01*
X131405008Y-83199622D01*
X131327696Y-83215000D01*
X131327692Y-83215000D01*
X131098716Y-83260546D01*
X130839055Y-83434047D01*
X130795259Y-83499592D01*
X127999590Y-86295261D01*
X127934048Y-86339055D01*
X127890254Y-86404597D01*
X127890251Y-86404600D01*
X127760546Y-86598717D01*
X127699622Y-86905008D01*
X127715001Y-86982325D01*
X127715000Y-95764842D01*
X126600114Y-96879728D01*
X126498839Y-96370582D01*
X126170625Y-95879375D01*
X125872239Y-95680000D01*
X126170625Y-95480625D01*
X126498839Y-94989418D01*
X126614092Y-94410000D01*
X126498839Y-93830582D01*
X126170625Y-93339375D01*
X125872239Y-93140000D01*
X126170625Y-92940625D01*
X126498839Y-92449418D01*
X126614092Y-91870000D01*
X126498839Y-91290582D01*
X126170625Y-90799375D01*
X125872239Y-90600000D01*
X126170625Y-90400625D01*
X126498839Y-89909418D01*
X126614092Y-89330000D01*
X126498839Y-88750582D01*
X126170625Y-88259375D01*
X125872239Y-88060000D01*
X126170625Y-87860625D01*
X126498839Y-87369418D01*
X126614092Y-86790000D01*
X126498839Y-86210582D01*
X126170625Y-85719375D01*
X125679418Y-85391161D01*
X125246256Y-85305000D01*
X124953744Y-85305000D01*
X124520582Y-85391161D01*
X124029375Y-85719375D01*
X123830000Y-86017761D01*
X123630625Y-85719375D01*
X123139418Y-85391161D01*
X122706256Y-85305000D01*
X122413744Y-85305000D01*
X122144999Y-85358457D01*
X122144999Y-85316212D01*
X123001202Y-84460010D01*
X125861555Y-84460010D01*
X125936402Y-84474898D01*
X126011249Y-84460010D01*
X126011254Y-84460010D01*
X126232939Y-84415914D01*
X126484331Y-84247939D01*
X126526733Y-84184480D01*
X127656214Y-83055000D01*
X127940330Y-83055000D01*
X128504507Y-82821310D01*
X128936310Y-82389507D01*
X129170000Y-81825330D01*
X129170000Y-81805750D01*
X132310000Y-81805750D01*
X132310000Y-82546309D01*
X132406673Y-82779698D01*
X132585301Y-82958327D01*
X132818690Y-83055000D01*
X133559250Y-83055000D01*
X133718000Y-82896250D01*
X133718000Y-81647000D01*
X132468750Y-81647000D01*
X132310000Y-81805750D01*
X129170000Y-81805750D01*
X129170000Y-81214670D01*
X128936310Y-80650493D01*
X128800817Y-80515000D01*
X129210330Y-80515000D01*
X129774507Y-80281310D01*
X130206310Y-79849507D01*
X130374071Y-79444496D01*
X131059950Y-79444496D01*
X131059950Y-79995504D01*
X131270811Y-80504568D01*
X131660432Y-80894189D01*
X132169496Y-81105050D01*
X132310000Y-81105050D01*
X132310000Y-81234250D01*
X132468750Y-81393000D01*
X133718000Y-81393000D01*
X133718000Y-80266017D01*
X133830050Y-79995504D01*
X133830050Y-79865867D01*
X134039967Y-80075784D01*
X133972000Y-80143750D01*
X133972000Y-81393000D01*
X133992000Y-81393000D01*
X133992000Y-81647000D01*
X133972000Y-81647000D01*
X133972000Y-82896250D01*
X134130750Y-83055000D01*
X134871310Y-83055000D01*
X135104699Y-82958327D01*
X135283327Y-82779698D01*
X135339139Y-82644956D01*
X135515493Y-82821310D01*
X136079670Y-83055000D01*
X136690330Y-83055000D01*
X137254507Y-82821310D01*
X137686310Y-82389507D01*
X137920000Y-81825330D01*
X137920000Y-81805750D01*
X141060000Y-81805750D01*
X141060000Y-82546309D01*
X141156673Y-82779698D01*
X141335301Y-82958327D01*
X141568690Y-83055000D01*
X142309250Y-83055000D01*
X142468000Y-82896250D01*
X142468000Y-81647000D01*
X141218750Y-81647000D01*
X141060000Y-81805750D01*
X137920000Y-81805750D01*
X137920000Y-81214670D01*
X137686310Y-80650493D01*
X137550817Y-80515000D01*
X137960330Y-80515000D01*
X138524507Y-80281310D01*
X138956310Y-79849507D01*
X139124071Y-79444496D01*
X139809950Y-79444496D01*
X139809950Y-79995504D01*
X140020811Y-80504568D01*
X140410432Y-80894189D01*
X140919496Y-81105050D01*
X141060000Y-81105050D01*
X141060000Y-81234250D01*
X141218750Y-81393000D01*
X142468000Y-81393000D01*
X142468000Y-80266017D01*
X142580050Y-79995504D01*
X142580050Y-79865867D01*
X142789967Y-80075784D01*
X142722000Y-80143750D01*
X142722000Y-81393000D01*
X142742000Y-81393000D01*
X142742000Y-81647000D01*
X142722000Y-81647000D01*
X142722000Y-82896250D01*
X142880750Y-83055000D01*
X143621310Y-83055000D01*
X143854699Y-82958327D01*
X144033327Y-82779698D01*
X144089139Y-82644956D01*
X144265493Y-82821310D01*
X144829670Y-83055000D01*
X145440330Y-83055000D01*
X146004507Y-82821310D01*
X146436310Y-82389507D01*
X146670000Y-81825330D01*
X146670000Y-81214670D01*
X146436310Y-80650493D01*
X146300817Y-80515000D01*
X146710330Y-80515000D01*
X147274507Y-80281310D01*
X147706310Y-79849507D01*
X147940000Y-79285330D01*
X147940000Y-78674670D01*
X147706310Y-78110493D01*
X147274507Y-77678690D01*
X146710330Y-77445000D01*
X146099670Y-77445000D01*
X145535493Y-77678690D01*
X145135000Y-78079183D01*
X144734507Y-77678690D01*
X144170330Y-77445000D01*
X143559670Y-77445000D01*
X142995493Y-77678690D01*
X142563690Y-78110493D01*
X142330000Y-78674670D01*
X142330000Y-78896243D01*
X141979568Y-78545811D01*
X141470504Y-78334950D01*
X140919496Y-78334950D01*
X140410432Y-78545811D01*
X140020811Y-78935432D01*
X139809950Y-79444496D01*
X139124071Y-79444496D01*
X139190000Y-79285330D01*
X139190000Y-78674670D01*
X138956310Y-78110493D01*
X138524507Y-77678690D01*
X137960330Y-77445000D01*
X137349670Y-77445000D01*
X136785493Y-77678690D01*
X136385000Y-78079183D01*
X135984507Y-77678690D01*
X135420330Y-77445000D01*
X134809670Y-77445000D01*
X134245493Y-77678690D01*
X133813690Y-78110493D01*
X133580000Y-78674670D01*
X133580000Y-78896243D01*
X133229568Y-78545811D01*
X132720504Y-78334950D01*
X132169496Y-78334950D01*
X131660432Y-78545811D01*
X131270811Y-78935432D01*
X131059950Y-79444496D01*
X130374071Y-79444496D01*
X130440000Y-79285330D01*
X130440000Y-78674670D01*
X130206310Y-78110493D01*
X129774507Y-77678690D01*
X129210330Y-77445000D01*
X128599670Y-77445000D01*
X128035493Y-77678690D01*
X127635000Y-78079183D01*
X127234507Y-77678690D01*
X126670330Y-77445000D01*
X126059670Y-77445000D01*
X125495493Y-77678690D01*
X125063690Y-78110493D01*
X124830000Y-78674670D01*
X124830000Y-78896243D01*
X124479568Y-78545811D01*
X123970504Y-78334950D01*
X123419496Y-78334950D01*
X122910432Y-78545811D01*
X122520811Y-78935432D01*
X122309950Y-79444496D01*
X122309950Y-79995504D01*
X122520811Y-80504568D01*
X122910432Y-80894189D01*
X123419496Y-81105050D01*
X123560000Y-81105050D01*
X123560000Y-81234250D01*
X123718750Y-81393000D01*
X124968000Y-81393000D01*
X124968000Y-80266017D01*
X125080050Y-79995504D01*
X125080050Y-79865867D01*
X125289967Y-80075784D01*
X125222000Y-80143750D01*
X125222000Y-81393000D01*
X125242000Y-81393000D01*
X125242000Y-81647000D01*
X125222000Y-81647000D01*
X125222000Y-81667000D01*
X124968000Y-81667000D01*
X124968000Y-81647000D01*
X123718750Y-81647000D01*
X123560000Y-81805750D01*
X123560000Y-82490000D01*
X122574846Y-82490000D01*
X122499999Y-82475112D01*
X122425152Y-82490000D01*
X122425148Y-82490000D01*
X122203463Y-82534096D01*
X121952071Y-82702071D01*
X121909671Y-82765527D01*
X120015530Y-84659669D01*
X119952071Y-84702071D01*
X119784096Y-84953464D01*
X119740000Y-85175149D01*
X119740000Y-85175153D01*
X119725112Y-85250000D01*
X119740000Y-85324847D01*
X119740001Y-88175148D01*
X119725112Y-88250000D01*
X119784097Y-88546537D01*
X119906431Y-88729622D01*
X119952072Y-88797929D01*
X120015528Y-88840329D01*
X121159671Y-89984473D01*
X121202071Y-90047929D01*
X121295362Y-90110264D01*
X121489375Y-90400625D01*
X121787761Y-90600000D01*
X121489375Y-90799375D01*
X121161161Y-91290582D01*
X121045908Y-91870000D01*
X121161161Y-92449418D01*
X121489375Y-92940625D01*
X121787761Y-93140000D01*
X121489375Y-93339375D01*
X121161161Y-93830582D01*
X121045908Y-94410000D01*
X121161161Y-94989418D01*
X121489375Y-95480625D01*
X121787761Y-95680000D01*
X121489375Y-95879375D01*
X121161161Y-96370582D01*
X121045908Y-96950000D01*
X121161161Y-97529418D01*
X121489375Y-98020625D01*
X121808478Y-98233843D01*
X121678642Y-98294817D01*
X121288355Y-98723076D01*
X121118524Y-99133110D01*
X121239845Y-99363000D01*
X122433000Y-99363000D01*
X122433000Y-99343000D01*
X122687000Y-99343000D01*
X122687000Y-99363000D01*
X122707000Y-99363000D01*
X122707000Y-99617000D01*
X122687000Y-99617000D01*
X122687000Y-99637000D01*
X122433000Y-99637000D01*
X122433000Y-99617000D01*
X121239845Y-99617000D01*
X121118524Y-99846890D01*
X121200578Y-100044999D01*
X115447313Y-100044999D01*
X115370001Y-100029621D01*
X115292689Y-100044999D01*
X115292685Y-100044999D01*
X115063709Y-100090545D01*
X114869592Y-100220250D01*
X114869590Y-100220252D01*
X114804048Y-100264046D01*
X114760254Y-100329588D01*
X114410000Y-100679842D01*
X114410000Y-81805750D01*
X114810000Y-81805750D01*
X114810000Y-82546309D01*
X114906673Y-82779698D01*
X115085301Y-82958327D01*
X115318690Y-83055000D01*
X116059250Y-83055000D01*
X116218000Y-82896250D01*
X116218000Y-81647000D01*
X114968750Y-81647000D01*
X114810000Y-81805750D01*
X114410000Y-81805750D01*
X114410000Y-80997563D01*
X114669496Y-81105050D01*
X114810000Y-81105050D01*
X114810000Y-81234250D01*
X114968750Y-81393000D01*
X116218000Y-81393000D01*
X116218000Y-80266017D01*
X116330050Y-79995504D01*
X116330050Y-79865867D01*
X116539967Y-80075784D01*
X116472000Y-80143750D01*
X116472000Y-81393000D01*
X116492000Y-81393000D01*
X116492000Y-81647000D01*
X116472000Y-81647000D01*
X116472000Y-82896250D01*
X116630750Y-83055000D01*
X117371310Y-83055000D01*
X117604699Y-82958327D01*
X117783327Y-82779698D01*
X117839139Y-82644956D01*
X118015493Y-82821310D01*
X118579670Y-83055000D01*
X119190330Y-83055000D01*
X119754507Y-82821310D01*
X120186310Y-82389507D01*
X120420000Y-81825330D01*
X120420000Y-81214670D01*
X120186310Y-80650493D01*
X120050817Y-80515000D01*
X120460330Y-80515000D01*
X121024507Y-80281310D01*
X121456310Y-79849507D01*
X121690000Y-79285330D01*
X121690000Y-78674670D01*
X121456310Y-78110493D01*
X121024507Y-77678690D01*
X120460330Y-77445000D01*
X119849670Y-77445000D01*
X119285493Y-77678690D01*
X118885000Y-78079183D01*
X118484507Y-77678690D01*
X117920330Y-77445000D01*
X117309670Y-77445000D01*
X116745493Y-77678690D01*
X116313690Y-78110493D01*
X116080000Y-78674670D01*
X116080000Y-78896243D01*
X115729568Y-78545811D01*
X115220504Y-78334950D01*
X114669496Y-78334950D01*
X114410000Y-78442437D01*
X114410000Y-77410000D01*
X185384609Y-77410000D01*
X185170493Y-77498690D01*
G36*
X121161161Y-125469418D02*
X121489375Y-125960625D01*
X121787761Y-126160000D01*
X121489375Y-126359375D01*
X121161161Y-126850582D01*
X121045908Y-127430000D01*
X121161161Y-128009418D01*
X121489375Y-128500625D01*
X121787761Y-128700000D01*
X121489375Y-128899375D01*
X121161161Y-129390582D01*
X121045908Y-129970000D01*
X121161161Y-130549418D01*
X121489375Y-131040625D01*
X121787761Y-131240000D01*
X121489375Y-131439375D01*
X121161161Y-131930582D01*
X121045908Y-132510000D01*
X121161161Y-133089418D01*
X121489375Y-133580625D01*
X121787761Y-133780000D01*
X121489375Y-133979375D01*
X121161161Y-134470582D01*
X121045908Y-135050000D01*
X121161161Y-135629418D01*
X121489375Y-136120625D01*
X121980582Y-136448839D01*
X122413744Y-136535000D01*
X122706256Y-136535000D01*
X123139418Y-136448839D01*
X123630625Y-136120625D01*
X123642816Y-136102381D01*
X123651843Y-136147765D01*
X123792191Y-136357809D01*
X124002235Y-136498157D01*
X124250000Y-136547440D01*
X125950000Y-136547440D01*
X126197765Y-136498157D01*
X126407809Y-136357809D01*
X126548157Y-136147765D01*
X126597440Y-135900000D01*
X126597440Y-134445001D01*
X126970200Y-134445001D01*
X127289990Y-134764792D01*
X127289990Y-135175143D01*
X127275102Y-135249990D01*
X127289990Y-135324837D01*
X127289990Y-135324842D01*
X127322354Y-135487542D01*
X127334087Y-135546527D01*
X127451715Y-135722569D01*
X127502062Y-135797919D01*
X127565518Y-135840319D01*
X128584694Y-136859496D01*
X128627092Y-136922949D01*
X128690545Y-136965347D01*
X128690547Y-136965349D01*
X128878482Y-137090924D01*
X128974769Y-137110076D01*
X129100169Y-137135020D01*
X129100172Y-137135020D01*
X129175020Y-137149908D01*
X129249868Y-137135020D01*
X133371175Y-137135018D01*
X133446027Y-137149907D01*
X133631908Y-137112933D01*
X132934590Y-137810251D01*
X132869048Y-137854045D01*
X132825254Y-137919587D01*
X132825251Y-137919590D01*
X132695546Y-138113707D01*
X132690745Y-138137842D01*
X132405664Y-138033542D01*
X131795540Y-138059161D01*
X131350852Y-138243357D01*
X131264446Y-138499841D01*
X132165000Y-139400395D01*
X132179143Y-139386253D01*
X132358748Y-139565858D01*
X132344605Y-139580000D01*
X132358748Y-139594143D01*
X132179143Y-139773748D01*
X132165000Y-139759605D01*
X132150858Y-139773748D01*
X131971253Y-139594143D01*
X131985395Y-139580000D01*
X131084841Y-138679446D01*
X130828357Y-138765852D01*
X130618542Y-139339336D01*
X130644161Y-139949460D01*
X130828357Y-140394148D01*
X131084839Y-140480553D01*
X130980392Y-140585000D01*
X130589670Y-140585000D01*
X130025493Y-140818690D01*
X129593690Y-141250493D01*
X129360000Y-141814670D01*
X129360000Y-142425330D01*
X129426138Y-142585001D01*
X124255157Y-142585001D01*
X115845001Y-134174846D01*
X115845001Y-132503758D01*
X115915432Y-132574189D01*
X116424496Y-132785050D01*
X116975504Y-132785050D01*
X117484568Y-132574189D01*
X117874189Y-132184568D01*
X118085050Y-131675504D01*
X118085050Y-131535000D01*
X118214250Y-131535000D01*
X118373000Y-131376250D01*
X118373000Y-130127000D01*
X118627000Y-130127000D01*
X118627000Y-131376250D01*
X118785750Y-131535000D01*
X119526309Y-131535000D01*
X119759698Y-131438327D01*
X119938327Y-131259699D01*
X120035000Y-131026310D01*
X120035000Y-130285750D01*
X119876250Y-130127000D01*
X118627000Y-130127000D01*
X118373000Y-130127000D01*
X117246017Y-130127000D01*
X116975504Y-130014950D01*
X116845867Y-130014950D01*
X117055784Y-129805034D01*
X117123750Y-129873000D01*
X118373000Y-129873000D01*
X118373000Y-129853000D01*
X118627000Y-129853000D01*
X118627000Y-129873000D01*
X119876250Y-129873000D01*
X120035000Y-129714250D01*
X120035000Y-128973690D01*
X119938327Y-128740301D01*
X119759698Y-128561673D01*
X119624956Y-128505861D01*
X119801310Y-128329507D01*
X120035000Y-127765330D01*
X120035000Y-127154670D01*
X119801310Y-126590493D01*
X119759310Y-126548493D01*
X121107609Y-125200194D01*
X121161161Y-125469418D01*
X121161161Y-125469418D01*
G37*
X121161161Y-125469418D02*
X121489375Y-125960625D01*
X121787761Y-126160000D01*
X121489375Y-126359375D01*
X121161161Y-126850582D01*
X121045908Y-127430000D01*
X121161161Y-128009418D01*
X121489375Y-128500625D01*
X121787761Y-128700000D01*
X121489375Y-128899375D01*
X121161161Y-129390582D01*
X121045908Y-129970000D01*
X121161161Y-130549418D01*
X121489375Y-131040625D01*
X121787761Y-131240000D01*
X121489375Y-131439375D01*
X121161161Y-131930582D01*
X121045908Y-132510000D01*
X121161161Y-133089418D01*
X121489375Y-133580625D01*
X121787761Y-133780000D01*
X121489375Y-133979375D01*
X121161161Y-134470582D01*
X121045908Y-135050000D01*
X121161161Y-135629418D01*
X121489375Y-136120625D01*
X121980582Y-136448839D01*
X122413744Y-136535000D01*
X122706256Y-136535000D01*
X123139418Y-136448839D01*
X123630625Y-136120625D01*
X123642816Y-136102381D01*
X123651843Y-136147765D01*
X123792191Y-136357809D01*
X124002235Y-136498157D01*
X124250000Y-136547440D01*
X125950000Y-136547440D01*
X126197765Y-136498157D01*
X126407809Y-136357809D01*
X126548157Y-136147765D01*
X126597440Y-135900000D01*
X126597440Y-134445001D01*
X126970200Y-134445001D01*
X127289990Y-134764792D01*
X127289990Y-135175143D01*
X127275102Y-135249990D01*
X127289990Y-135324837D01*
X127289990Y-135324842D01*
X127322354Y-135487542D01*
X127334087Y-135546527D01*
X127451715Y-135722569D01*
X127502062Y-135797919D01*
X127565518Y-135840319D01*
X128584694Y-136859496D01*
X128627092Y-136922949D01*
X128690545Y-136965347D01*
X128690547Y-136965349D01*
X128878482Y-137090924D01*
X128974769Y-137110076D01*
X129100169Y-137135020D01*
X129100172Y-137135020D01*
X129175020Y-137149908D01*
X129249868Y-137135020D01*
X133371175Y-137135018D01*
X133446027Y-137149907D01*
X133631908Y-137112933D01*
X132934590Y-137810251D01*
X132869048Y-137854045D01*
X132825254Y-137919587D01*
X132825251Y-137919590D01*
X132695546Y-138113707D01*
X132690745Y-138137842D01*
X132405664Y-138033542D01*
X131795540Y-138059161D01*
X131350852Y-138243357D01*
X131264446Y-138499841D01*
X132165000Y-139400395D01*
X132179143Y-139386253D01*
X132358748Y-139565858D01*
X132344605Y-139580000D01*
X132358748Y-139594143D01*
X132179143Y-139773748D01*
X132165000Y-139759605D01*
X132150858Y-139773748D01*
X131971253Y-139594143D01*
X131985395Y-139580000D01*
X131084841Y-138679446D01*
X130828357Y-138765852D01*
X130618542Y-139339336D01*
X130644161Y-139949460D01*
X130828357Y-140394148D01*
X131084839Y-140480553D01*
X130980392Y-140585000D01*
X130589670Y-140585000D01*
X130025493Y-140818690D01*
X129593690Y-141250493D01*
X129360000Y-141814670D01*
X129360000Y-142425330D01*
X129426138Y-142585001D01*
X124255157Y-142585001D01*
X115845001Y-134174846D01*
X115845001Y-132503758D01*
X115915432Y-132574189D01*
X116424496Y-132785050D01*
X116975504Y-132785050D01*
X117484568Y-132574189D01*
X117874189Y-132184568D01*
X118085050Y-131675504D01*
X118085050Y-131535000D01*
X118214250Y-131535000D01*
X118373000Y-131376250D01*
X118373000Y-130127000D01*
X118627000Y-130127000D01*
X118627000Y-131376250D01*
X118785750Y-131535000D01*
X119526309Y-131535000D01*
X119759698Y-131438327D01*
X119938327Y-131259699D01*
X120035000Y-131026310D01*
X120035000Y-130285750D01*
X119876250Y-130127000D01*
X118627000Y-130127000D01*
X118373000Y-130127000D01*
X117246017Y-130127000D01*
X116975504Y-130014950D01*
X116845867Y-130014950D01*
X117055784Y-129805034D01*
X117123750Y-129873000D01*
X118373000Y-129873000D01*
X118373000Y-129853000D01*
X118627000Y-129853000D01*
X118627000Y-129873000D01*
X119876250Y-129873000D01*
X120035000Y-129714250D01*
X120035000Y-128973690D01*
X119938327Y-128740301D01*
X119759698Y-128561673D01*
X119624956Y-128505861D01*
X119801310Y-128329507D01*
X120035000Y-127765330D01*
X120035000Y-127154670D01*
X119801310Y-126590493D01*
X119759310Y-126548493D01*
X121107609Y-125200194D01*
X121161161Y-125469418D01*
G36*
X201823750Y-107073000D02*
X203073000Y-107073000D01*
X203073000Y-107053000D01*
X203327000Y-107053000D01*
X203327000Y-107073000D01*
X203347000Y-107073000D01*
X203347000Y-107327000D01*
X203327000Y-107327000D01*
X203327000Y-108576250D01*
X203485750Y-108735000D01*
X204226309Y-108735000D01*
X204459698Y-108638327D01*
X204613508Y-108484518D01*
X204620164Y-117470152D01*
X204591310Y-117400493D01*
X204159507Y-116968690D01*
X203595330Y-116735000D01*
X203373757Y-116735000D01*
X203724189Y-116384568D01*
X203935050Y-115875504D01*
X203935050Y-115324496D01*
X203724189Y-114815432D01*
X203334568Y-114425811D01*
X202825504Y-114214950D01*
X202274496Y-114214950D01*
X201765432Y-114425811D01*
X201375811Y-114815432D01*
X201164950Y-115324496D01*
X201164950Y-115452560D01*
X199850000Y-115452560D01*
X199602235Y-115501843D01*
X199392191Y-115642191D01*
X199251843Y-115852235D01*
X199202560Y-116100000D01*
X199202560Y-117900000D01*
X199251843Y-118147765D01*
X199392191Y-118357809D01*
X199602235Y-118498157D01*
X199617908Y-118501275D01*
X199448690Y-118670493D01*
X199215000Y-119234670D01*
X199215000Y-119845330D01*
X199448690Y-120409507D01*
X199880493Y-120841310D01*
X199900115Y-120849438D01*
X199849446Y-120999841D01*
X200750000Y-121900395D01*
X200764143Y-121886253D01*
X200943748Y-122065858D01*
X200929605Y-122080000D01*
X200943748Y-122094143D01*
X200764143Y-122273748D01*
X200750000Y-122259605D01*
X199849446Y-123160159D01*
X199935852Y-123416643D01*
X200509336Y-123626458D01*
X201119460Y-123600839D01*
X201564148Y-123416643D01*
X201650553Y-123160161D01*
X201749845Y-123259453D01*
X201769161Y-123719460D01*
X201953357Y-124164148D01*
X202209841Y-124250554D01*
X203110395Y-123350000D01*
X203096253Y-123335858D01*
X203275858Y-123156253D01*
X203290000Y-123170395D01*
X204190554Y-122269841D01*
X204139885Y-122119438D01*
X204159507Y-122111310D01*
X204591310Y-121679507D01*
X204623225Y-121602458D01*
X204623915Y-122534933D01*
X204370159Y-122449446D01*
X203469605Y-123350000D01*
X204370159Y-124250554D01*
X204625123Y-124164660D01*
X204628658Y-128937841D01*
X204259507Y-128568690D01*
X203695330Y-128335000D01*
X203473757Y-128335000D01*
X203824189Y-127984568D01*
X204035050Y-127475504D01*
X204035050Y-126924496D01*
X203824189Y-126415432D01*
X203434568Y-126025811D01*
X202925504Y-125814950D01*
X202374496Y-125814950D01*
X201865432Y-126025811D01*
X201475811Y-126415432D01*
X201264950Y-126924496D01*
X201264950Y-127052560D01*
X199950000Y-127052560D01*
X199702235Y-127101843D01*
X199492191Y-127242191D01*
X199351843Y-127452235D01*
X199302560Y-127700000D01*
X199302560Y-129500000D01*
X199351843Y-129747765D01*
X199492191Y-129957809D01*
X199702235Y-130098157D01*
X199717908Y-130101275D01*
X199548690Y-130270493D01*
X199315000Y-130834670D01*
X199315000Y-131445330D01*
X199548690Y-132009507D01*
X199980493Y-132441310D01*
X200000115Y-132449438D01*
X199949446Y-132599841D01*
X200850000Y-133500395D01*
X200864143Y-133486253D01*
X201043748Y-133665858D01*
X201029605Y-133680000D01*
X201043748Y-133694143D01*
X200864143Y-133873748D01*
X200850000Y-133859605D01*
X199949446Y-134760159D01*
X200035852Y-135016643D01*
X200609336Y-135226458D01*
X201219460Y-135200839D01*
X201664148Y-135016643D01*
X201750553Y-134760161D01*
X201849845Y-134859453D01*
X201869161Y-135319460D01*
X202053357Y-135764148D01*
X202309841Y-135850554D01*
X203210395Y-134950000D01*
X203196253Y-134935858D01*
X203375858Y-134756253D01*
X203390000Y-134770395D01*
X204290554Y-133869841D01*
X204239885Y-133719438D01*
X204259507Y-133711310D01*
X204631918Y-133338899D01*
X204632485Y-134104131D01*
X204470159Y-134049446D01*
X203569605Y-134950000D01*
X204470159Y-135850554D01*
X204633738Y-135795446D01*
X204636981Y-140173257D01*
X204375504Y-140064950D01*
X204247440Y-140064950D01*
X204247440Y-138750000D01*
X204198157Y-138502235D01*
X204057809Y-138292191D01*
X203847765Y-138151843D01*
X203600000Y-138102560D01*
X202227362Y-138102560D01*
X200154961Y-136030159D01*
X202489446Y-136030159D01*
X202575852Y-136286643D01*
X203149336Y-136496458D01*
X203759460Y-136470839D01*
X204204148Y-136286643D01*
X204290554Y-136030159D01*
X203390000Y-135129605D01*
X202489446Y-136030159D01*
X200154961Y-136030159D01*
X198522653Y-134397852D01*
X198522653Y-133439336D01*
X199303542Y-133439336D01*
X199329161Y-134049460D01*
X199513357Y-134494148D01*
X199769841Y-134580554D01*
X200670395Y-133680000D01*
X199769841Y-132779446D01*
X199513357Y-132865852D01*
X199303542Y-133439336D01*
X198522653Y-133439336D01*
X198522653Y-129441058D01*
X198640084Y-129323627D01*
X198797653Y-128943221D01*
X198797653Y-128531473D01*
X198640084Y-128151067D01*
X198348933Y-127859916D01*
X197968527Y-127702347D01*
X197556779Y-127702347D01*
X197176373Y-127859916D01*
X196885222Y-128151067D01*
X196727653Y-128531473D01*
X196727653Y-128943221D01*
X196885222Y-129323627D01*
X197002653Y-129441058D01*
X197002653Y-130734377D01*
X196955874Y-130715000D01*
X196544126Y-130715000D01*
X196163720Y-130872569D01*
X195872569Y-131163720D01*
X195715000Y-131544126D01*
X195715000Y-131955874D01*
X195872569Y-132336280D01*
X195990000Y-132453711D01*
X195990001Y-136165148D01*
X195975112Y-136240000D01*
X195986748Y-136298499D01*
X195905874Y-136265000D01*
X195775157Y-136265000D01*
X195609748Y-136099591D01*
X195565953Y-136034047D01*
X195306292Y-135860546D01*
X195077316Y-135815000D01*
X195077312Y-135815000D01*
X195000000Y-135799622D01*
X194922688Y-135815000D01*
X190211159Y-135815000D01*
X192400408Y-133625751D01*
X192465953Y-133581955D01*
X192639454Y-133322294D01*
X192685000Y-133093318D01*
X192685000Y-133093314D01*
X192700378Y-133016002D01*
X192685000Y-132938690D01*
X192685000Y-132878711D01*
X192777431Y-132786280D01*
X192935000Y-132405874D01*
X192935000Y-131994126D01*
X192777431Y-131613720D01*
X192684654Y-131520943D01*
X192639454Y-131293708D01*
X192465953Y-131034047D01*
X192400408Y-130990251D01*
X191335000Y-129924843D01*
X191335000Y-129794126D01*
X191251627Y-129592845D01*
X193200408Y-127644064D01*
X193265953Y-127600268D01*
X193439454Y-127340607D01*
X193485000Y-127111631D01*
X193485000Y-127111627D01*
X193500378Y-127034315D01*
X193485000Y-126957003D01*
X193485000Y-126685000D01*
X195621289Y-126685000D01*
X195713720Y-126777431D01*
X196094126Y-126935000D01*
X196505874Y-126935000D01*
X196886280Y-126777431D01*
X197177431Y-126486280D01*
X197335000Y-126105874D01*
X197335000Y-125694126D01*
X197177431Y-125313720D01*
X196886280Y-125022569D01*
X196505874Y-124865000D01*
X196094126Y-124865000D01*
X195713720Y-125022569D01*
X195621289Y-125115000D01*
X193025157Y-125115000D01*
X192435000Y-124524843D01*
X192435000Y-124430159D01*
X202389446Y-124430159D01*
X202475852Y-124686643D01*
X203049336Y-124896458D01*
X203659460Y-124870839D01*
X204104148Y-124686643D01*
X204190554Y-124430159D01*
X203290000Y-123529605D01*
X202389446Y-124430159D01*
X192435000Y-124430159D01*
X192435000Y-124394126D01*
X192277431Y-124013720D01*
X192185000Y-123921289D01*
X192185000Y-121839336D01*
X199203542Y-121839336D01*
X199229161Y-122449460D01*
X199413357Y-122894148D01*
X199669841Y-122980554D01*
X200570395Y-122080000D01*
X199669841Y-121179446D01*
X199413357Y-121265852D01*
X199203542Y-121839336D01*
X192185000Y-121839336D01*
X192185000Y-120885000D01*
X196821289Y-120885000D01*
X196913720Y-120977431D01*
X197294126Y-121135000D01*
X197705874Y-121135000D01*
X198086280Y-120977431D01*
X198377431Y-120686280D01*
X198535000Y-120305874D01*
X198535000Y-119894126D01*
X198377431Y-119513720D01*
X198086280Y-119222569D01*
X197705874Y-119065000D01*
X197294126Y-119065000D01*
X196913720Y-119222569D01*
X196821289Y-119315000D01*
X192185000Y-119315000D01*
X192185000Y-118278711D01*
X192377431Y-118086280D01*
X192535000Y-117705874D01*
X192535000Y-117294126D01*
X192377431Y-116913720D01*
X192285000Y-116821289D01*
X192285000Y-115415157D01*
X194775158Y-112925000D01*
X194905874Y-112925000D01*
X195286280Y-112767431D01*
X195577431Y-112476280D01*
X195735000Y-112095874D01*
X195735000Y-111965157D01*
X200270162Y-107429996D01*
X200354670Y-107465000D01*
X200576243Y-107465000D01*
X200225811Y-107815432D01*
X200014950Y-108324496D01*
X200014950Y-108875504D01*
X200225811Y-109384568D01*
X200615432Y-109774189D01*
X201124496Y-109985050D01*
X201675504Y-109985050D01*
X202184568Y-109774189D01*
X202574189Y-109384568D01*
X202785050Y-108875504D01*
X202785050Y-108735000D01*
X202914250Y-108735000D01*
X203073000Y-108576250D01*
X203073000Y-107327000D01*
X201946017Y-107327000D01*
X201675504Y-107214950D01*
X201545867Y-107214950D01*
X201755784Y-107005034D01*
X201823750Y-107073000D01*
X201823750Y-107073000D01*
G37*
X201823750Y-107073000D02*
X203073000Y-107073000D01*
X203073000Y-107053000D01*
X203327000Y-107053000D01*
X203327000Y-107073000D01*
X203347000Y-107073000D01*
X203347000Y-107327000D01*
X203327000Y-107327000D01*
X203327000Y-108576250D01*
X203485750Y-108735000D01*
X204226309Y-108735000D01*
X204459698Y-108638327D01*
X204613508Y-108484518D01*
X204620164Y-117470152D01*
X204591310Y-117400493D01*
X204159507Y-116968690D01*
X203595330Y-116735000D01*
X203373757Y-116735000D01*
X203724189Y-116384568D01*
X203935050Y-115875504D01*
X203935050Y-115324496D01*
X203724189Y-114815432D01*
X203334568Y-114425811D01*
X202825504Y-114214950D01*
X202274496Y-114214950D01*
X201765432Y-114425811D01*
X201375811Y-114815432D01*
X201164950Y-115324496D01*
X201164950Y-115452560D01*
X199850000Y-115452560D01*
X199602235Y-115501843D01*
X199392191Y-115642191D01*
X199251843Y-115852235D01*
X199202560Y-116100000D01*
X199202560Y-117900000D01*
X199251843Y-118147765D01*
X199392191Y-118357809D01*
X199602235Y-118498157D01*
X199617908Y-118501275D01*
X199448690Y-118670493D01*
X199215000Y-119234670D01*
X199215000Y-119845330D01*
X199448690Y-120409507D01*
X199880493Y-120841310D01*
X199900115Y-120849438D01*
X199849446Y-120999841D01*
X200750000Y-121900395D01*
X200764143Y-121886253D01*
X200943748Y-122065858D01*
X200929605Y-122080000D01*
X200943748Y-122094143D01*
X200764143Y-122273748D01*
X200750000Y-122259605D01*
X199849446Y-123160159D01*
X199935852Y-123416643D01*
X200509336Y-123626458D01*
X201119460Y-123600839D01*
X201564148Y-123416643D01*
X201650553Y-123160161D01*
X201749845Y-123259453D01*
X201769161Y-123719460D01*
X201953357Y-124164148D01*
X202209841Y-124250554D01*
X203110395Y-123350000D01*
X203096253Y-123335858D01*
X203275858Y-123156253D01*
X203290000Y-123170395D01*
X204190554Y-122269841D01*
X204139885Y-122119438D01*
X204159507Y-122111310D01*
X204591310Y-121679507D01*
X204623225Y-121602458D01*
X204623915Y-122534933D01*
X204370159Y-122449446D01*
X203469605Y-123350000D01*
X204370159Y-124250554D01*
X204625123Y-124164660D01*
X204628658Y-128937841D01*
X204259507Y-128568690D01*
X203695330Y-128335000D01*
X203473757Y-128335000D01*
X203824189Y-127984568D01*
X204035050Y-127475504D01*
X204035050Y-126924496D01*
X203824189Y-126415432D01*
X203434568Y-126025811D01*
X202925504Y-125814950D01*
X202374496Y-125814950D01*
X201865432Y-126025811D01*
X201475811Y-126415432D01*
X201264950Y-126924496D01*
X201264950Y-127052560D01*
X199950000Y-127052560D01*
X199702235Y-127101843D01*
X199492191Y-127242191D01*
X199351843Y-127452235D01*
X199302560Y-127700000D01*
X199302560Y-129500000D01*
X199351843Y-129747765D01*
X199492191Y-129957809D01*
X199702235Y-130098157D01*
X199717908Y-130101275D01*
X199548690Y-130270493D01*
X199315000Y-130834670D01*
X199315000Y-131445330D01*
X199548690Y-132009507D01*
X199980493Y-132441310D01*
X200000115Y-132449438D01*
X199949446Y-132599841D01*
X200850000Y-133500395D01*
X200864143Y-133486253D01*
X201043748Y-133665858D01*
X201029605Y-133680000D01*
X201043748Y-133694143D01*
X200864143Y-133873748D01*
X200850000Y-133859605D01*
X199949446Y-134760159D01*
X200035852Y-135016643D01*
X200609336Y-135226458D01*
X201219460Y-135200839D01*
X201664148Y-135016643D01*
X201750553Y-134760161D01*
X201849845Y-134859453D01*
X201869161Y-135319460D01*
X202053357Y-135764148D01*
X202309841Y-135850554D01*
X203210395Y-134950000D01*
X203196253Y-134935858D01*
X203375858Y-134756253D01*
X203390000Y-134770395D01*
X204290554Y-133869841D01*
X204239885Y-133719438D01*
X204259507Y-133711310D01*
X204631918Y-133338899D01*
X204632485Y-134104131D01*
X204470159Y-134049446D01*
X203569605Y-134950000D01*
X204470159Y-135850554D01*
X204633738Y-135795446D01*
X204636981Y-140173257D01*
X204375504Y-140064950D01*
X204247440Y-140064950D01*
X204247440Y-138750000D01*
X204198157Y-138502235D01*
X204057809Y-138292191D01*
X203847765Y-138151843D01*
X203600000Y-138102560D01*
X202227362Y-138102560D01*
X200154961Y-136030159D01*
X202489446Y-136030159D01*
X202575852Y-136286643D01*
X203149336Y-136496458D01*
X203759460Y-136470839D01*
X204204148Y-136286643D01*
X204290554Y-136030159D01*
X203390000Y-135129605D01*
X202489446Y-136030159D01*
X200154961Y-136030159D01*
X198522653Y-134397852D01*
X198522653Y-133439336D01*
X199303542Y-133439336D01*
X199329161Y-134049460D01*
X199513357Y-134494148D01*
X199769841Y-134580554D01*
X200670395Y-133680000D01*
X199769841Y-132779446D01*
X199513357Y-132865852D01*
X199303542Y-133439336D01*
X198522653Y-133439336D01*
X198522653Y-129441058D01*
X198640084Y-129323627D01*
X198797653Y-128943221D01*
X198797653Y-128531473D01*
X198640084Y-128151067D01*
X198348933Y-127859916D01*
X197968527Y-127702347D01*
X197556779Y-127702347D01*
X197176373Y-127859916D01*
X196885222Y-128151067D01*
X196727653Y-128531473D01*
X196727653Y-128943221D01*
X196885222Y-129323627D01*
X197002653Y-129441058D01*
X197002653Y-130734377D01*
X196955874Y-130715000D01*
X196544126Y-130715000D01*
X196163720Y-130872569D01*
X195872569Y-131163720D01*
X195715000Y-131544126D01*
X195715000Y-131955874D01*
X195872569Y-132336280D01*
X195990000Y-132453711D01*
X195990001Y-136165148D01*
X195975112Y-136240000D01*
X195986748Y-136298499D01*
X195905874Y-136265000D01*
X195775157Y-136265000D01*
X195609748Y-136099591D01*
X195565953Y-136034047D01*
X195306292Y-135860546D01*
X195077316Y-135815000D01*
X195077312Y-135815000D01*
X195000000Y-135799622D01*
X194922688Y-135815000D01*
X190211159Y-135815000D01*
X192400408Y-133625751D01*
X192465953Y-133581955D01*
X192639454Y-133322294D01*
X192685000Y-133093318D01*
X192685000Y-133093314D01*
X192700378Y-133016002D01*
X192685000Y-132938690D01*
X192685000Y-132878711D01*
X192777431Y-132786280D01*
X192935000Y-132405874D01*
X192935000Y-131994126D01*
X192777431Y-131613720D01*
X192684654Y-131520943D01*
X192639454Y-131293708D01*
X192465953Y-131034047D01*
X192400408Y-130990251D01*
X191335000Y-129924843D01*
X191335000Y-129794126D01*
X191251627Y-129592845D01*
X193200408Y-127644064D01*
X193265953Y-127600268D01*
X193439454Y-127340607D01*
X193485000Y-127111631D01*
X193485000Y-127111627D01*
X193500378Y-127034315D01*
X193485000Y-126957003D01*
X193485000Y-126685000D01*
X195621289Y-126685000D01*
X195713720Y-126777431D01*
X196094126Y-126935000D01*
X196505874Y-126935000D01*
X196886280Y-126777431D01*
X197177431Y-126486280D01*
X197335000Y-126105874D01*
X197335000Y-125694126D01*
X197177431Y-125313720D01*
X196886280Y-125022569D01*
X196505874Y-124865000D01*
X196094126Y-124865000D01*
X195713720Y-125022569D01*
X195621289Y-125115000D01*
X193025157Y-125115000D01*
X192435000Y-124524843D01*
X192435000Y-124430159D01*
X202389446Y-124430159D01*
X202475852Y-124686643D01*
X203049336Y-124896458D01*
X203659460Y-124870839D01*
X204104148Y-124686643D01*
X204190554Y-124430159D01*
X203290000Y-123529605D01*
X202389446Y-124430159D01*
X192435000Y-124430159D01*
X192435000Y-124394126D01*
X192277431Y-124013720D01*
X192185000Y-123921289D01*
X192185000Y-121839336D01*
X199203542Y-121839336D01*
X199229161Y-122449460D01*
X199413357Y-122894148D01*
X199669841Y-122980554D01*
X200570395Y-122080000D01*
X199669841Y-121179446D01*
X199413357Y-121265852D01*
X199203542Y-121839336D01*
X192185000Y-121839336D01*
X192185000Y-120885000D01*
X196821289Y-120885000D01*
X196913720Y-120977431D01*
X197294126Y-121135000D01*
X197705874Y-121135000D01*
X198086280Y-120977431D01*
X198377431Y-120686280D01*
X198535000Y-120305874D01*
X198535000Y-119894126D01*
X198377431Y-119513720D01*
X198086280Y-119222569D01*
X197705874Y-119065000D01*
X197294126Y-119065000D01*
X196913720Y-119222569D01*
X196821289Y-119315000D01*
X192185000Y-119315000D01*
X192185000Y-118278711D01*
X192377431Y-118086280D01*
X192535000Y-117705874D01*
X192535000Y-117294126D01*
X192377431Y-116913720D01*
X192285000Y-116821289D01*
X192285000Y-115415157D01*
X194775158Y-112925000D01*
X194905874Y-112925000D01*
X195286280Y-112767431D01*
X195577431Y-112476280D01*
X195735000Y-112095874D01*
X195735000Y-111965157D01*
X200270162Y-107429996D01*
X200354670Y-107465000D01*
X200576243Y-107465000D01*
X200225811Y-107815432D01*
X200014950Y-108324496D01*
X200014950Y-108875504D01*
X200225811Y-109384568D01*
X200615432Y-109774189D01*
X201124496Y-109985050D01*
X201675504Y-109985050D01*
X202184568Y-109774189D01*
X202574189Y-109384568D01*
X202785050Y-108875504D01*
X202785050Y-108735000D01*
X202914250Y-108735000D01*
X203073000Y-108576250D01*
X203073000Y-107327000D01*
X201946017Y-107327000D01*
X201675504Y-107214950D01*
X201545867Y-107214950D01*
X201755784Y-107005034D01*
X201823750Y-107073000D01*
G36*
X122687000Y-122223000D02*
X122707000Y-122223000D01*
X122707000Y-122477000D01*
X122687000Y-122477000D01*
X122687000Y-122497000D01*
X122433000Y-122497000D01*
X122433000Y-122477000D01*
X122413000Y-122477000D01*
X122413000Y-122223000D01*
X122433000Y-122223000D01*
X122433000Y-122203000D01*
X122687000Y-122203000D01*
X122687000Y-122223000D01*
X122687000Y-122223000D01*
G37*
X122687000Y-122223000D02*
X122707000Y-122223000D01*
X122707000Y-122477000D01*
X122687000Y-122477000D01*
X122687000Y-122497000D01*
X122433000Y-122497000D01*
X122433000Y-122477000D01*
X122413000Y-122477000D01*
X122413000Y-122223000D01*
X122433000Y-122223000D01*
X122433000Y-122203000D01*
X122687000Y-122203000D01*
X122687000Y-122223000D01*
G36*
X121045908Y-102030000D02*
X121161161Y-102609418D01*
X121489375Y-103100625D01*
X121787761Y-103300000D01*
X121489375Y-103499375D01*
X121161161Y-103990582D01*
X121045908Y-104570000D01*
X121161161Y-105149418D01*
X121489375Y-105640625D01*
X121787761Y-105840000D01*
X121489375Y-106039375D01*
X121161161Y-106530582D01*
X121045908Y-107110000D01*
X121161161Y-107689418D01*
X121489375Y-108180625D01*
X121787761Y-108380000D01*
X121489375Y-108579375D01*
X121161161Y-109070582D01*
X121045908Y-109650000D01*
X121161161Y-110229418D01*
X121489375Y-110720625D01*
X121787761Y-110920000D01*
X121489375Y-111119375D01*
X121161161Y-111610582D01*
X121045908Y-112190000D01*
X121161161Y-112769418D01*
X121489375Y-113260625D01*
X121787761Y-113460000D01*
X121489375Y-113659375D01*
X121161161Y-114150582D01*
X121045908Y-114730000D01*
X121161161Y-115309418D01*
X121489375Y-115800625D01*
X121787761Y-116000000D01*
X121489375Y-116199375D01*
X121161161Y-116690582D01*
X121045908Y-117270000D01*
X121161161Y-117849418D01*
X121489375Y-118340625D01*
X121787761Y-118540000D01*
X121489375Y-118739375D01*
X121161161Y-119230582D01*
X121045908Y-119810000D01*
X121118858Y-120176745D01*
X120994097Y-120363463D01*
X120950001Y-120585148D01*
X120950001Y-120585152D01*
X120935113Y-120659999D01*
X120938944Y-120679257D01*
X119891052Y-121727149D01*
X119801310Y-121510493D01*
X119400817Y-121110000D01*
X119801310Y-120709507D01*
X120035000Y-120145330D01*
X120035000Y-119534670D01*
X119801310Y-118970493D01*
X119369507Y-118538690D01*
X118805330Y-118305000D01*
X118194670Y-118305000D01*
X117630493Y-118538690D01*
X117495000Y-118674183D01*
X117495000Y-118264670D01*
X117261310Y-117700493D01*
X116829507Y-117268690D01*
X116265330Y-117035000D01*
X115654670Y-117035000D01*
X115285000Y-117188122D01*
X115285000Y-113861878D01*
X115654670Y-114015000D01*
X115876243Y-114015000D01*
X115525811Y-114365432D01*
X115314950Y-114874496D01*
X115314950Y-115425504D01*
X115525811Y-115934568D01*
X115915432Y-116324189D01*
X116424496Y-116535050D01*
X116975504Y-116535050D01*
X117484568Y-116324189D01*
X117874189Y-115934568D01*
X118085050Y-115425504D01*
X118085050Y-115285000D01*
X118214250Y-115285000D01*
X118373000Y-115126250D01*
X118373000Y-113877000D01*
X118627000Y-113877000D01*
X118627000Y-115126250D01*
X118785750Y-115285000D01*
X119526309Y-115285000D01*
X119759698Y-115188327D01*
X119938327Y-115009699D01*
X120035000Y-114776310D01*
X120035000Y-114035750D01*
X119876250Y-113877000D01*
X118627000Y-113877000D01*
X118373000Y-113877000D01*
X117246017Y-113877000D01*
X116975504Y-113764950D01*
X116845867Y-113764950D01*
X117055784Y-113555034D01*
X117123750Y-113623000D01*
X118373000Y-113623000D01*
X118373000Y-113603000D01*
X118627000Y-113603000D01*
X118627000Y-113623000D01*
X119876250Y-113623000D01*
X120035000Y-113464250D01*
X120035000Y-112723690D01*
X119938327Y-112490301D01*
X119759698Y-112311673D01*
X119624956Y-112255861D01*
X119801310Y-112079507D01*
X120035000Y-111515330D01*
X120035000Y-110904670D01*
X119801310Y-110340493D01*
X119400817Y-109940000D01*
X119801310Y-109539507D01*
X120035000Y-108975330D01*
X120035000Y-108364670D01*
X119801310Y-107800493D01*
X119400817Y-107400000D01*
X119801310Y-106999507D01*
X120035000Y-106435330D01*
X120035000Y-105824670D01*
X119801310Y-105260493D01*
X119400817Y-104860000D01*
X119801310Y-104459507D01*
X120035000Y-103895330D01*
X120035000Y-103284670D01*
X119801310Y-102720493D01*
X119369507Y-102288690D01*
X118805330Y-102055000D01*
X118194670Y-102055000D01*
X117630493Y-102288690D01*
X117495000Y-102424183D01*
X117495000Y-102014670D01*
X117329451Y-101614999D01*
X121128457Y-101614999D01*
X121045908Y-102030000D01*
X121045908Y-102030000D01*
G37*
X121045908Y-102030000D02*
X121161161Y-102609418D01*
X121489375Y-103100625D01*
X121787761Y-103300000D01*
X121489375Y-103499375D01*
X121161161Y-103990582D01*
X121045908Y-104570000D01*
X121161161Y-105149418D01*
X121489375Y-105640625D01*
X121787761Y-105840000D01*
X121489375Y-106039375D01*
X121161161Y-106530582D01*
X121045908Y-107110000D01*
X121161161Y-107689418D01*
X121489375Y-108180625D01*
X121787761Y-108380000D01*
X121489375Y-108579375D01*
X121161161Y-109070582D01*
X121045908Y-109650000D01*
X121161161Y-110229418D01*
X121489375Y-110720625D01*
X121787761Y-110920000D01*
X121489375Y-111119375D01*
X121161161Y-111610582D01*
X121045908Y-112190000D01*
X121161161Y-112769418D01*
X121489375Y-113260625D01*
X121787761Y-113460000D01*
X121489375Y-113659375D01*
X121161161Y-114150582D01*
X121045908Y-114730000D01*
X121161161Y-115309418D01*
X121489375Y-115800625D01*
X121787761Y-116000000D01*
X121489375Y-116199375D01*
X121161161Y-116690582D01*
X121045908Y-117270000D01*
X121161161Y-117849418D01*
X121489375Y-118340625D01*
X121787761Y-118540000D01*
X121489375Y-118739375D01*
X121161161Y-119230582D01*
X121045908Y-119810000D01*
X121118858Y-120176745D01*
X120994097Y-120363463D01*
X120950001Y-120585148D01*
X120950001Y-120585152D01*
X120935113Y-120659999D01*
X120938944Y-120679257D01*
X119891052Y-121727149D01*
X119801310Y-121510493D01*
X119400817Y-121110000D01*
X119801310Y-120709507D01*
X120035000Y-120145330D01*
X120035000Y-119534670D01*
X119801310Y-118970493D01*
X119369507Y-118538690D01*
X118805330Y-118305000D01*
X118194670Y-118305000D01*
X117630493Y-118538690D01*
X117495000Y-118674183D01*
X117495000Y-118264670D01*
X117261310Y-117700493D01*
X116829507Y-117268690D01*
X116265330Y-117035000D01*
X115654670Y-117035000D01*
X115285000Y-117188122D01*
X115285000Y-113861878D01*
X115654670Y-114015000D01*
X115876243Y-114015000D01*
X115525811Y-114365432D01*
X115314950Y-114874496D01*
X115314950Y-115425504D01*
X115525811Y-115934568D01*
X115915432Y-116324189D01*
X116424496Y-116535050D01*
X116975504Y-116535050D01*
X117484568Y-116324189D01*
X117874189Y-115934568D01*
X118085050Y-115425504D01*
X118085050Y-115285000D01*
X118214250Y-115285000D01*
X118373000Y-115126250D01*
X118373000Y-113877000D01*
X118627000Y-113877000D01*
X118627000Y-115126250D01*
X118785750Y-115285000D01*
X119526309Y-115285000D01*
X119759698Y-115188327D01*
X119938327Y-115009699D01*
X120035000Y-114776310D01*
X120035000Y-114035750D01*
X119876250Y-113877000D01*
X118627000Y-113877000D01*
X118373000Y-113877000D01*
X117246017Y-113877000D01*
X116975504Y-113764950D01*
X116845867Y-113764950D01*
X117055784Y-113555034D01*
X117123750Y-113623000D01*
X118373000Y-113623000D01*
X118373000Y-113603000D01*
X118627000Y-113603000D01*
X118627000Y-113623000D01*
X119876250Y-113623000D01*
X120035000Y-113464250D01*
X120035000Y-112723690D01*
X119938327Y-112490301D01*
X119759698Y-112311673D01*
X119624956Y-112255861D01*
X119801310Y-112079507D01*
X120035000Y-111515330D01*
X120035000Y-110904670D01*
X119801310Y-110340493D01*
X119400817Y-109940000D01*
X119801310Y-109539507D01*
X120035000Y-108975330D01*
X120035000Y-108364670D01*
X119801310Y-107800493D01*
X119400817Y-107400000D01*
X119801310Y-106999507D01*
X120035000Y-106435330D01*
X120035000Y-105824670D01*
X119801310Y-105260493D01*
X119400817Y-104860000D01*
X119801310Y-104459507D01*
X120035000Y-103895330D01*
X120035000Y-103284670D01*
X119801310Y-102720493D01*
X119369507Y-102288690D01*
X118805330Y-102055000D01*
X118194670Y-102055000D01*
X117630493Y-102288690D01*
X117495000Y-102424183D01*
X117495000Y-102014670D01*
X117329451Y-101614999D01*
X121128457Y-101614999D01*
X121045908Y-102030000D01*
G36*
X124029375Y-118340625D02*
X124327761Y-118540000D01*
X124029375Y-118739375D01*
X123830000Y-119037761D01*
X123630625Y-118739375D01*
X123332239Y-118540000D01*
X123630625Y-118340625D01*
X123830000Y-118042239D01*
X124029375Y-118340625D01*
X124029375Y-118340625D01*
G37*
X124029375Y-118340625D02*
X124327761Y-118540000D01*
X124029375Y-118739375D01*
X123830000Y-119037761D01*
X123630625Y-118739375D01*
X123332239Y-118540000D01*
X123630625Y-118340625D01*
X123830000Y-118042239D01*
X124029375Y-118340625D01*
G36*
X201823750Y-90673000D02*
X203073000Y-90673000D01*
X203073000Y-90653000D01*
X203327000Y-90653000D01*
X203327000Y-90673000D01*
X203347000Y-90673000D01*
X203347000Y-90927000D01*
X203327000Y-90927000D01*
X203327000Y-92176250D01*
X203485750Y-92335000D01*
X204226309Y-92335000D01*
X204459698Y-92238327D01*
X204601369Y-92096657D01*
X204604571Y-96419787D01*
X204501310Y-96170493D01*
X204069507Y-95738690D01*
X203505330Y-95505000D01*
X202894670Y-95505000D01*
X202330493Y-95738690D01*
X202195000Y-95874183D01*
X202195000Y-95464670D01*
X201961310Y-94900493D01*
X201529507Y-94468690D01*
X200965330Y-94235000D01*
X200354670Y-94235000D01*
X199790493Y-94468690D01*
X199685000Y-94574183D01*
X199685000Y-91615157D01*
X200270162Y-91029996D01*
X200354670Y-91065000D01*
X200576243Y-91065000D01*
X200225811Y-91415432D01*
X200014950Y-91924496D01*
X200014950Y-92475504D01*
X200225811Y-92984568D01*
X200615432Y-93374189D01*
X201124496Y-93585050D01*
X201675504Y-93585050D01*
X202184568Y-93374189D01*
X202574189Y-92984568D01*
X202785050Y-92475504D01*
X202785050Y-92335000D01*
X202914250Y-92335000D01*
X203073000Y-92176250D01*
X203073000Y-90927000D01*
X201946017Y-90927000D01*
X201675504Y-90814950D01*
X201545867Y-90814950D01*
X201755784Y-90605034D01*
X201823750Y-90673000D01*
X201823750Y-90673000D01*
G37*
X201823750Y-90673000D02*
X203073000Y-90673000D01*
X203073000Y-90653000D01*
X203327000Y-90653000D01*
X203327000Y-90673000D01*
X203347000Y-90673000D01*
X203347000Y-90927000D01*
X203327000Y-90927000D01*
X203327000Y-92176250D01*
X203485750Y-92335000D01*
X204226309Y-92335000D01*
X204459698Y-92238327D01*
X204601369Y-92096657D01*
X204604571Y-96419787D01*
X204501310Y-96170493D01*
X204069507Y-95738690D01*
X203505330Y-95505000D01*
X202894670Y-95505000D01*
X202330493Y-95738690D01*
X202195000Y-95874183D01*
X202195000Y-95464670D01*
X201961310Y-94900493D01*
X201529507Y-94468690D01*
X200965330Y-94235000D01*
X200354670Y-94235000D01*
X199790493Y-94468690D01*
X199685000Y-94574183D01*
X199685000Y-91615157D01*
X200270162Y-91029996D01*
X200354670Y-91065000D01*
X200576243Y-91065000D01*
X200225811Y-91415432D01*
X200014950Y-91924496D01*
X200014950Y-92475504D01*
X200225811Y-92984568D01*
X200615432Y-93374189D01*
X201124496Y-93585050D01*
X201675504Y-93585050D01*
X202184568Y-93374189D01*
X202574189Y-92984568D01*
X202785050Y-92475504D01*
X202785050Y-92335000D01*
X202914250Y-92335000D01*
X203073000Y-92176250D01*
X203073000Y-90927000D01*
X201946017Y-90927000D01*
X201675504Y-90814950D01*
X201545867Y-90814950D01*
X201755784Y-90605034D01*
X201823750Y-90673000D01*
G36*
X204599446Y-89501420D02*
X204459698Y-89361673D01*
X204324956Y-89305861D01*
X204501310Y-89129507D01*
X204598996Y-88893672D01*
X204599446Y-89501420D01*
X204599446Y-89501420D01*
G37*
X204599446Y-89501420D02*
X204459698Y-89361673D01*
X204324956Y-89305861D01*
X204501310Y-89129507D01*
X204598996Y-88893672D01*
X204599446Y-89501420D01*
G36*
X204592401Y-79990406D02*
X204501310Y-79770493D01*
X204069507Y-79338690D01*
X203505330Y-79105000D01*
X202894670Y-79105000D01*
X202330493Y-79338690D01*
X202195000Y-79474183D01*
X202195000Y-79064670D01*
X201961310Y-78500493D01*
X201529507Y-78068690D01*
X200965330Y-77835000D01*
X200354670Y-77835000D01*
X199790493Y-78068690D01*
X199358690Y-78500493D01*
X199125000Y-79064670D01*
X199125000Y-79675330D01*
X199358690Y-80239507D01*
X199759183Y-80640000D01*
X199358690Y-81040493D01*
X199125000Y-81604670D01*
X199125000Y-82215330D01*
X199358690Y-82779507D01*
X199759183Y-83180000D01*
X199358690Y-83580493D01*
X199125000Y-84144670D01*
X199125000Y-84755330D01*
X199358690Y-85319507D01*
X199759183Y-85720000D01*
X199358690Y-86120493D01*
X199125000Y-86684670D01*
X199125000Y-86884843D01*
X195715000Y-83474843D01*
X195715000Y-82676314D01*
X195799507Y-82641310D01*
X196231310Y-82209507D01*
X196465000Y-81645330D01*
X196465000Y-81423757D01*
X196815432Y-81774189D01*
X197324496Y-81985050D01*
X197875504Y-81985050D01*
X198384568Y-81774189D01*
X198774189Y-81384568D01*
X198985050Y-80875504D01*
X198985050Y-80324496D01*
X198774189Y-79815432D01*
X198384568Y-79425811D01*
X197875504Y-79214950D01*
X197735000Y-79214950D01*
X197735000Y-79085750D01*
X197576250Y-78927000D01*
X196327000Y-78927000D01*
X196327000Y-80053983D01*
X196214950Y-80324496D01*
X196214950Y-80454133D01*
X196005034Y-80244217D01*
X196073000Y-80176250D01*
X196073000Y-78927000D01*
X196053000Y-78927000D01*
X196053000Y-78673000D01*
X196073000Y-78673000D01*
X196073000Y-78653000D01*
X196327000Y-78653000D01*
X196327000Y-78673000D01*
X197576250Y-78673000D01*
X197735000Y-78514250D01*
X197735000Y-77773691D01*
X197638327Y-77540302D01*
X197508026Y-77410000D01*
X204590490Y-77410000D01*
X204592401Y-79990406D01*
X204592401Y-79990406D01*
G37*
X204592401Y-79990406D02*
X204501310Y-79770493D01*
X204069507Y-79338690D01*
X203505330Y-79105000D01*
X202894670Y-79105000D01*
X202330493Y-79338690D01*
X202195000Y-79474183D01*
X202195000Y-79064670D01*
X201961310Y-78500493D01*
X201529507Y-78068690D01*
X200965330Y-77835000D01*
X200354670Y-77835000D01*
X199790493Y-78068690D01*
X199358690Y-78500493D01*
X199125000Y-79064670D01*
X199125000Y-79675330D01*
X199358690Y-80239507D01*
X199759183Y-80640000D01*
X199358690Y-81040493D01*
X199125000Y-81604670D01*
X199125000Y-82215330D01*
X199358690Y-82779507D01*
X199759183Y-83180000D01*
X199358690Y-83580493D01*
X199125000Y-84144670D01*
X199125000Y-84755330D01*
X199358690Y-85319507D01*
X199759183Y-85720000D01*
X199358690Y-86120493D01*
X199125000Y-86684670D01*
X199125000Y-86884843D01*
X195715000Y-83474843D01*
X195715000Y-82676314D01*
X195799507Y-82641310D01*
X196231310Y-82209507D01*
X196465000Y-81645330D01*
X196465000Y-81423757D01*
X196815432Y-81774189D01*
X197324496Y-81985050D01*
X197875504Y-81985050D01*
X198384568Y-81774189D01*
X198774189Y-81384568D01*
X198985050Y-80875504D01*
X198985050Y-80324496D01*
X198774189Y-79815432D01*
X198384568Y-79425811D01*
X197875504Y-79214950D01*
X197735000Y-79214950D01*
X197735000Y-79085750D01*
X197576250Y-78927000D01*
X196327000Y-78927000D01*
X196327000Y-80053983D01*
X196214950Y-80324496D01*
X196214950Y-80454133D01*
X196005034Y-80244217D01*
X196073000Y-80176250D01*
X196073000Y-78927000D01*
X196053000Y-78927000D01*
X196053000Y-78673000D01*
X196073000Y-78673000D01*
X196073000Y-78653000D01*
X196327000Y-78653000D01*
X196327000Y-78673000D01*
X197576250Y-78673000D01*
X197735000Y-78514250D01*
X197735000Y-77773691D01*
X197638327Y-77540302D01*
X197508026Y-77410000D01*
X204590490Y-77410000D01*
X204592401Y-79990406D01*
G36*
X196072998Y-77423748D02*
X196059250Y-77410000D01*
X196072998Y-77410000D01*
X196072998Y-77423748D01*
X196072998Y-77423748D01*
G37*
X196072998Y-77423748D02*
X196059250Y-77410000D01*
X196072998Y-77410000D01*
X196072998Y-77423748D01*
G36*
X196327002Y-77423748D02*
X196327002Y-77410000D01*
X196340750Y-77410000D01*
X196327002Y-77423748D01*
X196327002Y-77423748D01*
G37*
X196327002Y-77423748D02*
X196327002Y-77410000D01*
X196340750Y-77410000D01*
X196327002Y-77423748D01*
G04 #@! TD*
M02*
