M48
;DRILL file {KiCad 5.0.2-bee76a0~70~ubuntu18.04.1} date Do 26 Sep 2019 00:30:14 CEST
;FORMAT={-:-/ absolute / inch / decimal}
FMAT,2
INCH,TZ
T1C0.0157
T2C0.0315
T3C0.0394
%
G90
G05
T1
X5.5157Y-5.3976
X5.5197Y-5.2047
X5.9488Y-5.2087
X6.0433Y-5.2087
X6.1614Y-5.2244
X6.2087Y-5.2441
X6.4449Y-5.1693
X6.626Y-5.2441
X6.8346Y-5.1811
X6.937Y-5.2126
X7.0866Y-5.378
X7.4921Y-5.1181
X7.5354Y-4.9055
X7.5394Y-4.626
X7.5551Y-5.2047
X7.6024Y-4.6929
X7.6654Y-4.4051
X7.6929Y-5.1693
X7.7047Y-5.4055
X7.7283Y-4.9567
X7.7461Y-5.187
X7.7756Y-4.7283
X7.7859Y-5.0684
X7.7913Y-4.9488
T2
X7.9Y-3.7705
X7.9Y-3.8705
X7.9Y-3.9705
X7.9Y-4.0705
X7.9Y-4.1705
X8.Y-3.8205
X8.Y-3.9205
X8.Y-4.0205
X8.Y-4.1205
X8.Y-4.2205
X5.614Y-3.2094
X5.664Y-3.1094
X5.714Y-3.2094
X5.764Y-3.1094
X5.2695Y-3.2094
X5.3195Y-3.1094
X5.3695Y-3.2094
X5.4195Y-3.1094
X5.4961Y-5.5961
X5.5461Y-5.4961
X5.5961Y-5.5961
X5.6461Y-5.4961
X5.6961Y-5.5961
X5.7461Y-5.4961
X7.9075Y-5.063
X7.9075Y-5.163
X7.9075Y-5.263
X8.0075Y-5.113
X8.0075Y-5.213
X8.0075Y-5.313
X4.5805Y-3.2094
X4.6305Y-3.1094
X4.6805Y-3.2094
X4.7305Y-3.1094
X4.5654Y-4.0283
X4.5654Y-4.1283
X4.5654Y-4.2283
X4.5654Y-4.3283
X4.5654Y-4.4283
X4.6654Y-4.0783
X4.6654Y-4.1783
X4.6654Y-4.2783
X4.6654Y-4.3783
X4.6654Y-4.4783
X7.9035Y-4.6063
X7.9035Y-4.7063
X7.9035Y-4.8063
X8.0035Y-4.6563
X8.0035Y-4.7563
X8.0035Y-4.8563
X4.925Y-3.2094
X4.975Y-3.1094
X5.025Y-3.2094
X5.075Y-3.1094
X7.7303Y-5.598
X7.7803Y-5.498
X7.8303Y-5.598
X7.8803Y-5.498
X7.9303Y-5.598
X7.9803Y-5.498
X7.2815Y-5.5961
X7.3315Y-5.4961
X7.3815Y-5.5961
X7.4315Y-5.4961
X7.4815Y-5.5961
X7.5315Y-5.4961
X7.2744Y-3.2024
X7.3244Y-3.1024
X7.3744Y-3.2024
X7.4244Y-3.1024
X7.4744Y-3.2024
X7.5244Y-3.1024
X7.5744Y-3.2024
X7.6244Y-3.1024
X7.6744Y-3.2024
X7.7244Y-3.1024
X5.1533Y-5.5953
X5.2033Y-5.4953
X5.2533Y-5.5953
X5.3033Y-5.4953
X5.9429Y-5.5961
X5.9929Y-5.4961
X6.0429Y-5.5961
X6.0929Y-5.4961
X6.1429Y-5.5961
X6.1929Y-5.4961
X4.5654Y-4.6681
X4.5654Y-4.7681
X4.5654Y-4.8681
X4.5654Y-4.9681
X4.5654Y-5.0681
X4.6654Y-4.7181
X4.6654Y-4.8181
X4.6654Y-4.9181
X4.6654Y-5.0181
X4.6654Y-5.1181
X6.8327Y-5.5961
X6.8827Y-5.4961
X6.9327Y-5.5961
X6.9827Y-5.4961
X7.0327Y-5.5961
X7.0827Y-5.4961
X7.9Y-3.1248
X7.9Y-3.2248
X7.9Y-3.3248
X7.9Y-3.4248
X7.9Y-3.5248
X8.Y-3.1748
X8.Y-3.2748
X8.Y-3.3748
X8.Y-3.4748
X8.Y-3.5748
X6.3878Y-5.5961
X6.4378Y-5.4961
X6.4878Y-5.5961
X6.5378Y-5.4961
X6.5878Y-5.5961
X6.6378Y-5.4961
T3
X7.3051Y-3.4169
X7.3051Y-3.5169
X7.3051Y-3.6169
X7.3051Y-3.7169
X7.3051Y-3.8169
X7.3051Y-3.9169
X7.3051Y-4.0169
X7.3051Y-4.1169
X7.3051Y-4.2169
X7.3051Y-4.3169
X7.3051Y-4.4169
X7.3051Y-4.5169
X7.3051Y-4.6169
X7.3051Y-4.7169
X7.3051Y-4.8169
X7.3051Y-4.9169
X7.3051Y-5.0169
X7.3051Y-5.1169
X7.3051Y-5.2169
X7.3051Y-5.3169
X7.4051Y-3.4169
X7.4051Y-3.5169
X7.4051Y-3.6169
X7.4051Y-3.7169
X7.4051Y-3.8169
X7.4051Y-3.9169
X7.4051Y-4.0169
X7.4051Y-4.1169
X7.4051Y-4.2169
X7.4051Y-4.3169
X7.4051Y-4.4169
X7.4051Y-4.5169
X7.4051Y-4.6169
X7.4051Y-4.7169
X7.4051Y-4.8169
X7.4051Y-4.9169
X7.4051Y-5.0169
X7.4051Y-5.1169
X7.4051Y-5.2169
X7.4051Y-5.3169
X4.8252Y-3.4169
X4.8252Y-3.5169
X4.8252Y-3.6169
X4.8252Y-3.7169
X4.8252Y-3.8169
X4.8252Y-3.9169
X4.8252Y-4.0169
X4.8252Y-4.1169
X4.8252Y-4.2169
X4.8252Y-4.3169
X4.8252Y-4.4169
X4.8252Y-4.5169
X4.8252Y-4.6169
X4.8252Y-4.7169
X4.8252Y-4.8169
X4.8252Y-4.9169
X4.8252Y-5.0169
X4.8252Y-5.1169
X4.8252Y-5.2169
X4.8252Y-5.3169
X4.9252Y-3.4169
X4.9252Y-3.5169
X4.9252Y-3.6169
X4.9252Y-3.7169
X4.9252Y-3.8169
X4.9252Y-3.9169
X4.9252Y-4.0169
X4.9252Y-4.1169
X4.9252Y-4.2169
X4.9252Y-4.3169
X4.9252Y-4.4169
X4.9252Y-4.5169
X4.9252Y-4.6169
X4.9252Y-4.7169
X4.9252Y-4.8169
X4.9252Y-4.9169
X4.9252Y-5.0169
X4.9252Y-5.1169
X4.9252Y-5.2169
X4.9252Y-5.3169
X5.9252Y-3.1071
X5.9252Y-3.2071
X5.9252Y-3.3071
X6.6378Y-3.1126
X6.6378Y-3.2126
T0
M30
